<?xml version="1.0" encoding="UTF-8" standalone="no"?>
<svg width="330px" height="199px" viewBox="0 0 330 199" version="1.1" xmlns="http://www.w3.org/2000/svg" xmlns:xlink="http://www.w3.org/1999/xlink">
    <!-- Generator: Sketch 40.3 (33839) - http://www.bohemiancoding.com/sketch -->
    <title>bubbles2</title>
    <desc>Created with Sketch.</desc>
    <defs>
        <polygon id="path-1" points="23.2820599 0.497 0.623977057 0.497 0.623977057 22.530125 23.2820599 22.530125 23.2820599 0.497"></polygon>
    </defs>
    <g id="Page-1" stroke="none" stroke-width="1" fill="none" fill-rule="evenodd">
        <g id="Desktop-HD" transform="translate(-970.000000, -568.000000)">
            <g id="Page-1" transform="translate(-130.000000, 343.000000)">
                <g id="bubbles2" transform="translate(1100.000000, 224.000000)">
                    <path d="M254.4238,87.1583 C254.4238,87.1583 257.8978,42.3723 225.1838,49.9293 C199.8768,55.7743 202.2398,82.1273 202.2398,82.1273 C202.2398,82.1273 202.7248,75.7333 197.5378,77.0433 C192.3508,78.3533 193.8158,82.9343 193.8158,82.9343 C193.8158,82.9343 177.4188,50.5613 148.9108,60.5523 C112.4718,73.3223 134.2688,108.4793 134.2688,108.4793 C134.2688,108.4793 131.3028,101.4983 124.5458,105.7523 C117.7888,110.0063 121.5108,114.2603 121.5108,114.2603 L139.2398,156.2623 L214.0188,164.7663 L260.8038,124.1603 L254.4238,87.1583 Z" id="Fill-1" fill="#ACD9EB"></path>
                    <path d="M254.4238,87.1583 C254.4238,87.1583 257.8978,42.3723 225.1838,49.9293 C199.8768,55.7743 202.2398,82.1273 202.2398,82.1273 C202.2398,82.1273 202.7248,75.7333 197.5378,77.0433 C192.3508,78.3533 193.8158,82.9343 193.8158,82.9343 C193.8158,82.9343 177.4188,50.5613 148.9108,60.5523 C112.4718,73.3223 134.2688,108.4793 134.2688,108.4793 C134.2688,108.4793 131.3028,101.4983 124.5458,105.7523 C117.7888,110.0063 121.5108,114.2603 121.5108,114.2603 L139.2398,156.2623 L214.0188,164.7663 L260.8038,124.1603 L254.4238,87.1583 Z" id="Stroke-3" stroke="#000000"></path>
                    <g id="Group-8" transform="translate(0.000000, 89.503000)">
                        <path d="M329.0635,109.8379 L299.6495,24.1659 C299.6495,24.1659 279.1335,-1.0001 254.4235,0.2999 C214.0185,2.4259 223.2605,37.5139 223.2605,37.5139 C223.2605,37.5139 203.9025,32.4439 189.5635,37.5139 C175.2235,42.5839 169.8905,59.8999 169.8905,59.8999 C169.8905,59.8999 167.2315,44.3099 147.5615,44.5199 C143.7745,44.5599 138.4285,48.2979 138.4285,48.2979 C138.4285,48.2979 119.7585,4.4229 84.9255,15.1289 C44.9525,27.4149 59.1745,66.3449 59.1745,66.3449 C59.1745,66.3449 32.1945,48.3299 12.5215,63.9679 C-7.1495,79.6059 3.2435,106.2169 3.2435,106.2169" id="Fill-5" fill="#CEE3EB"></path>
                        <path d="M329.0635,109.8379 L299.6495,24.1659 C299.6495,24.1659 279.1335,-1.0001 254.4235,0.2999 C214.0185,2.4259 223.2605,37.5139 223.2605,37.5139 C223.2605,37.5139 203.9025,32.4439 189.5635,37.5139 C175.2235,42.5839 169.8905,59.8999 169.8905,59.8999 C169.8905,59.8999 167.2315,44.3099 147.5615,44.5199 C143.7745,44.5599 138.4285,48.2979 138.4285,48.2979 C138.4285,48.2979 119.7585,4.4229 84.9255,15.1289 C44.9525,27.4149 59.1745,66.3449 59.1745,66.3449 C59.1745,66.3449 32.1945,48.3299 12.5215,63.9679 C-7.1495,79.6059 3.2435,106.2169 3.2435,106.2169" id="Stroke-7" stroke="#000000"></path>
                    </g>
                    <path d="M304.4004,130.4781 C304.4004,130.4781 301.2114,87.1381 255.4894,87.1431 C214.0164,87.1471 223.2604,127.0171 223.2604,127.0171 L227.3114,129.7801 C227.3114,129.7801 215.7524,88.7341 257.0844,92.4581 C296.4254,96.0041 304.4004,130.4781 304.4004,130.4781" id="Fill-9" fill="#000000"></path>
                    <path d="M193.8154,82.9342 C193.8154,82.9342 188.0484,56.0422 161.3824,55.7782 C139.0534,55.5572 129.8234,67.2552 125.7644,79.7022 C120.4464,96.0042 134.2684,108.4792 134.2684,108.4792 C134.2684,108.4792 126.1314,96.0042 130.0164,81.3392 C134.4254,64.6962 146.0534,60.3662 164.2394,61.6262 C182.4224,62.8862 193.8154,82.9342 193.8154,82.9342" id="Fill-11" fill="#000000"></path>
                    <path d="M254.4238,73.3223 C254.4238,73.3223 249.6388,44.6083 224.6528,47.2683 C199.6618,49.9283 202.3218,73.3223 202.3218,73.3223 C202.3218,73.3223 204.3948,52.8433 228.3308,52.8433 C247.5148,52.8433 254.4238,73.3223 254.4238,73.3223" id="Fill-13" fill="#000000"></path>
                    <path d="M244.8545,12.1817 C244.8545,17.3547 240.6615,21.5477 235.4885,21.5477 C230.3155,21.5477 226.1215,17.3547 226.1215,12.1817 C226.1215,7.0087 230.3155,2.8147 235.4885,2.8147 C240.6615,2.8147 244.8545,7.0087 244.8545,12.1817" id="Fill-15" fill="#ACD9EB"></path>
                    <path d="M244.8545,12.1817 C244.8545,17.3547 240.6615,21.5477 235.4885,21.5477 C230.3155,21.5477 226.1215,17.3547 226.1215,12.1817 C226.1215,7.0087 230.3155,2.8147 235.4885,2.8147 C240.6615,2.8147 244.8545,7.0087 244.8545,12.1817 Z" id="Stroke-17" stroke="#000000"></path>
                    <path d="M187.0742,29.8033 C187.0742,37.5043 180.8312,43.7483 173.1272,43.7483 C165.4272,43.7483 159.1802,37.5043 159.1802,29.8033 C159.1802,22.0993 165.4272,15.8573 173.1272,15.8573 C180.8312,15.8573 187.0742,22.0993 187.0742,29.8033" id="Fill-19" fill="#ACD9EB"></path>
                    <path d="M187.0742,29.8033 C187.0742,37.5043 180.8312,43.7483 173.1272,43.7483 C165.4272,43.7483 159.1802,37.5043 159.1802,29.8033 C159.1802,22.0993 165.4272,15.8573 173.1272,15.8573 C180.8312,15.8573 187.0742,22.0993 187.0742,29.8033 Z" id="Stroke-21" stroke="#000000"></path>
                    <g id="Group-25" transform="translate(224.000000, 0.503000)">
                        <mask id="mask-2" fill="white">
                            <use xlink:href="#path-1"></use>
                        </mask>
                        <g id="Clip-24"></g>
                        <path d="M11.6553,19.8442 C9.2763,19.8822 7.1413,18.9702 5.6113,17.4622 C4.0803,15.9542 3.1553,13.8552 3.1953,11.5312 C3.2343,9.2072 4.2343,7.1002 5.8183,5.5662 C7.4043,4.0312 9.5713,3.0682 11.9493,3.0412 C14.3263,3.0132 16.4633,3.9232 17.9943,5.4172 C19.5253,6.9102 20.4523,8.9902 20.4123,11.3052 C20.3733,13.6202 19.3733,15.7352 17.7893,17.2822 C16.2033,18.8312 14.0333,19.8072 11.6553,19.8442 M11.9353,0.4972 C6.2033,0.9362 1.3873,5.0632 0.6993,11.2552 C0.0113,16.7582 4.1373,21.5732 8.9543,22.2602 C12.3933,22.9482 15.1453,22.2602 17.8963,20.8852 C20.6463,19.5092 22.2113,16.7652 22.9413,13.7772 C23.8243,10.1552 22.7123,9.1912 22.7123,7.1272 C22.0233,4.3762 19.2713,3.0002 16.2553,1.2972 C14.9323,0.7652 13.4723,0.4792 11.9353,0.4972" id="Fill-23" fill="#000000" mask="url(#mask-2)"></path>
                    </g>
                    <path d="M173.124,42.4464 C167.02,42.4464 162.071,37.4984 162.071,31.3954 C162.071,25.2894 167.02,20.3414 173.124,20.3414 C179.229,20.3414 184.177,25.2894 184.177,31.3954 C184.177,37.4984 179.229,42.4464 173.124,42.4464 M173.124,15.8574 C165.424,15.8574 159.181,22.0994 159.181,29.8004 C159.181,37.4994 165.424,43.7424 173.124,43.7424 C180.825,43.7424 187.067,37.4994 187.067,29.8004 C187.067,22.0994 180.825,15.8574 173.124,15.8574" id="Fill-26" fill="#000000"></path>
                    <path d="M247.5146,147.4429 C247.5146,147.4429 230.6636,110.9869 191.6906,122.4499 C152.3476,134.0229 173.0816,178.5889 173.0816,178.5889 C173.0816,178.5889 163.4166,134.8839 194.8806,128.1849 C229.0226,120.9149 247.5146,147.4429 247.5146,147.4429" id="Fill-28" fill="#000000"></path>
                </g>
            </g>
        </g>
    </g>
</svg>