<?xml version="1.0" encoding="UTF-8" standalone="no"?>
<svg width="710px" height="332px" viewBox="0 0 710 332" version="1.1" xmlns="http://www.w3.org/2000/svg" xmlns:xlink="http://www.w3.org/1999/xlink">
    <!-- Generator: Sketch 40.3 (33839) - http://www.bohemiancoding.com/sketch -->
    <title>bubbles1</title>
    <desc>Created with Sketch.</desc>
    <defs>
        <polygon id="path-1" points="4.43090363 0.178833333 0.349086205 0.178833333 0.349086205 30.0770453 4.43090363 30.0770453 4.43090363 0.178833333"></polygon>
    </defs>
    <g id="Page-1" stroke="none" stroke-width="1" fill="none" fill-rule="evenodd">
        <g id="Desktop-HD" transform="translate(0.000000, -626.000000)">
            <g id="Page-1" transform="translate(-130.000000, 343.000000)">
                <g id="bubbles1" transform="translate(0.000000, 283.000000)">
                    <path d="M264.076141,122.34838 C264.076141,122.34838 287.724423,84.79708 322.98222,108.914913 C339.745216,120.381213 341.459753,137.113847 341.459753,137.113847 C341.459753,137.113847 347.818344,127.229913 355.886537,129.24148 C366.37852,131.856147 361.787507,143.015347 361.787507,143.015347 C361.787507,143.015347 370.9683,143.67148 372.9357,151.540147 C374.903101,159.408813 361.787507,167.93238 361.787507,167.93238 C361.787507,167.93238 380.078784,163.402347 389.986097,171.211813 C400.479313,179.481313 401.790502,197.76178 401.790502,197.76178 C401.790502,197.76178 425.088476,166.327813 455.566537,167.93238 C505.405304,170.554447 494.004247,213.829647 494.004247,213.829647 C494.004247,213.829647 517.884423,207.576647 535.570062,213.829647 C553.258167,220.082647 559.835084,241.439047 559.835084,241.439047 C559.835084,241.439047 563.114907,222.47038 587.377463,222.47038 C595.059577,222.47038 598.642837,227.131147 598.642837,227.131147 C598.642837,227.131147 621.673145,173.017413 664.63896,186.220247 C713.944863,201.37298 696.182749,246.456247 696.182749,246.456247 C696.182749,246.456247 729.682837,227.16938 753.947859,246.456247 C778.211648,265.743113 756.047242,331.204747 756.047242,331.204747 L264.076141,331.204747 L264.076141,122.34838 Z" id="Fill-1" fill="#D2EFFC"></path>
                    <path d="M551.255982,79.0878567 C551.255982,89.3652233 542.92259,97.69639 532.644,97.69639 C522.36541,97.69639 514.032018,89.3652233 514.032018,79.0878567 C514.032018,68.8092567 522.36541,60.47809 532.644,60.47809 C542.92259,60.47809 551.255982,68.8092567 551.255982,79.0878567" id="Fill-3" fill="#A7E0F9"></path>
                    <path d="M807.65667,191.436753 C807.65667,206.22812 795.663542,218.21982 780.869181,218.21982 C766.074819,218.21982 754.080458,206.22812 754.080458,191.436753 C754.080458,176.64292 766.074819,164.65122 780.869181,164.65122 C795.663542,164.65122 807.65667,176.64292 807.65667,191.436753" id="Fill-5" fill="#A7E0F9"></path>
                    <path d="M839.055031,263.65656 C839.055031,273.15446 831.353181,280.855393 821.85415,280.855393 C812.352652,280.855393 804.649568,273.15446 804.649568,263.65656 C804.649568,254.156193 812.352652,246.456493 821.85415,246.456493 C831.353181,246.456493 839.055031,254.156193 839.055031,263.65656" id="Fill-7" fill="#A7E0F9"></path>
                    <path d="M455.566167,164.67083 C455.566167,164.67083 450.920881,111.16883 491.634361,118.755063 C530.326167,125.963897 516.426079,158.46593 516.426079,158.46593 C516.426079,158.46593 519.337093,150.579997 525.733921,152.195663 C532.130749,153.81133 530.326167,159.459997 530.326167,159.459997 C530.326167,159.459997 550.550308,119.53453 585.713128,131.856763 C630.659912,147.60643 603.773744,190.965497 603.773744,190.965497 C603.773744,190.965497 607.43348,182.358063 615.766872,187.604663 C624.101498,192.85003 619.511718,198.09663 619.511718,198.09663 L597.642115,249.897863 L505.404934,260.387363 L447.69533,210.30663 L455.566167,164.67083 Z" id="Fill-9" fill="#A7E0F9"></path>
                    <path d="M455.566167,164.67083 C455.566167,164.67083 450.920881,111.16883 491.634361,118.755063 C530.326167,125.963897 516.426079,158.46593 516.426079,158.46593 C516.426079,158.46593 519.337093,150.579997 525.733921,152.195663 C532.130749,153.81133 530.326167,159.459997 530.326167,159.459997 C530.326167,159.459997 550.550308,119.53453 585.713128,131.856763 C630.659912,147.60643 603.773744,190.965497 603.773744,190.965497 C603.773744,190.965497 607.43348,182.358063 615.766872,187.604663 C624.101498,192.85003 619.511718,198.09663 619.511718,198.09663 L597.642115,249.897863 L505.404934,260.387363 L447.69533,210.30663 L455.566167,164.67083 Z" id="Stroke-11" stroke="#000000"></path>
                    <path d="M264.076141,122.34838 C264.076141,122.34838 287.724423,84.79708 322.98222,108.914913 C339.745216,120.381213 341.459753,137.113847 341.459753,137.113847 C341.459753,137.113847 347.818344,127.229913 355.886537,129.24148 C366.37852,131.856147 361.787507,143.015347 361.787507,143.015347 C361.787507,143.015347 370.9683,143.67148 372.9357,151.540147 C374.903101,159.408813 361.787507,167.93238 361.787507,167.93238 C361.787507,167.93238 380.078784,163.402347 389.986097,171.211813 C400.479313,179.481313 401.790502,197.76178 401.790502,197.76178 C401.790502,197.76178 425.088476,166.327813 455.566537,167.93238 C505.405304,170.554447 494.004247,213.829647 494.004247,213.829647 C494.004247,213.829647 517.884423,207.576647 535.570062,213.829647 C553.258167,220.082647 559.835084,241.439047 559.835084,241.439047 C559.835084,241.439047 563.114907,222.47038 587.377463,222.47038 C595.059577,222.47038 598.642837,227.131147 598.642837,227.131147 C598.642837,227.131147 621.673145,173.017413 664.63896,186.220247 C713.944863,201.37298 696.182749,246.456247 696.182749,246.456247 C696.182749,246.456247 729.682837,227.16938 753.947859,246.456247 C778.211648,265.743113 756.047242,331.204747 756.047242,331.204747 L264.076141,331.204747 L264.076141,122.34838 Z" id="Fill-13" fill="#D2EFFC"></path>
                    <path d="M264.076141,122.34838 C264.076141,122.34838 287.724423,84.79708 322.98222,108.914913 C339.745216,120.381213 341.459753,137.113847 341.459753,137.113847 C341.459753,137.113847 347.818344,127.229913 355.886537,129.24148 C366.37852,131.856147 361.787507,143.015347 361.787507,143.015347 C361.787507,143.015347 370.9683,143.67148 372.9357,151.540147 C374.903101,159.408813 361.787507,167.93238 361.787507,167.93238 C361.787507,167.93238 380.078784,163.402347 389.986097,171.211813 C400.479313,179.481313 401.790502,197.76178 401.790502,197.76178 C401.790502,197.76178 425.088476,166.327813 455.566537,167.93238 C505.405304,170.554447 494.004247,213.829647 494.004247,213.829647 C494.004247,213.829647 517.884423,207.576647 535.570062,213.829647 C553.258167,220.082647 559.835084,241.439047 559.835084,241.439047 C559.835084,241.439047 563.114907,222.47038 587.377463,222.47038 C595.059577,222.47038 598.642837,227.131147 598.642837,227.131147 C598.642837,227.131147 621.673145,173.017413 664.63896,186.220247 C713.944863,201.37298 696.182749,246.456247 696.182749,246.456247 C696.182749,246.456247 729.682837,227.16938 753.947859,246.456247 C778.211648,265.743113 756.047242,331.204747 756.047242,331.204747 L264.076141,331.204747 L264.076141,122.34838 Z" id="Stroke-15" stroke="#000000"></path>
                    <path d="M781.346414,214.788193 C774.543771,214.895493 768.438044,212.286993 764.060423,207.976493 C759.685269,203.663527 757.036987,197.65966 757.1517,191.015693 C757.267648,184.370493 760.126855,178.34196 764.656194,173.954993 C769.186767,169.566793 775.386238,166.815227 782.187648,166.733827 C788.985357,166.654893 795.097251,169.259693 799.477339,173.530727 C803.857427,177.800527 806.504476,183.74396 806.392229,190.365727 C806.276282,196.987493 803.420775,203.03946 798.887736,207.463427 C794.35593,211.888627 788.147824,214.682127 781.346414,214.788193 M782.148176,159.463327 C765.751524,160.716393 751.979718,172.520627 750.012317,190.223893 C748.044916,205.961227 759.849322,219.731393 773.621128,221.69856 C783.456899,223.664493 791.327736,221.69856 799.196106,217.764227 C807.066943,213.829893 811.538308,205.983427 813.624123,197.43766 C816.153991,187.07766 812.969145,184.322393 812.969145,178.422127 C811.000511,170.55346 803.132141,166.617893 794.502714,161.748693 C790.718396,160.227993 786.545533,159.407827 782.148176,159.463327" id="Fill-17" fill="#000000"></path>
                    <path d="M464.089639,239.02122 C464.089639,239.02122 484.87378,194.05882 532.947436,208.197753 C581.475013,222.469887 555.900035,277.433387 555.900035,277.433387 C555.900035,277.433387 567.820388,223.531787 529.012634,215.269687 C486.896687,206.303353 464.089639,239.02122 464.089639,239.02122" id="Fill-19" fill="#000000"></path>
                    <path d="M393.919789,218.097967 C393.919789,218.097967 400.99133,167.219267 454.253004,164.651467 C505.348687,162.1885 495.082432,213.569167 495.082432,213.569167 L489.008775,217.238333 C489.008775,217.238333 499.978115,167.321633 452.285604,171.207867 C403.721022,175.165633 393.919789,218.097967 393.919789,218.097967" id="Fill-21" fill="#000000"></path>
                    <path d="M821.848969,279.250333 C814.318573,279.250333 808.215313,273.146567 808.215313,265.619533 C808.215313,258.090033 814.318573,251.9875 821.848969,251.9875 C829.378132,251.9875 835.482626,258.090033 835.482626,265.619533 C835.482626,273.146567 829.378132,279.250333 821.848969,279.250333 M821.848969,246.456 C812.349938,246.456 804.650555,254.1557 804.650555,263.6536 C804.650555,273.149033 812.349938,280.848733 821.848969,280.848733 C831.345533,280.848733 839.044916,273.149033 839.044916,263.6536 C839.044916,254.1557 831.345533,246.456 821.848969,246.456" id="Fill-23" fill="#000000"></path>
                    <path d="M547.250256,88.1547067 C543.051489,95.8790733 533.385938,98.7367067 525.661885,94.54214 C517.934132,90.3414067 515.074925,80.6770067 519.272458,72.9514067 C523.472458,65.22704 533.139242,62.3694067 540.866996,66.5676733 C548.588581,70.7634733 551.449022,80.4278733 547.250256,88.1547067 M515.56585,69.8680733 C510.269286,79.6138733 513.875982,91.80414 523.622943,97.1013067 C533.366203,102.394773 545.559154,98.78974 550.855718,89.04394 C556.153515,79.3006067 552.545586,67.1078733 542.802326,61.8144067 C533.056599,56.51724 520.861181,60.1222733 515.56585,69.8680733" id="Fill-25" fill="#000000"></path>
                    <path d="M455.566167,147.60643 C455.566167,147.60643 461.467137,112.192497 492.289339,115.473163 C523.112775,118.75383 519.832952,147.60643 519.832952,147.60643 C519.832952,147.60643 517.277181,122.348997 487.750132,122.348997 C464.089515,122.348997 455.566167,147.60643 455.566167,147.60643" id="Fill-27" fill="#000000"></path>
                    <path d="M264.076141,122.34838 C264.076141,122.34838 281.126537,94.8857467 307.357727,99.60818 C333.59015,104.32938 343.296405,123.853047 343.427154,137.113847 C343.636846,158.465313 321.785744,164.651713 321.785744,164.651713 C321.785744,164.651713 342.88689,156.97668 338.836141,135.802813 C334.785392,114.63018 321.841251,107.867813 303.855877,103.93348 C286.134467,100.057113 264.076141,122.34838 264.076141,122.34838" id="Fill-29" fill="#000000"></path>
                    <g id="Group-33" transform="translate(603.171806, 0.054500)">
                        <mask id="mask-2" fill="white">
                            <use xlink:href="#path-1"></use>
                        </mask>
                        <g id="Clip-32"></g>
                        <path d="M3.55168282,0.178216667 C3.55168282,0.178216667 -0.71245815,28.7015167 0.599964758,29.5216833 C1.91238767,30.3430833 4.04384141,30.1765833 4.37194714,29.5216833 C4.70005286,28.8680167 3.55168282,0.178216667 3.55168282,0.178216667" id="Fill-31" fill="#000000" mask="url(#mask-2)"></path>
                    </g>
                    <path d="M647.607189,38.7166633 C647.607189,38.7166633 618.870802,36.2462967 618.133181,37.6066633 C617.396793,38.96703 617.695295,41.08343 618.368775,41.3695633 C619.043489,41.65693 647.607189,38.7166633 647.607189,38.7166633" id="Fill-34" fill="#000000"></path>
                    <path d="M605.181639,78.33984 C605.181639,78.33984 608.645251,49.70924 607.311859,48.92484 C605.977233,48.1416733 603.850714,48.36614 603.54111,49.0309067 C603.231507,49.6932067 605.181639,78.33984 605.181639,78.33984" id="Fill-36" fill="#000000"></path>
                    <path d="M564.896546,37.3688767 C564.896546,37.3688767 593.446678,41.46231 594.260775,40.1463433 C595.073639,38.8303767 594.896018,36.70041 594.238573,36.3772767 C593.582361,36.05291 564.896546,37.3688767 564.896546,37.3688767" id="Fill-38" fill="#000000"></path>
                    <g id="Group-43" transform="translate(0.000000, 102.421167)">
                        <path d="M264.076141,19.9272133 C264.076141,19.9272133 248.709445,0.114946667 224.604775,0.114946667 C184.51667,0.114946667 177.732529,42.39238 177.732529,42.39238 C177.732529,42.39238 159.847066,12.8380133 122.842661,31.9090467 C104.235612,41.4982133 108.657639,73.15788 108.657639,73.15788 C108.657639,73.15788 102.490238,70.7590467 98.7897974,73.84238 C95.0893568,76.9257133 96.322837,85.4554467 96.322837,85.4554467 C96.322837,85.4554467 38.3492687,77.0601467 17.9968458,134.275713 C-0.0995418502,185.14578 38.9660088,217.525713 38.9660088,217.525713 C38.9660088,217.525713 19.1279471,201.901847 6.27878414,217.525713 C-0.314167401,225.54238 0.6689163,228.78358 0.6689163,228.78358 L286.125833,228.78358" id="Fill-40" fill="#D2EFFC"></path>
                        <path d="M264.076141,19.9272133 C264.076141,19.9272133 248.709445,0.114946667 224.604775,0.114946667 C184.51667,0.114946667 177.732529,42.39238 177.732529,42.39238 C177.732529,42.39238 159.847066,12.8380133 122.842661,31.9090467 C104.235612,41.4982133 108.657639,73.15788 108.657639,73.15788 C108.657639,73.15788 102.490238,70.7590467 98.7897974,73.84238 C95.0893568,76.9257133 96.322837,85.4554467 96.322837,85.4554467 C96.322837,85.4554467 38.3492687,77.0601467 17.9968458,134.275713 C-0.0995418502,185.14578 38.9660088,217.525713 38.9660088,217.525713 C38.9660088,217.525713 19.1279471,201.901847 6.27878414,217.525713 C-0.314167401,225.54238 0.6689163,228.78358 0.6689163,228.78358 L286.125833,228.78358" id="Stroke-42" stroke="#000000"></path>
                    </g>
                </g>
            </g>
        </g>
    </g>
</svg>