<?xml version="1.0" encoding="UTF-8" standalone="no"?>
<svg width="871px" height="384px" viewBox="0 0 871 384" version="1.1" xmlns="http://www.w3.org/2000/svg" xmlns:xlink="http://www.w3.org/1999/xlink">
    <!-- Generator: Sketch 40.3 (33839) - http://www.bohemiancoding.com/sketch -->
    <title>monitors</title>
    <desc>Created with Sketch.</desc>
    <defs>
        <polygon id="path-1" points="0.360748948 54 150.555012 54 150.555012 0.461448634 0.360748948 0.461448634 0.360748948 54"></polygon>
        <polygon id="path-3" points="1.35525272e-20 0.7129 1.35525272e-20 307.2339 36.8817 307.2339 36.8817 0.7129 0 0.7129"></polygon>
        <polygon id="path-5" points="37.755 307.1358 37.755 0.6138 0.8732 0.6138 0.8732 307.1358 37.755 307.1358"></polygon>
    </defs>
    <g id="Page-1" stroke="none" stroke-width="1" fill="none" fill-rule="evenodd">
        <g id="Desktop-HD" transform="translate(-355.000000, -283.000000)">
            <g id="Group-14" transform="translate(109.000000, 282.000000)">
                <g id="monitors" transform="translate(246.000000, 0.000000)">
                    <path d="M167.0889,350.5158 C164.5579,358.8028 193.7799,383.8948 238.6979,381.2058 C283.6169,378.5168 317.4869,366.3688 317.1279,353.7778 C316.7689,341.1828 278.9009,328.6198 252.1589,327.9028 C225.4179,327.1858 171.0379,337.5928 167.0889,350.5158" id="Fill-1" fill="#000000"></path>
                    <g id="Group-5" transform="translate(559.000000, 330.674000)">
                        <mask id="mask-2" fill="white">
                            <use xlink:href="#path-1"></use>
                        </mask>
                        <g id="Clip-4"></g>
                        <path d="M0.5132,23.1094 C-2.0188,31.3964 27.2042,56.4894 72.1222,53.7994 C117.0422,51.1104 150.9102,38.9624 150.5522,26.3714 C150.1942,13.7774 112.3252,1.2144 85.5832,0.4964 C58.8412,-0.2206 4.4622,10.1874 0.5132,23.1094" id="Fill-3" fill="#000000" mask="url(#mask-2)"></path>
                    </g>
                    <path d="M231.1226,288.1799 C176.1086,295.4089 94.8996,309.6759 52.2396,317.3779 C51.0266,303.2319 44.9926,230.8939 44.2566,183.3759 C43.5766,139.4799 42.8726,93.3289 42.6536,78.9319 C85.2266,73.1949 166.1796,62.1879 227.9476,53.2149 C289.3566,44.2929 364.2836,37.0069 403.7826,33.4309 C404.8606,48.6039 407.1776,85.2799 407.3346,122.2139 C407.4736,154.8289 407.4236,218.1859 407.3786,255.8319 C383.1586,261.1279 297.1616,279.5029 231.1226,288.1799 M431.9216,112.0719 C431.8196,58.9009 431.5516,18.3309 431.5516,18.3309 L431.9216,5.0119 C431.9216,5.0119 301.3316,21.6269 211.9186,31.0429 C122.5046,40.4579 11.8626,60.9479 11.8626,60.9479 L13.5686,82.6399 C14.0686,96.4859 16.0006,150.8519 17.3216,199.5619 C18.6406,248.2069 22.9366,307.2809 24.0866,322.5239 C23.8126,322.5759 23.6646,322.6029 23.6646,322.6029 C23.6646,322.6029 22.4346,357.8039 35.3436,361.7179 C48.2516,365.6309 190.5856,328.0239 261.6296,313.1929 C332.7646,298.3409 384.0246,289.6629 407.3346,285.9409 L407.3346,286.0299 L431.2366,282.1929 C431.2366,282.1929 432.0246,165.2419 431.9216,112.0719" id="Fill-6" fill="#3D3D3D"></path>
                    <path d="M1.8423,66.2765 L12.7383,61.1645 C12.7383,61.1645 15.0583,119.4475 16.2873,157.5585 C17.5173,195.6695 23.8813,350.0445 27.6593,355.1815 C31.4383,360.3195 32.8003,361.7175 32.8003,361.7175 C32.8003,361.7175 18.7963,360.0075 16.4003,355.7975 C14.0053,351.5855 7.6813,213.1885 5.8383,169.5445 C3.9933,125.9015 1.8423,66.2765 1.8423,66.2765" id="Fill-8" fill="#282828"></path>
                    <path d="M189.6309,345.6545 C187.4639,352.7485 212.4849,374.2345 250.9459,371.9325 C289.4079,369.6305 318.4089,359.2275 318.1019,348.4455 C317.7949,337.6635 285.3689,326.9065 262.4719,326.2915 C239.5749,325.6755 193.0119,334.5905 189.6309,345.6545" id="Fill-10" fill="#3D3D3D"></path>
                    <path d="M220.7261,322.4113 L271.6921,310.9243 C271.6921,310.9243 270.9241,321.5283 269.0801,329.2113 C267.2361,336.8943 264.0081,343.9633 264.0081,343.9633 C264.0081,343.9633 235.5451,349.8313 227.5881,343.9633 C219.6321,338.0973 220.7261,322.4113 220.7261,322.4113" id="Fill-12" fill="#282828"></path>
                    <polygon id="Fill-14" fill="#4C4C4C" points="231.2759 320.298 229.4849 345.002 238.0379 346.423 242.0329 317.839"></polygon>
                    <path d="M42.584,80.5685 C42.584,80.5685 192.341,57.1575 248.819,50.6015 C305.295,44.0455 403.238,33.5865 403.238,33.5865 C403.238,33.5865 407.334,50.6015 407.334,132.9695 C407.334,215.3395 405.695,256.3185 405.695,256.3185 C405.695,256.3185 313.843,276.8425 255.711,285.8245 C197.579,294.8045 52.043,315.7395 52.043,315.7395 C52.043,315.7395 45.076,250.9915 44.666,188.2935 C44.256,125.5945 42.584,80.5685 42.584,80.5685" id="Fill-16" fill="#83909E"></path>
                    <path d="M10.2437,59.3869 C10.2437,59.3869 175.8007,32.8789 222.5167,28.0119 C269.2337,23.1449 371.6817,9.2129 395.8607,7.5739 C420.0377,5.9339 433.5607,1.9819 433.5607,1.9819 C433.5607,1.9819 434.3807,94.8609 433.5607,138.2989 C432.7417,181.7369 433.9257,283.7759 433.9257,283.7759 L429.0537,280.9069 C429.0537,280.9069 429.8727,173.1299 430.2827,137.8879 C430.6927,102.6459 429.4637,7.5739 429.4637,7.5739 C429.4637,7.5739 417.1697,9.6229 395.8607,11.2619 C374.5507,12.9009 249.5907,27.4319 223.9647,31.2309 C198.3387,35.0299 12.7017,64.1249 12.7017,64.1249 L10.2437,59.3869 Z" id="Fill-18" fill="#000000"></path>
                    <path d="M10.2437,59.3869 C10.2437,59.3869 13.5217,137.0689 14.7507,189.9319 C15.9807,242.7959 21.3077,343.1969 22.5367,350.1619 C23.7667,357.1289 28.6837,367.3729 39.7487,365.7349 C50.8127,364.0949 243.8257,317.3779 284.8057,310.0029 C325.7857,302.6249 380.6987,289.9219 401.1877,288.2829 C421.6777,286.6439 433.9257,283.7759 433.9257,283.7759 L429.0537,280.9069 C429.0537,280.9069 395.5607,284.3529 350.0737,293.3669 C305.3907,302.2219 132.7727,339.9159 92.6117,349.3419 C52.4517,358.7689 40.1587,366.1449 32.7827,357.5389 C25.4057,348.9329 21.0107,234.1879 20.0787,193.6199 C18.9127,142.8779 13.9317,62.0159 13.9317,62.0159 L10.2437,59.3869 Z" id="Fill-20" fill="#000000"></path>
                    <path d="M40.5688,79.2863 C40.5688,79.2863 199.8438,54.6993 230.2008,50.1903 C260.5568,45.6823 406.5148,31.2313 406.5148,31.2313 C406.5148,31.2313 408.9738,65.3523 409.3838,123.1343 C409.7928,180.9153 409.3838,258.3663 409.3838,258.3663 L404.0558,254.6783 C404.0558,254.6783 406.1048,180.9153 405.2858,130.5103 C404.4658,80.1053 402.0078,35.9393 402.0078,35.9393 C402.0078,35.9393 320.0478,43.4643 234.8108,54.4083 C149.5738,65.3523 45.0758,82.1553 45.0758,82.1553 L40.5688,79.2863 Z" id="Fill-22" fill="#000000"></path>
                    <path d="M40.5688,79.2863 C40.5688,79.2863 40.1588,158.3223 43.4378,212.6473 C46.7148,266.9733 49.9938,319.8373 49.9938,319.8373 C49.9938,319.8373 197.5198,295.6583 255.7108,287.0533 C313.9018,278.4463 409.3838,258.3663 409.3838,258.3663 L404.8768,254.2693 C404.8768,254.2693 347.9148,268.6133 250.7938,283.3653 C153.6718,298.1173 54.0918,314.1003 54.0918,314.1003 C54.0918,314.1003 48.7648,263.6953 47.1258,205.9133 C45.4858,148.1323 45.0758,82.1553 45.0758,82.1553 L40.5688,79.2863 Z" id="Fill-24" fill="#000000"></path>
                    <g id="Group-28" transform="translate(0.000000, 58.674000)">
                        <mask id="mask-4" fill="white">
                            <use xlink:href="#path-3"></use>
                        </mask>
                        <g id="Clip-27"></g>
                        <path d="M10.2437,0.7129 L-0.0003,5.8589 C-0.0003,5.8589 10.6557,294.3579 15.1627,298.8639 C19.6697,303.3709 36.8817,307.2339 36.8817,307.2339 L30.3247,300.5029 C30.3247,300.5029 22.9297,299.5439 18.4407,295.9939 C13.9517,292.4439 3.2787,8.7269 3.2787,8.7269 L12.7017,5.4509 L10.2437,0.7129 Z" id="Fill-26" fill="#000000" mask="url(#mask-4)"></path>
                    </g>
                    <path d="M55.7324,312.049 C55.7324,312.049 217.6024,287.052 259.8104,280.493 C302.0194,273.937 402.0084,253.448 402.0084,253.448 C402.0084,253.448 403.2384,182.143 403.2384,135.017 C403.2384,87.891 399.9604,37.896 399.9604,37.896" id="Stroke-29" stroke="#000000"></path>
                    <path d="M269.6436,312.049 C269.6436,312.049 266.7756,340.737 263.4966,342.786 C260.2176,344.834 230.0756,347.703 225.0666,339.507 C220.0586,331.311 222.0846,320.612 222.0846,320.612 L219.3896,324.185 C219.3896,324.185 217.5396,339.39 222.0846,343.195 C234.8106,353.851 265.9556,344.99 265.9556,344.99 L274.3326,312.049 L269.6436,312.049 Z" id="Fill-31" fill="#000000"></path>
                    <path d="M270.915,325.4875 C270.915,325.4875 323.218,333.4885 320.868,348.4455 C318.409,364.0945 273.52,378.6915 237.048,374.5945 C200.576,370.4965 184.815,353.0295 187.684,344.8345 C190.553,336.6385 219.022,330.2485 219.022,330.2485 L220.058,332.9515 C220.058,332.9515 195.455,338.4695 192.192,344.8345 C188.93,351.1985 214.69,370.2415 246.674,369.4225 C278.659,368.6035 317.402,354.9465 316.769,348.4455 C315.54,335.8195 268.781,328.2365 268.781,328.2365 L270.915,325.4875 Z" id="Fill-33" fill="#000000"></path>
                    <path d="M248.8188,291.9709 L259.8088,289.9219 C259.8088,289.9219 263.9068,304.6749 259.8088,305.9049 C255.7108,307.1329 249.4338,304.2649 249.4338,304.2649 L248.8188,291.9709 Z" id="Fill-35" fill="#000000"></path>
                    <path d="M210.1484,24.6369 C210.1484,24.6369 215.9744,23.1619 224.9504,22.5829 C233.9254,22.0039 232.6954,21.8299 232.6954,21.8299 C232.6954,21.8299 233.1254,27.0899 234.5824,35.3889 C236.0404,43.6869 238.4314,55.5199 238.4314,55.5199 C238.4314,55.5199 236.5064,60.0839 227.6674,61.1829 C218.8284,62.2809 216.6774,55.8269 216.5234,53.9829 C216.3704,52.1389 217.1384,45.9919 216.2164,40.7669 C215.2944,35.5419 210.1484,24.6369 210.1484,24.6369" id="Fill-37" fill="#3B4B63"></path>
                    <path d="M233.0127,29.7424 C233.0127,29.7424 227.6387,27.7324 227.4857,29.7424 C227.3317,31.7514 228.1007,35.1624 228.1517,36.5054 C228.2027,37.8474 227.9217,43.7884 230.2387,43.4814 C232.5567,43.1744 235.1177,40.6134 235.1177,40.6134 L233.0127,29.7424 Z" id="Fill-39" fill="#263142"></path>
                    <g id="Group-43" transform="translate(232.000000, 0.674000)" fill="#4D6282">
                        <path d="M0.6958,6.8511 C1.0028,3.8361 16.0038,0.8921 22.8758,0.3721 C34.2818,-0.4889 30.7888,10.5441 34.1228,47.2161 C35.3318,60.5091 13.6008,61.9921 10.3478,59.2801 C7.0958,56.5671 -1.6952,30.3691 0.6958,6.8511" id="Fill-41"></path>
                    </g>
                    <path d="M264.2563,53.3376 C262.1153,56.4926 245.2533,62.8006 241.5063,58.4996 C237.7593,54.1986 230.2653,12.0456 233.4773,6.5986 C233.4773,6.5986 241.7743,2.8706 250.8743,2.5836 C259.9743,2.2966 260.7773,3.7306 261.8473,6.5986 C262.9193,9.4646 266.3983,50.1836 264.2563,53.3376 M263.7803,5.3736 C262.5513,2.3006 261.6293,0.7636 251.1793,1.0706 C240.7293,1.3786 231.2023,5.3736 231.2023,5.3736 C227.5143,11.2126 236.1193,56.3936 240.4223,61.0036 C244.7253,65.6136 264.0883,58.8516 266.5463,55.4706 C269.0053,52.0906 265.0093,8.4466 263.7803,5.3736" id="Fill-44" fill="#000000"></path>
                    <path d="M236.7344,11.8278 C236.7344,11.8278 238.5784,27.5028 239.1924,37.3378 C239.8074,47.1728 240.4224,57.0078 240.4224,57.0078 L242.2664,61.1828 C242.2664,61.1828 243.1884,51.1678 241.0374,34.5718 C238.8854,17.9748 236.7344,11.8278 236.7344,11.8278" id="Fill-46" fill="#000000"></path>
                    <path d="M232.6958,28.4245 C232.6958,28.4245 228.2818,27.5025 226.8988,28.5785 C225.5158,29.6535 226.4378,33.3685 226.8988,36.5065 C227.3598,39.6425 227.0218,42.5995 228.1288,43.4855 C229.6658,44.7145 231.4248,44.7145 232.6958,44.2525 C233.9678,43.7925 234.5828,42.6445 234.5828,42.6445 L234.5828,40.1035 C234.5828,40.1035 233.8138,42.5625 231.0488,42.7165 C228.2818,42.8705 229.6658,39.3625 229.3578,36.5065 C229.0508,33.6495 227.6378,30.8935 228.5898,30.1155 C230.2798,28.7325 233.5068,31.7975 233.5068,31.7975 L232.6958,28.4245 Z" id="Fill-48" fill="#000000"></path>
                    <path d="M206.7681,31.2511 C206.7681,31.2511 208.4581,24.4291 210.9171,23.8141 C213.3761,23.2001 220.5991,22.2781 223.6721,21.9701 C226.7461,21.6631 232.6961,21.0481 232.6961,21.0481 L232.6961,22.8931 C232.6961,22.8931 229.8191,22.2781 223.2111,23.2001 C216.6021,24.1221 212.6071,24.4291 211.3781,25.5041 C210.1481,26.5811 208.6121,31.2511 208.6121,31.2511 L206.7681,31.2511 Z" id="Fill-50" fill="#000000"></path>
                    <path d="M210.1484,26.1496 C210.1484,26.1496 213.8364,35.8006 215.0654,41.6406 C216.2954,47.4806 215.2194,56.5466 215.9874,57.7766 C216.7564,59.0056 224.9014,62.8906 228.1284,62.5616 C231.3554,62.2326 238.4314,56.9646 238.4314,56.9646 L238.4314,54.5486 C238.4314,54.5486 232.5284,60.9486 227.6674,61.1826 C222.8064,61.4166 217.3714,57.1616 217.0644,55.6246 C216.7564,54.0876 218.1394,47.1726 217.2174,41.6406 C216.2954,36.1076 210.9174,23.8146 210.9174,23.8146 L210.1484,26.1496 Z" id="Fill-52" fill="#000000"></path>
                    <path d="M259.9722,16.7536 C257.3092,14.2956 251.7552,16.2416 249.9722,20.9926 C248.3382,25.3486 250.3432,34.4956 257.1042,33.5126 C263.8662,32.5306 262.6362,19.2126 259.9722,16.7536" id="Fill-54" fill="#000000"></path>
                    <path d="M250.7388,21.4753 C249.3218,25.2543 251.0608,33.1903 256.9268,32.3383 C262.7938,31.4863 261.7268,19.9313 259.4158,17.7973 C257.1048,15.6643 252.2858,17.3533 250.7388,21.4753" id="Fill-56" fill="#7B91B2"></path>
                    <path d="M259.7051,24.8361 C259.7051,28.4031 257.8481,31.2961 255.5571,31.2961 C253.2651,31.2961 251.4081,28.4031 251.4081,24.8361 C251.4081,21.2691 253.2651,18.3761 255.5571,18.3761 C257.8481,18.3761 259.7051,21.2691 259.7051,24.8361" id="Fill-58" fill="#000000"></path>
                    <path d="M257.5537,20.8552 C257.5537,21.4182 257.1537,21.8752 256.6597,21.8752 C256.1667,21.8752 255.7667,21.4182 255.7667,20.8552 C255.7667,20.2922 256.1667,19.8352 256.6597,19.8352 C257.1537,19.8352 257.5537,20.2922 257.5537,20.8552" id="Fill-60" fill="#FFFFFF"></path>
                    <path d="M711.8159,350.6789 C713.9849,357.7729 688.9619,379.2599 650.5019,376.9579 C612.0399,374.6549 583.0389,364.2539 583.3449,353.4699 C583.6539,342.6889 616.0779,331.9319 638.9749,331.3179 C661.8739,330.7019 708.4359,339.6159 711.8159,350.6789" id="Fill-62" fill="#3D3D3D"></path>
                    <path d="M680.7222,327.4367 L629.7552,315.9497 C629.7552,315.9497 630.5242,326.5537 632.3682,334.2367 C634.2112,341.9197 637.4392,348.9897 637.4392,348.9897 C637.4392,348.9897 665.9022,354.8547 673.8602,348.9897 C681.8172,343.1217 680.7222,327.4367 680.7222,327.4367" id="Fill-64" fill="#282828"></path>
                    <polygon id="Fill-66" fill="#4C4C4C" points="670.1714 325.3234 671.9624 350.0264 663.4094 351.4484 659.4144 322.8654"></polygon>
                    <path d="M631.8032,317.0724 C631.8032,317.0724 634.6722,345.7614 637.9502,347.8094 C641.2302,349.8584 671.3712,352.7284 676.3802,344.5324 C681.3892,336.3354 679.3642,325.6364 679.3642,325.6364 L682.0582,329.2094 C682.0582,329.2094 683.9082,344.4154 679.3642,348.2214 C666.6372,358.8754 635.4912,350.0144 635.4912,350.0144 L627.1152,317.0724 L631.8032,317.0724 Z" id="Fill-68" fill="#000000"></path>
                    <path d="M630.5327,330.5129 C630.5327,330.5129 578.2287,338.5139 580.5807,353.4699 C583.0387,369.1199 627.9287,383.7169 664.3977,379.6179 C700.8727,375.5229 716.6327,358.0529 713.7637,349.8589 C710.8947,341.6629 682.4257,335.2719 682.4257,335.2719 L681.3887,337.9759 C681.3887,337.9759 705.9927,343.4949 709.2557,349.8589 C712.5177,356.2239 686.7587,375.2659 654.7727,374.4469 C622.7897,373.6269 584.0457,359.9699 584.6787,353.4699 C585.9077,340.8449 632.6657,333.2619 632.6657,333.2619 L630.5327,330.5129 Z" id="Fill-70" fill="#000000"></path>
                    <path d="M483.1528,262.7643 C483.1068,225.1173 483.0568,161.7603 483.1958,129.1453 C483.3528,92.2113 485.6708,55.5353 486.7488,40.3623 C526.2488,43.9373 595.8468,48.1943 657.2568,57.1153 C719.0248,66.0883 785.5288,77.0953 828.1018,82.8323 C827.8828,97.2293 827.1798,143.3813 826.4998,187.2763 C825.7628,234.7943 819.7288,307.1323 818.5158,321.2773 C775.8558,313.5763 709.0948,299.3103 654.0818,292.0813 C588.0438,283.4043 507.3728,268.0603 483.1528,262.7643 M459.2938,289.1233 L483.1958,292.9603 L483.1958,292.8723 C506.5058,296.5943 552.4388,302.2413 623.5738,317.0933 C694.6168,331.9253 822.5048,369.5333 835.4128,365.6203 C848.3208,361.7053 847.0908,326.5053 847.0908,326.5053 C847.0908,326.5053 846.9438,326.4763 846.6698,326.4273 C847.8198,311.1813 852.1148,252.1073 853.4338,203.4623 C854.7558,154.7533 856.6868,100.3873 857.1868,86.5413 L858.8928,64.8483 C858.8928,64.8483 762.6988,44.3583 673.2858,34.9443 C623.3798,29.6893 561.1818,20.7923 516.9548,16.0263 C481.9418,12.2533 458.6078,11.9433 458.6078,11.9433 L458.9798,25.2633 C458.9798,25.2633 458.7118,65.8323 458.6078,119.0023 C458.5068,172.1743 459.2938,289.1233 459.2938,289.1233" id="Fill-72" fill="#3D3D3D"></path>
                    <path d="M868.9136,70.1779 L858.0176,65.0659 C858.0176,65.0659 855.6966,123.3479 854.4686,161.4589 C853.2396,199.5709 846.8746,353.9459 843.0976,359.0839 C839.3176,364.2199 837.9566,365.6199 837.9566,365.6199 C837.9566,365.6199 851.9606,363.9099 854.3556,359.6989 C856.7506,355.4869 863.0746,217.0889 864.9186,173.4459 C866.7626,129.8029 868.9136,70.1779 868.9136,70.1779" id="Fill-74" fill="#282828"></path>
                    <path d="M828.1724,84.4694 C828.1724,84.4694 692.8614,61.0594 636.3844,54.5034 C579.9074,47.9464 487.2924,40.5174 487.2924,40.5174 C487.2924,40.5174 483.1954,57.5324 483.1954,139.9014 C483.1954,222.2704 484.8354,263.2504 484.8354,263.2504 C484.8354,263.2504 571.3604,280.7434 629.4924,289.7244 C687.6244,298.7054 818.7134,319.6394 818.7134,319.6394 C818.7134,319.6394 825.6794,254.8924 826.0894,192.1934 C826.4994,129.4954 828.1724,84.4694 828.1724,84.4694" id="Fill-76" fill="#83909E"></path>
                    <path d="M860.5122,63.2878 C860.5122,63.2878 709.4032,36.7798 662.6872,31.9128 C615.9702,27.0468 519.0022,13.5828 494.8252,11.9428 C470.6482,10.3038 456.9702,8.9128 456.9702,8.9128 C456.9702,8.9128 456.1502,101.7918 456.9702,145.2298 C457.7882,188.6678 456.6052,290.7068 456.6052,290.7068 L461.4782,287.8378 C461.4782,287.8378 460.6582,180.0618 460.2472,144.8198 C459.8372,109.5778 461.0662,14.5048 461.0662,14.5048 C461.0662,14.5048 473.6682,13.9258 494.9792,15.5648 C516.2882,17.2038 635.6152,31.3328 661.2402,35.1318 C686.8642,38.9318 858.0532,68.0258 858.0532,68.0258 L860.5122,63.2878 Z" id="Fill-78" fill="#000000"></path>
                    <path d="M860.5122,63.2878 C860.5122,63.2878 857.2352,140.9698 856.0052,193.8328 C854.7762,246.6968 849.4482,347.0968 848.2182,354.0628 C846.9892,361.0288 842.0722,371.2748 831.0062,369.6348 C819.9422,367.9968 641.3782,321.2808 600.3992,313.9048 C559.4182,306.5278 509.8332,296.8538 489.3422,295.2148 C468.8542,293.5758 456.6052,290.7068 456.6052,290.7068 L460.5562,285.1068 C460.5562,285.1068 489.6432,288.2528 535.1312,297.2688 C579.8142,306.1238 752.4312,343.8178 792.5902,353.2458 C832.7522,362.6688 830.5992,370.0448 837.9752,361.4398 C845.3512,352.8328 849.7452,238.0888 850.6772,197.5208 C851.8432,146.7788 856.8242,65.9158 856.8242,65.9158 L860.5122,63.2878 Z" id="Fill-80" fill="#000000"></path>
                    <path d="M830.189,83.1872 C830.189,83.1872 685.36,58.6002 655.003,54.0922 C624.647,49.5842 484.015,38.1622 484.015,38.1622 C484.015,38.1622 481.556,72.2852 481.148,130.0652 C480.737,187.8462 481.148,265.2982 481.148,265.2982 L486.474,261.6092 C486.474,261.6092 484.425,187.8462 485.245,137.4422 C486.065,87.0372 488.524,42.8712 488.524,42.8712 C488.524,42.8712 565.156,47.3652 650.393,58.3102 C735.63,69.2542 825.679,86.0562 825.679,86.0562 L830.189,83.1872 Z" id="Fill-82" fill="#000000"></path>
                    <path d="M830.189,83.1872 C830.189,83.1872 830.596,162.2232 827.319,216.5482 C824.041,270.8742 820.762,323.7392 820.762,323.7392 C820.762,323.7392 687.684,299.5612 629.493,290.9552 C571.302,282.3502 481.148,265.2982 481.148,265.2982 L485.655,261.2012 C485.655,261.2012 537.29,272.5132 634.412,287.2672 C731.533,302.0192 818.713,319.6402 818.713,319.6402 C818.713,319.6402 821.991,267.5952 823.63,209.8142 C825.27,152.0332 825.679,86.0562 825.679,86.0562 L830.189,83.1872 Z" id="Fill-84" fill="#000000"></path>
                    <g id="Group-88" transform="translate(833.000000, 62.674000)">
                        <mask id="mask-6" fill="white">
                            <use xlink:href="#path-5"></use>
                        </mask>
                        <g id="Clip-87"></g>
                        <path d="M27.5122,0.6138 L37.7552,5.7598 C37.7552,5.7598 27.1012,294.2588 22.5932,298.7658 C18.0852,303.2728 0.8732,307.1358 0.8732,307.1358 L7.4312,300.4028 C7.4312,300.4028 14.8262,299.4458 19.3152,295.8958 C23.8052,292.3448 34.4782,8.6278 34.4782,8.6278 L25.0532,5.3518 L27.5122,0.6138 Z" id="Fill-86" fill="#000000" mask="url(#mask-6)"></path>
                    </g>
                    <path d="M814.0522,315.9494 C814.0522,315.9494 667.6022,290.9534 625.3932,284.3964 C583.1852,277.8394 488.5212,260.3794 488.5212,260.3794 C488.5212,260.3794 487.2922,189.0744 487.2922,141.9494 C487.2922,94.8224 490.5712,44.8274 490.5712,44.8274" id="Stroke-89" stroke="#000000"></path>
                    <path d="M649.1968,298.7414 L638.2068,296.6924 C638.2068,296.6924 638.2068,312.6754 642.3048,313.9024 C646.4038,315.1344 648.6538,309.5904 648.6538,309.5904 L649.1968,298.7414 Z" id="Fill-91" fill="#000000"></path>
                    <g id="Group-96" transform="translate(317.000000, 275.674000)">
                        <path d="M0.1309,12.0967 L49.7159,0.9467 C49.7159,0.9467 50.1259,13.9927 54.2239,23.9047 C58.3209,33.8167 65.2879,45.7007 65.2879,45.7007 L20.2109,65.7807 C20.2109,65.7807 8.3269,44.7947 5.4579,33.3647 C2.5889,21.9317 0.1309,12.5067 0.1309,12.5067" id="Fill-93" fill="#FFFFFF"></path>
                        <path d="M0.1309,12.0967 L49.7159,0.9467 C49.7159,0.9467 50.1259,13.9927 54.2239,23.9047 C58.3209,33.8167 65.2879,45.7007 65.2879,45.7007 L20.2109,65.7807 C20.2109,65.7807 8.3269,44.7947 5.4579,33.3647 C2.5889,21.9317 0.1309,12.5067 0.1309,12.5067" id="Stroke-95" stroke="#000000"></path>
                    </g>
                    <g id="Group-107" transform="translate(325.000000, 285.674000)" stroke="#08347A" stroke-linecap="round" stroke-linejoin="round">
                        <path d="M1.5273,6.9131 C0.7483,10.5061 -0.0357,14.3671 2.6343,17.4161 C3.0503,15.8691 2.3993,14.1761 2.6443,12.5971 C2.7613,11.8421 3.0653,11.1181 3.1953,10.3861 C2.3153,12.4871 4.0193,15.0011 5.2943,16.5121 C6.6783,14.0421 5.5723,9.7441 4.7463,7.2321" id="Stroke-97"></path>
                        <path d="M7.3799,6.7822 C7.6499,9.5952 7.3759,12.4722 7.7669,15.2562 C8.5829,14.1682 8.6449,10.6302 10.4859,10.5152 C10.6799,11.6362 10.3719,12.7512 10.5009,13.8592 C10.5659,14.4292 11.6329,16.0432 11.8249,14.8092" id="Stroke-99"></path>
                        <path d="M15.0542,9.6748 C14.9772,9.0658 13.9532,9.6228 13.6222,10.0528 C12.9382,10.9458 13.1262,13.0888 13.7972,13.9118 C15.2992,13.1668 15.1342,11.4028 15.0852,10.0128 C15.1742,10.9178 15.7082,14.5988 17.3102,12.8718 C18.1892,11.9228 17.6992,8.9788 17.7672,7.8488 C17.8962,5.7148 18.3182,3.3958 18.0852,1.2688" id="Stroke-101"></path>
                        <path d="M17.2314,0.9355 C17.6134,4.9095 18.1704,8.6695 21.8744,10.7755 C22.1804,10.9515 23.0834,11.5815 23.4454,11.3005 C23.7774,11.0475 23.5884,10.5615 23.3474,10.3505" id="Stroke-103"></path>
                        <path d="M14.1787,6.877 C15.8087,7.028 17.5037,6.839 19.1257,6.712 C20.1137,6.634 21.7867,6.678 22.7827,6.211 C23.1177,6.054 23.4697,5.769 23.7407,5.685" id="Stroke-105"></path>
                    </g>
                    <g id="Group-112" transform="translate(343.000000, 293.674000)" stroke="#08347A" stroke-linecap="round" stroke-linejoin="round">
                        <path d="M0.4092,6.8164 C0.0552,8.1744 -0.1738,9.4254 0.3202,10.8124 C0.7442,12.0034 1.4372,12.6944 2.1622,11.3924 C2.9092,10.0514 2.0862,8.2894 2.5442,6.9434 C2.0912,8.1144 1.8322,11.7114 3.8562,10.8524 C5.3912,10.2024 5.0642,7.8234 4.5062,6.6124" id="Stroke-108"></path>
                        <path d="M7.5801,5.6914 C7.0471,6.2124 5.6921,8.5534 6.8601,9.1494 C7.8471,9.6534 8.9231,7.2214 8.8161,6.4034 C8.5801,4.5904 6.7211,5.3294 7.2911,6.3044 C8.1741,7.8164 9.6041,5.2114 9.8951,4.5924 C9.5591,5.2274 9.0211,8.2384 10.2441,8.1284 C11.4451,8.0184 11.1661,5.3014 11.1661,4.5944 C11.1661,5.8964 10.8091,9.3734 13.1971,7.9294 C14.7411,6.9954 14.2021,3.0004 14.1211,1.4034 C11.6031,1.1114 12.5641,9.6044 14.5521,10.1814 C15.9361,10.5844 16.9731,5.4244 18.5161,4.6564 C17.0971,4.7304 17.2701,7.4764 18.3551,7.1024 C20.5501,6.3454 19.1481,2.0794 19.1361,0.5634 C18.3061,2.5834 18.7371,5.6034 20.6241,6.9274 C21.5261,7.5604 23.4031,8.2554 23.4601,6.5094" id="Stroke-110"></path>
                    </g>
                    <g id="Group-119" transform="translate(329.000000, 304.674000)" stroke="#08347A" stroke-linecap="round" stroke-linejoin="round">
                        <path d="M2.9429,7.9961 C2.6419,7.1871 1.0839,7.1721 0.5879,7.6941 C-0.7311,9.0841 0.6959,12.3681 1.8159,13.4271 C4.2699,15.7431 6.1209,11.7501 5.0779,9.5441 C3.8929,9.6891 2.3579,9.7301 2.3259,11.2751 C2.3149,11.8691 2.5749,12.6991 3.1479,11.8891" id="Stroke-113"></path>
                        <path d="M8.9878,8.918 C7.7898,9.308 5.7098,11.226 7.3738,12.485 C8.8888,13.63 8.9718,9.753 8.8658,8.733 C8.4178,9.569 8.0278,11.378 9.0178,11.978 C9.3228,11.698 9.8948,11.516 10.0928,11.155 C10.4308,10.541 10.0108,9.588 10.3938,9.013 C11.4418,7.439 11.4148,11.244 11.3388,12.056 C11.5278,11.206 10.8748,7.907 12.3538,7.909 C12.4938,8.822 12.4448,10.963 13.4878,10.559 C14.9728,9.984 14.5288,7.742 16.4288,7.399 C15.7688,7.631 15.2438,7.665 15.0298,8.426 C14.8258,9.15 15.3598,10.241 16.1568,10.252 C18.3808,10.28 16.8298,4.682 16.6718,3.512 C16.6398,4.544 16.8728,8.987 18.4058,9.109 C19.6688,9.208 20.0038,6.169 20.9938,5.476 C19.7828,5.817 18.7498,8.141 20.0718,9.024 C21.5008,9.979 21.1048,5.692 21.0758,4.74 C21.0468,5.649 21.2088,7.507 22.5028,7.594 C24.5648,7.733 24.9858,2.56 24.7738,1.459 C24.2238,-1.407 22.9048,2.335 22.8888,3.558 C22.8658,5.205 23.0568,6.987 24.0508,8.371 C24.5948,6.934 25.2068,5.613 25.9728,4.202 C26.2588,3.678 27.2428,2.523 27.0228,1.869 C26.7128,0.944 26.0308,2.053 25.3748,1.68 C24.7568,4.395 25.2678,7.433 25.3588,10.189 C25.3938,11.236 25.8028,14.564 25.2768,15.269" id="Stroke-115"></path>
                        <path d="M23.1255,9.9492 C24.2975,9.2112 25.5495,8.4002 26.7535,7.6442 C27.6045,7.1102 29.6365,6.0012 30.1005,5.0012 C30.4495,4.2532 29.9285,4.0122 29.1715,3.4822 C28.2565,3.9942 27.5225,4.9502 27.6465,6.0502 C28.4345,5.7972 29.0215,4.8032 29.2725,4.0382 C29.7055,5.0332 30.5855,5.4992 31.7275,5.3222 C31.7495,4.0342 31.7745,2.9792 32.8605,2.0852 C33.4655,3.1202 33.8365,4.2802 34.1935,5.4132 C33.9165,4.2882 33.0935,3.3632 32.5405,2.3732 C33.0815,2.3042 33.8815,2.3862 34.3615,2.0932 C34.8245,1.8102 35.0525,1.0422 35.4185,0.6262" id="Stroke-117"></path>
                    </g>
                    <path d="M361.2637,321.1418 C360.4247,318.7418 356.5627,323.5918 358.9057,323.8068 C360.3437,323.9408 360.2637,321.0898 360.2467,320.3108 C360.2037,318.2738 359.9637,316.1268 359.8087,314.0918 C359.4497,315.0718 359.1897,323.4808 361.9427,322.2008 C362.7657,321.8178 362.3097,318.6238 363.8747,319.3968 C362.9967,319.7198 361.1357,322.0918 363.1157,322.3338 C364.5317,322.5068 364.5367,318.9878 364.2177,318.0818 C362.3857,318.4078 365.0387,320.3398 365.5667,318.6838" id="Stroke-120" stroke="#08347A" stroke-linecap="round" stroke-linejoin="round"></path>
                    <path d="M367.4106,315.6105 C367.2586,313.9105 369.3336,313.4835 370.6776,313.9905 C370.5996,314.7405 368.8976,316.7355 369.4786,317.4475 C369.8676,317.9245 370.4156,317.3345 370.5866,316.9415" id="Stroke-122" stroke="#08347A" stroke-linecap="round" stroke-linejoin="round"></path>
                    <path d="M370.3818,319.4006 C370.4208,319.5026 370.4918,319.5776 370.5868,319.6046" id="Stroke-124" stroke="#08347A" stroke-linecap="round" stroke-linejoin="round"></path>
                </g>
            </g>
        </g>
    </g>
</svg>