<?xml version="1.0" encoding="UTF-8" standalone="no"?>
<svg width="335px" height="345px" viewBox="0 0 335 345" version="1.1" xmlns="http://www.w3.org/2000/svg" xmlns:xlink="http://www.w3.org/1999/xlink">
    <!-- Generator: Sketch 40.3 (33839) - http://www.bohemiancoding.com/sketch -->
    <title>mouse</title>
    <desc>Created with Sketch.</desc>
    <defs></defs>
    <g id="Page-1" stroke="none" stroke-width="1" fill="none" fill-rule="evenodd">
        <g id="Desktop-HD" transform="translate(-919.000000, -544.000000)">
            <g id="Group-14" transform="translate(109.000000, 282.000000)">
                <g id="mouse" transform="translate(810.000000, 262.000000)">
                    <path d="M255.96,162.5981 C242.548,162.5981 203.557,173.4671 203.557,177.3921 C203.557,182.1091 220.195,191.3951 252.723,191.3951 C286.755,191.3951 302.897,177.5731 302.897,172.9651 C302.897,168.3581 267.344,162.5981 255.96,162.5981" id="Fill-1" fill="#000000"></path>
                    <path d="M231.0098,84.8813 L233.2478,175.8873 C233.2478,175.8873 244.5208,181.8883 268.0558,182.6183 C287.9238,183.2353 298.9918,177.8843 298.9918,177.8843 L309.4908,88.5883 C309.4908,88.5883 302.1048,74.8133 272.7768,74.8133 C231.0098,74.8133 231.0098,84.8813 231.0098,84.8813" id="Fill-3" fill="#1C1C1C"></path>
                    <g id="Group-9" transform="translate(0.000000, 190.351000)">
                        <path d="M68.6563,126.8447 C36.1143,115.9767 3.5853,106.2527 5.9573,95.9497 C8.3173,85.6487 41.3513,55.3307 62.0533,39.3127 C82.7573,23.2937 103.7063,3.4507 118.3473,3.1077 C133.6903,2.7387 199.4623,13.9747 227.8113,21.9787 C256.1613,29.9937 286.1223,39.8907 285.3353,47.3277 C284.5603,54.7657 237.2413,98.8147 215.3453,114.8337 C193.4633,130.8527 182.8163,144.5727 165.0763,145.7277 C147.3243,146.8707 101.1853,137.7127 68.6563,126.8447" id="Fill-5" fill="#CCCCCC"></path>
                        <path d="M65.8037,130.5693 C31.9957,118.8903 -1.8123,108.4403 0.6467,97.3763 C3.1057,86.3113 39.9867,53.7333 61.5007,36.5213 C83.0147,19.3103 102.2307,0.6243 117.4377,0.2553 C133.3957,-0.1387 201.7367,11.9343 231.2047,20.5403 C260.6607,29.1453 291.7887,37.1363 290.9777,45.1283 C290.1657,53.1183 240.9907,100.4503 218.2467,117.6613 C195.5037,134.8733 184.4397,149.6253 165.9987,150.8543 C147.5577,152.0843 99.6127,142.2493 65.8037,130.5693 M215.3457,114.8343 C237.2407,98.8143 284.5607,54.7653 285.3347,47.3283 C286.1217,39.8903 256.1607,29.9943 227.8117,21.9783 C199.4617,13.9743 133.6907,2.7383 118.3477,3.1073 C103.7057,3.4513 82.7567,23.2943 62.0537,39.3123 C41.3517,55.3313 8.3177,85.6483 5.9567,95.9503 C3.5847,106.2533 36.1147,115.9763 68.6567,126.8443 C101.1857,137.7133 147.3247,146.8713 165.0757,145.7273 C182.8167,144.5723 193.4627,130.8523 215.3457,114.8343" id="Fill-7" fill="#000000"></path>
                    </g>
                    <path d="M170.4121,236.2563 C165.3351,251.9923 135.3631,287.3373 122.3071,287.5953 C106.6321,287.8903 88.1911,278.7693 86.8151,271.5023 C85.4251,264.2373 84.6511,253.1723 90.9581,247.7883 C97.2651,242.4023 109.3981,237.9523 117.0821,227.9703 C124.7661,217.9753 131.2311,212.4193 137.5151,212.2823 C141.3861,212.2093 156.5701,211.8283 162.7171,217.9753 C168.8641,224.1223 172.9951,228.2163 170.4121,236.2563" id="Fill-10" fill="#000000"></path>
                    <path d="M272.7764,74.8129 C286.7234,74.7879 307.3624,82.3559 307.3644,87.3089 C307.3644,87.6449 307.2894,87.9679 307.1694,88.2859 C308.5554,87.5119 309.5904,86.8169 310.8964,86.5079 C308.4884,80.7009 287.4884,72.7829 273.0184,72.8109 C258.9834,72.8369 241.6964,75.7139 233.8774,80.0219 C234.1024,80.7519 234.5074,81.5979 234.9874,82.3689 C240.3104,77.9309 258.4194,74.8369 272.7764,74.8129" id="Fill-12" fill="#000000"></path>
                    <path d="M234.0771,31.1645 L236.8911,11.6485 L243.4061,29.1675 C243.4061,29.1675 240.8861,34.2375 238.7421,34.0845 C236.5981,33.9315 234.0771,31.1645 234.0771,31.1645" id="Fill-14" fill="#FFFFFF"></path>
                    <path d="M234.0771,31.1645 L236.8911,11.6485 L243.4061,29.1675 C243.4061,29.1675 240.8861,34.2375 238.7421,34.0845 C236.5981,33.9315 234.0771,31.1645 234.0771,31.1645 Z" id="Stroke-16" stroke="#000000"></path>
                    <polygon id="Fill-18" fill="#A8A8A8" points="277.4971 64.8198 287.0011 63.5908 295.1481 70.1988 265.5011 139.5898"></polygon>
                    <polygon id="Stroke-20" stroke="#000000" points="277.4971 64.8198 287.0011 63.5908 295.1481 70.1988 265.5011 139.5898"></polygon>
                    <path d="M288.0479,71.5864 C288.0479,73.3684 286.6049,74.8134 284.8209,74.8134 C283.0379,74.8134 281.5939,73.3684 281.5939,71.5864 C281.5939,69.8054 283.0379,68.3584 284.8209,68.3584 C286.6049,68.3584 288.0479,69.8054 288.0479,71.5864" id="Fill-22" fill="#8E8E8E"></path>
                    <path d="M288.0479,71.5864 C288.0479,73.3684 286.6049,74.8134 284.8209,74.8134 C283.0379,74.8134 281.5939,73.3684 281.5939,71.5864 C281.5939,69.8054 283.0379,68.3584 284.8209,68.3584 C286.6049,68.3584 288.0479,69.8054 288.0479,71.5864 Z" id="Stroke-24" stroke="#000000"></path>
                    <path d="M283.2871,42.8442 C277.0151,39.0022 271.9441,18.8712 273.0181,13.6472 C273.8271,9.7222 289.6851,3.1972 291.6481,6.4242 C293.6121,9.6522 289.5611,46.6872 283.2871,42.8442 M295.1481,1.3132 C287.9331,-1.0308 275.4781,1.6602 268.4051,9.8052 C261.3301,17.9492 278.3971,49.7602 279.0691,54.2152 C279.7401,58.6732 277.4971,64.8202 277.4971,64.8202 L287.0011,63.5902 C287.0011,63.5902 308.8681,5.7692 295.1481,1.3132" id="Fill-26" fill="#9DDD2C"></path>
                    <path d="M283.2871,42.8442 C277.0151,39.0022 271.9441,18.8712 273.0181,13.6472 C273.8271,9.7222 289.6851,3.1972 291.6481,6.4242 C293.6121,9.6522 289.5611,46.6872 283.2871,42.8442 Z M295.1481,1.3132 C287.9331,-1.0308 275.4781,1.6602 268.4051,9.8052 C261.3301,17.9492 278.3971,49.7602 279.0691,54.2152 C279.7401,58.6732 277.4971,64.8202 277.4971,64.8202 L287.0011,63.5902 C287.0011,63.5902 308.8681,5.7692 295.1481,1.3132 Z" id="Stroke-28" stroke="#000000"></path>
                    <path d="M317.3623,15.3227 C320.8353,13.8367 329.9493,28.3617 328.3263,32.0267 C326.1633,36.9037 310.3393,50.3397 303.0023,49.8207 C295.6633,49.3017 313.8893,16.8067 317.3623,15.3227 M287.9243,64.5437 L294.9423,71.0697 C294.9423,71.0697 296.6903,64.7647 299.8253,61.5267 C302.9613,58.2917 335.3373,42.3207 334.3133,31.5817 C333.2903,20.8427 324.7183,11.4157 317.4843,9.1297 C303.7293,4.7827 287.9243,64.5437 287.9243,64.5437" id="Fill-30" fill="#9DDD2C"></path>
                    <path d="M317.3623,15.3227 C320.8353,13.8367 329.9493,28.3617 328.3263,32.0267 C326.1633,36.9037 310.3393,50.3397 303.0023,49.8207 C295.6633,49.3017 313.8893,16.8067 317.3623,15.3227 Z M287.9243,64.5437 L294.9423,71.0697 C294.9423,71.0697 296.6903,64.7647 299.8253,61.5267 C302.9613,58.2917 335.3373,42.3207 334.3133,31.5817 C333.2903,20.8427 324.7183,11.4157 317.4843,9.1297 C303.7293,4.7827 287.9243,64.5437 287.9243,64.5437 Z" id="Stroke-32" stroke="#000000"></path>
                    <path d="M234.0771,31.1645 L243.3731,169.3015 L250.2751,169.3015 L243.4061,29.1675 C243.4061,29.1675 240.4111,31.0115 238.4291,31.3185 C236.4451,31.6265 234.0771,31.1645 234.0771,31.1645" id="Fill-34" fill="#81C911"></path>
                    <path d="M234.0771,31.1645 L243.3731,169.3015 L250.2751,169.3015 L243.4061,29.1675 C243.4061,29.1675 240.4111,31.0115 238.4291,31.3185 C236.4451,31.6265 234.0771,31.1645 234.0771,31.1645 Z" id="Stroke-36" stroke="#000000"></path>
                    <path d="M272.1953,76.6518 L270.9593,113.1308 C270.9593,113.1308 261.8953,112.5338 258.9773,111.2778 C256.7253,110.3088 250.2753,104.2318 250.2753,104.2318 L248.1723,58.2128 L272.1953,76.6518 Z" id="Fill-38" fill="#6E7F72"></path>
                    <path d="M272.1953,76.6518 L270.9593,113.1308 C270.9593,113.1308 261.8953,112.5338 258.9773,111.2778 C256.7253,110.3088 250.2753,104.2318 250.2753,104.2318 L248.1723,58.2128 L272.1953,76.6518 Z" id="Stroke-40" stroke="#000000"></path>
                    <path d="M249.4521,56.3676 C252.2271,55.5416 262.4831,58.0586 266.5071,62.9756 C270.5311,67.8926 274.2001,75.2686 271.7511,76.3456 C269.3021,77.4216 256.5201,72.8196 252.5391,67.1296 C249.7671,63.1706 247.8581,59.9566 247.9961,58.0586 C248.0571,57.2276 248.5091,56.6486 249.4521,56.3676" id="Fill-42" fill="#7C8E80"></path>
                    <path d="M249.4521,56.3676 C252.2271,55.5416 262.4831,58.0586 266.5071,62.9756 C270.5311,67.8926 274.2001,75.2686 271.7511,76.3456 C269.3021,77.4216 256.5201,72.8196 252.5391,67.1296 C249.7671,63.1706 247.8581,59.9566 247.9961,58.0586 C248.0571,57.2276 248.5091,56.6486 249.4521,56.3676 Z" id="Stroke-44" stroke="#000000"></path>
                    <path d="M271.751,87.726 C269.378,88.747 256.989,84.376 253.129,78.97 C250.444,75.208 248.593,72.156 248.726,70.352" id="Stroke-46" stroke="#000000"></path>
                    <path d="M291.6484,86.8666 C291.6484,86.8666 264.8034,152.3656 269.9294,153.9496 C275.0544,155.5346 275.9824,156.1016 277.4974,153.9496 C279.0124,151.7996 302.8634,89.8686 302.8634,89.8686 L291.6484,86.8666 Z" id="Fill-48" fill="#6A9B16"></path>
                    <path d="M291.6484,86.8666 C291.6484,86.8666 264.8034,152.3656 269.9294,153.9496 C275.0544,155.5346 275.9824,156.1016 277.4974,153.9496 C279.0124,151.7996 302.8634,89.8686 302.8634,89.8686 L291.6484,86.8666 Z" id="Stroke-50" stroke="#000000"></path>
                    <path d="M290.1104,88.5883 C290.1104,88.5883 303.7544,53.7553 308.8254,44.6893 C313.8964,35.6223 318.9664,29.0143 320.3504,29.9363 C321.7334,30.8583 326.1904,38.2333 319.8894,56.2133 C313.5894,74.1933 302.8184,93.3013 302.8184,93.3013 C302.8184,93.3013 299.4264,92.5193 295.9814,91.1933 C292.5364,89.8683 290.1104,88.5883 290.1104,88.5883" id="Fill-52" fill="#81C911"></path>
                    <path d="M290.1104,88.5883 C290.1104,88.5883 303.7544,53.7553 308.8254,44.6893 C313.8964,35.6223 318.9664,29.0143 320.3504,29.9363 C321.7334,30.8583 326.1904,38.2333 319.8894,56.2133 C313.5894,74.1933 302.8184,93.3013 302.8184,93.3013 C302.8184,93.3013 299.4264,92.5193 295.9814,91.1933 C292.5364,89.8683 290.1104,88.5883 290.1104,88.5883 Z" id="Stroke-54" stroke="#000000"></path>
                    <path d="M307.1689,88.2856 C305.0459,93.8556 284.9799,96.4476 273.8939,96.9406 C262.1779,97.4616 233.4339,93.0356 233.4489,84.9666 C233.4499,84.0606 233.9989,83.1926 234.9869,82.3686 C234.5079,81.5986 234.1029,80.7526 233.8769,80.0216 C231.2469,81.4696 229.6859,83.0796 229.6839,84.7976 C229.6679,94.3256 261.3399,99.5496 274.2489,98.9346 C287.1569,98.3206 311.1329,94.9396 311.1299,87.5636 C311.1299,87.2216 311.0449,86.8676 310.8969,86.5086 C309.5909,86.8166 308.5559,87.5126 307.1689,88.2856" id="Fill-56" fill="#000000"></path>
                    <path d="M299.3496,169.5727 C299.3956,170.5747 299.1896,171.5937 299.2456,172.5967 C299.7096,173.1637 299.4786,173.4567 299.4786,173.9747 C299.4816,179.5907 279.9326,182.1627 269.4066,182.6307 C258.8796,183.0977 233.0536,179.1217 233.0676,171.8707 C233.0686,171.3417 233.2876,170.8257 233.6796,170.3257 L233.6796,167.3087 C231.1826,168.6417 229.6856,170.1277 229.6836,171.7187 C229.6686,180.2797 258.1256,184.9737 269.7256,184.4217 C281.3246,183.8697 302.8646,180.8317 302.8636,174.2047 C302.8626,172.7187 302.0006,171.2567 299.3496,169.5727" id="Fill-58" fill="#000000"></path>
                    <polygon id="Fill-60" fill="#000000" points="231.0098 86.8666 233.0678 173.0996 234.0768 175.5176 232.5428 88.9986"></polygon>
                    <polygon id="Fill-62" fill="#000000" points="309.4912 88.5883 300.0132 174.7473 298.2732 177.1043 307.3642 90.6373"></polygon>
                    <path d="M302.8633,93.3012 C302.8633,93.3012 286.9523,111.5362 268.1023,126.2882 C249.2523,141.0412 233.2483,150.6462 233.2483,150.6462" id="Stroke-64" stroke="#000000"></path>
                    <path d="M307.3643,93.3012 C307.3643,93.3012 290.3443,112.6072 270.3963,128.9832 C250.4473,145.3602 233.2483,156.1022 233.2483,156.1022" id="Stroke-66" stroke="#000000"></path>
                    <path d="M307.3643,97.8139 C307.3643,97.8139 289.5843,118.2819 270.7343,133.0359 C251.8853,147.7879 233.2483,161.3269 233.2483,161.3269" id="Stroke-68" stroke="#000000"></path>
                    <path d="M306.6133,103.7514 C306.6133,103.7514 292.9773,119.3544 273.0293,135.7294 C253.0803,152.1054 233.4493,166.2434 233.4493,166.2434" id="Stroke-70" stroke="#000000"></path>
                    <path d="M279.0693,97.8139 C279.0693,97.8139 276.6223,100.3139 267.6253,107.4379 C248.8593,122.2969 232.9713,131.4109 232.9713,131.4109" id="Stroke-72" stroke="#000000"></path>
                    <path d="M284.8213,96.9819 C284.8213,96.9819 284.1393,98.0979 269.9193,110.1309 C250.2173,126.8029 233.2483,136.7419 233.2483,136.7419" id="Stroke-74" stroke="#000000"></path>
                    <path d="M291.6484,95.9438 C291.6484,95.9438 289.1084,100.6608 270.2584,115.4128 C251.4084,130.1668 233.2484,142.0658 233.2484,142.0658" id="Stroke-76" stroke="#000000"></path>
                    <path d="M260.2646,96.5844 C260.2646,96.5844 250.5596,104.7744 247.3256,107.0944 C243.7366,109.6664 232.5426,116.8614 232.5426,116.8614" id="Stroke-78" stroke="#000000"></path>
                    <path d="M266.0215,97.8139 C266.0215,97.8139 261.8005,101.6069 257.5315,104.8199 C250.5155,110.5709 232.5425,121.9739 232.5425,121.9739" id="Stroke-80" stroke="#000000"></path>
                    <path d="M272.1924,98.226 C272.1924,98.226 272.3654,98.415 270.2584,100.16 C250.9274,116.158 232.5434,127.595 232.5434,127.595" id="Stroke-82" stroke="#000000"></path>
                    <path d="M297.6035,94.5346 C297.6035,94.5346 292.5005,101.7306 272.5525,118.1066 C252.6035,134.4826 232.9715,147.3926 232.9715,147.3926" id="Stroke-84" stroke="#000000"></path>
                    <path d="M306.6133,109.4662 C306.6133,109.4662 286.9523,129.7582 268.1023,144.5112 C249.2523,159.2642 233.4493,169.7132 233.4493,169.7132" id="Stroke-86" stroke="#000000"></path>
                    <path d="M306.1338,113.9819 C306.1338,113.9819 290.3448,130.8299 270.3968,147.2059 C250.4468,163.5809 233.7248,173.8149 233.7248,173.8149" id="Stroke-88" stroke="#000000"></path>
                    <path d="M305.2568,119.6655 C305.2568,119.6655 289.5838,136.5045 270.7348,151.2575 C251.8848,166.0105 234.9538,176.6805 234.9538,176.6805" id="Stroke-90" stroke="#000000"></path>
                    <path d="M304.6729,125.2094 C304.6729,125.2094 292.9779,137.5754 273.0289,153.9514 C253.0799,170.3274 238.3659,178.3184 238.3659,178.3184" id="Stroke-92" stroke="#000000"></path>
                    <path d="M303.8828,131.9135 C303.8828,131.9135 287.8548,148.9525 268.4618,162.9835 C249.0698,177.0175 243.3728,179.6025 243.3728,179.6025" id="Stroke-94" stroke="#000000"></path>
                    <path d="M303.4053,136.7416 C303.4053,136.7416 291.2043,150.1496 270.6533,165.7626 C250.1023,181.3756 248.4973,181.3986 248.4973,181.3986" id="Stroke-96" stroke="#000000"></path>
                    <path d="M302.791,141.8744 C302.791,141.8744 290.231,155.7934 270.84,169.8244 C251.446,183.8574 253.173,182.3564 253.173,182.3564" id="Stroke-98" stroke="#000000"></path>
                    <path d="M301.999,147.393 C301.999,147.393 293.624,157.046 273.03,172.603 C261.388,181.399 258.978,183.015 258.978,183.015" id="Stroke-100" stroke="#000000"></path>
                    <path d="M301.3408,153.4721 C301.3408,153.4721 287.1678,167.1611 267.7758,181.1951 L264.0778,183.8481" id="Stroke-102" stroke="#000000"></path>
                    <path d="M300.6426,158.0619 C300.6426,158.0619 290.5176,168.3599 269.9676,183.9729" id="Stroke-104" stroke="#000000"></path>
                    <path d="M300.2246,164.3276 C300.2246,164.3276 298.5126,166.7656 277.9616,182.3786 L276.1906,183.9736" id="Stroke-106" stroke="#000000"></path>
                    <path d="M254.3623,95.9438 C254.3623,95.9438 253.1333,98.9848 232.1133,112.5178" id="Stroke-108" stroke="#000000"></path>
                    <path d="M299.9404,169.3012 C299.9404,169.3012 296.4714,172.4362 286.3894,180.2802 L284.6914,181.3992" id="Stroke-110" stroke="#000000"></path>
                    <path d="M249.6348,95.2465 C249.6348,95.2465 244.7438,98.9845 233.8118,105.5145 L232.1138,106.6335" id="Stroke-112" stroke="#000000"></path>
                    <polyline id="Stroke-114" stroke="#000000" points="244.7441 93.9887 233.8111 100.5187 232.1131 101.6377"></polyline>
                    <path d="M239.2119,92.0199 C239.2119,92.0199 237.5819,92.4959 233.8119,96.0059 L232.1129,97.1249" id="Stroke-116" stroke="#000000"></path>
                    <path d="M237.2969,91.9223 C237.2969,91.9223 251.5139,110.7883 268.7759,126.4183 C286.0379,142.0493 301.7289,153.0283 301.7289,153.0283" id="Stroke-118" stroke="#000000"></path>
                    <path d="M231.7578,89.5024 C231.7578,89.5024 248.1768,111.6284 266.3998,128.9194 C284.6198,146.2094 301.1698,158.0624 301.1698,158.0624" id="Stroke-120" stroke="#000000"></path>
                    <path d="M233.4541,97.2758 C233.4541,97.2758 248.5611,117.2438 265.8231,132.8738 C283.0861,148.5028 300.6421,163.4008 300.6421,163.4008" id="Stroke-122" stroke="#000000"></path>
                    <path d="M232.1133,100.9399 C232.1133,100.9399 245.2233,118.0849 263.4473,135.3739 C281.6703,152.6649 299.7213,167.7409 299.7213,167.7409" id="Stroke-124" stroke="#000000"></path>
                    <path d="M259.9551,97.8139 C259.9551,97.8139 262.1601,100.4179 270.3931,107.9579 C287.5701,123.6869 303.4471,134.8419 303.4471,134.8419" id="Stroke-126" stroke="#000000"></path>
                    <path d="M254.4609,96.644 C254.4609,96.644 255.0509,97.779 268.0179,110.458 C285.9829,128.022 301.7289,138.816 301.7289,138.816" id="Stroke-128" stroke="#000000"></path>
                    <path d="M247.9443,95.2045 C247.9443,95.2045 250.1033,99.9885 267.3673,115.6155 C284.6293,131.2475 301.4003,144.0365 301.4003,144.0365" id="Stroke-130" stroke="#000000"></path>
                    <path d="M278.1562,97.766 C278.1562,97.766 287.0072,106.396 289.9812,108.87 C293.2832,111.615 304.9702,119.971 304.9702,119.971" id="Stroke-132" stroke="#000000"></path>
                    <path d="M272.5312,98.6156 C272.5312,98.6156 276.3652,102.5946 280.2852,106.0106 C286.6932,112.0826 304.3112,125.2096 304.3112,125.2096" id="Stroke-134" stroke="#000000"></path>
                    <path d="M266.5586,98.641 C266.5586,98.641 266.3786,98.817 268.3036,100.658 C285.9526,117.538 304.3116,130.285 304.3116,130.285" id="Stroke-136" stroke="#000000"></path>
                    <path d="M242.29,93.4565 C242.29,93.4565 246.768,100.8295 264.989,118.1185 C283.211,135.4085 301.875,149.8625 301.875,149.8625" id="Stroke-138" stroke="#000000"></path>
                    <path d="M232.1133,106.6332 C232.1133,106.6332 250.3943,128.6612 267.6573,144.2912 C284.9203,159.9202 299.5093,171.1452 299.5093,171.1452" id="Stroke-140" stroke="#000000"></path>
                    <path d="M232.874,112.0073 C232.874,112.0073 247.058,129.5013 265.281,146.7903 C283.501,164.0833 298.992,175.1493 298.992,175.1493" id="Stroke-142" stroke="#000000"></path>
                    <path d="M232.543,116.8617 C232.543,116.8617 247.442,135.1157 264.705,150.7457 C281.967,166.3757 297.63,177.8837 297.63,177.8837" id="Stroke-144" stroke="#000000"></path>
                    <path d="M232.543,121.974 C232.543,121.974 244.106,135.957 262.327,153.246 C280.55,170.537 294.24,179.281 294.24,179.281" id="Stroke-146" stroke="#000000"></path>
                    <path d="M232.543,127.5951 C232.543,127.5951 248.344,147.4321 266.174,162.3871 C284.006,177.3451 290.077,180.6131 290.077,180.6131" id="Stroke-148" stroke="#000000"></path>
                    <path d="M232.6885,132.436 C232.6885,132.436 245.0415,148.401 263.8915,164.978 C282.7405,181.558 284.2875,181.677 284.2875,181.677" id="Stroke-150" stroke="#000000"></path>
                    <path d="M232.874,137.891 C232.874,137.891 245.633,153.995 263.462,168.951 C281.292,183.909 279.72,182.329 279.72,182.329" id="Stroke-152" stroke="#000000"></path>
                    <path d="M232.874,142.0658 C232.874,142.0658 242.287,155.0158 261.179,171.5408 C271.86,180.8848 274.673,183.1218 274.673,183.1218" id="Stroke-154" stroke="#000000"></path>
                    <path d="M233.042,148.8022 C233.042,148.8022 247.888,165.3332 265.718,180.2922 L269.12,183.1212" id="Stroke-156" stroke="#000000"></path>
                    <path d="M233.248,153.0287 L263.433,182.8817" id="Stroke-158" stroke="#000000"></path>
                    <path d="M233.248,159.0698 C233.248,159.0698 238.587,165.9208 257.435,182.4988" id="Stroke-160" stroke="#000000"></path>
                    <path d="M283.8838,97.5014 C283.8838,97.5014 284.8838,100.5594 304.3118,115.1264" id="Stroke-162" stroke="#000000"></path>
                    <path d="M233.248,164.0756 C233.248,164.0756 238.596,169.9316 247.833,178.2486 L250.813,181.6776" id="Stroke-164" stroke="#000000"></path>
                    <path d="M288.4854,97.1078 C288.4854,97.1078 292.9694,101.0738 303.1064,108.1518 L304.6724,109.3538" id="Stroke-166" stroke="#000000"></path>
                    <polyline id="Stroke-168" stroke="#000000" points="293.2754 96.1733 303.4124 103.2523 305.8304 105.2203"></polyline>
                    <path d="M298.7295,94.5834 C298.7295,94.5834 300.2695,95.1494 303.6895,98.8284 L305.2565,100.0284" id="Stroke-170" stroke="#000000"></path>
                    <path d="M290.9795,239.7836 C290.9795,239.7836 278.2455,258.0976 245.7705,287.7306 C210.0605,320.3166 181.7385,342.7076 170.0985,343.6686 C147.7645,345.5126 93.6455,332.9946 64.2045,322.9706 C-2.5915,300.2256 0.5225,293.5696 0.5225,293.5696" id="Stroke-172" stroke="#000000"></path>
                    <g id="Group-178" transform="translate(90.000000, 203.351000)">
                        <path d="M3.9316,62.6035 C2.5426,55.3375 1.7686,44.2735 8.0756,38.8885 C14.3816,33.5045 26.5156,29.0535 34.1996,19.0715 C41.8826,9.0765 48.3496,3.5195 54.6316,3.3845 C58.5046,3.3105 73.6876,2.9295 79.8336,9.0765 C85.9816,15.2235 90.1126,19.3175 87.5306,27.3575 C82.4526,43.0935 52.4806,78.4385 39.4246,78.6965 C23.7496,78.9915 5.3086,69.8695 3.9316,62.6035" id="Fill-174" fill="#F8F8F8"></path>
                        <path d="M90.3457,19.834 C90.7507,24.751 89.7677,36.64 73.0477,55.08 C56.3277,73.521 42.3997,82.114 35.0237,80.48 C27.6467,78.844 5.3087,75.623 1.8297,62.604 C-0.2353,54.896 -0.7643,41.704 11.9227,34.119 C30.9537,22.735 30.5117,18.605 37.0647,11.634 C43.6287,4.676 51.1647,0.987 55.7627,0.987 C63.3357,0.975 76.8227,4.258 79.2817,6.311 C81.7407,8.363 89.9277,14.916 90.3457,19.834 M39.4247,78.696 C52.4807,78.438 82.4527,43.094 87.5307,27.357 C90.1127,19.317 85.9817,15.224 79.8337,9.076 C73.6877,2.93 58.5047,3.311 54.6317,3.385 C48.3497,3.52 41.8827,9.076 34.1997,19.071 C26.5157,29.054 14.3817,33.505 8.0747,38.889 C1.7687,44.273 2.5427,55.338 3.9317,62.604 C5.3087,69.869 23.7497,78.991 39.4247,78.696" id="Fill-176" fill="#000000"></path>
                    </g>
                    <path d="M128.3506,215.81 C128.3506,215.81 150.6336,216.58 156.7806,223.802 C162.9266,231.025 166.0476,240.119 166.0476,240.119" id="Stroke-179" stroke="#000000"></path>
                    <path d="M165.4492,208.3364 C165.4492,208.3364 161.0952,208.9024 155.4912,212.5344 C150.8822,215.5224 149.0272,219.2544 149.0272,219.2544" id="Stroke-181" stroke="#000000"></path>
                    <path d="M92.2373,256.9946 C92.2373,256.9946 94.8503,265.9546 112.2153,273.4386 C119.5993,276.6206 131.1163,277.4326 136.6493,273.4386 C142.1813,269.4426 155.3973,253.3466 162.6193,244.1826 C169.8413,235.0196 177.4323,229.8466 178.2263,224.7636 C179.0193,219.6786 178.2263,220.1136 178.2263,220.1136" id="Stroke-183" stroke="#000000"></path>
                </g>
            </g>
        </g>
    </g>
</svg>