<?xml version="1.0" encoding="UTF-8" standalone="no"?>
<svg
   xmlns:dc="http://purl.org/dc/elements/1.1/"
   xmlns:cc="http://creativecommons.org/ns#"
   xmlns:rdf="http://www.w3.org/1999/02/22-rdf-syntax-ns#"
   xmlns:svg="http://www.w3.org/2000/svg"
   xmlns="http://www.w3.org/2000/svg"
   viewBox="0 0 471.3559 176.58046"
   height="176.58046"
   width="471.3559"
   xml:space="preserve"
   version="1.1"
   id="svg4276"><metadata
     id="metadata4282"><rdf:RDF><cc:Work
         rdf:about=""><dc:format>image/svg+xml</dc:format><dc:type
           rdf:resource="http://purl.org/dc/dcmitype/StillImage" /><dc:title></dc:title></cc:Work></rdf:RDF></metadata><defs
     id="defs4280"><clipPath
       id="clipPath4290"
       clipPathUnits="userSpaceOnUse"><path
         id="path4292"
         d="m 0,841.89 595.28,0 L 595.28,0 0,0 0,841.89 Z" /></clipPath></defs><g
     transform="translate(0,82.594086)"
     id="layer1"><rect
       y="-82.594086"
       x="0"
       height="176.58046"
       width="471.3559"
       id="rect4475"
       style="opacity:1;fill:#ffffff;fill-opacity:1;stroke:none;stroke-width:2.5;stroke-miterlimit:10;stroke-dasharray:none;stroke-dashoffset:0;stroke-opacity:1" /></g><g
     style="display:inline"
     transform="matrix(1.25,0,0,-1.25,-144.52177,625.83146)"
     id="g4284"><g
       transform="translate(6.2282649,-38.489089)"
       id="g4286"><g
         clip-path="url(#clipPath4290)"
         id="g4288"><g
           transform="translate(133.1899,399.6289)"
           id="g4294"><path
             id="path4296"
             style="fill:#656263;fill-opacity:1;fill-rule:evenodd;stroke:none"
             d="m 0,0 -16.72,0 c -0.167,0 -0.338,0.024 -0.5,-0.007 -0.348,-0.062 -0.372,0.123 -0.344,0.383 0.011,0.11 0.001,0.225 0.001,0.334 l 0,33.523 c 0,0.167 0.009,0.335 -0.002,0.503 -0.012,0.188 0.081,0.222 0.25,0.222 2.229,-0.006 4.459,-0.009 6.688,0.003 0.249,0.001 0.265,-0.112 0.257,-0.301 -0.008,-0.195 -0.002,-0.389 -0.002,-0.585 l 0,-26.166 c 0,-0.223 0.009,-0.447 -0.002,-0.67 -0.008,-0.192 0.088,-0.226 0.255,-0.218 0.193,0.01 0.39,0.003 0.585,0.003 l 26.333,0 c 0.76,0 0.76,0 0.76,-0.793 0,-1.839 10e-4,-3.679 0,-5.515 C 17.559,0 17.558,0 16.803,0 L 0,0 Z" /></g><g
           transform="translate(157.9692,417.1484)"
           id="g4298"><path
             id="path4300"
             style="fill:#656263;fill-opacity:1;fill-rule:evenodd;stroke:none"
             d="m 0,0 0,16.553 c 0,0.224 0.006,0.446 -0.002,0.669 -0.011,0.195 0.092,0.227 0.254,0.216 0.14,-0.011 0.279,-0.003 0.419,-0.003 l 26.586,0 c 0.669,0 0.671,-0.002 0.671,-0.63 0.002,-1.867 0.002,-3.735 0,-5.601 0,-0.624 -0.002,-0.624 -0.593,-0.626 l -8.442,0 -11.038,0 c -0.194,0 -0.389,0.002 -0.584,0 C 7.009,10.575 6.882,10.42 6.858,10.176 6.844,10.011 6.856,9.843 6.856,9.675 l 0,-19.396 c 0,-0.139 -0.005,-0.276 0.001,-0.419 0.016,-0.402 0.123,-0.507 0.542,-0.522 0.111,-0.004 0.223,-10e-4 0.334,-10e-4 6.494,0 12.987,0.005 19.48,-0.004 0.796,-0.002 0.9,0.02 0.89,0.855 -0.02,1.895 -0.003,3.791 -0.007,5.686 -0.002,0.576 -0.077,0.654 -0.662,0.655 l -12.707,0 c -0.678,0 -0.679,0.003 -0.679,0.706 -10e-4,1.897 -10e-4,3.791 0,5.687 10e-4,0.46 0.006,0.464 0.42,0.465 6.688,0 13.377,0 20.064,-10e-4 0.415,0 0.421,-0.004 0.421,-0.464 0.002,-3.818 10e-4,-7.635 10e-4,-11.454 0,-2.703 10e-4,-5.406 -10e-4,-8.11 0,-0.274 0.081,-0.623 -0.054,-0.804 -0.149,-0.198 -0.517,-0.07 -0.789,-0.07 -5.572,-0.006 -11.147,-0.004 -16.718,-0.004 l -16.556,0 c -0.193,0 -0.389,0.009 -0.584,-0.002 -0.162,-0.008 -0.265,0.019 -0.254,0.216 C 0.006,-17.083 0,-16.86 0,-16.638 L 0,0 Z" /></g><g
           transform="translate(200.1416,417.1357)"
           id="g4302"><path
             id="path4304"
             style="fill:#656263;fill-opacity:1;fill-rule:evenodd;stroke:none"
             d="m 0,0 0,16.72 c 0,0.167 0.008,0.334 -0.002,0.502 -0.011,0.182 0.068,0.241 0.243,0.228 0.167,-0.011 0.335,-0.002 0.502,-0.002 11.146,0 22.292,-0.003 33.439,0.005 0.931,0 0.946,-0.013 0.945,-0.967 -0.006,-11.008 -0.006,-22.014 0,-33.022 10e-4,-0.957 -0.006,-0.985 -0.936,-0.978 -1.924,0.018 -3.847,0.011 -5.769,0 -0.242,0 -0.358,0.05 -0.328,0.319 0.021,0.19 0.005,0.388 0.005,0.582 l 0,26.167 c 0,0.167 0.004,0.335 -0.002,0.503 -0.014,0.412 -0.12,0.53 -0.531,0.53 -1.978,0.007 -3.957,0 -5.937,0.01 -0.203,0.001 -0.346,-0.111 -0.519,-0.157 -0.182,-0.05 -0.212,-0.119 -0.206,-0.277 0.008,-0.193 0.003,-0.389 0.003,-0.584 l 0,-26.249 0,-0.335 c -0.004,-0.495 -0.004,-0.502 -0.467,-0.502 -2.007,-0.003 -4.013,0.007 -6.018,-0.007 -0.272,-0.002 -0.403,0.02 -0.383,0.354 0.036,0.609 0.009,1.226 0.009,1.84 0,8.331 -0.003,16.663 0.006,24.994 0.002,0.868 -0.011,0.93 -0.908,0.923 C 11.223,10.578 9.301,10.583 7.378,10.599 7.063,10.603 7.01,10.513 7.018,10.227 7.039,9.501 7.023,8.776 7.023,8.052 l 0,-24.663 c 0,-0.194 -0.014,-0.391 0.006,-0.582 0.028,-0.264 -0.08,-0.321 -0.326,-0.321 -1.868,0.011 -3.734,0.007 -5.601,0.007 -0.279,0 -0.557,0.014 -0.836,-0.007 -0.236,-0.014 -0.282,0.09 -0.268,0.293 C 0.01,-17.027 0,-16.83 0,-16.637 L 0,0 Z" /></g><g
           transform="translate(255.644,423.2642)"
           id="g4306"><path
             id="path4308"
             style="fill:#f25655;fill-opacity:1;fill-rule:nonzero;stroke:none"
             d="M 0,0 C 0.077,-0.058 0.135,-0.165 0.173,-0.315 0.212,-0.467 0.231,-0.681 0.231,-0.96 0.231,-1.24 0.212,-1.453 0.173,-1.605 0.135,-1.755 0.077,-1.86 0,-1.916 -0.077,-1.973 -0.187,-2 -0.329,-2 l -6.519,0 c -0.201,0 -0.345,0.042 -0.431,0.127 -0.085,0.087 -0.129,0.232 -0.129,0.433 l 0,9.435 c 0,0.202 0.044,0.345 0.129,0.43 0.086,0.087 0.23,0.13 0.431,0.13 l 1.103,0 c 0.202,0 0.346,-0.043 0.432,-0.13 0.085,-0.085 0.128,-0.228 0.128,-0.43 l 0,-7.906 4.856,0 C -0.187,0.089 -0.077,0.059 0,0" /></g><g
           transform="translate(264.2529,423.7891)"
           id="g4310"><path
             id="path4312"
             style="fill:#7b7979;fill-opacity:1;fill-rule:nonzero;stroke:none"
             d="m 0,0 0,0.969 c -0.403,0.13 -0.836,0.23 -1.298,0.298 -0.463,0.068 -0.929,0.102 -1.397,0.102 -0.681,0 -1.219,-0.117 -1.614,-0.351 C -4.703,0.784 -4.9,0.413 -4.9,-0.098 c 0,-0.432 0.15,-0.77 0.449,-1.008 0.299,-0.242 0.719,-0.361 1.258,-0.361 1.18,0 2.244,0.488 3.193,1.467 M 0.498,5.14 C 1.055,4.642 1.333,3.904 1.333,2.926 l 0,-4.963 C 1.333,-2.245 1.289,-2.392 1.2,-2.481 1.111,-2.57 0.951,-2.615 0.72,-2.615 l -0.018,0 c -0.231,0 -0.391,0.045 -0.48,0.134 -0.089,0.089 -0.133,0.236 -0.133,0.444 l 0,0.605 c -0.481,-0.409 -1.001,-0.727 -1.561,-0.951 -0.56,-0.225 -1.152,-0.338 -1.774,-0.338 -0.593,0 -1.117,0.103 -1.574,0.306 -0.457,0.206 -0.812,0.503 -1.067,0.894 -0.255,0.392 -0.383,0.856 -0.383,1.396 0,0.943 0.331,1.637 0.992,2.081 0.661,0.445 1.519,0.667 2.574,0.667 0.943,0 1.845,-0.151 2.704,-0.453 L 0,2.926 C 0,3.5 -0.162,3.923 -0.485,4.193 -0.808,4.463 -1.329,4.598 -2.045,4.598 -2.49,4.598 -2.953,4.535 -3.433,4.411 -3.913,4.286 -4.37,4.115 -4.802,3.895 -4.897,3.841 -4.989,3.815 -5.078,3.815 c -0.19,0 -0.353,0.142 -0.489,0.427 -0.065,0.142 -0.098,0.261 -0.098,0.356 0,0.208 0.11,0.368 0.329,0.48 0.498,0.261 1.033,0.461 1.606,0.599 0.572,0.14 1.145,0.21 1.72,0.21 1.115,0 1.951,-0.249 2.508,-0.747" /></g><g
           transform="translate(271.123,428.0039)"
           id="g4314"><path
             id="path4316"
             style="fill:#7b7979;fill-opacity:1;fill-rule:nonzero;stroke:none"
             d="m 0,0 c -0.412,-0.237 -0.735,-0.581 -0.969,-1.031 -0.235,-0.451 -0.352,-0.985 -0.352,-1.601 0,-0.616 0.117,-1.15 0.352,-1.601 0.234,-0.451 0.557,-0.794 0.969,-1.031 0.412,-0.238 0.881,-0.356 1.409,-0.356 0.529,0 0.983,0.126 1.365,0.377 0.383,0.253 0.675,0.605 0.876,1.06 0.202,0.452 0.303,0.971 0.303,1.551 0,0.581 -0.101,1.099 -0.303,1.551 -0.201,0.455 -0.493,0.807 -0.876,1.06 C 2.392,0.23 1.938,0.356 1.409,0.356 0.881,0.356 0.412,0.238 0,0 M -1.467,4.882 C -1.37,4.793 -1.321,4.646 -1.321,4.438 l 0,-4.233 c 0.765,0.978 1.705,1.467 2.82,1.467 0.734,0 1.391,-0.174 1.969,-0.52 0.578,-0.348 1.032,-0.846 1.361,-1.494 0.329,-0.65 0.493,-1.412 0.493,-2.29 0,-0.878 -0.164,-1.64 -0.493,-2.29 C 4.5,-5.57 4.046,-6.068 3.468,-6.417 2.89,-6.762 2.233,-6.936 1.499,-6.936 c -0.582,0 -1.118,0.131 -1.61,0.391 -0.493,0.261 -0.925,0.634 -1.299,1.121 l 0,-0.827 c 0,-0.209 -0.044,-0.356 -0.133,-0.445 -0.089,-0.089 -0.249,-0.134 -0.48,-0.134 l -0.018,0 c -0.231,0 -0.391,0.045 -0.48,0.134 -0.089,0.089 -0.133,0.236 -0.133,0.445 l 0,10.689 c 0,0.208 0.049,0.355 0.146,0.444 0.098,0.089 0.268,0.134 0.511,0.134 l 0.018,0 c 0.244,0 0.414,-0.045 0.512,-0.134" /></g><g
           transform="translate(280.8921,427.9824)"
           id="g4318"><path
             id="path4320"
             style="fill:#7b7979;fill-opacity:1;fill-rule:nonzero;stroke:none"
             d="m 0,0 c -0.439,-0.253 -0.778,-0.604 -1.018,-1.06 -0.24,-0.452 -0.36,-0.97 -0.36,-1.55 0,-0.581 0.12,-1.099 0.36,-1.552 0.24,-0.455 0.579,-0.806 1.018,-1.059 0.439,-0.252 0.946,-0.378 1.521,-0.378 0.575,0 1.082,0.126 1.521,0.378 0.438,0.253 0.777,0.604 1.018,1.059 0.24,0.453 0.36,0.971 0.36,1.552 0,0.58 -0.12,1.098 -0.36,1.55 C 3.819,-0.604 3.48,-0.253 3.042,0 2.603,0.251 2.096,0.377 1.521,0.377 0.946,0.377 0.439,0.251 0,0 M 3.704,1.142 C 4.353,0.775 4.863,0.263 5.233,-0.391 5.604,-1.047 5.789,-1.786 5.789,-2.61 5.789,-3.435 5.604,-4.174 5.233,-4.83 4.863,-5.484 4.353,-5.996 3.704,-6.363 3.055,-6.73 2.327,-6.915 1.521,-6.915 c -0.806,0 -1.534,0.185 -2.184,0.552 -0.649,0.367 -1.159,0.879 -1.529,1.533 -0.37,0.656 -0.556,1.395 -0.556,2.22 0,0.824 0.186,1.563 0.556,2.219 0.37,0.654 0.88,1.166 1.529,1.533 0.65,0.367 1.378,0.551 2.184,0.551 0.806,0 1.534,-0.184 2.183,-0.551" /></g><g
           transform="translate(296.3574,429.4893)"
           id="g4322"><path
             id="path4324"
             style="fill:#7b7979;fill-opacity:1;fill-rule:nonzero;stroke:none"
             d="M 0,0 C 0.29,-0.094 0.436,-0.285 0.436,-0.569 0.436,-0.663 0.423,-0.756 0.4,-0.845 0.347,-1.041 0.283,-1.187 0.209,-1.286 0.134,-1.382 0.041,-1.432 -0.071,-1.432 c -0.066,0 -0.131,0.012 -0.196,0.036 -0.332,0.106 -0.658,0.16 -0.978,0.16 -0.682,0 -1.322,-0.207 -1.921,-0.623 -0.599,-0.415 -1.079,-0.974 -1.44,-1.675 C -4.968,-4.238 -5.149,-5 -5.149,-5.825 l 0,-1.912 c 0,-0.208 -0.049,-0.355 -0.147,-0.444 -0.098,-0.09 -0.268,-0.134 -0.511,-0.134 l -0.018,0 c -0.243,0 -0.413,0.044 -0.511,0.134 -0.098,0.089 -0.147,0.236 -0.147,0.444 l 0,7.239 c 0,0.208 0.045,0.355 0.133,0.445 0.089,0.089 0.249,0.133 0.481,0.133 l 0.017,0 c 0.232,0 0.392,-0.044 0.48,-0.133 0.09,-0.09 0.134,-0.237 0.134,-0.445 l 0,-2.09 c 0.516,0.872 1.126,1.551 1.832,2.042 0.706,0.487 1.452,0.733 2.241,0.733 C -0.78,0.187 -0.392,0.125 0,0" /></g><g
           transform="translate(305.0195,423.7891)"
           id="g4326"><path
             id="path4328"
             style="fill:#7b7979;fill-opacity:1;fill-rule:nonzero;stroke:none"
             d="m 0,0 0,0.969 c -0.402,0.13 -0.836,0.23 -1.298,0.298 -0.462,0.068 -0.929,0.102 -1.395,0.102 -0.682,0 -1.221,-0.117 -1.616,-0.351 -0.394,-0.234 -0.59,-0.605 -0.59,-1.116 0,-0.432 0.149,-0.77 0.449,-1.008 0.299,-0.242 0.719,-0.361 1.259,-0.361 1.178,0 2.244,0.488 3.191,1.467 M 0.498,5.14 C 1.056,4.642 1.334,3.904 1.334,2.926 l 0,-4.963 C 1.334,-2.245 1.29,-2.392 1.201,-2.481 1.111,-2.57 0.952,-2.615 0.721,-2.615 l -0.018,0 c -0.231,0 -0.391,0.045 -0.48,0.134 -0.089,0.089 -0.133,0.236 -0.133,0.444 l 0,0.605 c -0.481,-0.409 -1.001,-0.727 -1.561,-0.951 -0.56,-0.225 -1.152,-0.338 -1.775,-0.338 -0.592,0 -1.117,0.103 -1.573,0.306 -0.456,0.206 -0.813,0.503 -1.068,0.894 -0.254,0.392 -0.382,0.856 -0.382,1.396 0,0.943 0.331,1.637 0.992,2.081 0.661,0.445 1.519,0.667 2.574,0.667 0.943,0 1.844,-0.151 2.703,-0.453 l 0,0.756 c 0,0.574 -0.161,0.997 -0.484,1.267 -0.324,0.27 -0.844,0.405 -1.561,0.405 -0.444,0 -0.907,-0.063 -1.387,-0.187 -0.48,-0.125 -0.937,-0.296 -1.37,-0.516 -0.094,-0.054 -0.186,-0.08 -0.275,-0.08 -0.191,0 -0.353,0.142 -0.489,0.427 -0.066,0.142 -0.098,0.261 -0.098,0.356 0,0.208 0.109,0.368 0.329,0.48 0.497,0.261 1.032,0.461 1.605,0.599 0.572,0.14 1.146,0.21 1.72,0.21 1.115,0 1.951,-0.249 2.508,-0.747" /></g><g
           transform="translate(317.2754,422.5264)"
           id="g4330"><path
             id="path4332"
             style="fill:#7b7979;fill-opacity:1;fill-rule:nonzero;stroke:none"
             d="m 0,0 c 0,-0.189 -0.099,-0.344 -0.294,-0.462 -0.462,-0.291 -0.978,-0.53 -1.548,-0.716 -0.568,-0.188 -1.099,-0.28 -1.592,-0.28 -1.007,0 -1.744,0.262 -2.209,0.786 -0.466,0.526 -0.699,1.308 -0.699,2.353 l 0,3.281 -1.804,0 c -0.202,0 -0.346,0.05 -0.432,0.146 -0.086,0.099 -0.129,0.263 -0.129,0.494 0,0.231 0.043,0.395 0.129,0.494 0.086,0.097 0.23,0.147 0.432,0.147 l 1.804,0 0,2.667 c 0,0.207 0.051,0.356 0.153,0.445 0.1,0.089 0.271,0.133 0.515,0.133 0.243,0 0.414,-0.044 0.516,-0.133 0.1,-0.089 0.15,-0.238 0.15,-0.445 l 0,-2.667 3.655,0 c 0.203,0 0.346,-0.05 0.432,-0.147 0.085,-0.099 0.129,-0.263 0.129,-0.494 0,-0.231 -0.044,-0.395 -0.129,-0.494 C -1.007,5.012 -1.15,4.962 -1.353,4.962 l -3.655,0 0,-3.166 c 0,-0.676 0.119,-1.17 0.357,-1.485 0.237,-0.315 0.643,-0.471 1.217,-0.471 0.398,0 0.816,0.08 1.254,0.24 0.44,0.16 0.864,0.373 1.272,0.64 0.084,0.058 0.176,0.089 0.276,0.089 0.201,0 0.373,-0.137 0.516,-0.409 C -0.039,0.245 0,0.113 0,0" /></g><g
           transform="translate(321.6602,427.9824)"
           id="g4334"><path
             id="path4336"
             style="fill:#7b7979;fill-opacity:1;fill-rule:nonzero;stroke:none"
             d="m 0,0 c -0.439,-0.253 -0.779,-0.604 -1.02,-1.06 -0.239,-0.452 -0.359,-0.97 -0.359,-1.55 0,-0.581 0.12,-1.099 0.359,-1.552 0.241,-0.455 0.581,-0.806 1.02,-1.059 0.438,-0.252 0.945,-0.378 1.52,-0.378 0.575,0 1.082,0.126 1.521,0.378 0.438,0.253 0.777,0.604 1.018,1.059 0.24,0.453 0.36,0.971 0.36,1.552 0,0.58 -0.12,1.098 -0.36,1.55 C 3.818,-0.604 3.479,-0.253 3.041,0 2.602,0.251 2.095,0.377 1.52,0.377 0.945,0.377 0.438,0.251 0,0 M 3.703,1.142 C 4.352,0.775 4.862,0.263 5.232,-0.391 5.604,-1.047 5.789,-1.786 5.789,-2.61 5.789,-3.435 5.604,-4.174 5.232,-4.83 4.862,-5.484 4.352,-5.996 3.703,-6.363 3.054,-6.73 2.326,-6.915 1.52,-6.915 c -0.806,0 -1.534,0.185 -2.183,0.552 -0.65,0.367 -1.159,0.879 -1.53,1.533 -0.37,0.656 -0.555,1.395 -0.555,2.22 0,0.824 0.185,1.563 0.555,2.219 0.371,0.654 0.88,1.166 1.53,1.533 0.649,0.367 1.377,0.551 2.183,0.551 0.806,0 1.534,-0.184 2.183,-0.551" /></g><g
           transform="translate(337.125,429.4893)"
           id="g4338"><path
             id="path4340"
             style="fill:#7b7979;fill-opacity:1;fill-rule:nonzero;stroke:none"
             d="m 0,0 c 0.289,-0.094 0.436,-0.285 0.436,-0.569 0,-0.094 -0.012,-0.187 -0.037,-0.276 -0.053,-0.196 -0.116,-0.342 -0.19,-0.441 -0.074,-0.096 -0.168,-0.146 -0.281,-0.146 -0.065,0 -0.129,0.012 -0.196,0.036 -0.332,0.106 -0.658,0.16 -0.978,0.16 -0.682,0 -1.321,-0.207 -1.92,-0.623 -0.6,-0.415 -1.08,-0.974 -1.441,-1.675 C -4.969,-4.238 -5.149,-5 -5.149,-5.825 l 0,-1.912 c 0,-0.208 -0.049,-0.355 -0.147,-0.444 -0.099,-0.09 -0.268,-0.134 -0.512,-0.134 l -0.017,0 c -0.243,0 -0.413,0.044 -0.511,0.134 -0.099,0.089 -0.147,0.236 -0.147,0.444 l 0,7.239 c 0,0.208 0.044,0.355 0.133,0.445 0.089,0.089 0.248,0.133 0.481,0.133 l 0.017,0 c 0.231,0 0.391,-0.044 0.481,-0.133 0.088,-0.09 0.133,-0.237 0.133,-0.445 l 0,-2.09 c 0.515,0.872 1.126,1.551 1.832,2.042 0.705,0.487 1.453,0.733 2.24,0.733 C -0.779,0.187 -0.392,0.125 0,0" /></g><g
           transform="translate(347.8047,429.2632)"
           id="g4342"><path
             id="path4344"
             style="fill:#7b7979;fill-opacity:1;fill-rule:nonzero;stroke:none"
             d="m 0,0 c 0.077,-0.082 0.116,-0.174 0.116,-0.281 0,-0.095 -0.03,-0.199 -0.089,-0.311 l -5.308,-10.591 c -0.067,-0.131 -0.134,-0.226 -0.205,-0.284 -0.072,-0.061 -0.155,-0.09 -0.249,-0.09 -0.107,0 -0.241,0.036 -0.4,0.107 -0.16,0.065 -0.277,0.139 -0.351,0.217 -0.075,0.082 -0.112,0.17 -0.112,0.272 0,0.093 0.03,0.201 0.089,0.32 l 1.521,3.024 -3.531,7.025 c -0.059,0.112 -0.088,0.216 -0.088,0.311 0,0.202 0.16,0.367 0.48,0.498 0.16,0.071 0.293,0.107 0.4,0.107 0.101,0 0.186,-0.03 0.258,-0.089 0.071,-0.06 0.139,-0.154 0.204,-0.285 l 3.033,-6.074 3.014,6.074 c 0.066,0.131 0.134,0.225 0.204,0.285 0.073,0.059 0.158,0.089 0.258,0.089 0.108,0 0.24,-0.036 0.401,-0.107 C -0.195,0.152 -0.076,0.079 0,0" /></g><g
           transform="translate(368.4023,431.9434)"
           id="g4346"><path
             id="path4348"
             style="fill:#7b7979;fill-opacity:1;fill-rule:nonzero;stroke:none"
             d="m 0,0 c 0,-0.048 -0.013,-0.129 -0.036,-0.249 -0.083,-0.333 -0.236,-0.498 -0.462,-0.498 -0.054,0 -0.119,0.016 -0.196,0.045 -0.752,0.29 -1.455,0.435 -2.108,0.435 -1.197,0 -1.796,-0.642 -1.796,-1.929 l 0,-0.978 3.077,0 c 0.202,0 0.345,-0.05 0.431,-0.147 0.086,-0.099 0.129,-0.262 0.129,-0.494 0,-0.231 -0.043,-0.395 -0.129,-0.494 -0.086,-0.096 -0.229,-0.146 -0.431,-0.146 l -3.077,0 0,-5.736 c 0,-0.208 -0.048,-0.355 -0.146,-0.444 -0.099,-0.09 -0.269,-0.134 -0.512,-0.134 l -0.017,0 c -0.244,0 -0.415,0.044 -0.512,0.134 -0.098,0.089 -0.147,0.236 -0.147,0.444 l 0,5.736 -1.76,0 c -0.202,0 -0.346,0.05 -0.432,0.146 -0.086,0.099 -0.129,0.263 -0.129,0.494 0,0.232 0.043,0.395 0.129,0.494 0.086,0.097 0.23,0.147 0.432,0.147 l 1.76,0 0,1.093 c 0,0.978 0.275,1.742 0.823,2.289 0.547,0.549 1.317,0.824 2.307,0.824 0.795,0 1.583,-0.152 2.365,-0.454 C -0.146,0.465 0,0.272 0,0" /></g><g
           transform="translate(372.6182,427.9824)"
           id="g4350"><path
             id="path4352"
             style="fill:#7b7979;fill-opacity:1;fill-rule:nonzero;stroke:none"
             d="m 0,0 c -0.439,-0.253 -0.778,-0.604 -1.019,-1.06 -0.24,-0.452 -0.36,-0.97 -0.36,-1.55 0,-0.581 0.12,-1.099 0.36,-1.552 0.241,-0.455 0.58,-0.806 1.019,-1.059 0.438,-0.252 0.945,-0.378 1.521,-0.378 0.574,0 1.081,0.126 1.52,0.378 0.438,0.253 0.778,0.604 1.019,1.059 0.239,0.453 0.359,0.971 0.359,1.552 0,0.58 -0.12,1.098 -0.359,1.55 C 3.819,-0.604 3.479,-0.253 3.041,0 2.602,0.251 2.095,0.377 1.521,0.377 0.945,0.377 0.438,0.251 0,0 M 3.703,1.142 C 4.353,0.775 4.862,0.263 5.233,-0.391 5.604,-1.047 5.789,-1.786 5.789,-2.61 5.789,-3.435 5.604,-4.174 5.233,-4.83 4.862,-5.484 4.353,-5.996 3.703,-6.363 3.054,-6.73 2.326,-6.915 1.521,-6.915 c -0.807,0 -1.535,0.185 -2.184,0.552 -0.65,0.367 -1.159,0.879 -1.529,1.533 -0.371,0.656 -0.556,1.395 -0.556,2.22 0,0.824 0.185,1.563 0.556,2.219 0.37,0.654 0.879,1.166 1.529,1.533 0.649,0.367 1.377,0.551 2.184,0.551 0.805,0 1.533,-0.184 2.182,-0.551" /></g><g
           transform="translate(388.083,429.4893)"
           id="g4354"><path
             id="path4356"
             style="fill:#7b7979;fill-opacity:1;fill-rule:nonzero;stroke:none"
             d="M 0,0 C 0.291,-0.094 0.437,-0.285 0.437,-0.569 0.437,-0.663 0.424,-0.756 0.4,-0.845 0.347,-1.041 0.283,-1.187 0.209,-1.286 0.135,-1.382 0.042,-1.432 -0.07,-1.432 c -0.066,0 -0.131,0.012 -0.197,0.036 -0.332,0.106 -0.658,0.16 -0.977,0.16 -0.682,0 -1.322,-0.207 -1.921,-0.623 -0.6,-0.415 -1.08,-0.974 -1.441,-1.675 C -4.968,-4.238 -5.148,-5 -5.148,-5.825 l 0,-1.912 c 0,-0.208 -0.049,-0.355 -0.147,-0.444 -0.098,-0.09 -0.268,-0.134 -0.512,-0.134 l -0.017,0 c -0.243,0 -0.414,0.044 -0.512,0.134 -0.098,0.089 -0.146,0.236 -0.146,0.444 l 0,7.239 c 0,0.208 0.044,0.355 0.133,0.445 0.089,0.089 0.249,0.133 0.48,0.133 l 0.018,0 c 0.231,0 0.391,-0.044 0.48,-0.133 0.089,-0.09 0.134,-0.237 0.134,-0.445 l 0,-2.09 c 0.515,0.872 1.126,1.551 1.832,2.042 0.705,0.487 1.452,0.733 2.24,0.733 C -0.779,0.187 -0.391,0.125 0,0" /></g><g
           transform="translate(406.8574,431.7964)"
           id="g4358"><path
             id="path4360"
             style="fill:#7b7979;fill-opacity:1;fill-rule:nonzero;stroke:none"
             d="M 0,0 C 0.538,-0.145 1.079,-0.371 1.618,-0.68 1.837,-0.811 1.947,-0.976 1.947,-1.178 1.947,-1.291 1.908,-1.433 1.832,-1.604 1.707,-1.865 1.55,-1.996 1.36,-1.996 c -0.083,0 -0.184,0.032 -0.302,0.098 -0.896,0.533 -1.814,0.8 -2.757,0.8 -0.64,0 -1.201,-0.169 -1.686,-0.506 -0.482,-0.339 -0.856,-0.82 -1.12,-1.445 C -4.768,-3.675 -4.9,-4.408 -4.9,-5.25 c 0,-0.843 0.132,-1.577 0.395,-2.206 0.264,-0.629 0.638,-1.112 1.12,-1.45 0.485,-0.338 1.046,-0.507 1.686,-0.507 0.943,0 1.861,0.267 2.757,0.801 0.118,0.065 0.219,0.098 0.302,0.098 0.19,0 0.347,-0.13 0.472,-0.392 0.076,-0.173 0.115,-0.315 0.115,-0.427 0,-0.2 -0.11,-0.368 -0.329,-0.498 -0.539,-0.307 -1.08,-0.534 -1.618,-0.68 -0.539,-0.145 -1.105,-0.218 -1.699,-0.218 -0.906,0 -1.706,0.228 -2.397,0.68 -0.69,0.455 -1.224,1.095 -1.604,1.926 -0.38,0.831 -0.57,1.788 -0.57,2.873 0,1.084 0.19,2.041 0.57,2.867 0.38,0.828 0.914,1.468 1.604,1.921 0.691,0.454 1.491,0.68 2.397,0.68 C -1.105,0.218 -0.539,0.146 0,0" /></g><g
           transform="translate(413.3848,427.9824)"
           id="g4362"><path
             id="path4364"
             style="fill:#7b7979;fill-opacity:1;fill-rule:nonzero;stroke:none"
             d="m 0,0 c -0.438,-0.253 -0.778,-0.604 -1.018,-1.06 -0.24,-0.452 -0.36,-0.97 -0.36,-1.55 0,-0.581 0.12,-1.099 0.36,-1.552 0.24,-0.455 0.58,-0.806 1.018,-1.059 0.439,-0.252 0.946,-0.378 1.521,-0.378 0.575,0 1.082,0.126 1.52,0.378 0.439,0.253 0.778,0.604 1.019,1.059 0.24,0.453 0.361,0.971 0.361,1.552 0,0.58 -0.121,1.098 -0.361,1.55 C 3.819,-0.604 3.48,-0.253 3.041,0 2.603,0.251 2.096,0.377 1.521,0.377 0.946,0.377 0.439,0.251 0,0 M 3.704,1.142 C 4.354,0.775 4.862,0.263 5.233,-0.391 5.604,-1.047 5.79,-1.786 5.79,-2.61 5.79,-3.435 5.604,-4.174 5.233,-4.83 4.862,-5.484 4.354,-5.996 3.704,-6.363 3.055,-6.73 2.327,-6.915 1.521,-6.915 c -0.806,0 -1.534,0.185 -2.183,0.552 -0.65,0.367 -1.16,0.879 -1.529,1.533 -0.371,0.656 -0.556,1.395 -0.556,2.22 0,0.824 0.185,1.563 0.556,2.219 0.369,0.654 0.879,1.166 1.529,1.533 0.649,0.367 1.377,0.551 2.183,0.551 0.806,0 1.534,-0.184 2.183,-0.551" /></g><g
           transform="translate(428.5967,429.4131)"
           id="g4366"><path
             id="path4368"
             style="fill:#7b7979;fill-opacity:1;fill-rule:nonzero;stroke:none"
             d="M 0,0 C 0.276,-0.174 0.495,-0.441 0.658,-0.8 0.82,-1.159 0.901,-1.598 0.901,-2.121 l 0,-5.54 c 0,-0.208 -0.047,-0.355 -0.144,-0.444 -0.099,-0.089 -0.27,-0.134 -0.513,-0.134 l -0.018,0 c -0.242,0 -0.412,0.045 -0.511,0.134 -0.096,0.089 -0.147,0.236 -0.147,0.444 l 0,5.381 c 0,0.408 -0.066,0.715 -0.198,0.921 -0.135,0.203 -0.349,0.306 -0.645,0.306 -0.28,0 -0.537,-0.129 -0.776,-0.388 -0.236,-0.256 -0.424,-0.616 -0.563,-1.075 -0.14,-0.46 -0.209,-0.983 -0.209,-1.57 l 0,-3.575 c 0,-0.208 -0.048,-0.355 -0.148,-0.444 -0.095,-0.089 -0.266,-0.134 -0.51,-0.134 l -0.018,0 c -0.244,0 -0.414,0.045 -0.511,0.134 -0.098,0.089 -0.147,0.236 -0.147,0.444 l 0,5.381 c 0,0.408 -0.066,0.715 -0.2,0.921 -0.132,0.203 -0.349,0.306 -0.646,0.306 -0.277,0 -0.537,-0.129 -0.773,-0.388 -0.237,-0.256 -0.425,-0.616 -0.564,-1.075 -0.139,-0.46 -0.21,-0.983 -0.21,-1.57 l 0,-3.575 c 0,-0.208 -0.05,-0.355 -0.145,-0.444 -0.1,-0.089 -0.27,-0.134 -0.513,-0.134 l -0.018,0 c -0.242,0 -0.413,0.045 -0.511,0.134 -0.097,0.089 -0.147,0.236 -0.147,0.444 l 0,7.239 c 0,0.209 0.04,0.356 0.121,0.445 0.079,0.089 0.229,0.133 0.449,0.133 l 0.017,0 c 0.22,0 0.37,-0.044 0.448,-0.133 0.082,-0.089 0.121,-0.236 0.121,-0.445 l 0,-0.996 c 0.256,0.557 0.561,0.977 0.916,1.258 0.357,0.282 0.743,0.423 1.157,0.423 0.404,0 0.755,-0.136 1.057,-0.409 0.302,-0.273 0.508,-0.672 0.615,-1.201 0.529,1.073 1.21,1.61 2.045,1.61 C -0.587,0.263 -0.274,0.175 0,0" /></g><g
           transform="translate(434.1914,428.0039)"
           id="g4370"><path
             id="path4372"
             style="fill:#7b7979;fill-opacity:1;fill-rule:nonzero;stroke:none"
             d="m 0,0 c -0.412,-0.237 -0.734,-0.581 -0.971,-1.031 -0.233,-0.451 -0.35,-0.985 -0.35,-1.601 0,-0.616 0.117,-1.15 0.35,-1.601 0.237,-0.451 0.559,-0.794 0.971,-1.031 0.411,-0.238 0.882,-0.356 1.41,-0.356 0.526,0 0.981,0.126 1.364,0.377 0.381,0.253 0.673,0.605 0.877,1.06 0.201,0.452 0.302,0.971 0.302,1.551 0,0.581 -0.101,1.099 -0.302,1.551 -0.204,0.455 -0.496,0.807 -0.877,1.06 C 2.391,0.23 1.936,0.356 1.41,0.356 0.882,0.356 0.411,0.238 0,0 M 3.468,1.152 C 4.045,0.804 4.5,0.306 4.827,-0.342 c 0.33,-0.65 0.496,-1.412 0.496,-2.29 0,-0.878 -0.166,-1.64 -0.496,-2.29 C 4.5,-5.57 4.045,-6.068 3.468,-6.417 2.889,-6.762 2.233,-6.936 1.499,-6.936 c -1.115,0 -2.056,0.489 -2.82,1.467 l 0,-4.233 c 0,-0.208 -0.048,-0.356 -0.148,-0.444 -0.096,-0.089 -0.266,-0.134 -0.51,-0.134 l -0.018,0 c -0.244,0 -0.414,0.045 -0.511,0.134 -0.099,0.088 -0.147,0.236 -0.147,0.444 l 0,10.689 c 0,0.209 0.046,0.356 0.134,0.445 0.089,0.089 0.25,0.133 0.481,0.133 l 0.018,0 c 0.231,0 0.391,-0.044 0.48,-0.133 0.089,-0.089 0.132,-0.236 0.132,-0.445 l 0,-0.827 c 0.373,0.487 0.806,0.861 1.298,1.121 0.493,0.26 1.029,0.391 1.611,0.391 0.734,0 1.39,-0.174 1.969,-0.52" /></g><g
           transform="translate(448.999,429.436)"
           id="g4374"><path
             id="path4376"
             style="fill:#7b7979;fill-opacity:1;fill-rule:nonzero;stroke:none"
             d="m 0,0 c 0.097,-0.089 0.145,-0.236 0.145,-0.445 l 0,-7.239 c 0,-0.208 -0.043,-0.355 -0.132,-0.444 -0.089,-0.089 -0.249,-0.134 -0.481,-0.134 l -0.017,0 c -0.232,0 -0.392,0.045 -0.481,0.134 -0.089,0.089 -0.135,0.236 -0.135,0.444 l 0,1.45 c -0.401,-0.622 -0.914,-1.135 -1.537,-1.533 -0.622,-0.402 -1.25,-0.601 -1.884,-0.601 -0.895,0 -1.588,0.258 -2.082,0.773 -0.493,0.516 -0.739,1.225 -0.739,2.126 l 0,5.024 c 0,0.209 0.051,0.356 0.148,0.445 0.098,0.089 0.269,0.133 0.51,0.133 l 0.018,0 c 0.244,0 0.414,-0.044 0.513,-0.133 0.096,-0.089 0.145,-0.236 0.145,-0.445 l 0,-4.891 c 0,-0.534 0.132,-0.953 0.397,-1.257 0.263,-0.307 0.67,-0.459 1.221,-0.459 0.511,0 1.014,0.161 1.509,0.484 0.493,0.324 0.901,0.762 1.218,1.316 0.317,0.555 0.475,1.159 0.475,1.81 l 0,2.997 c 0,0.209 0.05,0.356 0.147,0.445 0.1,0.089 0.27,0.133 0.511,0.133 l 0.017,0 C -0.27,0.133 -0.1,0.089 0,0" /></g><g
           transform="translate(459.96,422.5264)"
           id="g4378"><path
             id="path4380"
             style="fill:#7b7979;fill-opacity:1;fill-rule:nonzero;stroke:none"
             d="m 0,0 c 0,-0.189 -0.1,-0.344 -0.295,-0.462 -0.462,-0.291 -0.978,-0.53 -1.547,-0.716 -0.569,-0.188 -1.1,-0.28 -1.591,-0.28 -1.008,0 -1.746,0.262 -2.211,0.786 -0.464,0.526 -0.698,1.308 -0.698,2.353 l 0,3.281 -1.804,0 c -0.204,0 -0.345,0.05 -0.432,0.146 -0.086,0.099 -0.129,0.263 -0.129,0.494 0,0.231 0.043,0.395 0.129,0.494 0.087,0.097 0.228,0.147 0.432,0.147 l 1.804,0 0,2.667 c 0,0.207 0.051,0.356 0.153,0.445 0.098,0.089 0.271,0.133 0.515,0.133 0.241,0 0.414,-0.044 0.516,-0.133 0.099,-0.089 0.15,-0.238 0.15,-0.445 l 0,-2.667 3.656,0 c 0.201,0 0.346,-0.05 0.429,-0.147 0.087,-0.099 0.13,-0.263 0.13,-0.494 0,-0.231 -0.043,-0.395 -0.13,-0.494 C -1.006,5.012 -1.151,4.962 -1.352,4.962 l -3.656,0 0,-3.166 c 0,-0.676 0.119,-1.17 0.356,-1.485 0.236,-0.315 0.642,-0.471 1.219,-0.471 0.397,0 0.813,0.08 1.252,0.24 0.441,0.16 0.865,0.373 1.274,0.64 0.081,0.058 0.173,0.089 0.274,0.089 0.2,0 0.373,-0.137 0.516,-0.409 C -0.041,0.245 0,0.113 0,0" /></g><g
           transform="translate(464.1211,427.8301)"
           id="g4382"><path
             id="path4384"
             style="fill:#7b7979;fill-opacity:1;fill-rule:nonzero;stroke:none"
             d="m 0,0 c -0.479,-0.37 -0.795,-0.884 -0.942,-1.542 l 5.47,0 C 4.403,-0.866 4.114,-0.348 3.659,0.014 3.207,0.376 2.595,0.557 1.825,0.557 1.088,0.557 0.48,0.371 0,0 M 4.02,1.326 C 4.625,0.978 5.09,0.5 5.412,-0.11 5.735,-0.722 5.921,-1.431 5.969,-2.236 5.979,-2.432 5.94,-2.573 5.847,-2.658 5.755,-2.744 5.608,-2.787 5.407,-2.787 l -6.438,0 c 0.041,-0.884 0.29,-1.553 0.747,-2.005 0.457,-0.455 1.1,-0.681 1.93,-0.681 0.593,0 1.172,0.069 1.739,0.204 0.566,0.137 1.054,0.325 1.464,0.561 0.098,0.053 0.19,0.08 0.274,0.08 0.111,0 0.216,-0.043 0.307,-0.128 0.091,-0.087 0.166,-0.21 0.218,-0.37 C 5.689,-5.233 5.71,-5.339 5.71,-5.446 5.71,-5.684 5.58,-5.864 5.318,-5.989 4.838,-6.22 4.271,-6.407 3.621,-6.549 2.968,-6.691 2.31,-6.762 1.646,-6.762 c -0.861,0 -1.592,0.171 -2.197,0.515 -0.604,0.345 -1.064,0.84 -1.377,1.486 -0.315,0.645 -0.472,1.413 -0.472,2.303 0,0.847 0.18,1.597 0.538,2.25 0.358,0.653 0.859,1.157 1.499,1.517 0.64,0.358 1.37,0.537 2.188,0.537 0.859,0 1.59,-0.174 2.195,-0.52" /></g><g
           transform="translate(479.8086,429.4893)"
           id="g4386"><path
             id="path4388"
             style="fill:#7b7979;fill-opacity:1;fill-rule:nonzero;stroke:none"
             d="m 0,0 c 0.292,-0.094 0.437,-0.285 0.437,-0.569 0,-0.094 -0.013,-0.187 -0.036,-0.276 -0.053,-0.196 -0.117,-0.342 -0.19,-0.441 -0.076,-0.096 -0.168,-0.146 -0.282,-0.146 -0.064,0 -0.13,0.012 -0.197,0.036 -0.33,0.106 -0.657,0.16 -0.977,0.16 -0.681,0 -1.321,-0.207 -1.921,-0.623 -0.598,-0.415 -1.077,-0.974 -1.44,-1.675 C -4.968,-4.238 -5.148,-5 -5.148,-5.825 l 0,-1.912 c 0,-0.208 -0.048,-0.355 -0.147,-0.444 -0.097,-0.09 -0.268,-0.134 -0.511,-0.134 l -0.018,0 c -0.243,0 -0.414,0.044 -0.51,0.134 -0.1,0.089 -0.147,0.236 -0.147,0.444 l 0,7.239 c 0,0.208 0.043,0.355 0.131,0.445 0.089,0.089 0.249,0.133 0.481,0.133 l 0.017,0 c 0.232,0 0.391,-0.044 0.481,-0.133 0.089,-0.09 0.134,-0.237 0.134,-0.445 l 0,-2.09 c 0.516,0.872 1.126,1.551 1.832,2.042 0.707,0.487 1.454,0.733 2.241,0.733 C -0.777,0.187 -0.392,0.125 0,0" /></g><g
           transform="translate(256.0132,407.2314)"
           id="g4390"><path
             id="path4392"
             style="fill:#f25655;fill-opacity:1;fill-rule:nonzero;stroke:none"
             d="m 0,0 c 0.085,-0.086 0.129,-0.23 0.129,-0.432 l 0,-4.1 c 0,-0.142 -0.028,-0.267 -0.085,-0.374 -0.056,-0.106 -0.134,-0.186 -0.235,-0.239 -0.511,-0.279 -1.093,-0.49 -1.748,-0.636 -0.655,-0.146 -1.341,-0.217 -2.059,-0.217 -0.972,0 -1.826,0.221 -2.561,0.666 -0.734,0.444 -1.304,1.08 -1.707,1.902 -0.403,0.825 -0.605,1.794 -0.605,2.909 0,1.115 0.202,2.084 0.605,2.908 0.403,0.824 0.973,1.458 1.707,1.898 0.735,0.442 1.589,0.662 2.561,0.662 0.617,0 1.228,-0.066 1.832,-0.203 0.605,-0.137 1.171,-0.326 1.699,-0.568 0.273,-0.125 0.409,-0.345 0.409,-0.658 0,-0.161 -0.041,-0.367 -0.125,-0.616 C -0.266,2.648 -0.368,2.46 -0.489,2.338 -0.61,2.217 -0.743,2.155 -0.885,2.155 c -0.065,0 -0.151,0.022 -0.258,0.064 -0.937,0.414 -1.858,0.623 -2.766,0.623 -0.841,0 -1.49,-0.289 -1.947,-0.864 -0.457,-0.575 -0.685,-1.408 -0.685,-2.499 0,-1.09 0.23,-1.925 0.689,-2.503 0.46,-0.578 1.107,-0.868 1.943,-0.868 0.641,0 1.245,0.093 1.815,0.277 l 0,1.654 -1.921,0 c -0.143,0 -0.253,0.027 -0.329,0.084 -0.077,0.056 -0.135,0.16 -0.174,0.311 -0.038,0.152 -0.058,0.367 -0.058,0.644 0,0.279 0.02,0.494 0.058,0.646 0.039,0.151 0.097,0.256 0.174,0.315 0.076,0.06 0.186,0.088 0.329,0.088 l 3.583,0 C -0.23,0.127 -0.086,0.084 0,0" /></g><g
           transform="translate(265.7822,409.6533)"
           id="g4394"><path
             id="path4396"
             style="fill:#7b7979;fill-opacity:1;fill-rule:nonzero;stroke:none"
             d="M 0,0 C 0.291,-0.094 0.436,-0.285 0.436,-0.568 0.436,-0.663 0.424,-0.754 0.4,-0.844 0.347,-1.039 0.283,-1.187 0.209,-1.284 0.135,-1.383 0.042,-1.43 -0.071,-1.43 c -0.066,0 -0.13,0.011 -0.196,0.035 -0.332,0.107 -0.658,0.161 -0.978,0.161 -0.681,0 -1.322,-0.209 -1.921,-0.623 -0.599,-0.415 -1.079,-0.975 -1.44,-1.677 C -4.968,-4.236 -5.149,-5 -5.149,-5.823 l 0,-1.913 c 0,-0.207 -0.049,-0.356 -0.146,-0.446 -0.099,-0.088 -0.268,-0.131 -0.512,-0.131 l -0.018,0 c -0.243,0 -0.413,0.043 -0.511,0.131 -0.098,0.09 -0.147,0.239 -0.147,0.446 l 0,7.238 c 0,0.209 0.045,0.355 0.134,0.445 0.089,0.088 0.249,0.135 0.48,0.135 l 0.017,0 c 0.232,0 0.392,-0.047 0.481,-0.135 0.089,-0.09 0.133,-0.236 0.133,-0.445 l 0,-2.088 c 0.516,0.871 1.127,1.551 1.832,2.039 0.706,0.49 1.453,0.735 2.241,0.735 C -0.779,0.188 -0.391,0.125 0,0" /></g><g
           transform="translate(274.4443,403.9541)"
           id="g4398"><path
             id="path4400"
             style="fill:#7b7979;fill-opacity:1;fill-rule:nonzero;stroke:none"
             d="M 0,0 0,0.969 C -0.403,1.1 -0.836,1.199 -1.298,1.268 -1.761,1.334 -2.226,1.369 -2.694,1.369 -3.376,1.369 -3.914,1.253 -4.309,1.018 -4.703,0.783 -4.9,0.412 -4.9,-0.099 c 0,-0.432 0.15,-0.768 0.449,-1.008 0.3,-0.241 0.719,-0.362 1.259,-0.362 1.179,0 2.244,0.49 3.192,1.469 M 0.498,5.141 C 1.055,4.643 1.334,3.902 1.334,2.925 l 0,-4.962 C 1.334,-2.244 1.29,-2.393 1.201,-2.482 1.112,-2.57 0.952,-2.614 0.72,-2.614 l -0.017,0 c -0.232,0 -0.391,0.044 -0.481,0.132 -0.089,0.089 -0.133,0.238 -0.133,0.445 l 0,0.604 c -0.48,-0.409 -1.001,-0.725 -1.561,-0.95 -0.56,-0.226 -1.151,-0.338 -1.774,-0.338 -0.592,0 -1.117,0.102 -1.574,0.307 -0.456,0.204 -0.812,0.501 -1.067,0.893 -0.255,0.39 -0.383,0.857 -0.383,1.397 0,0.942 0.331,1.636 0.992,2.081 0.661,0.444 1.52,0.666 2.575,0.666 0.942,0 1.844,-0.15 2.703,-0.453 L 0,2.925 C 0,3.5 -0.161,3.924 -0.484,4.192 -0.808,4.462 -1.328,4.597 -2.045,4.597 -2.49,4.597 -2.952,4.535 -3.433,4.411 -3.913,4.287 -4.37,4.113 -4.802,3.896 -4.896,3.842 -4.989,3.814 -5.078,3.814 c -0.19,0 -0.352,0.143 -0.489,0.426 -0.065,0.143 -0.098,0.262 -0.098,0.357 0,0.208 0.11,0.368 0.33,0.479 0.498,0.262 1.032,0.463 1.605,0.602 0.572,0.138 1.146,0.209 1.72,0.209 1.115,0 1.951,-0.248 2.508,-0.746" /></g><g
           transform="translate(281.3145,408.1689)"
           id="g4402"><path
             id="path4404"
             style="fill:#7b7979;fill-opacity:1;fill-rule:nonzero;stroke:none"
             d="m 0,0 c -0.412,-0.236 -0.735,-0.581 -0.969,-1.031 -0.235,-0.451 -0.351,-0.985 -0.351,-1.601 0,-0.617 0.116,-1.151 0.351,-1.6 0.234,-0.452 0.557,-0.795 0.969,-1.032 0.413,-0.238 0.882,-0.355 1.41,-0.355 0.528,0 0.982,0.124 1.365,0.377 0.382,0.253 0.674,0.604 0.875,1.058 0.202,0.454 0.303,0.971 0.303,1.552 0,0.581 -0.101,1.098 -0.303,1.552 C 3.449,-0.627 3.157,-0.273 2.775,-0.022 2.392,0.229 1.938,0.356 1.41,0.356 0.882,0.356 0.413,0.236 0,0 M 3.468,1.151 C 4.046,0.805 4.5,0.307 4.829,-0.342 5.158,-0.992 5.322,-1.755 5.322,-2.632 5.322,-3.51 5.158,-4.273 4.829,-4.922 4.5,-5.571 4.046,-6.069 3.468,-6.416 2.89,-6.763 2.233,-6.936 1.499,-6.936 c -1.115,0 -2.055,0.489 -2.819,1.466 l 0,-4.233 c 0,-0.207 -0.049,-0.356 -0.147,-0.443 -0.098,-0.09 -0.268,-0.133 -0.512,-0.133 l -0.017,0 c -0.244,0 -0.414,0.043 -0.512,0.133 -0.097,0.087 -0.146,0.236 -0.146,0.443 l 0,10.689 c 0,0.209 0.044,0.356 0.133,0.446 0.089,0.088 0.249,0.134 0.48,0.134 l 0.018,0 c 0.231,0 0.391,-0.046 0.481,-0.134 0.088,-0.09 0.133,-0.237 0.133,-0.446 l 0,-0.826 c 0.373,0.486 0.805,0.86 1.298,1.121 0.492,0.26 1.028,0.391 1.61,0.391 0.734,0 1.391,-0.174 1.969,-0.521" /></g><g
           transform="translate(290.1279,413.0498)"
           id="g4406"><path
             id="path4408"
             style="fill:#7b7979;fill-opacity:1;fill-rule:nonzero;stroke:none"
             d="m 0,0 c 0.098,-0.088 0.146,-0.236 0.146,-0.443 l 0,-4.776 c 0.41,0.606 0.918,1.091 1.526,1.459 0.608,0.367 1.21,0.551 1.809,0.551 0.895,0 1.589,-0.259 2.082,-0.774 C 6.055,-4.499 6.3,-5.207 6.3,-6.107 l 0,-5.026 c 0,-0.207 -0.049,-0.355 -0.146,-0.445 -0.098,-0.088 -0.268,-0.132 -0.511,-0.132 l -0.018,0 c -0.244,0 -0.414,0.044 -0.512,0.132 -0.097,0.09 -0.147,0.238 -0.147,0.445 l 0,4.891 c 0,0.533 -0.132,0.953 -0.395,1.26 -0.264,0.305 -0.672,0.458 -1.223,0.458 -0.51,0 -1.013,-0.164 -1.507,-0.486 C 1.346,-5.332 0.939,-5.771 0.623,-6.326 0.306,-6.88 0.146,-7.483 0.146,-8.135 l 0,-2.998 c 0,-0.207 -0.048,-0.355 -0.146,-0.445 -0.098,-0.088 -0.268,-0.132 -0.511,-0.132 l -0.018,0 c -0.243,0 -0.414,0.044 -0.512,0.132 -0.097,0.09 -0.146,0.238 -0.146,0.445 l 0,10.69 c 0,0.207 0.049,0.355 0.146,0.443 0.098,0.09 0.269,0.135 0.512,0.135 l 0.018,0 C -0.268,0.135 -0.098,0.09 0,0" /></g><g
           transform="translate(303.5,413.4199)"
           id="g4410"><path
             id="path4412"
             style="fill:#7b7979;fill-opacity:1;fill-rule:nonzero;stroke:none"
             d="m 0,0 c 0.118,-0.085 0.178,-0.235 0.178,-0.448 l 0,-1.156 c 0,-0.213 -0.06,-0.364 -0.178,-0.45 -0.119,-0.087 -0.342,-0.13 -0.668,-0.13 -0.326,0 -0.548,0.043 -0.666,0.13 -0.119,0.086 -0.178,0.237 -0.178,0.45 l 0,1.156 c 0,0.213 0.059,0.363 0.178,0.448 0.118,0.085 0.34,0.128 0.666,0.128 C -0.342,0.128 -0.119,0.085 0,0 M 0.049,-3.913 C 0.134,-4.005 0.178,-4.16 0.178,-4.379 l 0,-6.331 2.853,0 c 0.201,0 0.346,-0.05 0.432,-0.148 0.086,-0.098 0.129,-0.262 0.129,-0.493 0,-0.231 -0.043,-0.396 -0.129,-0.494 -0.086,-0.097 -0.231,-0.146 -0.432,-0.146 l -6.97,0 c -0.203,0 -0.346,0.049 -0.432,0.146 -0.086,0.098 -0.129,0.263 -0.129,0.494 0,0.231 0.043,0.395 0.129,0.493 0.086,0.098 0.229,0.148 0.432,0.148 l 2.783,0 0,5.655 -2.25,0 c -0.201,0 -0.346,0.048 -0.432,0.146 -0.086,0.098 -0.129,0.263 -0.129,0.494 0,0.232 0.043,0.395 0.129,0.494 0.086,0.098 0.231,0.147 0.432,0.147 l 3.023,0 c 0.201,0 0.346,-0.045 0.432,-0.139" /></g><g
           transform="translate(314.9492,409.5928)"
           id="g4414"><path
             id="path4416"
             style="fill:#7b7979;fill-opacity:1;fill-rule:nonzero;stroke:none"
             d="m 0,0 c 0.584,-0.167 1.125,-0.409 1.623,-0.729 0.207,-0.131 0.311,-0.3 0.311,-0.509 0,-0.135 -0.044,-0.284 -0.133,-0.444 -0.119,-0.243 -0.273,-0.364 -0.463,-0.364 -0.111,0 -0.222,0.038 -0.328,0.114 -0.836,0.577 -1.782,0.865 -2.837,0.865 -0.569,0 -1.071,-0.128 -1.507,-0.384 -0.437,-0.254 -0.774,-0.609 -1.015,-1.063 -0.239,-0.453 -0.36,-0.967 -0.36,-1.542 0,-0.575 0.121,-1.09 0.36,-1.544 0.241,-0.453 0.578,-0.806 1.015,-1.062 0.436,-0.254 0.938,-0.381 1.507,-0.381 0.546,0 1.075,0.084 1.587,0.252 0.512,0.17 0.979,0.413 1.4,0.733 0.119,0.089 0.232,0.135 0.338,0.135 0.184,0 0.342,-0.113 0.472,-0.338 0.1,-0.173 0.151,-0.327 0.151,-0.462 0,-0.196 -0.095,-0.363 -0.285,-0.498 -0.485,-0.356 -1.051,-0.635 -1.693,-0.836 -0.644,-0.203 -1.3,-0.302 -1.97,-0.302 -0.849,0 -1.597,0.185 -2.245,0.558 -0.65,0.374 -1.153,0.887 -1.508,1.54 -0.356,0.652 -0.533,1.388 -0.533,2.205 0,0.819 0.177,1.553 0.533,2.206 0.355,0.652 0.858,1.163 1.508,1.537 0.648,0.374 1.396,0.561 2.245,0.561 C -1.193,0.248 -0.584,0.165 0,0" /></g><g
           transform="translate(319.6504,402.1221)"
           id="g4418"><path
             id="path4420"
             style="fill:#7b7979;fill-opacity:1;fill-rule:nonzero;stroke:none"
             d="m 0,0 c -0.232,0.13 -0.348,0.299 -0.348,0.506 0,0.113 0.035,0.244 0.108,0.391 0.141,0.28 0.302,0.419 0.479,0.419 0.089,0 0.181,-0.027 0.277,-0.081 C 1.001,0.963 1.523,0.755 2.08,0.613 2.637,0.471 3.209,0.399 3.797,0.399 c 0.728,0 1.281,0.124 1.658,0.371 0.377,0.244 0.565,0.578 0.565,1 0,0.201 -0.061,0.365 -0.182,0.494 C 5.716,2.392 5.536,2.493 5.299,2.569 5.098,2.635 4.86,2.686 4.588,2.726 4.315,2.765 3.965,2.805 3.539,2.846 2.957,2.899 2.483,2.955 2.115,3.014 1.748,3.074 1.408,3.166 1.094,3.291 0.672,3.456 0.345,3.689 0.11,3.992 c -0.234,0.303 -0.35,0.697 -0.35,1.184 0,0.545 0.142,1.009 0.43,1.39 0.289,0.383 0.682,0.67 1.183,0.864 0.502,0.193 1.072,0.289 1.712,0.289 1.357,0 2.55,-0.259 3.575,-0.775 C 6.896,6.826 7.016,6.657 7.016,6.439 7.016,6.319 6.986,6.192 6.927,6.055 6.79,5.76 6.63,5.61 6.446,5.61 6.388,5.61 6.299,5.639 6.18,5.691 5.214,6.184 4.199,6.429 3.139,6.429 2.51,6.429 2.018,6.322 1.662,6.108 1.307,5.895 1.129,5.585 1.129,5.176 1.129,4.992 1.188,4.842 1.307,4.727 1.426,4.611 1.594,4.518 1.813,4.447 2.01,4.381 2.229,4.332 2.472,4.299 2.715,4.267 3.059,4.229 3.503,4.188 4.055,4.141 4.517,4.088 4.891,4.033 5.264,3.977 5.61,3.889 5.931,3.771 6.388,3.598 6.744,3.354 7.002,3.037 7.26,2.719 7.389,2.297 7.389,1.77 7.389,1.235 7.256,0.77 6.988,0.369 6.723,-0.031 6.326,-0.342 5.802,-0.561 5.277,-0.779 4.639,-0.889 3.885,-0.889 2.379,-0.889 1.084,-0.593 0,0" /></g><g
           transform="translate(345.7871,403.9541)"
           id="g4422"><path
             id="path4424"
             style="fill:#7b7979;fill-opacity:1;fill-rule:nonzero;stroke:none"
             d="M 0,0 0,0.969 C -0.404,1.1 -0.836,1.199 -1.299,1.268 -1.762,1.334 -2.227,1.369 -2.695,1.369 -3.377,1.369 -3.914,1.253 -4.309,1.018 -4.703,0.783 -4.9,0.412 -4.9,-0.099 c 0,-0.432 0.15,-0.768 0.449,-1.008 0.299,-0.241 0.719,-0.362 1.258,-0.362 1.179,0 2.244,0.49 3.193,1.469 M 0.498,5.141 C 1.055,4.643 1.334,3.902 1.334,2.925 l 0,-4.962 C 1.334,-2.244 1.289,-2.393 1.2,-2.482 1.111,-2.57 0.951,-2.614 0.72,-2.614 l -0.018,0 c -0.231,0 -0.391,0.044 -0.48,0.132 -0.089,0.089 -0.134,0.238 -0.134,0.445 l 0,0.604 c -0.48,-0.409 -1,-0.725 -1.561,-0.95 -0.56,-0.226 -1.151,-0.338 -1.773,-0.338 -0.593,0 -1.117,0.102 -1.574,0.307 -0.457,0.204 -0.813,0.501 -1.068,0.893 -0.255,0.39 -0.382,0.857 -0.382,1.397 0,0.942 0.331,1.636 0.992,2.081 0.661,0.444 1.519,0.666 2.574,0.666 0.942,0 1.845,-0.15 2.704,-0.453 L 0,2.925 C 0,3.5 -0.162,3.924 -0.485,4.192 -0.809,4.462 -1.328,4.597 -2.046,4.597 -2.49,4.597 -2.953,4.535 -3.434,4.411 -3.913,4.287 -4.37,4.113 -4.803,3.896 -4.897,3.842 -4.989,3.814 -5.078,3.814 c -0.19,0 -0.353,0.143 -0.489,0.426 -0.066,0.143 -0.098,0.262 -0.098,0.357 0,0.208 0.11,0.368 0.329,0.479 0.498,0.262 1.033,0.463 1.606,0.602 0.572,0.138 1.145,0.209 1.72,0.209 1.114,0 1.95,-0.248 2.508,-0.746" /></g><g
           transform="translate(356.8408,409.0664)"
           id="g4426"><path
             id="path4428"
             style="fill:#7b7979;fill-opacity:1;fill-rule:nonzero;stroke:none"
             d="m 0,0 c 0.492,-0.516 0.738,-1.224 0.738,-2.124 l 0,-5.025 C 0.738,-7.356 0.689,-7.505 0.592,-7.595 0.493,-7.683 0.323,-7.727 0.08,-7.727 l -0.017,0 c -0.244,0 -0.415,0.044 -0.512,0.132 -0.098,0.09 -0.147,0.239 -0.147,0.446 l 0,4.89 c 0,0.533 -0.132,0.953 -0.395,1.26 -0.264,0.306 -0.672,0.458 -1.223,0.458 -0.511,0 -1.013,-0.163 -1.508,-0.485 C -4.217,-1.349 -4.623,-1.788 -4.94,-2.343 -5.257,-2.896 -5.415,-3.5 -5.415,-4.151 l 0,-2.998 c 0,-0.207 -0.049,-0.356 -0.148,-0.446 -0.097,-0.088 -0.268,-0.132 -0.51,-0.132 l -0.018,0 c -0.244,0 -0.414,0.044 -0.512,0.132 -0.097,0.09 -0.146,0.239 -0.146,0.446 l 0,7.238 c 0,0.209 0.044,0.355 0.133,0.445 0.089,0.088 0.249,0.135 0.48,0.135 l 0.018,0 c 0.231,0 0.39,-0.047 0.48,-0.135 0.089,-0.09 0.133,-0.236 0.133,-0.445 l 0,-1.448 c 0.404,0.622 0.916,1.133 1.539,1.534 0.622,0.399 1.25,0.599 1.885,0.599 C -1.186,0.774 -0.492,0.516 0,0" /></g><g
           transform="translate(362.2705,408.1465)"
           id="g4430"><path
             id="path4432"
             style="fill:#7b7979;fill-opacity:1;fill-rule:nonzero;stroke:none"
             d="m 0,0 c -0.383,-0.251 -0.675,-0.604 -0.876,-1.058 -0.201,-0.454 -0.303,-0.97 -0.303,-1.551 0,-0.581 0.102,-1.099 0.303,-1.552 0.201,-0.454 0.493,-0.806 0.876,-1.059 0.382,-0.253 0.837,-0.377 1.365,-0.377 0.528,0 0.997,0.118 1.409,0.356 0.413,0.236 0.736,0.58 0.97,1.031 0.235,0.449 0.351,0.983 0.351,1.601 0,0.616 -0.116,1.149 -0.351,1.6 C 3.51,-0.559 3.187,-0.214 2.774,0.022 2.362,0.259 1.893,0.379 1.365,0.379 0.837,0.379 0.382,0.252 0,0 M 5.282,4.903 C 5.38,4.815 5.429,4.667 5.429,4.46 l 0,-10.689 C 5.429,-6.437 5.385,-6.585 5.296,-6.675 5.207,-6.763 5.047,-6.807 4.815,-6.807 l -0.017,0 c -0.232,0 -0.392,0.044 -0.481,0.132 -0.088,0.09 -0.133,0.238 -0.133,0.446 l 0,0.828 C 3.811,-5.888 3.378,-6.262 2.886,-6.522 2.394,-6.784 1.857,-6.913 1.276,-6.913 c -0.735,0 -1.391,0.173 -1.969,0.519 -0.578,0.347 -1.033,0.845 -1.362,1.495 -0.329,0.648 -0.493,1.412 -0.493,2.29 0,0.877 0.164,1.639 0.493,2.29 0.329,0.648 0.784,1.146 1.362,1.493 0.578,0.347 1.234,0.52 1.969,0.52 1.115,0 2.054,-0.49 2.819,-1.467 l 0,4.233 c 0,0.207 0.049,0.355 0.147,0.443 0.098,0.09 0.268,0.135 0.511,0.135 l 0.018,0 c 0.244,0 0.414,-0.045 0.511,-0.135" /></g><g
           transform="translate(388.4121,411.8545)"
           id="g4434"><path
             id="path4436"
             style="fill:#f25655;fill-opacity:1;fill-rule:nonzero;stroke:none"
             d="m 0,0 c 0.084,-0.084 0.128,-0.229 0.134,-0.43 l 0.178,-9.437 c 0.005,-0.2 -0.036,-0.345 -0.124,-0.43 -0.09,-0.086 -0.235,-0.129 -0.437,-0.129 l -0.951,0 c -0.201,0 -0.346,0.043 -0.432,0.129 -0.085,0.085 -0.129,0.23 -0.129,0.43 l -0.061,5.55 -1.353,-2.775 c -0.095,-0.195 -0.205,-0.333 -0.333,-0.413 -0.128,-0.08 -0.315,-0.12 -0.564,-0.12 -0.249,0 -0.44,0.039 -0.57,0.116 -0.129,0.076 -0.246,0.216 -0.346,0.417 l -1.361,2.749 -0.053,-5.524 c 0,-0.2 -0.043,-0.345 -0.129,-0.43 -0.086,-0.086 -0.231,-0.129 -0.432,-0.129 l -0.951,0 c -0.201,0 -0.347,0.043 -0.436,0.129 -0.088,0.085 -0.13,0.23 -0.125,0.43 l 0.178,9.437 c 0.006,0.201 0.051,0.346 0.134,0.43 0.083,0.086 0.225,0.129 0.427,0.129 l 1.013,0 c 0.125,0 0.224,-0.021 0.298,-0.061 0.074,-0.043 0.135,-0.113 0.183,-0.214 l 2.161,-4.368 2.151,4.368 c 0.048,0.101 0.109,0.171 0.183,0.214 0.074,0.04 0.174,0.061 0.298,0.061 l 1.022,0 C -0.226,0.129 -0.083,0.086 0,0" /></g><g
           transform="translate(398.0391,409.6006)"
           id="g4438"><path
             id="path4440"
             style="fill:#7b7979;fill-opacity:1;fill-rule:nonzero;stroke:none"
             d="m 0,0 c 0.098,-0.09 0.146,-0.236 0.146,-0.445 l 0,-7.239 c 0,-0.207 -0.042,-0.355 -0.131,-0.445 -0.089,-0.088 -0.249,-0.132 -0.481,-0.132 l -0.017,0 c -0.232,0 -0.392,0.044 -0.481,0.132 -0.089,0.09 -0.135,0.238 -0.135,0.445 l 0,1.452 c -0.402,-0.623 -0.915,-1.135 -1.537,-1.536 -0.622,-0.4 -1.251,-0.599 -1.885,-0.599 -0.896,0 -1.589,0.256 -2.081,0.772 -0.493,0.516 -0.739,1.225 -0.739,2.126 l 0,5.024 c 0,0.209 0.049,0.355 0.147,0.445 0.098,0.088 0.268,0.135 0.51,0.135 l 0.019,0 c 0.243,0 0.414,-0.047 0.512,-0.135 0.097,-0.09 0.145,-0.236 0.145,-0.445 l 0,-4.891 c 0,-0.533 0.133,-0.953 0.397,-1.258 0.264,-0.304 0.671,-0.457 1.222,-0.457 0.511,0 1.014,0.16 1.508,0.484 0.494,0.324 0.901,0.76 1.218,1.316 0.318,0.556 0.475,1.157 0.475,1.81 l 0,2.996 c 0,0.209 0.05,0.355 0.148,0.445 0.098,0.088 0.268,0.135 0.511,0.135 l 0.017,0 C -0.268,0.135 -0.098,0.088 0,0" /></g><g
           transform="translate(408.791,402.5615)"
           id="g4442"><path
             id="path4444"
             style="fill:#7b7979;fill-opacity:1;fill-rule:nonzero;stroke:none"
             d="M 0,0 C 0.086,-0.098 0.129,-0.262 0.129,-0.492 0.129,-0.724 0.086,-0.889 0,-0.986 -0.086,-1.084 -0.229,-1.133 -0.431,-1.133 l -6.972,0 c -0.201,0 -0.345,0.049 -0.431,0.147 -0.086,0.097 -0.129,0.262 -0.129,0.494 0,0.23 0.043,0.394 0.129,0.492 0.086,0.099 0.23,0.148 0.431,0.148 l 2.784,0 0,9.106 -2.428,0 c -0.202,0 -0.346,0.049 -0.431,0.146 -0.086,0.098 -0.129,0.263 -0.129,0.495 0,0.23 0.043,0.394 0.129,0.492 0.085,0.097 0.229,0.148 0.431,0.148 l 3.201,0 c 0.202,0 0.346,-0.047 0.431,-0.139 0.086,-0.093 0.13,-0.248 0.13,-0.466 l 0,-9.782 2.854,0 C -0.229,0.148 -0.086,0.099 0,0" /></g><g
           transform="translate(419.1924,402.6924)"
           id="g4446"><path
             id="path4448"
             style="fill:#7b7979;fill-opacity:1;fill-rule:nonzero;stroke:none"
             d="m 0,0 c 0,-0.191 -0.099,-0.345 -0.295,-0.463 -0.462,-0.291 -0.977,-0.529 -1.547,-0.717 -0.569,-0.186 -1.098,-0.279 -1.591,-0.279 -1.008,0 -1.745,0.262 -2.21,0.786 -0.464,0.525 -0.699,1.309 -0.699,2.352 l 0,3.282 -1.804,0 c -0.202,0 -0.345,0.049 -0.431,0.146 -0.087,0.098 -0.13,0.264 -0.13,0.495 0,0.231 0.043,0.394 0.13,0.493 0.086,0.097 0.229,0.147 0.431,0.147 l 1.804,0 0,2.668 c 0,0.207 0.051,0.356 0.153,0.444 0.1,0.089 0.272,0.132 0.515,0.132 0.243,0 0.415,-0.043 0.517,-0.132 0.099,-0.088 0.149,-0.237 0.149,-0.444 l 0,-2.668 3.656,0 c 0.202,0 0.346,-0.05 0.431,-0.147 0.085,-0.099 0.128,-0.262 0.128,-0.493 0,-0.231 -0.043,-0.397 -0.128,-0.495 C -1.006,5.01 -1.15,4.961 -1.352,4.961 l -3.656,0 0,-3.166 c 0,-0.676 0.119,-1.17 0.356,-1.486 0.238,-0.313 0.644,-0.469 1.219,-0.469 0.397,0 0.815,0.078 1.253,0.238 0.44,0.16 0.864,0.373 1.273,0.641 0.083,0.058 0.175,0.088 0.274,0.088 0.202,0 0.374,-0.135 0.516,-0.409 C -0.039,0.244 0,0.111 0,0" /></g><g
           transform="translate(425.7988,413.4199)"
           id="g4450"><path
             id="path4452"
             style="fill:#7b7979;fill-opacity:1;fill-rule:nonzero;stroke:none"
             d="m 0,0 c 0.12,-0.085 0.178,-0.235 0.178,-0.448 l 0,-1.156 c 0,-0.213 -0.058,-0.364 -0.178,-0.45 -0.116,-0.087 -0.34,-0.13 -0.665,-0.13 -0.325,0 -0.549,0.043 -0.669,0.13 -0.116,0.086 -0.178,0.237 -0.178,0.45 l 0,1.156 c 0,0.213 0.062,0.363 0.178,0.448 0.12,0.085 0.344,0.128 0.669,0.128 C -0.34,0.128 -0.116,0.085 0,0 M 0.051,-3.913 C 0.135,-4.005 0.178,-4.16 0.178,-4.379 l 0,-6.331 2.856,0 c 0.2,0 0.346,-0.05 0.432,-0.148 0.084,-0.098 0.127,-0.262 0.127,-0.493 0,-0.231 -0.043,-0.396 -0.127,-0.494 -0.086,-0.097 -0.232,-0.146 -0.432,-0.146 l -6.972,0 c -0.202,0 -0.346,0.049 -0.432,0.146 -0.085,0.098 -0.129,0.263 -0.129,0.494 0,0.231 0.044,0.395 0.129,0.493 0.086,0.098 0.23,0.148 0.432,0.148 l 2.783,0 0,5.655 -2.25,0 c -0.2,0 -0.345,0.048 -0.432,0.146 -0.085,0.098 -0.128,0.263 -0.128,0.494 0,0.232 0.043,0.395 0.128,0.494 0.087,0.098 0.232,0.147 0.432,0.147 l 3.024,0 c 0.201,0 0.346,-0.045 0.432,-0.139" /></g><g
           transform="translate(438.7871,409.5791)"
           id="g4454"><path
             id="path4456"
             style="fill:#7b7979;fill-opacity:1;fill-rule:nonzero;stroke:none"
             d="M 0,0 C 0.277,-0.175 0.496,-0.441 0.658,-0.801 0.823,-1.16 0.905,-1.6 0.905,-2.121 l 0,-5.541 c 0,-0.207 -0.051,-0.356 -0.147,-0.445 -0.1,-0.088 -0.27,-0.132 -0.511,-0.132 l -0.018,0 c -0.244,0 -0.414,0.044 -0.513,0.132 -0.097,0.089 -0.145,0.238 -0.145,0.445 l 0,5.381 c 0,0.409 -0.068,0.715 -0.201,0.92 -0.135,0.205 -0.348,0.307 -0.645,0.307 -0.28,0 -0.537,-0.13 -0.773,-0.387 -0.238,-0.258 -0.427,-0.617 -0.566,-1.077 -0.137,-0.459 -0.208,-0.982 -0.208,-1.57 l 0,-3.574 c 0,-0.207 -0.049,-0.356 -0.148,-0.445 -0.096,-0.088 -0.266,-0.132 -0.51,-0.132 l -0.018,0 c -0.244,0 -0.414,0.044 -0.511,0.132 -0.099,0.089 -0.147,0.238 -0.147,0.445 l 0,5.381 c 0,0.409 -0.067,0.715 -0.201,0.92 -0.132,0.205 -0.348,0.307 -0.643,0.307 -0.279,0 -0.538,-0.13 -0.774,-0.387 -0.237,-0.258 -0.425,-0.617 -0.565,-1.077 -0.14,-0.459 -0.208,-0.982 -0.208,-1.57 l 0,-3.574 c 0,-0.207 -0.051,-0.356 -0.147,-0.445 -0.1,-0.088 -0.27,-0.132 -0.511,-0.132 l -0.018,0 c -0.244,0 -0.414,0.044 -0.513,0.132 -0.097,0.089 -0.145,0.238 -0.145,0.445 l 0,7.238 c 0,0.209 0.038,0.356 0.119,0.445 0.079,0.088 0.229,0.135 0.45,0.135 l 0.018,0 c 0.219,0 0.368,-0.047 0.447,-0.135 0.081,-0.089 0.122,-0.236 0.122,-0.445 l 0,-0.996 c 0.254,0.559 0.559,0.979 0.914,1.26 0.356,0.28 0.743,0.422 1.157,0.422 0.404,0 0.757,-0.137 1.059,-0.408 0.303,-0.274 0.506,-0.674 0.613,-1.203 0.528,1.074 1.209,1.611 2.044,1.611 C -0.587,0.262 -0.274,0.174 0,0" /></g><g
           transform="translate(443.7373,407.9951)"
           id="g4458"><path
             id="path4460"
             style="fill:#7b7979;fill-opacity:1;fill-rule:nonzero;stroke:none"
             d="m 0,0 c -0.48,-0.369 -0.793,-0.885 -0.943,-1.543 l 5.47,0 C 4.403,-0.867 4.113,-0.348 3.661,0.015 3.206,0.375 2.594,0.556 1.824,0.556 1.09,0.556 0.479,0.37 0,0 M 4.02,1.325 C 4.624,0.979 5.089,0.5 5.411,-0.109 5.734,-0.721 5.92,-1.43 5.968,-2.236 5.98,-2.432 5.94,-2.572 5.849,-2.658 5.755,-2.745 5.609,-2.788 5.406,-2.788 l -6.438,0 c 0.044,-0.883 0.293,-1.552 0.747,-2.005 0.458,-0.453 1.1,-0.681 1.931,-0.681 0.592,0 1.171,0.069 1.738,0.206 0.566,0.136 1.054,0.323 1.464,0.559 0.101,0.054 0.193,0.082 0.274,0.082 0.114,0 0.216,-0.044 0.308,-0.131 0.091,-0.086 0.165,-0.207 0.217,-0.367 0.041,-0.107 0.062,-0.214 0.062,-0.32 0,-0.239 -0.13,-0.42 -0.392,-0.544 C 4.837,-6.221 4.273,-6.406 3.62,-6.549 2.968,-6.69 2.31,-6.762 1.646,-6.762 c -0.859,0 -1.593,0.172 -2.198,0.516 -0.604,0.344 -1.061,0.838 -1.377,1.484 -0.315,0.647 -0.472,1.414 -0.472,2.304 0,0.848 0.18,1.597 0.539,2.249 0.357,0.652 0.858,1.158 1.499,1.517 0.639,0.358 1.369,0.538 2.187,0.538 0.859,0 1.59,-0.174 2.196,-0.521" /></g><g
           transform="translate(453.9961,408.1465)"
           id="g4462"><path
             id="path4464"
             style="fill:#7b7979;fill-opacity:1;fill-rule:nonzero;stroke:none"
             d="m 0,0 c -0.383,-0.251 -0.676,-0.604 -0.876,-1.058 -0.201,-0.454 -0.303,-0.97 -0.303,-1.551 0,-0.581 0.102,-1.099 0.303,-1.552 0.2,-0.454 0.493,-0.806 0.876,-1.059 0.382,-0.253 0.836,-0.377 1.365,-0.377 0.529,0 0.998,0.118 1.41,0.356 0.412,0.236 0.735,0.58 0.968,1.031 0.236,0.449 0.354,0.983 0.354,1.601 0,0.616 -0.118,1.149 -0.354,1.6 C 3.51,-0.559 3.187,-0.214 2.775,0.022 2.363,0.259 1.894,0.379 1.365,0.379 0.836,0.379 0.382,0.252 0,0 M 5.283,4.903 C 5.379,4.815 5.43,4.667 5.43,4.46 l 0,-10.689 C 5.43,-6.437 5.385,-6.585 5.296,-6.675 5.207,-6.763 5.047,-6.807 4.815,-6.807 l -0.017,0 c -0.232,0 -0.392,0.044 -0.481,0.132 -0.088,0.09 -0.131,0.238 -0.131,0.446 l 0,0.828 C 3.812,-5.888 3.377,-6.262 2.887,-6.522 2.394,-6.784 1.857,-6.913 1.276,-6.913 c -0.734,0 -1.392,0.173 -1.969,0.519 -0.579,0.347 -1.032,0.845 -1.362,1.495 -0.328,0.648 -0.493,1.412 -0.493,2.29 0,0.877 0.165,1.639 0.493,2.29 0.33,0.648 0.783,1.146 1.362,1.493 0.577,0.347 1.235,0.52 1.969,0.52 1.116,0 2.055,-0.49 2.821,-1.467 l 0,4.233 c 0,0.207 0.048,0.355 0.144,0.443 0.099,0.09 0.27,0.135 0.513,0.135 l 0.018,0 c 0.242,0 0.412,-0.045 0.511,-0.135" /></g><g
           transform="translate(466.5684,413.4199)"
           id="g4466"><path
             id="path4468"
             style="fill:#7b7979;fill-opacity:1;fill-rule:nonzero;stroke:none"
             d="m 0,0 c 0.117,-0.085 0.178,-0.235 0.178,-0.448 l 0,-1.156 c 0,-0.213 -0.061,-0.364 -0.178,-0.45 -0.119,-0.087 -0.343,-0.13 -0.668,-0.13 -0.325,0 -0.549,0.043 -0.666,0.13 -0.119,0.086 -0.178,0.237 -0.178,0.45 l 0,1.156 c 0,0.213 0.059,0.363 0.178,0.448 0.117,0.085 0.341,0.128 0.666,0.128 C -0.343,0.128 -0.119,0.085 0,0 m 0.048,-3.913 c 0.087,-0.092 0.13,-0.247 0.13,-0.466 l 0,-6.331 2.853,0 c 0.2,0 0.346,-0.05 0.432,-0.148 0.087,-0.098 0.13,-0.262 0.13,-0.493 0,-0.231 -0.043,-0.396 -0.13,-0.494 -0.086,-0.097 -0.232,-0.146 -0.432,-0.146 l -6.971,0 c -0.202,0 -0.346,0.049 -0.433,0.146 -0.084,0.098 -0.127,0.263 -0.127,0.494 0,0.231 0.043,0.395 0.127,0.493 0.087,0.098 0.231,0.148 0.433,0.148 l 2.784,0 0,5.655 -2.251,0 c -0.201,0 -0.346,0.048 -0.432,0.146 -0.084,0.098 -0.127,0.263 -0.127,0.494 0,0.232 0.043,0.395 0.127,0.494 0.086,0.098 0.231,0.147 0.432,0.147 l 3.023,0 c 0.201,0 0.346,-0.045 0.432,-0.139" /></g><g
           transform="translate(478.2783,403.9541)"
           id="g4470"><path
             id="path4472"
             style="fill:#7b7979;fill-opacity:1;fill-rule:nonzero;stroke:none"
             d="m 0,0 0,0.969 c -0.401,0.131 -0.836,0.23 -1.298,0.299 -0.463,0.066 -0.928,0.101 -1.394,0.101 -0.682,0 -1.22,-0.116 -1.615,-0.351 -0.395,-0.235 -0.591,-0.606 -0.591,-1.117 0,-0.432 0.15,-0.768 0.45,-1.008 0.297,-0.241 0.719,-0.362 1.258,-0.362 1.178,0 2.243,0.49 3.19,1.469 M 0.498,5.141 C 1.058,4.643 1.334,3.902 1.334,2.925 l 0,-4.962 C 1.334,-2.244 1.291,-2.393 1.202,-2.482 1.113,-2.57 0.953,-2.614 0.722,-2.614 l -0.018,0 c -0.231,0 -0.391,0.044 -0.48,0.132 -0.089,0.089 -0.135,0.238 -0.135,0.445 l 0,0.604 c -0.48,-0.409 -0.998,-0.725 -1.56,-0.95 -0.558,-0.226 -1.151,-0.338 -1.773,-0.338 -0.592,0 -1.118,0.102 -1.575,0.307 -0.455,0.204 -0.811,0.501 -1.068,0.893 -0.254,0.39 -0.381,0.857 -0.381,1.397 0,0.942 0.33,1.636 0.992,2.081 0.66,0.444 1.518,0.666 2.573,0.666 0.942,0 1.845,-0.15 2.703,-0.453 L 0,2.925 C 0,3.5 -0.16,3.924 -0.482,4.192 -0.808,4.462 -1.326,4.597 -2.045,4.597 -2.489,4.597 -2.952,4.535 -3.433,4.411 -3.912,4.287 -4.367,4.113 -4.802,3.896 -4.896,3.842 -4.987,3.814 -5.076,3.814 c -0.191,0 -0.354,0.143 -0.49,0.426 -0.064,0.143 -0.097,0.262 -0.097,0.357 0,0.208 0.109,0.368 0.328,0.479 0.498,0.262 1.034,0.463 1.606,0.602 0.571,0.138 1.145,0.209 1.719,0.209 1.116,0 1.952,-0.248 2.508,-0.746" /></g></g></g></g></svg>