<?xml version="1.0" encoding="UTF-8"?>
<svg width="25px" height="13px" viewBox="0 0 25 13" version="1.1" xmlns="http://www.w3.org/2000/svg" xmlns:xlink="http://www.w3.org/1999/xlink">
    <!-- Generator: Sketch 42 (36781) - http://www.bohemiancoding.com/sketch -->
    <title>icon-link</title>
    <desc>Created with Sketch.</desc>
    <defs></defs>
    <g id="Page-1" stroke="none" stroke-width="1" fill="none" fill-rule="evenodd">
        <g id="icon-link" fill-rule="nonzero">
            <g id="Group">
                <path id="Shape" fill="#000000"></path>
                <path d="M19.8242188,0 L16.6666667,0 C16.6666667,0 18.359375,1.10677083 18.7239583,3.125 L19.7916667,3.125 L19.8242188,3.125 C20.9700521,3.125 21.875,4.02994792 21.875,5.17578125 L21.875,7.25911458 C21.875,8.40494792 20.9700521,9.375 19.8242188,9.375 L12.5325521,9.375 C11.3867188,9.375 10.4166667,8.40494792 10.4166667,7.25911458 L10.4166667,5.20833333 L7.29166667,5.20833333 L7.29166667,7.25911458 C7.29166667,8.0078125 7.45442708,8.72395833 7.74088542,9.375 C8.56119792,11.2109375 10.4036458,12.5 12.5325521,12.5 L19.8242188,12.5 C22.7018229,12.5 25,10.1367188 25,7.25911458 L25,5.17578125 C25,2.29817708 22.7018229,0 19.8242188,0 Z" id="Shape" fill="#1779BA"></path>
                <path d="M17.2916667,3.125 C16.5039063,1.28255208 14.6809896,0 12.5325521,0 L5.24088542,0 C2.36328125,0 0,2.29817708 0,5.17578125 L0,7.25911458 C0,10.1367188 2.36328125,12.5 5.24088542,12.5 L8.33333333,12.5 C8.33333333,12.5 6.65364583,11.3932292 6.24348958,9.375 L5.24088542,9.375 C4.09505208,9.375 3.125,8.40494792 3.125,7.25911458 L3.125,5.17578125 C3.125,4.02994792 4.09505208,3.125 5.24088542,3.125 L12.5,3.125 L12.5325521,3.125 C13.6783854,3.125 14.5833333,4.02994792 14.5833333,5.17578125 L14.5833333,7.25911458 L14.5833333,7.29166667 L17.7083333,7.29166667 L17.7083333,7.25911458 L17.7083333,5.17578125 C17.7083333,4.44661458 17.5585938,3.75 17.2916667,3.125 Z" id="Shape" fill="#1779BA"></path>
            </g>
        </g>
    </g>
</svg>