<?xml version="1.0" encoding="UTF-8"?>
<svg width="24px" height="24px" viewBox="0 0 24 24" version="1.1" xmlns="http://www.w3.org/2000/svg" xmlns:xlink="http://www.w3.org/1999/xlink">
    <!-- Generator: Sketch 43.2 (39069) - http://www.bohemiancoding.com/sketch -->
    <title>1494286053_office-21</title>
    <desc>Created with Sketch.</desc>
    <defs></defs>
    <g id="Page-1" stroke="none" stroke-width="1" fill="none" fill-rule="evenodd">
        <g id="1494286053_office-21" fill-rule="nonzero" fill="#7ADCFF">
            <path d="M23,16 L23,2 C23.6,2 24,1.6 24,1 C24,0.4 23.6,0 23,0 L1,0 C0.4,0 0,0.4 0,1 C0,1.6 0.4,2 1,2 L1,16 C0.4,16 0,16.4 0,17 C0,17.6 0.4,18 1,18 L9.1,18 L7.1,22.6 C6.9,23.1 7.1,23.7 7.6,23.9 C8.1,24.1 8.7,23.9 8.9,23.4 L11.2,18 L12.7,18 L15,23.4 C15.2,23.9 15.8,24.1 16.3,23.9 C16.8,23.7 17,23.1 16.8,22.6 L14.8,18 L23,18 C23.6,18 24,17.6 24,17 C24,16.4 23.6,16 23,16 Z M21,16 L3,16 L3,2 L21,2 L21,16 Z" id="Shape"></path>
        </g>
    </g>
</svg>