<?xml version="1.0" encoding="UTF-8" standalone="no"?>
<svg width="563px" height="341px" viewBox="0 0 563 341" version="1.1" xmlns="http://www.w3.org/2000/svg" xmlns:xlink="http://www.w3.org/1999/xlink">
    <!-- Generator: Sketch 40.3 (33839) - http://www.bohemiancoding.com/sketch -->
    <title>keyboard</title>
    <desc>Created with Sketch.</desc>
    <defs></defs>
    <g id="Page-1" stroke="none" stroke-width="1" fill="none" fill-rule="evenodd">
        <g id="Desktop-HD" transform="translate(-109.000000, -717.000000)">
            <g id="Group-14" transform="translate(109.000000, 282.000000)">
                <g id="keyboard" transform="translate(0.000000, 434.000000)">
                    <g id="Group-176" transform="translate(0.000000, 0.747000)">
                        <path d="M251.1421,341 C251.1421,341 403.5801,211.176 456.3601,175.399 C509.1391,139.622 562.2581,100.927 562.2381,97.309 C562.2181,93.509 549.9511,91.666 549.9511,91.666 C549.9511,91.666 504.8841,45.446 487.9171,35.083 C470.9501,24.719 443.7331,9.292 443.7331,9.292 C443.7331,9.292 357.0801,45.221 335.6511,57.389 C312.9001,70.309 247.9421,111.414 241.7561,116.044 C235.5691,120.675 148.6921,191.069 148.6921,191.069" id="Fill-1" fill="#000000"></path>
                        <path d="M247.0771,334.3438 C247.0771,334.3438 399.3511,202.0668 452.1311,166.2888 C504.9101,130.5138 554.3651,95.4738 554.3651,95.4738 L560.8511,80.4068 C560.8511,80.4068 500.8201,38.7908 483.8521,28.4278 C466.8851,18.0638 439.6691,2.6368 439.6691,2.6368 C439.6691,2.6368 353.0161,38.5648 331.5871,50.7338 C308.8351,63.6538 243.8771,104.7568 237.6911,109.3878 C231.5051,114.0188 14.8641,306.7338 14.8641,306.7338" id="Fill-3" fill="#A5A5A5"></path>
                        <path d="M1.8345,306.0811 L15.7435,292.2441 L20.0015,292.4981 L19.7525,288.2551 L35.1265,272.9611 L39.6665,273.6691 L38.2905,269.8141 L59.9415,248.2751 L63.6665,248.3341 L62.7825,245.4491 L78.0845,230.2221 L80.3325,231.7421 L86.7515,225.5531 L105.6265,209.9891 L109.1665,210.1931 L110.0545,205.5841 L130.4405,185.3041 L139.7955,186.1021 L140.9515,180.8101 L164.5805,157.3041 L169.3045,156.9871 L168.9425,151.5761 C168.9425,151.5761 186.7905,138.9631 198.9435,131.2401 C211.0975,123.5171 223.8335,116.0141 223.8335,116.0141 L248.0965,131.7961 L248.4315,136.8021 L255.2005,135.9371 L270.6675,150.7151 L269.1605,156.5651 L272.4615,154.4971 C272.4615,154.4971 286.2055,164.2031 297.1435,171.1721 C308.0825,178.1411 317.6965,185.2481 317.6965,185.2481 L319.2925,192.2271 L322.0475,190.3981 C322.0475,190.3981 324.4415,194.7571 329.4525,198.2711 C334.4625,201.7861 339.8645,205.0171 339.8645,205.0171 L338.6065,216.8081 C338.6065,216.8081 298.1965,246.7241 284.1855,258.2901 C270.1745,269.8541 219.9045,311.7261 219.9045,311.7261 L156.6605,315.0351 L1.8345,306.0811 Z" id="Fill-5" fill="#C4C4C4"></path>
                        <path d="M200.9624,312.6885 C200.9624,312.6885 256.4124,271.3415 276.7304,255.8125 C279.7914,253.4715 284.8364,249.5115 290.7724,244.8135 C291.5394,244.2045 290.2094,243.5315 291.0694,242.9925 C317.4774,226.4385 339.3744,206.0015 339.3744,206.0015 L338.6064,216.8075 C338.6064,216.8075 295.2404,250.4165 280.7384,262.0115 C265.5654,274.1455 219.9044,311.7255 219.9044,311.7255 L200.9624,312.6885 Z" id="Fill-7" fill="#A8A8A8"></path>
                        <path d="M423.0391,0.8955 C423.0391,0.8955 418.5811,4.3525 414.7681,6.0715 C410.9561,7.7905 403.1711,11.1345 403.1711,11.1345 L403.0571,14.7875 L399.8001,12.5405 L382.4911,21.2475 L382.7271,24.7735 L377.6991,22.9015 C377.6991,22.9015 375.7251,24.4725 372.5261,26.1495 C369.3271,27.8275 363.6771,29.6935 363.6771,29.6935 L362.1321,34.6235 L359.7551,33.2425 C359.7551,33.2425 355.7931,35.0215 351.5701,36.3575 C347.3471,37.6935 342.6911,39.4675 342.6911,39.4675 L343.4311,50.5065 L462.3621,125.7125 L532.1431,79.8785 L530.8341,68.3795 L511.0701,54.9925 L506.6141,55.1355 L506.1801,50.9555 C506.1801,50.9555 502.2831,49.1115 497.0681,45.9955 C491.8541,42.8795 489.0331,39.8335 489.0331,39.8335 L484.9811,40.8395 L484.7271,37.0415 L470.2451,26.0745 L466.7441,26.6935 L465.1541,23.6425 L449.6851,15.7465 L445.5911,15.9435 L445.3451,12.2625 C445.3451,12.2625 440.1561,8.3175 433.8301,5.8985 C427.5041,3.4785 423.0391,0.8955 423.0391,0.8955" id="Fill-9" fill="#C4C4C4"></path>
                        <path d="M341.9888,38.9453 C341.9888,38.9453 349.1018,42.1683 354.6268,46.4203 C360.1498,50.6723 368.6558,59.7563 375.3028,61.7733 C381.9518,63.7913 386.4798,66.0993 396.9148,75.1843 C407.3488,84.2683 414.7388,84.2093 423.6338,91.3013 C432.5278,98.3953 442.3968,101.6333 452.3348,108.9793 L462.2738,116.3263 C462.2738,116.3263 480.2368,103.0083 490.8708,97.4683 C501.5048,91.9293 507.1088,85.2233 516.6918,79.5153 C526.2748,73.8083 531.3708,68.3433 531.3708,68.3433 L532.1428,79.8793 L462.8988,125.6763 L343.4308,50.5073 L341.9888,38.9453 Z" id="Fill-11" fill="#A8A8A8"></path>
                        <path d="M314.7949,56.4287 L293.6239,67.2427 L293.8029,69.9257 L290.4139,68.3797 C290.4139,68.3797 289.5599,68.2827 283.5099,72.2317 C277.4599,76.1787 273.4269,79.2207 273.4269,79.2207 L273.6259,82.1857 L269.8959,80.5357 C269.8959,80.5357 266.0479,82.8717 261.5309,85.5627 C257.0129,88.2527 249.4239,92.2257 249.4239,92.2257 L251.3539,101.4917 L296.7669,136.4157 L364.1169,93.7857 L363.5989,86.0437 C363.5989,86.0437 353.7719,82.7677 349.4449,80.5227 C345.1179,78.2767 339.3019,72.8087 339.3019,72.8087 L335.8449,72.9197 L335.3249,69.7627 C335.3249,69.7627 327.5809,65.6597 322.9799,61.8107 C318.9749,58.4577 314.7949,56.4287 314.7949,56.4287" id="Fill-13" fill="#C4C4C4"></path>
                        <path d="M373.5713,114.7939 C373.5713,114.7939 368.2433,119.7449 364.3803,121.8519 C360.5163,123.9579 350.6143,128.4589 350.6143,128.4589 L349.7333,137.3429 L369.9103,152.1179 C369.9103,152.1179 365.4043,155.5649 360.4823,158.7179 C355.5603,161.8699 350.4853,164.6059 350.4853,164.6059 L350.9073,172.1429 C350.9073,172.1429 356.5163,177.5889 361.2323,180.6529 C365.9483,183.7169 373.3513,187.9929 373.3513,187.9929 C373.3513,187.9929 386.3893,179.4529 389.9963,176.6479 C393.6033,173.8429 397.5143,171.2109 397.5143,171.2109 L399.0593,168.3119 L400.4373,169.6469 C400.4373,169.6469 406.6093,165.3339 412.1713,161.6479 C417.7343,157.9639 420.1233,156.1879 420.1233,156.1879 L421.3253,153.4409 L422.7793,153.6739 C422.7793,153.6739 429.8753,148.6029 433.5683,146.2759 C437.2613,143.9519 438.3553,143.2619 438.3553,143.2619 L438.8933,135.6529 L415.1753,120.2459 L399.4153,131.5829 L373.5713,114.7939" id="Fill-15" fill="#C4C4C4"></path>
                        <path d="M530.8188,78.874 C530.8188,78.874 514.9428,90.204 502.9518,98.196 C490.9598,106.187 462.1658,123.926 462.1658,123.926 C462.1658,123.926 408.1828,90.576 395.7648,82.988 C383.3458,75.4 344.4528,49.666 344.4528,49.666 L343.8098,40.057 L359.8368,34.055 L362.8348,35.908 L364.7148,30.238 C364.7148,30.238 365.7368,30.169 370.7378,28.192 C375.7398,26.215 378.0418,23.801 378.0418,23.801 L383.4948,25.49 L383.4388,21.592 C383.4388,21.592 385.0058,20.46 391.1788,17.582 C397.3528,14.705 399.7378,13.517 399.7378,13.517 L403.7728,15.508 L404.0848,10.967 C404.0848,10.967 410.9258,8.866 415.1098,6.943 C419.2938,5.02 422.9728,1.694 422.9728,1.694 C422.9728,1.694 429.1338,4.771 435.0498,7.251 C440.9668,9.731 444.0478,12.811 444.0478,12.811 L444.9208,16.652 L449.8268,16.324 C449.8268,16.324 451.9538,17.414 456.4518,20.193 C460.9508,22.972 464.2898,23.776 464.2898,23.776 L465.5588,27.388 L470.0568,27.087 C470.0568,27.087 471.3238,27.617 475.6728,31.228 C480.0228,34.837 483.0348,36.895 483.0348,36.895 L483.7448,41.365 L488.4608,41.255 C488.4608,41.255 489.5508,42.209 494.1038,45.806 C498.6578,49.404 504.9548,51.444 504.9548,51.444 L506.1018,56.298 L510.8308,56.392 C510.8308,56.392 512.8078,58.312 520.4828,62.522 C528.1568,66.731 530.2028,69.674 530.2028,69.674 L530.8188,78.874 Z M520.0728,59.47 C513.8578,55.573 511.2668,53.694 511.2668,53.694 L507.5868,53.941 L507.3818,50.875 C507.3818,50.875 503.7148,48.245 498.1938,45.535 C492.6738,42.824 489.3048,38.531 489.3048,38.531 L485.8848,39.581 L485.7068,36.923 L470.1378,25.235 L467.3438,26.449 L466.1158,23.451 L449.9348,14.882 L446.7058,15.715 L446.4858,12.445 C446.4858,12.445 439.9838,7.336 436.8208,6.109 C433.6588,4.884 423.0808,0.253 423.0808,0.253 C423.0808,0.253 417.7258,3.076 412.5748,5.885 C407.4238,8.693 402.4078,10.468 402.4078,10.468 L402.6278,13.737 L399.8328,11.872 C399.8328,11.872 397.0528,13.29 392.6638,15.227 C388.2758,17.163 381.9388,20.667 381.9388,20.667 L382.1308,23.53 L377.7148,21.978 C377.7148,21.978 374.9618,23.805 371.5828,25.469 C368.2028,27.133 363.4328,29.506 363.4328,29.506 L362.2618,33.485 L360.1218,32.19 L341.4508,38.574 L342.2858,51.047 L462.8208,127.578 L533.3948,80.55 L532.5318,67.669 C532.5318,67.669 526.2898,63.366 520.0728,59.47 L520.0728,59.47 Z" id="Fill-17" fill="#000000"></path>
                        <path d="M366.8579,65.5742 L366.1349,54.7842 C366.1349,54.7842 374.3699,51.7682 376.3459,50.6102 C378.3209,49.4502 381.0469,47.2152 381.0469,47.2152 L382.5459,48.1402 L382.3139,44.6662 C382.3139,44.6662 387.0139,41.2702 392.0019,39.0882 C396.9899,36.9062 400.9689,34.9962 400.9689,34.9962 L404.5419,36.9632 L403.4229,34.8322 C403.4229,34.8322 407.3879,32.7202 412.3619,30.3322 C417.3369,27.9452 421.4519,25.0002 421.4519,25.0002 L424.0419,26.8802 L423.8509,24.0182 C423.8509,24.0182 430.1349,22.7762 434.7749,20.0012 C439.4139,17.2242 442.3299,14.7722 442.3299,14.7722 L446.0919,15.7532" id="Stroke-19" stroke="#000000"></path>
                        <path d="M386.9175,78.0166 L386.1125,65.9986 C386.1125,65.9986 394.3475,62.9836 396.3225,61.8236 C398.2995,60.6646 401.0245,58.4286 401.0245,58.4286 L402.5235,59.3556 L402.2915,55.8806 C402.2915,55.8806 406.9915,52.4846 411.9795,50.3026 C416.9685,48.1206 420.9475,46.2106 420.9475,46.2106 L423.5645,48.4986 L423.4005,46.0466 C423.4005,46.0466 427.3655,43.9336 432.3395,41.5466 C437.3145,39.1596 441.4305,36.2146 441.4305,36.2146 L444.0205,38.0946 L443.8285,35.2336 C443.8285,35.2336 450.1125,33.9906 454.7525,31.2156 C459.3915,28.4406 462.3075,25.9866 462.3075,25.9866 L466.0705,26.9666" id="Stroke-21" stroke="#000000"></path>
                        <path d="M411.5117,94.3145 L410.7897,83.5235 C410.7897,83.5235 419.0247,80.5095 420.9997,79.3495 C422.9757,78.1905 425.7007,75.9555 425.7007,75.9555 L427.2007,76.8805 L426.9677,73.4055 C426.9677,73.4055 431.6687,70.0105 436.6567,67.8295 C441.6447,65.6455 445.6227,63.7355 445.6227,63.7355 L448.2417,66.0245 L448.0767,63.5715 C448.0767,63.5715 452.4237,60.1365 455.8747,57.6045 C460.3237,54.3405 463.5477,52.5725 463.5477,52.5725 L466.1367,54.4525 L465.9457,51.5905 C465.9457,51.5905 469.0227,47.8645 473.6617,45.0885 C478.3017,42.3135 481.2187,39.8605 481.2187,39.8605 L484.9807,40.8395" id="Stroke-23" stroke="#000000"></path>
                        <path d="M435.3687,107.5186 L433.7857,96.8216 C433.7857,96.8216 441.7517,93.1566 443.6287,91.8416 C445.5057,90.5276 448.0427,88.0816 448.0427,88.0816 L449.6117,88.8836 L449.1017,85.4396 C449.1017,85.4396 453.5147,81.6776 458.3117,79.1036 C463.1097,76.5296 466.9227,74.3066 466.9227,74.3066 L469.7157,76.3786 L469.3547,73.9476 C469.3547,73.9476 473.1387,71.5226 477.9067,68.7466 C482.6737,65.9676 484.0167,65.5816 484.0167,65.5816 L486.7487,67.2496 L486.3287,64.4126 C486.3287,64.4126 491.1487,61.3716 495.5507,58.2336 C499.9537,55.0956 504.1307,53.7406 504.1307,53.7406 L507.3817,50.8746" id="Stroke-25" stroke="#000000"></path>
                        <path d="M403.0225,14.2764 L421.6675,25.1554" id="Stroke-27" stroke="#000000"></path>
                        <path d="M423.8506,24.0186 L443.8286,35.2336" id="Stroke-29" stroke="#000000"></path>
                        <path d="M424.042,26.8799 L441.43,36.2149" id="Stroke-31" stroke="#000000"></path>
                        <path d="M403.478,11.1143 L422.413,22.4753 C422.413,22.4753 427.828,20.1633 433.018,17.3493 C438.207,14.5393 440.326,12.4453 440.326,12.4453" id="Stroke-33" stroke="#000000"></path>
                        <path d="M479.9341,38.1318 C479.9341,38.1318 474.2111,41.5968 470.4831,44.2068 C466.7571,46.8168 464.0521,49.3608 464.0521,49.3608 L447.0231,37.3328 C447.0231,37.3328 455.7531,34.3098 458.7171,32.5698 C461.6811,30.8318 464.2151,28.8148 464.2151,28.8148" id="Stroke-35" stroke="#000000"></path>
                        <path d="M468.4824,52.6592 C468.4824,52.6592 472.7754,55.4512 476.4164,57.6732 C480.0564,59.8922 485.2704,62.6232 485.2704,62.6232 C485.2704,62.6232 490.9384,58.3432 494.1004,56.4882 C497.2624,54.6332 502.4124,51.8242 502.4124,51.8242" id="Stroke-37" stroke="#000000"></path>
                        <path d="M459.8203,50.5693 C459.8203,50.5693 458.3883,49.1243 452.2603,45.0163 C446.1323,40.9083 442.1263,39.3293 442.1263,39.3293 C442.1263,39.3293 440.2923,41.0943 437.4283,42.7933 C434.5653,44.4893 426.2273,48.5063 426.2273,48.5063 C426.2273,48.5063 427.8693,49.9353 434.2203,53.7203 C440.5713,57.5053 447.1753,61.0683 447.1753,61.0683" id="Stroke-39" stroke="#000000"></path>
                        <path d="M385.0337,22.4111 C385.0337,22.4111 391.2367,26.1041 394.3517,28.1531 C397.4667,30.2041 402.4767,32.9481 402.4767,32.9481 C402.4767,32.9481 408.7247,29.6561 411.7017,28.1211 C414.6797,26.5871 416.7617,25.4831 416.7617,25.4831" id="Stroke-41" stroke="#000000"></path>
                        <path d="M400.9692,34.9961 L420.5872,45.8041" id="Stroke-43" stroke="#000000"></path>
                        <path d="M378.083,22.876 C378.083,22.876 383.61,27.222 387.857,29.303 C392.104,31.384 397.611,33.898 397.611,33.898 C397.611,33.898 393.318,35.717 389.23,37.531 C385.141,39.345 378.853,43.566 378.853,43.566 C378.853,43.566 373.283,40.131 369.691,37.091 C366.1,34.05 365.042,32.065 365.042,32.065" id="Stroke-45" stroke="#000000"></path>
                        <path d="M346.5425,41.0059 C346.5425,41.0059 352.6485,44.8059 356.1185,47.5519 C359.5885,50.2979 363.9095,53.4989 363.9095,53.4989 C363.9095,53.4989 368.7135,51.6389 371.7015,50.2579 C374.6895,48.8769 378.8895,45.6689 378.8895,45.6689" id="Stroke-47" stroke="#000000"></path>
                        <path d="M384.1406,45.8809 C384.1406,45.8809 388.5506,48.8709 393.4516,51.5209 C398.3516,54.1699 400.1586,55.0759 400.1586,55.0759 C400.1586,55.0759 406.4186,50.4489 409.3086,49.1259 C412.1986,47.8029 416.4836,45.8739 416.4836,45.8739" id="Stroke-49" stroke="#000000"></path>
                        <path d="M404.6499,57.7529 C404.6499,57.7529 409.6949,61.0099 414.7589,64.5729 C419.8229,68.1359 425.9029,71.5269 425.9029,71.5269 C425.9029,71.5269 430.4819,67.8339 433.3779,66.6119 C436.2739,65.3909 441.1389,62.9089 441.1389,62.9089" id="Stroke-51" stroke="#000000"></path>
                        <path d="M450.8901,64.4121 C450.8901,64.4121 456.4391,67.5331 460.0451,69.2411 C463.6491,70.9501 466.4951,72.0471 466.4951,72.0471 C466.4951,72.0471 470.2511,69.8681 473.8931,67.5321 C477.5361,65.1951 481.0391,63.8311 481.0391,63.8311" id="Stroke-53" stroke="#000000"></path>
                        <path d="M486.3286,64.4121 C486.3286,64.4121 496.3076,71.0241 500.7986,73.7001 C505.2906,76.3771 514.0086,80.8261 514.0086,80.8261 L514.6656,90.6381" id="Stroke-55" stroke="#000000"></path>
                        <path d="M466.9229,74.3066 C466.9229,74.3066 473.9229,80.2216 480.4329,83.8946 C486.9419,87.5666 496.7499,92.9656 496.7499,92.9656 L497.4459,103.3616" id="Stroke-57" stroke="#000000"></path>
                        <path d="M449.1016,85.4395 C449.1016,85.4395 459.2276,93.8365 463.4546,97.1485 C467.6796,100.4575 477.4956,105.9605 477.4956,105.9605 L478.7716,114.2955" id="Stroke-59" stroke="#000000"></path>
                        <path d="M436.9995,99.2285 C436.9995,99.2285 445.7085,105.5245 450.6445,108.4795 C455.5805,111.4345 462.2735,116.3265 462.2735,116.3265 C462.2735,116.3265 466.9455,112.5235 469.1335,111.4525 C471.3215,110.3805 474.6605,108.1035 474.6605,108.1035" id="Stroke-61" stroke="#000000"></path>
                        <path d="M477.4956,105.9609 C478.2716,105.2959 486.1066,100.7659 488.6486,99.0559 C491.1906,97.3459 493.4256,95.4499 493.4256,95.4499" id="Stroke-63" stroke="#000000"></path>
                        <path d="M496.75,92.9658 C496.75,92.9658 501.7,90.2758 504.87,88.5248 C508.039,86.7718 511.984,82.8108 511.984,82.8108" id="Stroke-65" stroke="#000000"></path>
                        <path d="M514.0088,80.8262 C514.0088,80.8262 519.3838,78.3172 523.0288,76.0162 C526.6738,73.7142 529.0988,71.6012 529.0988,71.6012" id="Stroke-67" stroke="#000000"></path>
                        <path d="M430.207,74.4766 C430.207,74.4766 435.295,76.8536 439.902,79.7286 C444.511,82.6046 447.284,84.1636 447.284,84.1636" id="Stroke-69" stroke="#000000"></path>
                        <path d="M445.9346,64.0068 C445.9346,64.0068 451.6206,69.1908 455.8746,71.3688 C460.1266,73.5488 463.1326,73.9638 463.1326,73.9638" id="Stroke-71" stroke="#000000"></path>
                        <path d="M410.7896,83.5234 C410.7896,83.5234 417.0356,87.8314 421.1786,89.9164 C425.3226,92.0004 430.6396,96.2644 430.6396,96.2644" id="Stroke-73" stroke="#000000"></path>
                        <path d="M425.7012,75.9551 C425.7012,75.9551 432.5132,79.4031 436.1372,82.3441 C439.7622,85.2821 444.8512,87.3061 444.8512,87.3061" id="Stroke-75" stroke="#000000"></path>
                        <path d="M386.1128,65.999 C386.1128,65.999 392.2108,71.319 397.7528,75.877 C403.2938,80.434 407.5978,82.61 407.5978,82.61" id="Stroke-77" stroke="#000000"></path>
                        <path d="M366.1353,54.7842 C366.1353,54.7842 372.7863,60.2992 376.7453,62.7032 C380.7053,65.1072 382.2403,65.0252 382.2403,65.0252 C382.2403,65.0252 385.0323,63.7922 390.2323,61.6972 C395.4303,59.6032 398.0533,57.3752 398.0533,57.3752" id="Stroke-79" stroke="#000000"></path>
                        <path d="M139.7959,180.458 L164.5329,156.591 L167.9749,155.848 L168.2649,150.988 C168.2649,150.988 185.8839,138.101 199.2999,129.919 C212.7159,121.739 224.1979,115.324 224.1979,115.324 C224.1979,115.324 231.0209,119.076 236.5619,122.094 C242.1029,125.111 249.0759,131.109 249.0759,131.109 L249.3959,135.893 L255.9199,135.175 C255.9199,135.175 260.8339,141.081 265.5779,144.472 C270.3229,147.864 271.7749,151.156 271.7749,151.156 L270.4809,154.814 L272.0969,152.877 C272.0969,152.877 273.2689,155.058 289.5449,165.059 C302.2219,172.847 313.1289,180.255 317.3339,183.15 C318.5279,183.973 319.1819,184.432 319.1819,184.432 L319.6229,191.024 L322.6789,189.126 C322.6789,189.126 325.9999,194.243 332.4879,199.148 C338.9779,204.052 341.8669,204.27 341.8669,204.27 L339.3129,217.993 L337.5499,218.01 L339.8919,205.426 C339.8919,205.426 333.5739,202.309 329.6739,199.285 C325.7749,196.26 322.0719,192.323 322.0719,192.323 L318.2659,193.747 L317.6969,185.248 C317.6969,185.248 297.8099,173.336 288.0999,166.336 C278.3899,159.336 272.3299,156.353 272.3299,156.353 L269.1609,156.565 L269.7249,151.188 C269.7249,151.188 265.5759,146.745 261.1899,142.571 C256.8029,138.399 254.8369,137.4 254.8369,137.4 L247.8449,137.252 L246.8279,131.26 C246.8279,131.26 240.8359,127.659 235.6829,124.309 C230.5299,120.957 223.9459,117.702 223.9459,117.702 C223.9459,117.702 213.9279,121.437 201.7529,129.755 C189.5779,138.073 170.3089,150.851 170.3089,150.851 L170.1349,157.446 L165.0509,158.198 L140.9519,182.382 L139.7959,180.458 Z" id="Fill-81" fill="#000000"></path>
                        <path d="M339.3125,217.9932 C339.3125,217.9932 302.8035,246.5162 292.4195,253.9882 C282.0365,261.4612 219.9045,311.7252 219.9045,311.7252 L215.1255,312.6882 C215.1255,312.6882 280.0865,259.9482 291.8195,251.1542 C303.5525,242.3592 338.7655,215.3142 338.7655,215.3142 L339.3125,217.9932 Z" id="Fill-83" fill="#000000"></path>
                        <path d="M248.0547,131.1777 C248.0547,131.1777 238.0197,140.7837 223.1797,149.1727 C208.3397,157.5587 191.7827,167.9067 191.7827,167.9067 C191.7827,167.9067 181.6827,164.2717 177.4557,159.4207 C173.2287,154.5697 168.8737,150.5457 168.8737,150.5457" id="Stroke-85" stroke="#000000"></path>
                        <path d="M272.3296,156.3525 C272.3296,156.3525 263.5946,163.9195 258.4846,167.3425 C253.3756,170.7645 245.9906,177.0095 245.9906,177.0095 L267.0526,191.0015 C267.0526,191.0015 255.8756,198.9375 256.2456,201.3755 C256.6146,203.8155 265.9396,211.2015 269.1986,213.8575 C272.4566,216.5135 276.7586,219.4665 276.7586,219.4665 C276.7586,219.4665 292.7796,206.2785 301.5656,199.7785 C310.7216,193.0045 317.6966,185.2485 317.6966,185.2485" id="Stroke-87" stroke="#000000"></path>
                        <path d="M253.3379,136.4727 C253.3379,136.4727 242.2999,143.3737 237.9389,145.7197 C233.5779,148.0637 230.6899,150.9277 230.6899,150.9277 C230.6899,150.9277 235.8419,154.2787 240.6409,158.4747 C245.4409,162.6707 248.9849,166.5417 248.9849,166.5417 C248.9849,166.5417 256.4119,160.9097 260.5269,157.9647 C264.6429,155.0207 269.7249,151.1887 269.7249,151.1887" id="Stroke-89" stroke="#000000"></path>
                        <path d="M203.5449,168.7627 C203.5449,168.7627 213.3969,162.5567 216.9269,160.0627 C220.4569,157.5677 226.3219,153.1697 226.3219,153.1697 C226.3219,153.1697 231.9189,157.0067 236.1449,161.8577 C240.3719,166.7077 243.3289,171.0277 243.3289,171.0277 C243.3289,171.0277 235.7269,177.0807 231.0249,180.4757 C226.3239,183.8707 222.3179,185.3707 222.3179,185.3707 C222.3179,185.3707 218.7129,180.7387 214.4239,177.0147 C211.0709,174.1047 203.5449,168.7627 203.5449,168.7627 Z" id="Stroke-91" stroke="#000000"></path>
                        <path d="M253.2637,208.9678 C253.2637,208.9678 243.9697,214.3128 237.2647,218.4568 C230.5607,222.6038 219.6597,231.5478 219.6597,231.5478 C219.6597,231.5478 224.6487,235.5268 230.2517,239.4638 C235.8547,243.4018 238.9767,247.0948 238.9767,247.0948 C238.9767,247.0948 253.5727,238.1068 260.4127,232.9258 C267.2517,227.7438 272.6767,222.8658 272.6767,222.8658" id="Stroke-93" stroke="#000000"></path>
                        <path d="M243.708,253.3477 C243.708,253.3477 249.12,257.5037 253.292,261.5367 C257.464,265.5697 260.708,268.0217 260.708,268.0217 C260.708,268.0217 271.215,259.3107 276.679,255.0427 C282.143,250.7747 287.566,245.8937 287.566,245.8937" id="Stroke-95" stroke="#000000"></path>
                        <path d="M273.2236,231.041 C273.2236,231.041 278.0896,233.179 282.2066,236.395 C286.3236,239.612 290.2086,242.432 290.2086,242.432 C290.2086,242.432 297.9496,238.422 302.4666,235.346 C306.9846,232.27 311.2496,228.495 311.2496,228.495" id="Stroke-97" stroke="#000000"></path>
                        <path d="M285.8823,220.749 L296.2793,213.481 C296.2793,213.481 298.0523,215.414 300.2203,217.117" id="Stroke-99" stroke="#000000"></path>
                        <path d="M258.8872,240.833 L270.1042,233.512 C270.1042,233.512 272.2422,234.801 275.4812,237.153" id="Stroke-101" stroke="#000000"></path>
                        <path d="M305.4771,203.624 L322.0751,190.808" id="Stroke-103" stroke="#000000"></path>
                        <path d="M290.209,242.4316 C290.209,242.4316 290.761,253.7246 291.738,252.9846" id="Stroke-105" stroke="#000000"></path>
                        <path d="M315.8477,225.1074 L316.2197,233.7094" id="Stroke-107" stroke="#000000"></path>
                        <path d="M260.5117,268.0215 L261.1147,277.0165" id="Stroke-109" stroke="#000000"></path>
                        <path d="M171.7417,193.3799 C171.7417,193.3799 182.2657,185.2819 187.2337,181.2529 C192.1997,177.2249 196.5497,173.1859 196.5497,173.1859 C196.5497,173.1859 204.4417,176.0469 210.0477,181.5489 C215.6527,187.0519 217.9217,188.7459 217.9217,188.7459 C217.9217,188.7459 214.2657,192.3799 205.5477,198.6629 C196.8277,204.9449 186.7997,211.5699 186.7997,211.5699" id="Stroke-111" stroke="#000000"></path>
                        <path d="M228.6553,188.0273 L241.2263,179.4863 C241.2263,179.4863 246.9733,182.4873 251.7583,186.4803 C256.5423,190.4743 257.8923,192.2313 257.8923,192.2313 L245.3883,201.7953 L228.6553,188.0273 Z" id="Stroke-113" stroke="#000000"></path>
                        <path d="M198.145,210.8105 C198.145,210.8105 211.663,201.0745 216.071,197.9055 C220.479,194.7375 223.068,191.9955 223.068,191.9955 C223.068,191.9955 231.315,195.5485 235.906,199.7085 C240.497,203.8705 240.669,207.9635 240.669,207.9635 C240.669,207.9635 231.682,214.8275 226.667,218.1425 C221.652,221.4565 214.134,225.5525 214.134,225.5525 C214.134,225.5525 208.404,221.4195 203.844,217.7215 C199.284,214.0225 198.145,210.8105 198.145,210.8105 Z" id="Stroke-115" stroke="#000000"></path>
                        <path d="M226.6289,116.6592 C226.6289,116.6592 231.4129,112.6852 239.0709,107.4482 C246.7309,102.2122 250.3989,99.6052 250.3989,99.6052 L250.8059,101.7392 C250.8059,101.7392 246.9069,104.8712 239.2559,110.2082 C231.6059,115.5452 228.5469,118.9302 228.5469,118.9302 L226.6289,116.6592 Z" id="Fill-117" fill="#000000"></path>
                        <path d="M316.8311,58.085 C316.8311,58.085 324.0331,52.935 330.7311,49.458 C337.4291,45.981 342.9691,43.606 342.9691,43.606 L343.1261,45.959 C343.1261,45.959 337.5481,47.766 331.5871,50.733 C325.6241,53.702 318.5931,59.101 318.5931,59.101 L316.8311,58.085 Z" id="Fill-119" fill="#000000"></path>
                        <path d="M432.1348,4.166 L439.7858,1.187 C439.7858,1.187 479.4048,22.559 496.2328,34.678 C513.0628,46.799 535.5288,63.37 545.5208,68.447 C555.5118,73.526 562.3388,80.41 562.3388,80.41 L555.3758,96.023 L551.8398,98.415 L559.6808,80.589 C559.6808,80.589 555.4718,75.998 544.6348,70.562 C533.7978,65.123 508.5928,46.912 492.9308,35.928 C475.1508,23.458 439.7378,3.654 439.7378,3.654 L433.8298,5.898 L432.1348,4.166 Z" id="Fill-121" fill="#000000"></path>
                        <path d="M555.376,96.0234 C555.376,96.0234 452.5,169.7474 412.058,200.5924 C371.615,231.4394 264.431,323.6324 264.431,323.6324 L258.646,321.5564 C258.646,321.5564 366.236,229.3304 410.404,196.5974 C454.572,163.8664 555.184,93.1624 555.184,93.1624 L555.376,96.0234 Z" id="Fill-123" fill="#000000"></path>
                        <path d="M559.8784,79.8564 C559.8784,79.8564 471.6714,134.0214 412.6734,177.5804 C353.6754,221.1404 236.3274,319.4574 236.3274,319.4574 L238.9834,319.2794 C238.9834,319.2794 375.9764,205.3474 417.9144,175.3544 C459.8524,145.3624 560.3164,80.8554 560.3164,80.8554 L559.8784,79.8564 Z" id="Fill-125" fill="#000000"></path>
                        <path d="M350.6143,128.459 L349.7333,137.343 L368.9743,152.142 L377.8323,146.415 C377.8323,146.415 368.3393,142.637 362.9333,138.583 C357.5283,134.529 350.6143,128.459 350.6143,128.459" id="Fill-127" fill="#A8A8A8"></path>
                        <path d="M350.4849,164.6055 C350.4849,164.6055 357.7149,169.5295 362.6299,172.3835 C367.5439,175.2405 373.8009,178.2095 373.8009,178.2095 C373.8009,178.2095 381.2069,173.8095 386.9779,169.5225 C392.7489,165.2355 412.8149,153.6235 414.5459,151.8655 C416.2769,150.1055 419.2259,146.6235 419.2259,146.6235 L420.0239,147.8015 C420.0239,147.8015 428.1659,142.1215 431.6059,139.8365 C435.0469,137.5525 438.8939,135.6535 438.8939,135.6535 L438.9129,144.6865 L422.8369,154.5425 L421.3749,154.1775 L420.3179,157.3805 L400.3829,170.3695 L399.2109,169.7285 L397.0999,171.4935 L374.0039,187.9495 C374.0039,187.9495 365.2699,184.1605 362.4689,182.2515 C359.5569,180.2675 351.1539,172.3775 351.1539,172.3775 L350.4849,164.6055 Z" id="Fill-129" fill="#A5A5A5"></path>
                        <path d="M249.4243,92.2256 C249.4243,92.2256 254.0613,94.3276 261.0643,98.8916 C268.0673,103.4556 279.6613,109.4566 287.6023,116.1126 L295.5433,122.7686 C295.5433,122.7686 305.3203,118.5186 312.8363,114.2166 C320.3523,109.9146 337.7893,97.8416 340.4113,96.1366 C343.0343,94.4316 355.5783,89.4796 358.3893,88.0616 C361.2003,86.6436 363.5983,86.0436 363.5983,86.0436 L364.1173,93.7866 L296.7663,136.4156 L251.3543,101.4926 L249.4243,92.2256 Z" id="Fill-131" fill="#A8A8A8"></path>
                        <path d="M194.8315,213.4814 C194.8315,213.4814 200.3395,221.6514 203.5445,223.7514 C206.7505,225.8504 209.7505,229.4084 209.7505,229.4084 L188.5005,248.8504 C188.5005,248.8504 183.7505,245.2624 180.5005,242.4314 C177.2505,239.6004 171.7415,235.4634 171.7415,235.4634" id="Stroke-133" stroke="#000000"></path>
                        <path d="M163.0005,314.6885 C163.0005,314.6885 197.5005,289.6005 209.7505,279.8505 C222.0005,270.1005 240.6695,256.9585 240.6695,256.9585 L256.4295,270.9205 L255.4065,280.7255" id="Stroke-135" stroke="#000000"></path>
                        <path d="M195.7505,249.7256 C195.7505,249.7256 204.6145,242.0316 207.6145,239.2086 C210.6145,236.3866 214.5005,233.5116 214.5005,233.5116 C214.5005,233.5116 221.5005,237.7626 225.7505,241.4316 C230.0005,245.1006 234.5005,251.1006 234.5005,251.1006" id="Stroke-137" stroke="#000000"></path>
                        <path d="M190.7461,254.8506 C190.7461,254.8506 197.1741,258.3506 200.9621,262.1006 C204.7501,265.8506 209.7501,272.5186 209.7501,272.5186 C209.7501,272.5186 201.7891,278.6006 198.1451,281.3506 C194.5001,284.1006 189.0001,288.3506 189.0001,288.3506 C189.0001,288.3506 184.2931,281.5656 179.5001,277.0166 C175.9541,273.6516 170.0001,270.5186 170.0001,270.5186" id="Stroke-139" stroke="#000000"></path>
                        <path d="M213.7505,268.0215 C213.7505,268.0215 221.2505,262.5885 225.5005,259.3445 C229.7505,256.1005 232.0005,254.0195 232.0005,254.0195" id="Stroke-141" stroke="#000000"></path>
                        <path d="M164.0005,201.7949 C164.0005,201.7949 169.7505,205.1009 174.2505,208.1009 C178.7505,211.1009 180.7505,215.3149 180.7505,215.3149 C180.7505,215.3149 177.2325,219.6139 171.7415,225.1069 C166.2505,230.6009 164.0005,233.5119 164.0005,233.5119 C164.0005,233.5119 155.0005,225.3509 152.5005,223.1009 C150.0005,220.8509 146.2505,217.6529 146.2505,217.6529" id="Stroke-143" stroke="#000000"></path>
                        <path d="M153.2505,247.8506 L165.5005,237.1726 C165.5005,237.1726 172.6135,241.9366 176.5575,245.8936 C180.5005,249.8506 183.2505,254.0196 183.2505,254.0196 C183.2505,254.0196 177.2325,257.6536 171.7415,263.2516 C166.2505,268.8506 165.5005,268.0216 165.5005,268.0216" id="Stroke-145" stroke="#000000"></path>
                        <path d="M142.6279,251.1006 C142.6279,251.1006 149.5009,244.3156 152.2509,241.8326 C155.0009,239.3506 160.2509,235.4636 160.2509,235.4636 C160.2509,235.4636 156.7509,231.6006 152.2509,227.8506 C147.7509,224.1006 141.2509,219.0096 141.2509,219.0096 C141.2509,219.0096 132.0229,222.7456 126.9289,228.4956 C121.8349,234.2456 115.1509,239.8876 115.1509,239.8876 C115.1509,239.8876 118.6029,242.7796 122.6029,245.9046" id="Stroke-147" stroke="#000000"></path>
                        <path d="M145.7505,258.3447 C145.7505,258.3447 151.5005,261.6007 155.2505,265.1007 C159.0005,268.6007 161.5005,271.5187 161.5005,271.5187 C161.5005,271.5187 157.0005,275.6007 153.1255,279.3507 C149.2505,283.1007 145.7505,284.8237 145.7505,284.8237 C145.7505,284.8237 130.5225,276.0257 128.9285,274.5257 C127.3345,273.0257 123.5845,270.0257 123.5845,270.0257" id="Stroke-149" stroke="#000000"></path>
                        <path d="M155.5005,282.3506 L166.2895,273.6006 C166.2895,273.6006 168.7505,274.1006 172.2505,277.9756" id="Stroke-151" stroke="#000000"></path>
                        <path d="M85.8682,267.0732 L95.5092,256.0982 C95.5092,256.0982 97.9702,256.5982 101.4702,260.4732" id="Stroke-153" stroke="#000000"></path>
                        <path d="M113.0845,278.9385 L118.7095,273.0255 C118.7095,273.0255 121.1695,273.5255 124.6695,277.4005" id="Stroke-155" stroke="#000000"></path>
                        <path d="M252.8057,273.6006 C252.8057,273.6006 230.3777,290.7136 223.4367,295.9026 C216.4957,301.0906 200.9627,312.6886 200.9627,312.6886" id="Stroke-157" stroke="#000000"></path>
                        <path d="M126.9287,302.0254 C126.9287,302.0254 140.2507,294.9384 142.5007,293.1444 C144.7507,291.3504 147.9787,289.1004 147.9787,289.1004 C147.9787,289.1004 151.5007,290.6004 157.5007,295.8504 C163.5007,301.1004 167.2897,305.1004 167.2897,305.1004 L158.7507,312.6884" id="Stroke-159" stroke="#000000"></path>
                        <path d="M142.7505,185.3711 C142.7505,185.3711 147.0285,187.1811 150.8895,190.6411 C154.7505,194.1001 159.2405,195.6291 159.2405,195.6291 C159.2405,195.6291 167.0775,188.4551 171.1805,184.9971 C175.2835,181.5381 186.6005,171.7981 186.6005,171.7981 C186.6005,171.7981 183.9795,169.4581 177.9545,166.8961 C171.9305,164.3351 165.0515,158.1981 165.0515,158.1981 L147.9785,174.3841" id="Stroke-161" stroke="#000000"></path>
                        <path d="M62.1792,284.8232 C62.1792,284.8232 64.7202,280.1142 67.2202,278.2392 C69.7202,276.3642 72.8042,273.0532 72.8042,273.0532 L80.0542,277.4282" id="Stroke-163" stroke="#000000"></path>
                        <path d="M113.0845,209.5254 C113.0845,209.5254 118.3345,213.1234 120.3345,214.9494 C122.3345,216.7754 126.9285,220.1734 126.9285,220.1734 C126.9285,220.1734 136.5005,215.3504 142.7505,210.1004 C149.0005,204.8504 155.5005,198.6004 155.5005,198.6004" id="Stroke-165" stroke="#000000"></path>
                        <g id="Group-169" transform="translate(0.000000, 180.000000)" fill="#000000">
                            <path d="M139.7959,0.458 L138.9179,5.371 L129.1679,3.858 C129.1679,3.858 124.3469,9.763 119.8349,15.054 C115.3219,20.345 109.0019,25.427 109.0019,25.427 L108.1679,29.1 L105.3339,29.1 C105.3339,29.1 96.0849,35.32 93.4179,37.653 C90.7509,39.986 85.0839,45.553 85.0839,45.553 L79.6029,50.496 L77.0849,49.396 C77.0849,49.396 73.3339,53.664 69.3339,57.164 C65.3339,60.664 61.6679,64.164 61.6679,64.164 L62.5009,68.164 L59.0009,67.081 C59.0009,67.081 53.3339,73.486 47.1679,78.575 C41.0009,83.664 36.5009,88.998 36.5009,88.998 L38.0009,92.998 L34.6679,91.831 C34.6679,91.831 29.5009,96.664 26.1679,99.331 C22.8339,101.998 18.0009,108.164 18.0009,108.164 L19.0009,111.498 L14.8639,111.498 C14.8639,111.498 12.1669,113.334 8.9999,116.334 C5.8329,119.334 -0.0001,125.334 -0.0001,125.334 L3.8329,125.167 C3.8329,125.167 7.4999,120.667 9.3329,119.167 C11.1669,117.667 14.8639,113.119 14.8639,113.119 L20.4999,112.5 L19.8329,108.834 C19.8329,108.834 23.7679,103.495 27.4669,100.581 C31.1669,97.667 35.3329,93.5 35.3329,93.5 L40.6669,94.593 L39.2899,89.814 C39.2899,89.814 46.4999,82.168 49.8329,79.251 C53.1669,76.334 59.8329,68.834 59.8329,68.834 L64.6899,69.331 L63.6669,64.5 C63.6669,64.5 67.9999,60.5 71.1669,58 C74.3329,55.5 78.1669,51.742 78.1669,51.742 L80.9999,53.286 L87.0839,47.1 C87.0839,47.1 92.3539,42.387 96.3529,39.01 C101.2859,34.844 106.2419,31.194 106.2419,31.194 L109.8339,30.995 L110.8339,26.194 C110.8339,26.194 117.4999,21.693 121.8339,16.36 C126.1669,11.027 130.5009,5.86 130.5009,5.86 L140.2509,7.103 L140.9519,2.382 L139.7959,0.458 Z" id="Fill-167"></path>
                        </g>
                        <path d="M63.6665,244.5 C63.6665,244.5 68.0005,248.138 72.7505,252.619 C77.5005,257.101 83.2505,262.851 83.2505,262.851 C83.2505,262.851 89.8385,256.188 93.6695,253.02" id="Stroke-170" stroke="#000000"></path>
                        <path d="M38.29,269.8145 C38.29,269.8145 46,276.0265 49,278.9385 C52,281.8505 55.75,285.8235 55.75,285.8235 C55.75,285.8235 57.5,279.6005 65.5,273.6005 L73.5,267.6005" id="Stroke-172" stroke="#000000"></path>
                        <path d="M80.9302,231.166 C80.9302,231.166 86.7502,236.601 90.5002,239.351 C94.2502,242.101 101.4702,247.726 101.4702,247.726 C101.4702,247.726 106.6682,240.567 113.0842,233.709 C119.5002,226.851 123.5842,224.101 123.5842,224.101" id="Stroke-174" stroke="#000000"></path>
                    </g>
                    <g id="Group-215" transform="translate(248.000000, 55.747000)">
                        <path d="M115.1685,38.0283 L48.3225,79.4193 L3.5185,45.2513 L2.0525,38.1233 C2.0525,38.1233 8.7945,34.1593 14.2195,31.4663 C19.6455,28.7713 22.6905,26.3983 22.6905,26.3983 L26.2275,27.9173 L26.0845,25.7793 C26.0845,25.7793 30.7065,20.5293 36.1055,17.4353 C41.5045,14.3403 43.2055,14.4673 43.2055,14.4673 L46.3305,15.9123 L46.6355,12.5843 C46.6355,12.5843 52.5925,9.5013 56.2945,7.9853 C59.9995,6.4693 66.1295,2.3473 66.1295,2.3473 C66.1295,2.3473 72.5935,6.2083 77.4395,9.7893 C82.2835,13.3683 87.0365,15.5693 87.0365,15.5693 L88.0295,18.4593 L90.4225,18.2993 C90.4225,18.2993 96.9605,23.2573 100.1065,25.4003 C103.2535,27.5423 114.6935,30.9373 114.6935,30.9373 L115.1685,38.0283 Z M101.5545,24.8773 C98.3235,22.6183 91.6085,17.3903 91.6085,17.3903 L89.1545,17.5543 L88.1295,14.5133 C88.1295,14.5133 83.2515,12.1893 78.2745,8.4153 C73.2985,4.6403 66.6605,0.5683 66.6605,0.5683 C66.6605,0.5683 60.3795,4.8933 56.5835,6.4803 C52.7875,8.0673 44.6185,11.8083 44.6185,11.8083 L44.7615,13.9443 L42.6345,12.8543 C42.6345,12.8543 41.4215,13.1393 35.8885,16.3853 C30.3565,19.6323 24.2785,23.9403 24.2785,23.9403 L24.4295,26.1913 L22.0575,24.5003 C22.0575,24.5003 18.9385,26.9923 13.3775,29.8173 C7.8165,32.6413 0.9075,36.8003 0.9075,36.8003 L2.8055,46.7393 L48.9515,82.6633 L117.0865,39.0873 L116.5275,30.7303 C116.5275,30.7303 104.7865,27.1363 101.5545,24.8773 L101.5545,24.8773 Z" id="Fill-177" fill="#000000"></path>
                        <path d="M26.1797,63.3115 L25.2717,49.7465 C25.2717,49.7465 34.2767,47.5005 38.6507,45.3585 C43.0257,43.2165 46.4657,39.3955 46.4657,39.3955 L69.5797,56.4305 L70.2837,66.9525" id="Stroke-179" stroke="#000000"></path>
                        <path d="M49.8389,39.1699 C49.8389,39.1699 58.4479,35.8509 62.6019,33.4879 C66.7559,31.1279 70.1159,26.1069 70.1159,26.1069 C70.1159,26.1069 76.3929,30.9229 80.8709,33.3959 C85.3499,35.8679 93.5499,40.2479 93.5499,40.2479 L94.8749,52.3779" id="Stroke-181" stroke="#000000"></path>
                        <path d="M72.876,25.9229 C72.876,25.9229 79.044,24.4829 83.132,22.6689 C87.22,20.8559 90.879,18.2479 90.879,18.2479" id="Stroke-183" stroke="#000000"></path>
                        <path d="M87.3403,14.9941 C87.3403,14.9941 82.2573,17.2851 78.6803,19.0641 C75.1033,20.8451 69.6323,23.4701 69.6323,23.4701 L45.8793,12.2251" id="Stroke-185" stroke="#000000"></path>
                        <path d="M46.0156,14.2695 L66.5376,24.8055 C66.5376,24.8055 62.5186,29.1815 57.9806,31.9505 C53.4426,34.7175 47.5556,37.2685 47.5556,37.2685 C47.5556,37.2685 41.0056,34.5245 36.8136,31.7245 C32.6216,28.9245 25.4656,24.7855 25.4656,24.7855" id="Stroke-187" stroke="#000000"></path>
                        <path d="M27.272,51.7695 C27.272,51.7695 37.845,59.3795 40.128,61.2805 C42.412,63.1795 47.898,68.4515 47.898,68.4515 C47.898,68.4515 58.917,62.7935 61.588,61.2805 C64.259,59.7675 69.58,56.4305 69.58,56.4305" id="Stroke-189" stroke="#000000"></path>
                        <path d="M5.7812,39.0371 C5.7812,39.0371 10.2942,42.0211 14.3802,44.7771 C18.4662,47.5331 24.4232,50.6251 24.4232,50.6251" id="Stroke-191" stroke="#000000"></path>
                        <path d="M72.2773,54.5557 C72.2773,54.5557 79.7393,51.2327 83.6193,48.0977 C87.4993,44.9637 93.5493,40.2477 93.5493,40.2477" id="Stroke-193" stroke="#000000"></path>
                        <path d="M98.3232,38.708 C98.3232,38.708 103.5792,36.698 107.9402,34.354 C112.3022,32.01 114.6942,30.937 114.6942,30.937" id="Stroke-195" stroke="#000000"></path>
                        <path d="M126.0107,123.2939 L125.3137,132.4299" id="Stroke-197" stroke="#000000"></path>
                        <path d="M100.8604,83.1152 L102.1584,72.9892 C102.1584,72.9892 112.4924,68.6002 115.5794,66.3922 C118.6654,64.1822 125.4214,59.2632 125.4214,59.2632 C125.4214,59.2632 135.5734,65.9762 140.4144,69.2722 C145.2564,72.5672 151.1724,75.8182 151.1724,75.8182 L167.2004,64.4782 C167.2004,64.4782 172.3634,67.9812 178.3034,71.5872 C184.2444,75.1932 191.4024,80.1052 191.4024,80.1052 L191.5164,89.9552 L189.9934,89.7482 L189.8574,80.8242 C189.8574,80.8242 182.7524,75.9102 178.2534,73.1312 C173.7544,70.3512 167.2984,65.9322 167.2984,65.9322 L150.9434,77.4752 C150.9434,77.4752 145.9614,73.9052 138.5494,69.0122 C131.1364,64.1182 125.5074,60.5672 125.5074,60.5672 C125.5074,60.5672 121.1134,65.0962 115.8394,67.9922 C110.5664,70.8862 103.0794,74.0842 103.0794,74.0842 L102.4844,83.5942 L100.8604,83.1152 Z" id="Fill-199" fill="#000000"></path>
                        <path d="M100.8604,83.1152 C100.8604,83.1152 109.2394,89.7932 113.3494,92.5202 C117.4594,95.2482 120.2194,97.3742 120.2194,97.3742 C120.2194,97.3742 115.9724,101.0192 113.6164,102.6402 C111.2604,104.2612 101.8684,109.2792 101.8684,109.2792 L102.4894,118.5562 C102.4894,118.5562 108.1944,124.0272 112.4024,127.0562 C116.6094,130.0862 125.3404,135.1222 125.3404,135.1222 C125.3404,135.1222 133.3834,129.8862 139.6794,124.9992 C145.9744,120.1112 150.0224,117.2992 150.0224,117.2992 L150.9264,115.8522 L152.6544,116.3522 C152.6544,116.3522 158.7554,112.0162 163.0324,109.1882 C167.3094,106.3602 172.9874,102.5932 172.9874,102.5932 L173.4874,100.8652 L175.0264,100.8402 C175.0264,100.8402 177.1774,99.6172 182.5434,95.7912 C187.9074,91.9672 191.5164,89.9552 191.5164,89.9552 L190.3554,88.2612 C190.3554,88.2612 177.2784,96.5302 175.6434,97.4092 C174.0074,98.2892 172.5714,98.6932 172.5714,98.6932 L172.1234,101.1872 C172.1234,101.1872 164.2074,106.0302 160.2364,108.8362 C156.2664,111.6432 152.6534,114.0432 152.6534,114.0432 L150.7464,113.1692 L149.2854,115.5002 C149.2854,115.5002 139.7504,122.6062 135.4114,125.6702 C131.0734,128.7322 125.3384,132.1212 125.3384,132.1212 C125.3384,132.1212 117.5694,128.3272 112.7744,124.5672 C107.9784,120.8052 103.5334,116.5222 103.5334,116.5222 L103.1104,110.1982 C103.1104,110.1982 110.9344,106.2852 114.8794,103.0942 C118.8234,99.9042 122.0894,96.9132 122.0894,96.9132 C122.0894,96.9132 114.7014,91.2482 111.0834,88.9482 C107.4634,86.6492 102.0084,81.6632 102.0084,81.6632 L100.8604,83.1152 Z" id="Fill-201" fill="#000000"></path>
                        <path d="M103.0796,74.084 C103.0796,74.084 114.0746,83.024 116.7526,84.693 C119.4316,86.362 129.8466,91.62 129.8466,91.62 C129.8466,91.62 137.6346,86.786 141.6406,83.745 C145.6466,80.705 150.9026,76.857 150.9026,76.857" id="Stroke-203" stroke="#000000"></path>
                        <path d="M121.2036,96.7158 L128.1686,93.0668 C128.1686,93.0668 135.6746,98.9288 138.5786,100.8918 C141.4816,102.8538 151.1066,107.0348 151.1066,107.0348 L151.0546,113.9188" id="Stroke-205" stroke="#000000"></path>
                        <path d="M153.834,105.2236 C153.834,105.2236 162.376,100.5306 165.932,97.2896 C169.489,94.0476 171.333,91.6906 171.333,91.6906 C171.333,91.6906 165.382,87.9306 160.587,84.1696 C155.792,80.4106 153.123,78.5096 153.123,78.5096" id="Stroke-207" stroke="#000000"></path>
                        <path d="M171.6011,91.6729 L173.4051,99.6389" id="Stroke-209" stroke="#000000"></path>
                        <path d="M174.2515,90.8027 C174.2515,90.8027 179.1915,87.9067 182.7275,85.5127 C186.2635,83.1197 190.2835,80.2837 190.2835,80.2837" id="Stroke-211" stroke="#000000"></path>
                        <path d="M106.5723,112.0703 C106.5723,112.0703 111.5623,116.0473 117.0963,118.9623 C122.6303,121.8783 126.0103,123.2943 126.0103,123.2943 C126.0103,123.2943 131.9123,119.4113 138.5823,114.7543 C145.2523,110.0963 148.1203,108.0553 148.1203,108.0553" id="Stroke-213" stroke="#000000"></path>
                    </g>
                </g>
            </g>
        </g>
    </g>
</svg>