<?xml version="1.0" encoding="utf-8"?>
<!-- Generator: Adobe Illustrator 16.0.0, SVG Export Plug-In . SVG Version: 6.00 Build 0)  -->
<!DOCTYPE svg PUBLIC "-//W3C//DTD SVG 1.1//EN" "http://www.w3.org/Graphics/SVG/1.1/DTD/svg11.dtd">
<svg version="1.1" xmlns="http://www.w3.org/2000/svg" xmlns:xlink="http://www.w3.org/1999/xlink" x="0px" y="0px"
	 width="564.57px" height="302.048px" viewBox="0 0 564.57 302.048" enable-background="new 0 0 564.57 302.048"
	 xml:space="preserve">
<g id="Layer_1" display="none">
</g>
<g id="Layer_2">
</g>
<g id="Layer_3">
</g>
<g id="Layer_4">
	<path opacity="0.7" d="M253.374,342.153c0,0,152.438-129.824,205.218-165.601c52.779-35.777,105.898-74.473,105.879-78.091
		c-0.021-3.8-12.287-5.643-12.287-5.643s-45.068-46.22-62.035-56.583c-16.967-10.364-44.184-25.791-44.184-25.791
		s-86.652,35.929-108.082,48.097c-22.751,12.92-87.709,54.025-93.895,58.655c-6.188,4.631-93.064,75.025-93.064,75.025"/>
	<path fill="#A5A5A5" d="M249.309,335.497c0,0,152.275-132.277,205.055-168.055c52.779-35.775,102.234-70.815,102.234-70.815
		l6.486-15.066c0,0-60.032-41.616-77-51.979C469.117,19.217,441.9,3.79,441.9,3.79s-86.652,35.928-108.082,48.097
		c-22.751,12.92-87.709,54.023-93.895,58.654c-6.188,4.631-222.828,197.346-222.828,197.346"/>
	<path fill="#C4C4C4" d="M4.066,307.234l13.908-13.837l4.258,0.254l-0.248-4.243l15.375-15.294l4.539,0.708l-1.377-3.854
		l21.652-21.539l3.725,0.059l-0.884-2.885l15.302-15.228l2.248,1.521l6.418-6.189l18.876-15.563l3.54,0.204l0.889-4.609
		l20.386-20.28l9.354,0.799l1.156-5.293l23.629-23.506l4.725-0.316l-0.363-5.411c0,0,17.848-12.613,30.002-20.336
		c12.154-7.724,24.89-15.227,24.89-15.227l24.263,15.782l0.335,5.006l6.769-0.864l15.468,14.777l-1.507,5.851l3.301-2.068
		c0,0,13.744,9.706,24.682,16.675c10.939,6.969,20.554,14.076,20.554,14.076l1.597,6.979l2.754-1.829c0,0,2.395,4.358,7.404,7.873
		c5.011,3.515,10.412,6.745,10.412,6.745l-1.258,11.791c0,0-40.409,29.916-54.42,41.482c-14.012,11.564-64.281,53.436-64.281,53.436
		l-63.244,3.31L4.066,307.234z"/>
	<path fill="#A8A8A8" d="M203.194,313.842c0,0,55.45-41.347,75.769-56.876c3.061-2.341,8.105-6.301,14.041-10.999
		c0.768-0.609-0.562-1.282,0.297-1.821c26.408-16.554,48.305-36.99,48.305-36.99l-0.768,10.806c0,0-43.365,33.608-57.867,45.204
		c-15.174,12.134-60.834,49.714-60.834,49.714L203.194,313.842z"/>
	<path fill="#C4C4C4" d="M425.271,2.049c0,0-4.458,3.457-8.271,5.176c-3.812,1.719-11.597,5.063-11.597,5.063l-0.114,3.652
		l-3.257-2.247l-17.31,8.707l0.236,3.526l-5.027-1.872c0,0-1.975,1.571-5.174,3.248c-3.199,1.678-8.85,3.544-8.85,3.544l-1.544,4.93
		l-2.377-1.381c0,0-3.962,1.779-8.185,3.115c-4.224,1.336-8.879,3.11-8.879,3.11l0.738,11.039l118.932,75.206l69.781-45.834
		l-1.309-11.499l-19.764-13.388l-4.457,0.144l-0.434-4.181c0,0-3.897-1.844-9.111-4.96c-5.215-3.115-8.036-6.161-8.036-6.161
		l-4.052,1.006l-0.254-3.798l-14.482-10.968l-3.5,0.619l-1.591-3.051l-15.469-7.896l-4.094,0.197l-0.247-3.681
		c0,0-5.188-3.945-11.514-6.364C429.736,4.632,425.271,2.049,425.271,2.049z"/>
	<path fill="#A8A8A8" d="M344.221,40.099c0,0,7.113,3.223,12.638,7.475c5.523,4.252,14.028,13.336,20.677,15.354
		s11.177,4.326,21.611,13.411c10.435,9.084,17.824,9.024,26.719,16.117c8.895,7.094,18.764,10.332,28.701,17.678
		c9.939,7.347,9.939,7.347,9.939,7.347s17.963-13.318,28.597-18.857s16.238-12.245,25.821-17.953
		c9.583-5.707,14.679-11.172,14.679-11.172l0.772,11.535l-69.244,45.798L345.662,51.66L344.221,40.099z"/>
	<path fill="#C4C4C4" d="M317.027,57.582l-21.172,10.814l0.18,2.683l-3.39-1.546c0,0-0.854-0.097-6.903,3.852
		c-6.051,3.947-10.083,6.989-10.083,6.989l0.198,2.965l-3.729-1.649c0,0-3.849,2.336-8.365,5.026
		c-4.518,2.69-12.106,6.663-12.106,6.663l1.93,9.267l45.412,34.924l67.352-42.63l-0.52-7.742c0,0-9.826-3.276-14.153-5.521
		c-4.327-2.246-10.144-7.714-10.144-7.714l-3.457,0.111l-0.52-3.157c0,0-7.744-4.103-12.345-7.952
		C321.207,59.611,317.027,57.582,317.027,57.582z"/>
	<path fill="#C4C4C4" d="M375.803,115.947c0,0-5.328,4.951-9.191,7.058s-13.766,6.607-13.766,6.607l-0.881,8.884l20.178,14.775
		c0,0-4.506,3.447-9.428,6.6c-4.923,3.152-9.998,5.888-9.998,5.888l0.423,7.537c0,0,5.608,5.446,10.325,8.511
		c4.715,3.063,12.119,7.34,12.119,7.34s13.037-8.54,16.645-11.345c3.607-2.806,7.518-5.438,7.518-5.438l1.545-2.899l1.379,1.335
		c0,0,6.171-4.312,11.733-7.998c5.562-3.685,7.952-5.461,7.952-5.461l1.201-2.746l1.454,0.232c0,0,7.097-5.071,10.79-7.397
		c3.693-2.324,4.787-3.015,4.787-3.015l0.537-7.608l-23.719-15.407l-15.759,11.337L375.803,115.947"/>
	<g>
		<path d="M522.305,60.623c-6.215-3.896-8.806-5.775-8.806-5.775l-3.681,0.247l-0.205-3.066c0,0-3.666-2.63-9.188-5.34
			c-5.52-2.711-8.889-7.004-8.889-7.004l-3.42,1.05l-0.178-2.658l-15.57-11.688l-2.793,1.214l-1.229-2.998l-16.181-8.569
			l-3.229,0.833l-0.219-3.27c0,0-6.503-5.109-9.666-6.336c-3.162-1.226-13.74-5.856-13.74-5.856s-5.355,2.823-10.506,5.632
			s-10.166,4.583-10.166,4.583l0.219,3.27l-2.795-1.865c0,0-2.779,1.418-7.168,3.354s-10.726,5.44-10.726,5.44l0.192,2.863
			l-4.417-1.553c0,0-2.753,1.827-6.132,3.491c-3.38,1.664-8.15,4.037-8.15,4.037l-1.17,3.979l-2.141-1.295l-18.67,6.384
			l0.834,12.473l120.535,76.531l70.574-47.028l-0.863-12.881C534.764,68.822,528.521,64.52,522.305,60.623z M533.051,80.027
			c0,0-15.876,11.33-27.867,19.322c-11.992,7.991-40.785,25.729-40.785,25.729s-53.983-33.35-66.401-40.938
			c-12.419-7.588-51.312-33.322-51.312-33.322l-0.644-9.609l16.026-6.002l2.998,1.854l1.881-5.67c0,0,1.021-0.069,6.023-2.046
			c5.001-1.978,7.303-4.392,7.303-4.392l5.453,1.689l-0.057-3.898c0,0,1.568-1.132,7.741-4.01c6.173-2.877,8.559-4.065,8.559-4.065
			l4.034,1.991l0.312-4.541c0,0,6.842-2.101,11.025-4.023c4.184-1.924,7.863-5.249,7.863-5.249s6.16,3.077,12.076,5.557
			c5.918,2.48,8.998,5.56,8.998,5.56l0.873,3.842l4.906-0.328c0,0,2.127,1.09,6.625,3.869c4.499,2.778,7.838,3.583,7.838,3.583
			l1.27,3.611l4.498-0.301c0,0,1.268,0.53,5.616,4.141c4.349,3.609,7.361,5.667,7.361,5.667l0.71,4.471l4.717-0.11
			c0,0,1.09,0.954,5.643,4.551c4.554,3.599,10.852,5.639,10.852,5.639l1.146,4.854l4.729,0.094c0,0,1.977,1.92,9.652,6.131
			c7.674,4.209,9.72,7.151,9.72,7.151L533.051,80.027z"/>
	</g>
	<path fill="none" stroke="#000000" stroke-miterlimit="10" d="M369.09,66.728l-0.723-10.79c0,0,8.234-3.016,10.211-4.174
		c1.975-1.16,4.701-3.396,4.701-3.396l1.498,0.926l-0.232-3.475c0,0,4.701-3.396,9.689-5.578c4.988-2.182,8.967-4.092,8.967-4.092
		l3.572,1.967l-1.119-2.131c0,0,3.965-2.112,8.939-4.5c4.975-2.387,9.09-5.332,9.09-5.332l2.59,1.88l-0.191-2.861
		c0,0,6.285-1.242,10.924-4.018c4.64-2.776,7.556-5.229,7.556-5.229l3.763,0.98"/>
	<path fill="none" stroke="#000000" stroke-miterlimit="10" d="M389.149,79.17l-0.805-12.018c0,0,8.234-3.016,10.21-4.176
		c1.977-1.158,4.701-3.395,4.701-3.395l1.5,0.927l-0.232-3.475c0,0,4.7-3.396,9.688-5.578c4.989-2.182,8.969-4.092,8.969-4.092
		l2.617,2.288l-0.164-2.452c0,0,3.965-2.113,8.939-4.5c4.975-2.388,9.09-5.332,9.09-5.332l2.59,1.88l-0.191-2.861
		c0,0,6.284-1.243,10.924-4.018c4.639-2.775,7.555-5.229,7.555-5.229l3.764,0.98"/>
	<path fill="none" stroke="#000000" stroke-miterlimit="10" d="M413.744,95.468l-0.723-10.791c0,0,8.234-3.014,10.21-4.174
		c1.976-1.159,4.702-3.395,4.702-3.395l1.499,0.926l-0.233-3.476c0,0,4.701-3.395,9.689-5.576c4.988-2.184,8.967-4.094,8.967-4.094
		l2.618,2.289l-0.165-2.453c0,0,4.348-3.435,7.799-5.967c4.448-3.264,7.672-5.032,7.672-5.032l2.59,1.88l-0.191-2.861
		c0,0,3.077-3.727,7.717-6.502c4.639-2.775,7.556-5.229,7.556-5.229l3.763,0.979"/>
	<path fill="none" stroke="#000000" stroke-miterlimit="10" d="M437.601,108.672l-1.583-10.697c0,0,7.967-3.665,9.843-4.979
		c1.877-1.314,4.414-3.761,4.414-3.761l1.569,0.803l-0.51-3.444c0,0,4.412-3.762,9.21-6.336s8.61-4.797,8.61-4.797l2.793,2.072
		l-0.36-2.432c0,0,3.783-2.425,8.552-5.201c4.768-2.778,6.11-3.164,6.11-3.164l2.731,1.668l-0.42-2.838c0,0,4.82-3.041,9.223-6.179
		s8.58-4.493,8.58-4.493l3.25-2.865"/>
	<line fill="none" stroke="#000000" stroke-miterlimit="10" x1="405.254" y1="15.43" x2="423.898" y2="26.309"/>
	<line fill="none" stroke="#000000" stroke-miterlimit="10" x1="426.082" y1="25.172" x2="446.061" y2="36.387"/>
	<line fill="none" stroke="#000000" stroke-miterlimit="10" x1="426.273" y1="28.033" x2="443.662" y2="37.368"/>
	<path fill="none" stroke="#000000" stroke-miterlimit="10" d="M405.71,12.268l18.935,11.361c0,0,5.415-2.312,10.605-5.126
		c5.189-2.811,7.308-4.904,7.308-4.904"/>
	<path fill="none" stroke="#000000" stroke-miterlimit="10" d="M482.166,39.285c0,0-5.723,3.465-9.451,6.075
		c-3.727,2.609-6.431,5.153-6.431,5.153l-17.028-12.027c0,0,8.729-3.023,11.693-4.763c2.963-1.738,5.498-3.756,5.498-3.756"/>
	<path fill="none" stroke="#000000" stroke-miterlimit="10" d="M470.715,53.812c0,0,4.293,2.792,7.934,5.014
		c3.64,2.22,8.854,4.95,8.854,4.95s5.668-4.28,8.83-6.135c3.162-1.855,8.312-4.664,8.312-4.664"/>
	<path fill="none" stroke="#000000" stroke-miterlimit="10" d="M462.053,51.723c0,0-1.432-1.445-7.561-5.553
		c-6.127-4.108-10.135-5.688-10.135-5.688s-1.833,1.766-4.697,3.464c-2.863,1.696-11.201,5.713-11.201,5.713s1.643,1.43,7.994,5.215
		c6.351,3.784,12.955,7.348,12.955,7.348"/>
	<path fill="none" stroke="#000000" stroke-miterlimit="10" d="M387.266,23.564c0,0,6.203,3.693,9.318,5.742
		c3.114,2.051,8.125,4.795,8.125,4.795s6.248-3.292,9.225-4.827c2.979-1.534,5.061-2.638,5.061-2.638"/>
	<line fill="none" stroke="#000000" stroke-miterlimit="10" x1="403.201" y1="36.149" x2="422.818" y2="46.957"/>
	<path fill="none" stroke="#000000" stroke-miterlimit="10" d="M380.314,24.029c0,0,5.527,4.346,9.774,6.427
		s9.755,4.596,9.755,4.596s-4.293,1.818-8.382,3.633c-4.089,1.813-10.378,6.035-10.378,6.035s-5.568-3.436-9.161-6.476
		c-3.591-3.041-4.649-5.025-4.649-5.025"/>
	<path fill="none" stroke="#000000" stroke-miterlimit="10" d="M348.774,42.159c0,0,6.106,3.8,9.576,6.546s7.791,5.947,7.791,5.947
		s4.804-1.86,7.792-3.241s7.188-4.589,7.188-4.589"/>
	<path fill="none" stroke="#000000" stroke-miterlimit="10" d="M386.373,47.034c0,0,4.409,2.99,9.311,5.64
		c4.9,2.649,6.707,3.556,6.707,3.556s6.26-4.627,9.15-5.95c2.889-1.323,7.175-3.252,7.175-3.252"/>
	<path fill="none" stroke="#000000" stroke-miterlimit="10" d="M406.882,58.906c0,0,5.045,3.257,10.109,6.82
		c5.063,3.562,11.144,6.954,11.144,6.954s4.578-3.693,7.475-4.915s7.762-3.703,7.762-3.703"/>
	<path fill="none" stroke="#000000" stroke-miterlimit="10" d="M453.122,65.565c0,0,5.55,3.121,9.155,4.829
		c3.604,1.709,6.449,2.806,6.449,2.806s3.756-2.179,7.398-4.515c3.644-2.337,7.146-3.701,7.146-3.701"/>
	<path fill="none" stroke="#000000" stroke-miterlimit="10" d="M488.561,65.565c0,0,9.979,6.612,14.471,9.288
		c4.491,2.677,13.209,7.126,13.209,7.126l0.657,9.812"/>
	<path fill="none" stroke="#000000" stroke-miterlimit="10" d="M469.154,75.46c0,0,7.001,5.915,13.51,9.588
		c6.51,3.672,16.318,9.071,16.318,9.071l0.695,10.396"/>
	<path fill="none" stroke="#000000" stroke-miterlimit="10" d="M451.334,86.593c0,0,10.125,8.397,14.352,11.709
		c4.227,3.309,14.042,8.812,14.042,8.812l1.276,8.335"/>
	<path fill="none" stroke="#000000" stroke-miterlimit="10" d="M439.231,100.382c0,0,8.71,6.296,13.646,9.251
		s11.629,7.847,11.629,7.847s4.672-3.803,6.859-4.874c2.188-1.071,5.527-3.349,5.527-3.349"/>
	<path fill="none" stroke="#000000" stroke-miterlimit="10" d="M479.728,107.114c0.776-0.665,8.61-5.195,11.153-6.905
		c2.541-1.71,4.776-3.605,4.776-3.605"/>
	<path fill="none" stroke="#000000" stroke-miterlimit="10" d="M498.982,94.119c0,0,4.949-2.69,8.119-4.441
		c3.17-1.753,7.114-5.714,7.114-5.714"/>
	<path fill="none" stroke="#000000" stroke-miterlimit="10" d="M516.24,81.979c0,0,5.376-2.509,9.021-4.81
		c3.645-2.303,6.07-4.415,6.07-4.415"/>
	<path fill="none" stroke="#000000" stroke-miterlimit="10" d="M432.439,75.63c0,0,5.088,2.377,9.695,5.252
		c4.607,2.876,7.381,4.435,7.381,4.435"/>
	<path fill="none" stroke="#000000" stroke-miterlimit="10" d="M448.166,65.16c0,0,5.687,5.184,9.94,7.362
		c4.253,2.18,7.258,2.595,7.258,2.595"/>
	<path fill="none" stroke="#000000" stroke-miterlimit="10" d="M413.021,84.677c0,0,6.246,4.308,10.389,6.393
		c4.145,2.084,9.461,6.349,9.461,6.349"/>
	<path fill="none" stroke="#000000" stroke-miterlimit="10" d="M427.934,77.108c0,0,6.811,3.448,10.436,6.389
		c3.625,2.938,8.714,4.962,8.714,4.962"/>
	<path fill="none" stroke="#000000" stroke-miterlimit="10" d="M388.345,67.152c0,0,6.099,5.32,11.64,9.878
		c5.541,4.557,9.846,6.733,9.846,6.733"/>
	<path fill="none" stroke="#000000" stroke-miterlimit="10" d="M368.367,55.938c0,0,6.65,5.515,10.61,7.919s5.495,2.322,5.495,2.322
		s2.792-1.233,7.991-3.328c5.198-2.094,7.821-4.322,7.821-4.322"/>
	<path d="M142.027,181.611l24.737-23.867l3.442-0.743l0.289-4.859c0,0,17.62-12.888,31.036-21.069
		c13.416-8.18,24.897-14.595,24.897-14.595s6.822,3.752,12.363,6.77c5.542,3.018,12.516,9.016,12.516,9.016l0.319,4.783l6.523-0.718
		c0,0,4.914,5.906,9.658,9.297c4.745,3.393,6.198,6.685,6.198,6.685l-1.295,3.658l1.615-1.938c0,0,1.172,2.181,17.449,12.182
		c12.677,7.788,23.583,15.196,27.789,18.092c1.193,0.822,1.848,1.281,1.848,1.281l0.441,6.593l3.056-1.898
		c0,0,3.32,5.117,9.81,10.022c6.488,4.903,9.379,5.121,9.379,5.121l-2.555,13.724l-1.763,0.017l2.341-12.584
		c0,0-6.317-3.117-10.217-6.141c-3.9-3.025-7.603-6.962-7.603-6.962l-3.806,1.424l-0.569-8.499c0,0-19.888-11.912-29.597-18.912
		c-9.71-7-15.771-9.983-15.771-9.983l-3.169,0.213l0.564-5.377c0,0-4.149-4.443-8.535-8.617c-4.387-4.172-6.354-5.171-6.354-5.171
		l-6.992-0.148l-1.017-5.992c0,0-5.991-3.601-11.145-6.951c-5.153-3.352-11.737-6.606-11.737-6.606s-10.018,3.734-22.193,12.053
		c-12.175,8.318-31.443,21.096-31.443,21.096l-0.174,6.596l-5.084,0.752l-24.1,24.184L142.027,181.611z"/>
	<path d="M341.545,219.146c0,0-36.51,28.523-46.893,35.995c-10.384,7.473-72.516,57.737-72.516,57.737l-4.779,0.963
		c0,0,64.961-52.74,76.693-61.534c11.733-8.795,46.947-35.84,46.947-35.84L341.545,219.146z"/>
	<path fill="none" stroke="#000000" stroke-miterlimit="10" d="M250.287,132.331c0,0-10.035,9.606-24.875,17.995
		c-14.841,8.386-31.398,18.734-31.398,18.734s-10.1-3.636-14.326-8.486c-4.227-4.852-8.582-8.875-8.582-8.875"/>
	<path fill="none" stroke="#000000" stroke-miterlimit="10" d="M274.562,157.506c0,0-8.735,7.567-13.845,10.99
		c-5.109,3.422-12.494,9.667-12.494,9.667l21.062,13.992c0,0-11.177,7.936-10.808,10.374c0.37,2.439,9.695,9.825,12.954,12.481
		c3.258,2.656,7.56,5.609,7.56,5.609s16.021-13.188,24.807-19.688c9.156-6.773,16.132-14.53,16.132-14.53"/>
	<path fill="none" stroke="#000000" stroke-miterlimit="10" d="M255.57,137.626c0,0-11.038,6.901-15.399,9.247
		c-4.36,2.344-7.249,5.208-7.249,5.208s5.152,3.351,9.951,7.547s8.344,8.067,8.344,8.067s7.428-5.633,11.542-8.577
		c4.116-2.944,9.198-6.776,9.198-6.776"/>
	<path fill="none" stroke="#000000" stroke-miterlimit="10" d="M205.777,169.916c0,0,9.852-6.206,13.381-8.7
		c3.53-2.495,9.396-6.893,9.396-6.893s5.596,3.837,9.822,8.688s7.184,9.17,7.184,9.17s-7.602,6.054-12.303,9.448
		c-4.701,3.396-8.707,4.896-8.707,4.896s-3.605-4.633-7.895-8.356C213.303,175.258,205.777,169.916,205.777,169.916z"/>
	<path fill="none" stroke="#000000" stroke-miterlimit="10" d="M255.496,210.121c0,0-9.295,5.345-16,9.489
		c-6.703,4.146-17.604,13.091-17.604,13.091s4.989,3.979,10.593,7.916c5.603,3.938,8.725,7.631,8.725,7.631
		s14.596-8.988,21.436-14.169c6.84-5.182,12.264-10.06,12.264-10.06"/>
	<path fill="none" stroke="#000000" stroke-miterlimit="10" d="M245.939,254.501c0,0,5.412,4.156,9.585,8.189
		c4.172,4.032,7.415,6.484,7.415,6.484s10.508-8.711,15.971-12.979c5.465-4.269,10.888-9.149,10.888-9.149"/>
	<path fill="none" stroke="#000000" stroke-miterlimit="10" d="M275.455,232.194c0,0,4.867,2.138,8.984,5.354
		c4.116,3.218,8.002,6.037,8.002,6.037s7.74-4.01,12.258-7.086c4.518-3.075,8.782-6.851,8.782-6.851"/>
	<path fill="none" stroke="#000000" stroke-miterlimit="10" d="M288.114,221.902l10.397-7.268c0,0,1.772,1.933,3.94,3.636"/>
	<path fill="none" stroke="#000000" stroke-miterlimit="10" d="M261.119,241.986l11.217-7.321c0,0,2.139,1.289,5.377,3.642"/>
	<line fill="none" stroke="#000000" stroke-miterlimit="10" x1="307.709" y1="204.777" x2="324.307" y2="191.961"/>
	<path fill="none" stroke="#000000" stroke-miterlimit="10" d="M292.441,243.585c0,0,0.552,11.293,1.529,10.553"/>
	<line fill="none" stroke="#000000" stroke-miterlimit="10" x1="318.08" y1="226.261" x2="318.451" y2="234.862"/>
	<line fill="none" stroke="#000000" stroke-miterlimit="10" x1="262.744" y1="269.175" x2="263.346" y2="278.17"/>
	<path fill="none" stroke="#000000" stroke-miterlimit="10" d="M173.974,194.533c0,0,10.524-8.098,15.491-12.127
		c4.967-4.028,9.316-8.067,9.316-8.067s7.893,2.861,13.498,8.363c5.605,5.503,7.875,7.197,7.875,7.197s-3.656,3.634-12.375,9.917
		c-8.719,6.282-18.748,12.907-18.748,12.907"/>
	<path fill="none" stroke="#000000" stroke-miterlimit="10" d="M230.887,189.181l12.572-8.541c0,0,5.746,3.001,10.531,6.994
		c4.783,3.994,6.134,5.751,6.134,5.751l-12.503,9.563L230.887,189.181z"/>
	<path fill="none" stroke="#000000" stroke-miterlimit="10" d="M200.377,211.964c0,0,13.518-9.736,17.926-12.905
		c4.408-3.168,6.997-5.91,6.997-5.91s8.247,3.554,12.839,7.714c4.59,4.161,4.763,8.255,4.763,8.255s-8.987,6.863-14.003,10.179
		c-5.014,3.314-12.532,7.41-12.532,7.41s-5.729-4.133-10.29-7.831C201.516,215.176,200.377,211.964,200.377,211.964z"/>
	<path d="M228.861,117.812c0,0,4.783-3.974,12.441-9.211c7.66-5.236,11.328-7.843,11.328-7.843l0.406,2.134
		c0,0-3.898,3.132-11.549,8.469s-10.709,8.722-10.709,8.722L228.861,117.812z"/>
	<path d="M319.062,59.238c0,0,7.202-5.15,13.9-8.627c6.697-3.478,12.238-5.852,12.238-5.852l0.156,2.353
		c0,0-5.577,1.807-11.539,4.774c-5.963,2.969-12.993,8.367-12.993,8.367L319.062,59.238z"/>
	<path d="M434.367,5.319l7.65-2.979c0,0,39.619,21.371,56.447,33.49c16.83,12.121,39.295,28.692,49.287,33.77
		c9.992,5.079,16.818,11.963,16.818,11.963l-6.963,15.613l-3.535,2.392l7.841-17.826c0,0-4.209-4.591-15.046-10.027
		c-10.838-5.438-36.043-23.649-51.705-34.634c-17.779-12.47-53.193-32.273-53.193-32.273l-5.906,2.244L434.367,5.319z"/>
	<path d="M557.607,97.177c0,0-102.876,73.724-143.318,104.569c-40.441,30.847-147.626,123.04-147.626,123.04l-5.786-2.076
		c0,0,107.592-92.227,151.759-124.959c44.169-32.731,144.78-103.436,144.78-103.436L557.607,97.177z"/>
	<path d="M562.11,81.01c0,0-88.206,54.165-147.204,97.724C355.908,222.294,238.56,320.61,238.56,320.61l2.656-0.178
		c0,0,136.992-113.932,178.931-143.925c41.938-29.992,142.402-94.499,142.402-94.499L562.11,81.01z"/>
	<path fill="#A8A8A8" d="M352.846,129.612l-0.881,8.884l19.241,14.799l8.858-5.727c0,0-9.494-3.778-14.899-7.832
		S352.846,129.612,352.846,129.612z"/>
	<path fill="#A5A5A5" d="M352.717,165.759c0,0,7.23,4.924,12.145,7.778c4.914,2.856,11.172,5.825,11.172,5.825
		s7.406-4.399,13.176-8.687c5.771-4.287,25.838-15.899,27.568-17.657c1.73-1.76,4.681-5.242,4.681-5.242l0.798,1.179
		c0,0,8.142-5.681,11.582-7.965s7.287-4.184,7.287-4.184l0.02,9.033l-16.076,9.856l-1.462-0.365l-1.056,3.203l-19.936,12.988
		l-1.173-0.641l-2.11,1.765l-23.097,16.456c0,0-8.733-3.789-11.534-5.698c-2.912-1.983-11.314-9.873-11.314-9.873L352.717,165.759z"
		/>
	<path fill="#A8A8A8" d="M251.656,93.379c0,0,4.637,2.102,11.64,6.666s18.598,10.565,26.538,17.221
		c7.941,6.656,7.941,6.656,7.941,6.656s9.777-4.25,17.293-8.552s24.953-16.375,27.574-18.08c2.623-1.705,15.168-6.657,17.979-8.075
		c2.812-1.418,5.209-2.018,5.209-2.018l0.52,7.742l-67.352,42.63l-45.412-34.924L251.656,93.379z"/>
	<path fill="none" stroke="#000000" stroke-miterlimit="10" d="M197.063,214.635c0,0,5.508,8.17,8.714,10.27
		c3.205,2.1,6.205,5.657,6.205,5.657l-21.25,19.442c0,0-4.75-3.588-8-6.419s-8.759-6.968-8.759-6.968"/>
	<path fill="none" stroke="#000000" stroke-miterlimit="10" d="M165.232,315.842c0,0,34.5-25.088,46.75-34.838
		s30.919-22.893,30.919-22.893l15.76,13.963l-1.022,9.805"/>
	<path fill="none" stroke="#000000" stroke-miterlimit="10" d="M197.982,250.879c0,0,8.863-7.694,11.863-10.517
		s6.887-5.697,6.887-5.697s7,4.251,11.25,7.92s8.75,9.669,8.75,9.669"/>
	<path fill="none" stroke="#000000" stroke-miterlimit="10" d="M192.979,256.004c0,0,6.428,3.5,10.216,7.25
		s8.788,10.418,8.788,10.418s-7.961,6.082-11.605,8.832s-9.145,7-9.145,7s-4.707-6.785-9.5-11.334c-3.546-3.365-9.5-6.498-9.5-6.498
		"/>
	<path fill="none" stroke="#000000" stroke-miterlimit="10" d="M215.982,269.175c0,0,7.5-5.433,11.75-8.677s6.5-5.325,6.5-5.325"/>
	<path fill="none" stroke="#000000" stroke-miterlimit="10" d="M166.232,202.948c0,0,5.75,3.306,10.25,6.306s6.5,7.214,6.5,7.214
		s-3.518,4.3-9.009,9.793s-7.741,8.404-7.741,8.404s-9-8.161-11.5-10.411s-6.25-5.447-6.25-5.447"/>
	<path fill="none" stroke="#000000" stroke-miterlimit="10" d="M155.482,249.004l12.25-10.678c0,0,7.113,4.764,11.057,8.721
		s6.693,8.126,6.693,8.126s-6.018,3.634-11.509,9.232s-6.241,4.77-6.241,4.77"/>
	<path fill="none" stroke="#000000" stroke-miterlimit="10" d="M144.859,252.254c0,0,6.873-6.785,9.623-9.268s8-6.369,8-6.369
		s-3.5-3.863-8-7.613s-11-8.841-11-8.841s-9.228,3.735-14.322,9.485c-5.094,5.75-11.777,11.393-11.777,11.393
		s3.452,2.892,7.452,6.017"/>
	<path fill="none" stroke="#000000" stroke-miterlimit="10" d="M147.982,259.498c0,0,5.75,3.256,9.5,6.756s6.25,6.418,6.25,6.418
		s-4.5,4.082-8.375,7.832s-7.375,5.473-7.375,5.473s-15.228-8.798-16.822-10.298c-1.594-1.5-5.344-4.5-5.344-4.5"/>
	<path fill="none" stroke="#000000" stroke-miterlimit="10" d="M157.732,283.504l10.789-8.75c0,0,2.461,0.5,5.961,4.375"/>
	<path fill="none" stroke="#000000" stroke-miterlimit="10" d="M88.1,268.227l9.642-10.975c0,0,2.461,0.5,5.961,4.375"/>
	<path fill="none" stroke="#000000" stroke-miterlimit="10" d="M115.316,280.092l5.625-5.913c0,0,2.461,0.5,5.961,4.375"/>
	<path fill="none" stroke="#000000" stroke-miterlimit="10" d="M255.037,274.754c0,0-22.428,17.113-29.368,22.302
		s-22.475,16.786-22.475,16.786"/>
	<path fill="none" stroke="#000000" stroke-miterlimit="10" d="M129.16,303.179c0,0,13.322-7.087,15.572-8.881
		s5.479-4.044,5.479-4.044s3.521,1.5,9.521,6.75s9.789,9.25,9.789,9.25l-8.539,7.588"/>
	<path fill="none" stroke="#000000" stroke-miterlimit="10" d="M144.982,186.524c0,0,4.278,1.81,8.139,5.27
		c3.861,3.46,8.352,4.988,8.352,4.988s7.836-7.174,11.939-10.632c4.104-3.459,15.42-13.199,15.42-13.199s-2.621-2.34-8.646-4.901
		s-12.903-8.698-12.903-8.698l-17.072,16.186"/>
	<path fill="none" stroke="#000000" stroke-miterlimit="10" d="M115.316,210.679c0,0,5.25,3.598,7.25,5.424s6.594,5.225,6.594,5.225
		s9.572-4.823,15.822-10.073s12.75-11.5,12.75-11.5"/>
	<path d="M142.027,181.611l-0.878,4.913l-9.749-1.513c0,0-4.821,5.904-9.334,11.195s-10.833,10.373-10.833,10.373l-0.833,3.673
		h-2.835c0,0-9.249,6.221-11.916,8.554s-8.333,7.899-8.333,7.899l-5.482,4.943l-2.518-1.1c0,0-3.75,4.268-7.75,7.768
		s-7.667,7-7.667,7l0.833,4l-3.5-1.083c0,0-5.666,6.405-11.833,11.494s-10.667,10.423-10.667,10.423l1.5,4l-3.333-1.167
		c0,0-5.167,4.833-8.5,7.5s-8.167,8.833-8.167,8.833l1,3.334h-4.137c0,0-2.697,1.836-5.863,4.836c-3.168,3-9,9-9,9l3.832-0.167
		c0,0,3.667-4.5,5.5-6c1.834-1.5,5.531-6.048,5.531-6.048l5.637-0.619l-0.668-3.666c0,0,3.936-5.339,7.635-8.253
		s7.865-7.081,7.865-7.081l5.334,1.093l-1.377-4.778c0,0,7.21-7.646,10.543-10.563c3.334-2.917,10-10.417,10-10.417l4.857,0.497
		l-1.023-4.831c0,0,4.334-4,7.5-6.5s7-6.258,7-6.258l2.834,1.544l6.084-6.187c0,0,5.27-4.713,9.268-8.09
		c4.934-4.166,9.891-7.815,9.891-7.815l3.591-0.199l1-4.801c0,0,6.667-4.501,11-9.834s8.667-10.5,8.667-10.5l9.75,1.242l0.701-4.721
		L142.027,181.611z"/>
	<path fill="none" stroke="#000000" stroke-miterlimit="10" d="M65.898,245.653c0,0,4.334,3.638,9.084,8.119
		s10.5,10.231,10.5,10.231s6.588-6.662,10.419-9.831"/>
	<path fill="none" stroke="#000000" stroke-miterlimit="10" d="M83.162,232.319c0,0,5.82,5.435,9.57,8.185s10.97,8.375,10.97,8.375
		s5.198-7.158,11.614-14.017s10.5-9.608,10.5-9.608"/>
	<g>
		<path d="M351.787,81.03c-3.231-2.259-9.947-7.486-9.947-7.486l-2.453,0.164l-1.025-3.041c0,0-4.878-2.324-9.855-6.099
			c-4.975-3.774-11.613-7.847-11.613-7.847s-6.281,4.325-10.077,5.912s-11.965,5.328-11.965,5.328l0.144,2.136l-2.127-1.09
			c0,0-1.214,0.285-6.746,3.531c-5.533,3.246-11.61,7.555-11.61,7.555l0.15,2.251l-2.372-1.691c0,0-3.119,2.492-8.68,5.317
			c-5.561,2.824-12.47,6.983-12.47,6.983l1.897,9.938l46.146,35.924l68.135-43.576l-0.559-8.356
			C366.76,86.884,355.019,83.29,351.787,81.03z M365.4,94.182l-66.846,41.391l-44.805-34.168l-1.466-7.128
			c0,0,6.742-3.964,12.167-6.657c5.426-2.694,8.471-5.067,8.471-5.067l3.537,1.519l-0.143-2.138c0,0,4.621-5.25,10.021-8.344
			c5.398-3.096,7.1-2.968,7.1-2.968l3.125,1.444l0.305-3.328c0,0,5.957-3.083,9.66-4.599s9.834-5.638,9.834-5.638
			s6.465,3.86,11.311,7.441c4.844,3.579,9.596,5.78,9.596,5.78l0.994,2.89l2.393-0.16c0,0,6.539,4.958,9.685,7.102
			c3.147,2.142,14.587,5.537,14.587,5.537L365.4,94.182z"/>
	</g>
	<path fill="none" stroke="#000000" stroke-miterlimit="10" d="M276.412,119.465l-0.908-13.565c0,0,9.004-2.245,13.379-4.388
		c4.375-2.142,7.814-5.963,7.814-5.963l23.114,17.035l0.704,10.521"/>
	<path fill="none" stroke="#000000" stroke-miterlimit="10" d="M300.07,95.323c0,0,8.609-3.319,12.764-5.682
		c4.154-2.36,7.514-7.381,7.514-7.381s6.277,4.815,10.756,7.288s12.678,6.853,12.678,6.853l1.326,12.13"/>
	<path fill="none" stroke="#000000" stroke-miterlimit="10" d="M323.107,82.076c0,0,6.168-1.44,10.256-3.254
		c4.089-1.813,7.748-4.421,7.748-4.421"/>
	<path fill="none" stroke="#000000" stroke-miterlimit="10" d="M337.572,71.147c0,0-5.083,2.291-8.66,4.07
		c-3.577,1.78-9.049,4.405-9.049,4.405l-23.752-11.244"/>
	<path fill="none" stroke="#000000" stroke-miterlimit="10" d="M296.248,70.423l20.521,10.536c0,0-4.02,4.376-8.557,7.145
		c-4.539,2.768-10.426,5.318-10.426,5.318s-6.549-2.744-10.742-5.544c-4.191-2.8-11.348-6.939-11.348-6.939"/>
	<path fill="none" stroke="#000000" stroke-miterlimit="10" d="M277.504,107.923c0,0,10.572,7.61,12.855,9.511
		c2.284,1.899,7.771,7.171,7.771,7.171s11.018-5.657,13.689-7.171c2.671-1.513,7.991-4.85,7.991-4.85"/>
	<path fill="none" stroke="#000000" stroke-miterlimit="10" d="M256.014,95.19c0,0,4.512,2.984,8.599,5.74
		c4.086,2.756,10.042,5.848,10.042,5.848"/>
	<path fill="none" stroke="#000000" stroke-miterlimit="10" d="M322.51,110.709c0,0,7.461-3.323,11.342-6.458
		c3.879-3.134,9.93-7.85,9.93-7.85"/>
	<path fill="none" stroke="#000000" stroke-miterlimit="10" d="M348.555,94.861c0,0,5.256-2.01,9.617-4.354
		c4.361-2.344,6.754-3.416,6.754-3.416"/>
	<line fill="none" stroke="#000000" stroke-miterlimit="10" x1="376.242" y1="179.447" x2="375.546" y2="188.583"/>
	<path d="M351.092,139.269l1.299-10.126c0,0,10.334-4.389,13.42-6.597c3.086-2.21,9.842-7.129,9.842-7.129
		s10.153,6.713,14.994,10.009c4.842,3.295,10.758,6.546,10.758,6.546l16.027-11.34c0,0,5.164,3.503,11.104,7.108
		c5.941,3.606,13.099,8.519,13.099,8.519l0.114,9.85l-1.523-0.207l-0.135-8.924c0,0-7.105-4.914-11.604-7.693
		s-10.956-7.198-10.956-7.198l-16.354,11.543c0,0-4.982-3.57-12.395-8.463c-7.413-4.895-13.041-8.445-13.041-8.445
		s-4.395,4.529-9.668,7.425c-5.274,2.895-12.761,6.092-12.761,6.092l-0.595,9.511L351.092,139.269z"/>
	<path d="M351.092,139.269c0,0,8.379,6.678,12.489,9.405s6.87,4.854,6.87,4.854s-4.247,3.646-6.603,5.267
		c-2.356,1.621-11.749,6.639-11.749,6.639l0.621,9.277c0,0,5.705,5.471,9.914,8.5c4.207,3.029,12.938,8.065,12.938,8.065
		s8.043-5.235,14.339-10.123s10.343-7.7,10.343-7.7l0.904-1.446l1.729,0.5c0,0,6.101-4.336,10.377-7.164
		c4.277-2.828,9.955-6.596,9.955-6.596l0.501-1.728l1.538-0.025c0,0,2.151-1.223,7.518-5.049c5.364-3.824,8.973-5.836,8.973-5.836
		l-1.16-1.693c0,0-13.078,8.269-14.713,9.147c-1.635,0.88-3.072,1.284-3.072,1.284l-0.447,2.494c0,0-7.916,4.843-11.887,7.648
		c-3.971,2.808-7.584,5.207-7.584,5.207l-1.906-0.874l-1.461,2.331c0,0-9.535,7.106-13.874,10.17
		c-4.338,3.062-10.073,6.451-10.073,6.451s-7.769-3.794-12.564-7.554c-4.795-3.762-9.24-8.045-9.24-8.045l-0.424-6.324
		c0,0,7.824-3.913,11.77-7.104c3.944-3.19,7.209-6.182,7.209-6.182s-7.387-5.665-11.006-7.965c-3.619-2.299-9.074-7.285-9.074-7.285
		L351.092,139.269z"/>
	<path fill="none" stroke="#000000" stroke-miterlimit="10" d="M353.312,130.237c0,0,10.995,8.94,13.673,10.609
		c2.679,1.669,13.094,6.927,13.094,6.927s7.788-4.834,11.795-7.875c4.006-3.04,9.262-6.888,9.262-6.888"/>
	<path fill="none" stroke="#000000" stroke-miterlimit="10" d="M371.436,152.869l6.965-3.649c0,0,7.506,5.862,10.41,7.825
		c2.903,1.962,12.527,6.144,12.527,6.144l-0.051,6.884"/>
	<path fill="none" stroke="#000000" stroke-miterlimit="10" d="M404.066,161.377c0,0,8.541-4.693,12.098-7.934
		c3.557-3.242,5.4-5.6,5.4-5.6s-5.95-3.76-10.746-7.521c-4.795-3.76-7.463-5.66-7.463-5.66"/>
	<line fill="none" stroke="#000000" stroke-miterlimit="10" x1="421.833" y1="147.826" x2="423.637" y2="155.792"/>
	<path fill="none" stroke="#000000" stroke-miterlimit="10" d="M424.483,146.956c0,0,4.94-2.896,8.476-5.29
		c3.536-2.393,7.557-5.229,7.557-5.229"/>
	<path fill="none" stroke="#000000" stroke-miterlimit="10" d="M356.805,168.224c0,0,4.989,3.977,10.523,6.892
		c5.534,2.916,8.914,4.332,8.914,4.332s5.902-3.883,12.572-8.54s9.537-6.698,9.537-6.698"/>
</g>
</svg>
