<?xml version="1.0" encoding="UTF-8" standalone="no"?>
<svg width="60px" height="38px" viewBox="0 0 60 38" version="1.1" xmlns="http://www.w3.org/2000/svg" xmlns:xlink="http://www.w3.org/1999/xlink">
    <!-- Generator: Sketch 40.3 (33839) - http://www.bohemiancoding.com/sketch -->
    <title>icon-couch</title>
    <desc>Created with Sketch.</desc>
    <defs></defs>
    <g id="Page-1" stroke="none" stroke-width="1" fill="none" fill-rule="evenodd">
        <g id="Desktop-HD" transform="translate(-1242.000000, -3219.000000)" fill="#000000">
            <g id="Group-22" transform="translate(78.000000, 2731.000000)">
                <g id="Group-19" transform="translate(1102.000000, 488.000000)">
                    <g id="icon-couch" transform="translate(62.000000, 0.000000)">
                        <g id="Group">
                            <path d="M60,15 C60,13.526 59.19,12.25 58,11.556 L58,8.922 C58,4.002 53.998,0 49.078,0 L34.828,0 C33.055,0 31.372,0.585 30,1.665 C28.628,0.585 26.945,0 25.172,0 L10.922,0 C6.002,0 2,4.002 2,8.922 L2,11.556 C0.81,12.25 0,13.526 0,15 L0,35 L1,35 L1,38 L7,38 L7,35 L8,35 L52,35 L53,35 L53,38 L59,38 L59,35 L60,35 L60,15 Z M8,19 L25.172,19 C26.728,19 28.192,19.606 29.292,20.706 L29.293,20.707 L30,21.415 L30.706,20.708 L30.707,20.707 C31.807,19.607 33.271,19.001 34.827,19.001 L52,19.001 L52,22.001 L8,22.001 L8,19 Z M54,24 L54,22 L54,17 L54,15.3 C54,14.385 54.482,13.558 55.229,13.192 C55.432,13.092 55.63,13.039 55.831,13.018 C55.874,13.014 55.916,13.006 55.961,13.005 C56.031,13.003 56.102,13.011 56.173,13.019 C56.219,13.023 56.265,13.026 56.311,13.033 C56.426,13.054 56.543,13.084 56.665,13.127 L56.823,13.183 C57.515,13.497 58,14.191 58,15 L58,33 L54,33 L54,24 Z M49.078,2 C52.895,2 56,5.105 56,8.922 L56,11 C53.794,11 52,12.794 52,15 L52,15.3 L52,17 L34.828,17 C33.464,17 32.157,17.353 31,18.005 L31,3.441 C32.062,2.513 33.404,2 34.828,2 L49.078,2 Z M4,8.922 C4,5.105 7.105,2 10.922,2 L25.172,2 C26.596,2 27.939,2.513 29,3.441 L29,18.004 C27.843,17.353 26.536,17 25.172,17 L8,17 L8,15.3 L8,15 C8,12.794 6.206,11 4,11 L4,8.922 Z M2,15 C2,14.191 2.485,13.497 3.177,13.182 L3.335,13.126 C3.457,13.082 3.574,13.053 3.688,13.032 C3.734,13.025 3.78,13.022 3.827,13.018 C3.898,13.011 3.969,13.003 4.039,13.004 C4.083,13.005 4.125,13.013 4.168,13.017 C4.369,13.039 4.568,13.092 4.771,13.191 C5.518,13.558 6,14.385 6,15.3 L6,17 L6,22 L6,24 L6,33 L2,33 L2,15 Z M5,36 L3,36 L3,35 L5,35 L5,36 Z M52,33 L8,33 L8,24 L52,24 L52,33 Z M57,36 L55,36 L55,35 L57,35 L57,36 Z" id="Shape"></path>
                            <path d="M14.293,11.707 C14.488,11.902 14.744,12 15,12 C15.256,12 15.512,11.902 15.707,11.707 L17,10.414 L18.293,11.707 C18.488,11.902 18.744,12 19,12 C19.256,12 19.512,11.902 19.707,11.707 C20.098,11.316 20.098,10.684 19.707,10.293 L18.414,9 L19.707,7.707 C20.098,7.316 20.098,6.684 19.707,6.293 C19.316,5.902 18.684,5.902 18.293,6.293 L17,7.586 L15.707,6.293 C15.316,5.902 14.684,5.902 14.293,6.293 C13.902,6.684 13.902,7.316 14.293,7.707 L15.586,9 L14.293,10.293 C13.902,10.684 13.902,11.316 14.293,11.707 Z" id="Shape"></path>
                            <path d="M40.293,11.707 C40.488,11.902 40.744,12 41,12 C41.256,12 41.512,11.902 41.707,11.707 L43,10.414 L44.293,11.707 C44.488,11.902 44.744,12 45,12 C45.256,12 45.512,11.902 45.707,11.707 C46.098,11.316 46.098,10.684 45.707,10.293 L44.414,9 L45.707,7.707 C46.098,7.316 46.098,6.684 45.707,6.293 C45.316,5.902 44.684,5.902 44.293,6.293 L43,7.586 L41.707,6.293 C41.316,5.902 40.684,5.902 40.293,6.293 C39.902,6.684 39.902,7.316 40.293,7.707 L41.586,9 L40.293,10.293 C39.902,10.684 39.902,11.316 40.293,11.707 Z" id="Shape"></path>
                        </g>
                    </g>
                </g>
            </g>
        </g>
    </g>
</svg>