<?xml version="1.0" encoding="UTF-8" standalone="no"?>
<svg width="65px" height="34px" viewBox="0 0 65 34" version="1.1" xmlns="http://www.w3.org/2000/svg" xmlns:xlink="http://www.w3.org/1999/xlink">
    <!-- Generator: Sketch 40.3 (33839) - http://www.bohemiancoding.com/sketch -->
    <title>arrow</title>
    <desc>Created with Sketch.</desc>
    <defs>
        <polygon id="path-1" points="56.706339 0.0003 0.000281443678 0.0003 0.000281443678 42.3830843 56.706339 42.3830843 56.706339 0.0003"></polygon>
    </defs>
    <g id="Page-1" stroke="none" stroke-width="1" fill="none" fill-rule="evenodd">
        <g id="Desktop-HD" transform="translate(-391.000000, -956.000000)">
            <g id="sign-up-bar" transform="translate(0.000000, 934.000000)">
                <g id="arrow" transform="translate(425.154482, 41.095370) rotate(27.000000) translate(-425.154482, -41.095370) translate(396.654482, 19.595370)">
                    <mask id="mask-2" fill="white">
                        <use xlink:href="#path-1"></use>
                    </mask>
                    <g id="Clip-2"></g>
                    <path d="M45.6973,4.9888 C49.9363,6.7488 59.3163,7.8688 56.0163,14.3488 C52.3263,21.5988 45.6763,25.4588 41.3773,31.1488 C39.2073,31.2488 37.2173,29.8188 37.5373,28.0288 C37.4573,26.9088 38.6363,27.0488 39.2173,26.5888 C42.9963,22.3688 47.6073,18.9788 50.4963,13.8688 C38.4863,12.0088 23.9763,13.5188 15.2173,20.3488 C10.8263,23.7688 5.7173,29.9588 4.6563,35.2288 C4.1563,37.7088 5.6463,39.6488 4.1763,41.9488 C3.3863,43.1588 1.0473,41.5388 0.0963,40.7488 C-0.5427,33.7488 2.0873,27.9788 5.6173,23.7088 C14.1463,13.4088 28.1673,8.5688 44.9763,9.5488 C40.9963,6.8088 35.6273,5.4588 30.8163,3.5488 C30.2973,2.3888 29.0873,1.9188 29.1363,0.1888 C34.9473,-0.8512 40.0163,2.6288 45.6973,4.9888" id="Fill-1" fill="#FFFFFF" mask="url(#mask-2)"></path>
                </g>
            </g>
        </g>
    </g>
</svg>