<?xml version="1.0" encoding="UTF-8" standalone="no"?>
<svg width="30px" height="30px" viewBox="0 0 30 30" version="1.1" xmlns="http://www.w3.org/2000/svg" xmlns:xlink="http://www.w3.org/1999/xlink">
    <!-- Generator: Sketch 40.3 (33839) - http://www.bohemiancoding.com/sketch -->
    <title>facebook</title>
    <desc>Created with Sketch.</desc>
    <defs></defs>
    <g id="Page-1" stroke="none" stroke-width="1" fill="none" fill-rule="evenodd">
        <g id="Desktop-HD" transform="translate(-1160.000000, -15.000000)" fill="#FFFFFF">
            <g id="top-bar" transform="translate(-6.000000, 0.000000)">
                <path d="M1184.55312,25.365625 L1182.29688,25.365625 C1182.03125,25.365625 1181.73438,25.715625 1181.73438,26.184375 L1181.73438,27.8125 L1184.55312,27.8125 L1184.55312,30.134375 L1181.73438,30.134375 L1181.73438,37.103125 L1179.07187,37.103125 L1179.07187,30.134375 L1176.65937,30.134375 L1176.65937,27.8125 L1179.07187,27.8125 L1179.07187,26.446875 C1179.07187,24.4875 1180.43125,22.89375 1182.29688,22.89375 L1184.55312,22.89375 L1184.55312,25.365625 L1184.55312,25.365625 Z M1181,15 C1172.71563,15 1166,21.715625 1166,30 C1166,38.284375 1172.71563,45 1181,45 C1189.28437,45 1196,38.284375 1196,30 C1196,21.715625 1189.28437,15 1181,15 L1181,15 Z" id="facebook"></path>
            </g>
        </g>
    </g>
</svg>