<?xml version="1.0" encoding="UTF-8" standalone="no"?>
<svg width="48px" height="47px" viewBox="0 0 48 47" version="1.1" xmlns="http://www.w3.org/2000/svg" xmlns:xlink="http://www.w3.org/1999/xlink">
    <!-- Generator: Sketch 40.3 (33839) - http://www.bohemiancoding.com/sketch -->
    <title>icon-online-learning</title>
    <desc>Created with Sketch.</desc>
    <defs></defs>
    <g id="Page-1" stroke="none" stroke-width="1" fill="none" fill-rule="evenodd">
        <g id="Desktop-HD" transform="translate(-691.000000, -3213.000000)" fill="#000000">
            <g id="Group-22" transform="translate(78.000000, 2731.000000)">
                <g id="Group-17" transform="translate(533.000000, 482.000000)">
                    <g id="icon-online-learning" transform="translate(80.000000, 0.000000)">
                        <path d="M47.8305937,14.7876138 L45.9996563,11.9890122 L45.9996563,7.20513821 C45.9996563,7.17304065 45.9981563,7.14094309 45.99525,7.10960976 C45.99375,7.09843293 45.9923437,7.0872561 45.9908437,7.07674797 C45.9893437,7.05659146 45.9864375,7.03643496 45.9820312,7.01704268 C45.9805312,7.00357317 45.977625,6.99096341 45.9747188,6.97825813 C45.9703125,6.96106301 45.9659062,6.94319919 45.9615,6.92600407 C45.9570937,6.91329878 45.9541875,6.9005935 45.9497812,6.88721951 C45.9439687,6.87002439 45.9380625,6.8535935 45.9321562,6.8364939 C45.92775,6.82455285 45.9233438,6.81337602 45.9189375,6.80143496 C45.9072187,6.77535569 45.894,6.74918089 45.880875,6.72310163 C45.8764687,6.71488618 45.8706562,6.7059065 45.86625,6.69769106 C45.8560312,6.67973171 45.8457187,6.66186789 45.8355,6.64467276 C45.8281875,6.63492886 45.8222812,6.62528049 45.8149687,6.61553659 C45.80475,6.60063415 45.7930312,6.58496748 45.7813125,6.57073374 C45.774,6.56098984 45.7666875,6.55210569 45.759375,6.54312602 C45.7476563,6.52822358 45.7344375,6.51398984 45.7213125,6.49985163 C45.714,6.49240041 45.7066875,6.48418496 45.699375,6.47673374 C45.68325,6.4618313 45.667125,6.44692886 45.651,6.43269512 C45.6451875,6.42677236 45.6392812,6.42151829 45.6319688,6.41626423 C45.6085313,6.39687195 45.5850938,6.3782439 45.5601562,6.36181301 C45.55575,6.3580874 45.5513438,6.35589024 45.5469375,6.35283333 C45.5264063,6.33936382 45.505875,6.32675407 45.4854375,6.31481301 C45.4737187,6.30812602 45.4635,6.30287195 45.4517813,6.29685366 C45.4371563,6.28940244 45.4210313,6.28118699 45.4064063,6.2745 C45.3917813,6.26857724 45.3785625,6.26255894 45.3653438,6.25730488 C45.3507188,6.25205081 45.3375,6.24612805 45.322875,6.24163821 C45.30825,6.23638415 45.293625,6.23122561 45.2775,6.2275 C45.2730938,6.22597154 45.2686875,6.22377439 45.262875,6.22224593 L23.26275,0.111577236 C23.091375,0.0638130081 22.9096875,0.0638130081 22.7369062,0.111577236 L0.73678125,6.22234146 C0.3016875,6.34318496 0,6.74545528 0,7.20523374 C0,7.66424797 0.30178125,8.06718699 0.73678125,8.18736179 L9.007125,10.484439 L9.007125,21.4632378 C9.007125,21.7505874 9.1243125,22.0088008 9.3118125,22.1938394 C7.8103125,24.7127337 7.007625,27.607628 7.007625,30.6285244 C7.007625,34.9809919 8.6716875,39.073622 11.692125,42.1514533 C14.7125625,45.2292846 18.7290938,46.9233862 23.0005313,46.9233862 C27.2719687,46.9233862 31.2869062,45.2292846 34.3074375,42.1514533 C37.3279688,39.073622 38.9919375,34.9809919 38.9919375,30.6285244 C38.9919375,27.607628 38.18925,24.7126382 36.6878438,22.1938394 C36.8753438,22.0087053 36.9925313,21.7498232 36.9925313,21.4632378 L36.9925313,10.484439 L44.0016563,8.53804675 L44.0016563,11.9889167 L42.170625,14.7875183 C42.06075,14.9546931 42.0021563,15.1516728 42.0021563,15.3524736 L42.0021563,20.4445224 C42.0021563,21.007185 42.450375,21.4632378 43.0011563,21.4632378 L47.0001563,21.4632378 C47.5509375,21.4632378 47.9990625,21.0072805 47.9990625,20.4445224 L47.9990625,15.3524736 C47.9990625,15.1517683 47.9404688,14.9547886 47.8305937,14.7876138 Z M11.4182812,22.622189 C12.4216875,22.7796199 13.6960312,23.0557927 15.0407812,23.3819268 C14.58075,25.2165508 14.2145625,27.3450203 14.129625,29.6314939 L9.040875,29.6314939 C9.21225,27.0986524 10.0325625,24.6955386 11.4182812,22.622189 Z M10.8148125,37.6514898 C9.79959375,35.8274695 9.19321875,33.7945285 9.04378125,31.6674919 L14.131125,31.6674919 C14.2146562,33.846687 14.5544062,35.8797236 14.9850937,37.6514898 L10.8148125,37.6514898 Z M13.1057812,40.7111707 C12.7834687,40.3827439 12.4787812,40.0409431 12.193125,39.6872012 L15.5475937,39.6872012 C15.7468125,40.3320183 15.9518437,40.9216199 16.14675,41.4499878 C16.4368125,42.227685 16.7252812,42.9202663 16.9905,43.5128293 C15.5667187,42.8217764 14.2542187,41.8813943 13.1057812,40.7111707 Z M22.0000313,39.6872012 L22.0000313,44.8516606 C21.2222813,44.7949167 20.4575625,44.6740732 19.7105625,44.4919004 C19.32975,43.7933963 18.4508438,42.0693943 17.656875,39.6871057 L22.0000313,39.6872012 L22.0000313,39.6872012 Z M22.0000313,37.6514898 L17.0504063,37.6514898 C16.58325,35.8647256 16.221375,33.8347459 16.1305313,31.6674919 L22.0000313,31.6674919 L22.0000313,37.6514898 Z M22.0000313,29.6314939 L16.1290313,29.6314939 C16.2125625,27.5554695 16.5465,25.6045874 16.983,23.8731341 C18.875625,24.3694045 20.7226875,24.8985366 22.0000313,25.2792175 L22.0000313,29.6314939 L22.0000313,29.6314939 Z M14.0168437,21.0557134 L14.0168437,14.3337581 C14.0168437,13.7717642 13.568625,13.3158069 13.0163437,13.3158069 C12.4655625,13.3158069 12.0173437,13.7717642 12.0173437,14.3337581 L12.0173437,20.6608943 C11.6570625,20.6004248 11.3172187,20.5504634 11.006625,20.513876 L11.006625,11.0395549 L22.7369062,14.2978394 C22.8233437,14.3217215 22.9111875,14.3336626 23.0005312,14.3336626 C23.0884687,14.3336626 23.1763125,14.3217215 23.26275,14.2978394 L34.9944375,11.0395549 L34.9944375,20.5139715 C31.5403125,20.9206362 24.5341875,22.9946545 23.0005312,23.4558659 C21.838875,23.1058496 17.5381875,21.8304492 14.0168437,21.0557134 Z M29.8705313,29.6315894 L23.9995313,29.6315894 L23.9995313,25.2792175 C25.278375,24.8986321 27.1255313,24.3701687 29.0165625,23.8746626 C29.4545625,25.6061159 29.7870938,27.5554695 29.8705313,29.6315894 Z M26.2890938,44.4919959 C25.542,44.6740732 24.777375,44.7950122 23.9995313,44.8517561 L23.9995313,39.6872012 L28.3442813,39.6872012 C27.5489063,42.0709228 26.67,43.7949248 26.2890938,44.4919959 Z M23.9995313,37.6514898 L23.9995313,31.6674919 L29.8690313,31.6674919 C29.7781875,33.8348415 29.4164063,35.8648211 28.9491563,37.6514898 L23.9995313,37.6514898 Z M32.8939688,40.7111707 C31.7454375,41.8813943 30.4330313,42.8217764 29.00925,43.5128293 C29.275875,42.9202663 29.5644375,42.227685 29.853,41.4499878 C30.0493125,40.9216199 30.2529375,40.3320183 30.4521563,39.6872012 L33.8065313,39.6872012 C33.520875,40.0409431 33.2161875,40.3827439 32.8939688,40.7111707 Z M35.1849375,37.6514898 L31.0145625,37.6514898 C31.4451563,35.8797236 31.785,33.846687 31.8685313,31.6674919 L36.9559688,31.6674919 C36.8065313,33.7945285 36.2001563,35.8274695 35.1849375,37.6514898 Z M36.9587812,29.6315894 L31.8699375,29.6315894 C31.785,27.3450203 31.4188125,25.2180793 30.958875,23.3835508 C32.3050312,23.0566524 33.5794687,22.7804797 34.581375,22.6230488 C35.9685937,24.6956341 36.7874062,27.098748 36.9587812,29.6315894 Z M22.01175,8.22308943 L37.533,8.22308943 L23.0005313,12.2598354 L4.8001875,7.20513821 L23.0005313,2.14967683 L37.533,6.18642276 L22.01175,6.18642276 C21.4609688,6.18642276 21.01275,6.64238008 21.01275,7.20513821 C21.01275,7.76713211 21.4609688,8.22308943 22.01175,8.22308943 Z M45.9996562,19.4265711 L44.0016562,19.4265711 L44.0016562,15.6607439 L45.0006562,14.1330528 L45.9996562,15.6607439 L45.9996562,19.4265711 Z" id="Shape"></path>
                    </g>
                </g>
            </g>
        </g>
    </g>
</svg>