<?xml version="1.0" encoding="UTF-8" standalone="no"?>
<svg width="57px" height="43px" viewBox="0 0 57 43" version="1.1" xmlns="http://www.w3.org/2000/svg" xmlns:xlink="http://www.w3.org/1999/xlink">
    <!-- Generator: Sketch 40.3 (33839) - http://www.bohemiancoding.com/sketch -->
    <title>icon-dinner</title>
    <desc>Created with Sketch.</desc>
    <defs></defs>
    <g id="Page-1" stroke="none" stroke-width="1" fill="none" fill-rule="evenodd">
        <g id="Desktop-HD" transform="translate(-139.000000, -3221.000000)" fill="#000000">
            <g id="Group-22" transform="translate(78.000000, 2731.000000)">
                <g id="Group-15" transform="translate(0.000000, 490.000000)">
                    <g id="icon-dinner" transform="translate(61.000000, 0.000000)">
                        <g id="Group">
                            <path d="M24.2002549,9.79710496 C24.1596285,9.27960058 23.7144622,8.89435569 23.2062635,8.9348484 C22.6979417,8.97621866 22.3188855,9.42941108 22.3595119,9.94704082 L22.788797,15.4110496 C22.8274536,15.903105 23.2316242,16.2763149 23.7081836,16.2763149 C23.7329287,16.2763149 23.757797,16.275312 23.7827883,16.2733061 C24.2911102,16.2319359 24.6701663,15.7787434 24.62954,15.2611137 L24.2002549,9.79710496 Z" id="Shape"></path>
                            <path d="M22.9983305,7.24130029 C23.0230756,7.24130029 23.0479438,7.24029738 23.0729352,7.23829155 C23.581257,7.19692128 23.9603132,6.74372886 23.9196868,6.22609913 L23.813689,4.87692711 C23.7730626,4.35942274 23.3278963,3.97367638 22.8196976,4.01467055 C22.3113758,4.05604082 21.9323197,4.50923324 21.972946,5.02686297 L22.0789438,6.37603499 C22.1176004,6.86809038 22.5217711,7.24130029 22.9983305,7.24130029 Z" id="Shape"></path>
                            <path d="M56.0766739,35.1020408 L49.1209503,35.1020408 L49.1209503,15.983965 C49.1209503,15.4647055 48.7075464,15.0437318 48.1976242,15.0437318 L45.1814255,15.0437318 L45.1814255,12.7985802 C46.8752981,12.3756006 48.1360691,10.81707 48.1360691,8.96355685 C48.1360691,7.14790379 45.5763629,2.41351603 45.0632397,1.4828105 C44.8997495,1.18644898 44.591851,1.00291545 44.2580994,1.00291545 C43.9243477,1.00291545 43.6164492,1.18644898 43.452959,1.4828105 C42.9398359,2.41351603 40.3801296,7.14790379 40.3801296,8.96355685 C40.3801296,10.81707 41.6409006,12.3754752 43.3347732,12.7985802 L43.3347732,15.0437318 L40.3185745,15.0437318 C39.8086523,15.0437318 39.3952484,15.4647055 39.3952484,15.983965 L39.3952484,35.1020408 L37.3023758,35.1020408 L37.3023758,25.0102041 C37.3023758,24.4909446 36.8889719,24.0699708 36.3790497,24.0699708 L34.3477322,24.0699708 L34.3477322,21.7840758 C35.4914255,21.3906822 36.3174946,20.2884781 36.3174946,18.9927114 C36.3174946,17.7539854 34.7318359,14.5125627 34.245797,13.5486356 C34.0877235,13.2350991 33.7705918,13.0379009 33.424406,13.0379009 C33.0782203,13.0379009 32.7610886,13.2350991 32.6030151,13.5486356 C32.1169762,14.5125627 30.5313175,17.7539854 30.5313175,18.9927114 C30.5313175,20.2884781 31.3573866,21.3906822 32.5010799,21.7840758 L32.5010799,24.0699708 L30.4697624,24.0699708 C29.9598402,24.0699708 29.5464363,24.4909446 29.5464363,25.0102041 L29.5464363,35.1020408 L18.5896328,35.1020408 L18.5896328,26.912484 C21.2921469,26.6771749 23.8415119,25.4176385 25.693581,23.3748251 C27.7554298,21.1005889 28.7989114,18.0266531 28.5565076,14.941309 L27.4507322,0.865390671 C27.4121987,0.376594752 27.0115983,0 26.5302376,0 L8.80237581,0 C8.32101512,0 7.92041469,0.376594752 7.88200432,0.865265306 L6.77622894,14.9411837 C6.53382505,18.0265277 7.5773067,21.1004636 9.63915551,23.3746997 C11.4912246,25.4176385 14.0404665,26.6771749 16.7431037,26.912484 L16.7431037,35.1020408 L0.923326134,35.1020408 C0.413403888,35.1020408 0,35.5230146 0,36.0422741 C0,36.5615335 0.413403888,36.9825073 0.923326134,36.9825073 L10.7811253,36.9825073 L13.2286782,40.8936268 C12.7633218,41.0403032 12.2690346,41.1195335 11.7570194,41.1195335 C11.2470972,41.1195335 10.8336933,41.5405073 10.8336933,42.0597668 C10.8336933,42.5790262 11.2470972,43 11.7570194,43 L48.1976242,43 C48.7075464,43 49.1209503,42.5790262 49.1209503,42.0597668 L49.1209503,36.9825073 L56.0766739,36.9825073 C56.5865961,36.9825073 57,36.5615335 57,36.0422741 C57,35.5230146 56.5865961,35.1020408 56.0766739,35.1020408 Z M42.2267819,8.96355685 C42.2267819,8.19707872 43.2505659,5.90453936 44.2606847,3.92077259 C45.6534298,6.63792128 46.2894168,8.46423032 46.2894168,8.96355685 C46.2894168,10.1041224 45.3781555,11.03207 44.2580994,11.03207 C43.1380432,11.03207 42.2267819,10.1041224 42.2267819,8.96355685 Z M32.3779698,18.9927114 C32.3798164,18.6252682 32.8419719,17.4272857 33.424406,16.1326472 C34.0068402,17.4269096 34.4688726,18.6248921 34.4708423,18.9927114 C34.4708423,19.5802945 34.0014233,20.058309 33.424406,20.058309 C32.8473888,20.058309 32.3779698,19.5802945 32.3779698,18.9927114 Z M31.3930886,25.9504373 L35.4557235,25.9504373 L35.4557235,35.1020408 L31.3930886,35.1020408 L31.3930886,25.9504373 Z M8.61697192,15.0911195 L9.6547905,1.88046647 L25.6778229,1.88046647 L26.7156415,15.0911195 C26.7952937,16.1045656 26.7135486,17.1003353 26.4839482,18.0524781 L8.84866523,18.0524781 C8.61894168,17.1003353 8.53731965,16.1045656 8.61697192,15.0911195 Z M10.9959525,22.0991166 C10.3973909,21.4389475 9.90753564,20.709828 9.52724838,19.9329446 L25.8054881,19.9329446 C25.4252009,20.709828 24.9353456,21.4389475 24.336784,22.099242 C22.5982225,24.0168163 20.2292138,25.0728863 17.6663067,25.0728863 C15.1033996,25.0728863 12.7343909,24.0168163 10.9959525,22.0991166 Z M14.8645659,40.0084286 L12.9708855,36.9825073 L16.6559417,36.9825073 C16.4311425,38.1994198 15.7791512,39.2638892 14.8645659,40.0084286 Z M16.4216631,41.1195335 C16.9088099,40.6551837 17.3288618,40.1193761 17.6663067,39.5284082 C18.0037516,40.1193761 18.4238035,40.6551837 18.9109503,41.1195335 L16.4216631,41.1195335 Z M40.3185745,41.1195335 L23.575594,41.1195335 C21.1419525,41.1195335 19.1111274,39.3342187 18.6767948,36.9825073 L44.0268985,36.9825073 L42.0304212,40.164758 C41.6551814,40.762621 41.015378,41.1195335 40.3185745,41.1195335 Z M47.2742981,41.1195335 L43.6227279,41.1195335 L46.2182592,36.9825073 L47.2742981,36.9825073 L47.2742981,41.1195335 Z M47.2742981,35.1020408 L41.2419006,35.1020408 L41.2419006,16.9241983 L47.2742981,16.9241983 L47.2742981,35.1020408 Z" id="Shape"></path>
                        </g>
                    </g>
                </g>
            </g>
        </g>
    </g>
</svg>