<?xml version="1.0" encoding="UTF-8" standalone="no"?>
<svg width="45px" height="45px" viewBox="0 0 45 45" version="1.1" xmlns="http://www.w3.org/2000/svg" xmlns:xlink="http://www.w3.org/1999/xlink">
    <!-- Generator: Sketch 40.3 (33839) - http://www.bohemiancoding.com/sketch -->
    <title>icon-video-player</title>
    <desc>Created with Sketch.</desc>
    <defs></defs>
    <g id="Page-1" stroke="none" stroke-width="1" fill="none" fill-rule="evenodd">
        <g id="Desktop-HD" transform="translate(-416.000000, -3219.000000)" fill="#000000">
            <g id="Group-22" transform="translate(78.000000, 2731.000000)">
                <g id="Group-16" transform="translate(264.000000, 488.000000)">
                    <g id="icon-video-player" transform="translate(74.000000, 0.000000)">
                        <g id="Group">
                            <path d="M18.0155455,21.1720909 C18.1382727,21.2391818 18.2740909,21.2727273 18.4090909,21.2727273 C18.5620909,21.2727273 18.7142727,21.2293636 18.8484545,21.1450909 L27.8484545,15.4178182 C28.0840909,15.2672727 28.2272727,15.0070909 28.2272727,14.7272727 C28.2272727,14.4474545 28.0840909,14.1872727 27.8484545,14.0367273 L18.8484545,8.30945455 C18.5948182,8.14990909 18.2781818,8.13927273 18.0147273,8.28245455 C17.7537273,8.42645455 17.5909091,8.70136364 17.5909091,9 L17.5909091,20.4545455 C17.5909091,20.7531818 17.7537273,21.0280909 18.0155455,21.1720909 Z M19.2272727,10.4899091 L25.8856364,14.7272727 L19.2272727,18.9646364 L19.2272727,10.4899091 Z" id="Shape"></path>
                            <path d="M0.409090909,0 L0.409090909,45 L44.5909091,45 L44.5909091,0 L0.409090909,0 Z M42.9545455,1.63636364 L42.9545455,28.6363636 L2.04545455,28.6363636 L2.04545455,1.63636364 L42.9545455,1.63636364 Z M2.04545455,43.3636364 L2.04545455,30.2727273 L42.9545455,30.2727273 L42.9545455,43.3636364 L2.04545455,43.3636364 Z" id="Shape"></path>
                            <path d="M38.8636364,36 L19.2272727,36 L19.2272727,34.3636364 C19.2272727,33.9111818 18.8615455,33.5454545 18.4090909,33.5454545 C17.9566364,33.5454545 17.5909091,33.9111818 17.5909091,34.3636364 L17.5909091,36 L14.3181818,36 C13.8657273,36 13.5,36.3657273 13.5,36.8181818 C13.5,37.2706364 13.8657273,37.6363636 14.3181818,37.6363636 L17.5909091,37.6363636 L17.5909091,39.2727273 C17.5909091,39.7251818 17.9566364,40.0909091 18.4090909,40.0909091 C18.8615455,40.0909091 19.2272727,39.7251818 19.2272727,39.2727273 L19.2272727,37.6363636 L38.8636364,37.6363636 C39.3160909,37.6363636 39.6818182,37.2706364 39.6818182,36.8181818 C39.6818182,36.3657273 39.3160909,36 38.8636364,36 Z" id="Shape"></path>
                            <path d="M6.13636364,33.5454545 C5.68390909,33.5454545 5.31818182,33.9111818 5.31818182,34.3636364 L5.31818182,39.2727273 C5.31818182,39.7251818 5.68390909,40.0909091 6.13636364,40.0909091 C6.58881818,40.0909091 6.95454545,39.7251818 6.95454545,39.2727273 L6.95454545,34.3636364 C6.95454545,33.9111818 6.58881818,33.5454545 6.13636364,33.5454545 Z" id="Shape"></path>
                            <path d="M9.40909091,33.5454545 C8.95663636,33.5454545 8.59090909,33.9111818 8.59090909,34.3636364 L8.59090909,39.2727273 C8.59090909,39.7251818 8.95663636,40.0909091 9.40909091,40.0909091 C9.86154545,40.0909091 10.2272727,39.7251818 10.2272727,39.2727273 L10.2272727,34.3636364 C10.2272727,33.9111818 9.86154545,33.5454545 9.40909091,33.5454545 Z" id="Shape"></path>
                        </g>
                    </g>
                </g>
            </g>
        </g>
    </g>
</svg>