<?xml version="1.0" encoding="UTF-8" standalone="no"?>
<svg width="45px" height="35px" viewBox="0 0 45 35" version="1.1" xmlns="http://www.w3.org/2000/svg" xmlns:xlink="http://www.w3.org/1999/xlink">
    <!-- Generator: Sketch 40.3 (33839) - http://www.bohemiancoding.com/sketch -->
    <title>icon-tickets</title>
    <desc>Created with Sketch.</desc>
    <defs></defs>
    <g id="Page-1" stroke="none" stroke-width="1" fill="none" fill-rule="evenodd">
        <g id="Desktop-HD" transform="translate(-970.000000, -3220.000000)">
            <g id="Group-22" transform="translate(78.000000, 2731.000000)">
                <g id="Group-18" transform="translate(822.000000, 489.000000)">
                    <g id="icon-tickets" transform="translate(70.000000, 0.000000)">
                        <g id="ticket" fill="#000000">
                            <path d="M31.8488672,8.44722162 L33,8.44722162 L33,0.0286702703 L0,0.0286702703 L0,8.44722162 L1.15113281,8.44722162 C3.05540039,8.44722162 4.6045957,10.0063784 4.6045957,11.9227459 C4.6045957,13.8391784 3.05533594,15.3982703 1.15113281,15.3982703 L0,15.3982703 L0,23.9712649 L33,23.9712649 L33,15.3983351 L31.8488672,15.3983351 C29.9445352,15.3983351 28.3954043,13.8391784 28.3954043,11.9228108 C28.3953398,10.0063135 29.9445352,8.44722162 31.8488672,8.44722162 Z M30.6976699,17.5989405 L30.6976699,21.6542919 L2.30233008,21.6542919 L2.30233008,17.5989405 C4.92628125,17.0606919 6.90699023,14.7201081 6.90699023,11.9227459 C6.90699023,9.12538378 4.92628125,6.7848 2.30233008,6.24655135 L2.30233008,2.34564324 L30.6976699,2.34564324 L30.6976699,6.24655135 C28.0737832,6.7848 26.0930098,9.12538378 26.0930098,11.9227459 C26.0930098,14.7201081 28.0737832,17.0606919 30.6976699,17.5989405 Z" id="Shape"></path>
                            <g id="Group" transform="translate(21.462891, 3.827027)">
                                <rect id="Rectangle-path" x="0.0253945312" y="13.9655351" width="2.30233008" height="2.31703784"></rect>
                                <rect id="Rectangle-path" x="0.0253945312" y="0.063372973" width="2.30233008" height="2.31703784"></rect>
                                <rect id="Rectangle-path" x="0.0253945312" y="10.4900108" width="2.30233008" height="2.31703784"></rect>
                                <rect id="Rectangle-path" x="0.0253945312" y="7.01442162" width="2.30233008" height="2.31703784"></rect>
                                <rect id="Rectangle-path" x="0.0253945312" y="3.5388973" width="2.30233008" height="2.31703784"></rect>
                            </g>
                            <rect id="Rectangle-path" x="9.20932031" y="10.8414486" width="9.97676367" height="2.31703784"></rect>
                            <rect id="Rectangle-path" x="9.20932031" y="15.4755243" width="5.75579297" height="2.31703784"></rect>
                            <rect id="Rectangle-path" x="9.20932031" y="6.20743784" width="9.97676367" height="2.31703784"></rect>
                        </g>
                        <g id="Group-12" transform="translate(12.000000, 11.000000)">
                            <path d="M0.51255438,1.20718673 L32.2316861,1.26749514 L32.29818,7.06895814 C32.29818,7.06895814 27.4704143,6.62824282 27.4704143,11.4663176 C27.4704143,16.3043924 32.1115847,16.7528396 32.1115847,16.7528396 L32.2775617,22.9424413 L0.823374655,23.1816131 L1.32285201,16.2909905 C1.32285201,16.2909905 6.28515182,17.2657188 6.28515182,12.1673385 C6.28515182,7.06895814 1.40532505,7.48493154 1.40532505,7.48493154 L0.51255438,1.20718673 Z" id="Path-2" fill="#FFFFFF"></path>
                            <g id="ticket-copy" fill="#000000">
                                <path d="M31.8488672,8.44722162 L33,8.44722162 L33,0.0286702703 L0,0.0286702703 L0,8.44722162 L1.15113281,8.44722162 C3.05540039,8.44722162 4.6045957,10.0063784 4.6045957,11.9227459 C4.6045957,13.8391784 3.05533594,15.3982703 1.15113281,15.3982703 L0,15.3982703 L0,23.9712649 L33,23.9712649 L33,15.3983351 L31.8488672,15.3983351 C29.9445352,15.3983351 28.3954043,13.8391784 28.3954043,11.9228108 C28.3953398,10.0063135 29.9445352,8.44722162 31.8488672,8.44722162 Z M30.6976699,17.5989405 L30.6976699,21.6542919 L2.30233008,21.6542919 L2.30233008,17.5989405 C4.92628125,17.0606919 6.90699023,14.7201081 6.90699023,11.9227459 C6.90699023,9.12538378 4.92628125,6.7848 2.30233008,6.24655135 L2.30233008,2.34564324 L30.6976699,2.34564324 L30.6976699,6.24655135 C28.0737832,6.7848 26.0930098,9.12538378 26.0930098,11.9227459 C26.0930098,14.7201081 28.0737832,17.0606919 30.6976699,17.5989405 Z" id="Shape"></path>
                                <g id="Group" transform="translate(21.462891, 3.827027)">
                                    <rect id="Rectangle-path" x="0.0253945312" y="13.9655351" width="2.30233008" height="2.31703784"></rect>
                                    <rect id="Rectangle-path" x="0.0253945312" y="0.063372973" width="2.30233008" height="2.31703784"></rect>
                                    <rect id="Rectangle-path" x="0.0253945312" y="10.4900108" width="2.30233008" height="2.31703784"></rect>
                                    <rect id="Rectangle-path" x="0.0253945312" y="7.01442162" width="2.30233008" height="2.31703784"></rect>
                                    <rect id="Rectangle-path" x="0.0253945312" y="3.5388973" width="2.30233008" height="2.31703784"></rect>
                                </g>
                                <rect id="Rectangle-path" x="9.20932031" y="10.8414486" width="9.97676367" height="2.31703784"></rect>
                                <rect id="Rectangle-path" x="9.20932031" y="15.4755243" width="5.75579297" height="2.31703784"></rect>
                                <rect id="Rectangle-path" x="9.20932031" y="6.20743784" width="9.97676367" height="2.31703784"></rect>
                            </g>
                        </g>
                    </g>
                </g>
            </g>
        </g>
    </g>
</svg>