<?xml version="1.0" encoding="utf-8"?>
<!-- Generator: Adobe Illustrator 16.0.0, SVG Export Plug-In . SVG Version: 6.00 Build 0)  -->
<!DOCTYPE svg PUBLIC "-//W3C//DTD SVG 1.1//EN" "http://www.w3.org/Graphics/SVG/1.1/DTD/svg11.dtd">
<svg version="1.1" xmlns="http://www.w3.org/2000/svg" xmlns:xlink="http://www.w3.org/1999/xlink" x="0px" y="0px" width="252px"
	 height="237px" viewBox="0 0 252 237" enable-background="new 0 0 252 237" xml:space="preserve">
<g id="Layer_1" display="none">
</g>
<g id="Layer_3">
</g>
<g id="Layer_2">
	<g>
		<path fill="#2199C3" d="M109.6,149.805c0,0,15.26-10.982,42.691-14.781c27.431-3.799,43.667-5.712,43.667-5.712l38.229,22.852
			c0,0-18.427,8.251-44.436,17.626c-26.008,9.374-47.979,20.469-47.979,20.469L109.6,149.805z"/>
		<g>
			<path d="M197.157,126.996c0,0-13.636,1.658-40.714,5.406c-27.078,3.749-51.238,15.529-51.238,15.529l36.815,43.316
				c0,0,9.968-5.404,42.719-16.764c32.751-11.36,54.448-22.189,54.448-22.189L197.157,126.996z M181.045,171.489
				c-28.963,10.047-37.777,14.825-37.777,14.825l-30.682-36.188c0,0,19.43-11.537,43.375-14.852
				c23.947-3.315,36.005-4.781,36.005-4.781l37.229,21.375C229.195,151.868,210.007,161.443,181.045,171.489z"/>
		</g>
		<g>
			<g>
				<path d="M177.747,134.54c0.073,0.763-0.743,0.75-1.822-0.028c-1.079-0.777-2.011-2.025-2.083-2.789
					c-0.073-0.763,0.744-0.75,1.823,0.026C176.743,132.528,177.676,133.776,177.747,134.54z"/>
				<path d="M183.226,138.489c0.071,0.763-0.743,0.75-1.823-0.026c-1.08-0.779-2.012-2.027-2.084-2.791
					c-0.072-0.762,0.744-0.749,1.823,0.028C182.221,136.479,183.152,137.727,183.226,138.489z"/>
				<path d="M188.702,142.439c0.072,0.763-0.744,0.75-1.823-0.027s-2.011-2.026-2.084-2.789c-0.072-0.764,0.745-0.752,1.824,0.027
					C187.697,140.428,188.631,141.677,188.702,142.439z"/>
				<path d="M194.18,146.391c0.072,0.762-0.744,0.75-1.824-0.028c-1.078-0.778-2.011-2.027-2.083-2.79
					c-0.071-0.762,0.744-0.751,1.823,0.028C193.175,144.377,194.107,145.627,194.18,146.391z"/>
				<path d="M199.656,150.339c0.072,0.764-0.745,0.752-1.822-0.026c-1.079-0.778-2.012-2.026-2.084-2.789
					c-0.072-0.764,0.744-0.75,1.822,0.026C198.653,148.329,199.585,149.577,199.656,150.339z"/>
				<path d="M205.134,154.29c0.071,0.763-0.744,0.751-1.823-0.027c-1.078-0.779-2.012-2.026-2.083-2.791
					c-0.071-0.762,0.743-0.749,1.823,0.028C204.129,152.279,205.062,153.527,205.134,154.29z"/>
				<path d="M210.609,158.24c0.074,0.762-0.743,0.751-1.821-0.027c-1.079-0.779-2.012-2.028-2.085-2.79
					c-0.07-0.764,0.745-0.75,1.823,0.027C209.606,156.229,210.539,157.478,210.609,158.24z"/>
				<path d="M216.088,162.191c0.072,0.762-0.744,0.749-1.823-0.029c-1.077-0.778-2.011-2.027-2.083-2.789
					c-0.072-0.764,0.744-0.751,1.823,0.028C215.083,160.178,216.016,161.427,216.088,162.191z"/>
			</g>
		</g>
	</g>
	<g>
		<path fill="#2199C3" d="M109.639,143.036c0,0,14.301-12.203,41.325-18.254c27.022-6.05,43.046-9.296,43.046-9.296l39.984,19.618
			c0,0-17.683,9.743-42.828,21.232c-25.146,11.489-46.127,24.359-46.127,24.359L109.639,143.036z"/>
		<g>
			<path d="M195.014,113.08c0,0-13.452,2.777-40.129,8.747c-26.676,5.972-49.781,19.705-49.781,19.705l40.265,40.132
				c0,0,9.488-6.21,41.189-20.234c31.702-14.024,52.432-26.606,52.432-26.606L195.014,113.08z M182.629,158.751
				c-28.035,12.403-36.425,17.893-36.425,17.893l-33.563-33.533c0,0,18.41-13.101,42.001-18.381
				c23.591-5.279,35.487-7.736,35.487-7.736l38.867,18.229C228.996,135.222,210.663,146.348,182.629,158.751z"/>
		</g>
		<g>
			<g>
				<path d="M176.293,122.199c0.136,0.754-0.679,0.809-1.818,0.123c-1.141-0.687-2.172-1.854-2.307-2.608
					c-0.136-0.754,0.68-0.808,1.819-0.124C175.126,120.277,176.158,121.444,176.293,122.199z"/>
				<path d="M182.078,125.684c0.135,0.754-0.679,0.809-1.818,0.124c-1.142-0.688-2.173-1.855-2.309-2.61
					c-0.135-0.753,0.68-0.808,1.821-0.121C180.911,123.762,181.942,124.93,182.078,125.684z"/>
				<path d="M187.863,129.168c0.134,0.755-0.681,0.808-1.819,0.123c-1.141-0.686-2.172-1.854-2.308-2.607
					c-0.136-0.755,0.68-0.811,1.82-0.124C186.695,127.246,187.729,128.413,187.863,129.168z"/>
				<path d="M193.647,132.653c0.135,0.753-0.681,0.809-1.82,0.123c-1.139-0.688-2.171-1.854-2.307-2.609
					c-0.134-0.753,0.68-0.81,1.82-0.123C192.479,130.729,193.513,131.898,193.647,132.653z"/>
				<path d="M199.432,136.136c0.134,0.756-0.682,0.811-1.819,0.124c-1.139-0.687-2.172-1.853-2.307-2.607s0.681-0.809,1.818-0.123
					C198.265,134.216,199.297,135.383,199.432,136.136z"/>
				<path d="M205.216,139.622c0.134,0.755-0.679,0.81-1.819,0.123c-1.139-0.688-2.172-1.854-2.306-2.61
					c-0.134-0.752,0.679-0.808,1.818-0.121S205.081,138.868,205.216,139.622z"/>
				<path d="M210.999,143.106c0.138,0.752-0.678,0.81-1.817,0.123c-1.14-0.688-2.172-1.854-2.308-2.608
					c-0.134-0.755,0.681-0.809,1.818-0.123C209.834,141.185,210.866,142.352,210.999,143.106z"/>
				<path d="M216.784,146.592c0.136,0.754-0.679,0.808-1.818,0.122c-1.138-0.688-2.172-1.854-2.307-2.609
					c-0.135-0.753,0.68-0.809,1.819-0.121C215.618,144.668,216.65,145.836,216.784,146.592z"/>
			</g>
		</g>
	</g>
	<g>
		<path opacity="0.7" d="M96.496,167.383c-13.562,0-52.986,10.991-52.986,14.959c0,4.768,16.824,14.158,49.713,14.158
			c34.41,0,50.732-13.977,50.732-18.636C143.955,173.206,108.008,167.383,96.496,167.383z"/>
		<path fill="#7ADCFF" d="M151.049,72.644c0,0-14.473-13.975-46.09-13.643s-46.59,13.643-46.59,13.643l3.798,105.061
			c0,0,8.019,11.551,37.175,13.967c29.157,2.416,48.564-14.848,48.564-14.848L151.049,72.644z"/>
		<path fill="#5DCBE8" d="M59.011,94.71c0,0-7.825-5.021-14.832-2.507c-7.007,2.513-12.585,44.304-10.81,50.921
			c4.221,15.734,25.642,15.704,25.642,15.704l1.817-14.174c0,0-16.5-1.199-15.636-11.258c0.864-10.058-1.022-26.125,6.886-26.495
			c7.909-0.368,8.237,1.001,8.237,1.001l-1.305-11.505"/>
		<path opacity="0.2" fill="#FFFFFF" d="M131.611,172.294c-0.057,1.982,1.465,3.636,3.397,3.689l0,0
			c1.933,0.055,3.544-1.51,3.599-3.493l2.195-77.992c0.056-1.983-1.465-3.636-3.398-3.689l0,0c-1.932-0.055-3.543,1.509-3.599,3.493
			L131.611,172.294z"/>
		<path opacity="0.3" d="M142.677,75.501c-0.001-2.501-15.335-11.166-37.501-9.5s-38.964,7.001-38.732,9.5
			c0.232,2.499,5.893,4.931,5.893,4.931s10.34-2.765,29.006-3.432c18.668-0.667,31.668,4.333,31.668,4.333
			S142.678,78.669,142.677,75.501z"/>
		<g>
			<path fill="none" stroke="#000000" stroke-width="5" stroke-miterlimit="10" d="M104.369,191.671v-0.006
				c-33.693,0.006-42.857-14.842-42.857-14.842l-3.143-104.18c0,0,6.543-13.521,46.09-13.637v-0.006c0.086,0,0.164,0.002,0.25,0.002
				s0.164-0.002,0.25-0.002v0.006c39.547,0.115,46.09,13.637,46.09,13.637l-3.143,104.18c0,0-9.897,14.848-44.857,14.842"/>
		</g>
		<path fill="none" stroke="#000000" stroke-width="4" stroke-miterlimit="10" d="M59.011,94.71c0,0-9.946-5.021-14.832-2.507
			c-4.886,2.514-17.8,53.215-5.934,60.34c11.867,7.123,20.766,6.285,20.766,6.285"/>
		<path fill="none" stroke="#000000" stroke-width="4" stroke-miterlimit="10" d="M60.356,108.154c0,0-5.882-2.767-8.771-1.382
			c-2.89,1.386-10.527,29.311-3.509,33.235c7.018,3.921,12.28,3.461,12.28,3.461"/>
		<path fill="none" stroke="#000000" stroke-width="3" stroke-linecap="round" stroke-miterlimit="10" d="M142.677,76.001
			c0,3.667-21.931,9-40.632,9s-35.701-4.667-35.701-9s22.531-10,38.166-10S142.677,69.667,142.677,76.001z"/>
		<path d="M136.037,80.051c0,0-15.629-4.55-31.328-4.55s-33.752,4.55-33.752,4.55s9.457,2.951,31.088,4.95
			S136.037,80.051,136.037,80.051z"/>
		<g>
			<circle cx="121.379" cy="147.45" r="3.935"/>
			<circle cx="90.069" cy="147.45" r="3.935"/>
			<g>
				<path d="M114.529,157.673c0.08,3.626-2.219,7.02-5.854,8.158c-4.405,1.38-9.096-1.073-10.476-5.479
					c-0.279-0.892-0.394-1.794-0.375-2.68H114.529z"/>
			</g>
		</g>
		<path d="M151.049,72.644"/>
	</g>
	<path d="M214.992,32.386"/>
</g>
</svg>
