<?xml version="1.0" encoding="utf-8"?>
<!-- Generator: Adobe Illustrator 16.0.0, SVG Export Plug-In . SVG Version: 6.00 Build 0)  -->
<!DOCTYPE svg PUBLIC "-//W3C//DTD SVG 1.1//EN" "http://www.w3.org/Graphics/SVG/1.1/DTD/svg11.dtd">
<svg version="1.1" xmlns="http://www.w3.org/2000/svg" xmlns:xlink="http://www.w3.org/1999/xlink" x="0px" y="0px" width="252px"
	 height="237px" viewBox="0 0 252 237" enable-background="new 0 0 252 237" xml:space="preserve">
<g id="Layer_1" display="none">
</g>
<g id="Layer_3">
</g>
<g id="Layer_2">
	<path opacity="0.7" d="M129.494,180.866c-21.255,0-83.043,17.226-83.043,23.444c0,7.473,26.367,22.189,77.912,22.189
		c53.93,0,79.511-21.904,79.511-29.207C203.874,189.992,147.535,180.866,129.494,180.866z"/>
	<path fill="#7ADCFF" d="M214.992,32.386c0,0-22.683-21.901-72.235-21.382c-49.552,0.521-73.018,21.382-73.018,21.382l5.952,164.657
		c0,0,12.566,18.102,58.263,21.889s76.112-23.27,76.112-23.27L214.992,32.386z"/>
	<path fill="#5DCBE8" d="M70.744,66.969c0,0-12.264-7.867-23.245-3.928c-10.981,3.938-19.724,69.435-16.94,79.806
		c6.614,24.659,40.186,24.612,40.186,24.612l2.85-22.215c0,0-25.86-1.879-24.506-17.643s-1.603-40.945,10.791-41.525
		c12.396-0.576,12.91,1.568,12.91,1.568l-2.045-18.03"/>
	<path opacity="0.2" fill="#FFFFFF" d="M184.528,188.562c-0.089,3.107,2.296,5.699,5.324,5.783l0,0
		c3.029,0.086,5.555-2.366,5.641-5.475l3.44-122.234c0.087-3.107-2.296-5.697-5.326-5.781l0,0c-3.027-0.086-5.553,2.364-5.641,5.475
		L184.528,188.562z"/>
	<path opacity="0.3" d="M201.87,36.864c-0.001-3.92-24.033-17.5-58.773-14.89c-34.739,2.611-61.065,10.973-60.703,14.89
		c0.364,3.917,9.235,7.728,9.235,7.728s16.205-4.333,45.459-5.379c29.258-1.045,49.632,6.791,49.632,6.791
		S201.872,41.829,201.87,36.864z"/>
	<g>
		<path fill="none" stroke="#000000" stroke-width="5" stroke-miterlimit="10" d="M141.833,218.932v-0.01
			c-52.806,0.01-67.169-23.26-67.169-23.26L69.739,32.386c0,0,10.255-21.191,72.234-21.372v-0.01c0.135,0,0.257,0.004,0.392,0.004
			s0.258-0.004,0.392-0.004v0.01c61.98,0.181,72.235,21.372,72.235,21.372l-4.926,163.276c0,0-15.512,23.27-70.303,23.26"/>
	</g>
	<path fill="none" stroke="#000000" stroke-width="4" stroke-miterlimit="10" d="M70.744,66.969c0,0-15.588-7.869-23.245-3.928
		c-7.657,3.939-27.896,83.4-9.3,94.567c18.6,11.163,32.545,9.851,32.545,9.851"/>
	<path fill="none" stroke="#000000" stroke-width="4" stroke-miterlimit="10" d="M72.854,88.04c0,0-9.218-4.336-13.747-2.165
		c-4.528,2.172-16.499,45.937-5.499,52.088c10.998,6.145,19.246,5.424,19.246,5.424"/>
	<path fill="none" stroke="#000000" stroke-width="3" stroke-linecap="round" stroke-miterlimit="10" d="M201.87,37.648
		c0,5.746-34.37,14.104-63.68,14.104s-55.953-7.314-55.953-14.104c0-6.791,35.312-15.674,59.815-15.674
		C166.557,21.975,201.87,27.721,201.87,37.648z"/>
	<path d="M191.465,43.994c0,0-24.495-7.13-49.1-7.13s-52.897,7.13-52.897,7.13s14.821,4.626,48.723,7.759
		C172.091,54.887,191.465,43.994,191.465,43.994z"/>
	<g>
		<path d="M162.325,149.627c0,3.408,2.763,6.17,6.168,6.17s6.166-2.762,6.166-6.17c0-3.404-2.761-6.165-6.166-6.165
			S162.325,146.223,162.325,149.627z"/>
		<path d="M113.255,149.627c0,3.408,2.761,6.17,6.167,6.17c3.405,0,6.166-2.762,6.166-6.17c0-3.404-2.761-6.165-6.166-6.165
			C116.016,143.462,113.255,146.223,113.255,149.627z"/>
		<g>
			<path d="M157.756,165.648c0.126,5.683-3.477,11.001-9.174,12.785c-6.903,2.163-14.255-1.682-16.418-8.586
				c-0.438-1.396-0.616-2.811-0.587-4.199H157.756z"/>
		</g>
	</g>
	<path d="M214.992,32.386"/>
</g>
</svg>
