<?xml version="1.0" encoding="UTF-8" standalone="no"?>
<svg width="30px" height="30px" viewBox="0 0 30 30" version="1.1" xmlns="http://www.w3.org/2000/svg" xmlns:xlink="http://www.w3.org/1999/xlink">
    <!-- Generator: Sketch 40.3 (33839) - http://www.bohemiancoding.com/sketch -->
    <title>twitter</title>
    <desc>Created with Sketch.</desc>
    <defs></defs>
    <g id="Page-1" stroke="none" stroke-width="1" fill="none" fill-rule="evenodd">
        <g id="Desktop-HD" transform="translate(-1106.000000, -15.000000)" fill="#FFFFFF">
            <g id="top-bar" transform="translate(-6.000000, 0.000000)">
                <path d="M1133.1,27.2875 C1133.10625,27.4125 1133.10938,27.540625 1133.10938,27.66875 C1133.10938,31.571875 1130.1375,36.075 1124.70312,36.075 C1123.03437,36.075 1121.48125,35.584375 1120.175,34.746875 C1120.40313,34.775 1120.64062,34.7875 1120.87812,34.7875 C1122.2625,34.7875 1123.5375,34.315625 1124.54688,33.525 C1123.25625,33.5 1122.1625,32.646875 1121.7875,31.471875 C1121.96875,31.50625 1122.15312,31.525 1122.34375,31.525 C1122.6125,31.525 1122.875,31.490625 1123.12187,31.421875 C1121.77187,31.15 1120.75312,29.95625 1120.75312,28.525 L1120.75312,28.4875 C1121.15,28.709375 1121.60625,28.840625 1122.09062,28.85625 C1121.29688,28.328125 1120.775,27.425 1120.775,26.396875 C1120.775,25.85625 1120.92188,25.35 1121.175,24.9125 C1122.63437,26.7 1124.80937,27.878125 1127.26562,28 C1127.21563,27.784375 1127.19062,27.559375 1127.19062,27.328125 C1127.19062,25.69375 1128.5125,24.371875 1130.14375,24.371875 C1130.99375,24.371875 1131.75937,24.73125 1132.3,25.30625 C1132.97187,25.171875 1133.60625,24.928125 1134.175,24.5875 C1133.95625,25.278125 1133.4875,25.85625 1132.87812,26.221875 C1133.475,26.153125 1134.04375,25.99375 1134.575,25.759375 C1134.17812,26.35 1133.67812,26.871875 1133.1,27.2875 L1133.1,27.2875 Z M1127,15 C1118.7125,15 1112,21.715625 1112,30 C1112,38.284375 1118.7125,45 1127,45 C1135.28437,45 1142,38.284375 1142,30 C1142,21.715625 1135.28437,15 1127,15 L1127,15 Z" id="twitter"></path>
            </g>
        </g>
    </g>
</svg>