<?xml version="1.0" encoding="utf-8"?>
<!-- Generator: Adobe Illustrator 16.0.0, SVG Export Plug-In . SVG Version: 6.00 Build 0)  -->
<!DOCTYPE svg PUBLIC "-//W3C//DTD SVG 1.1//EN" "http://www.w3.org/Graphics/SVG/1.1/DTD/svg11.dtd">
<svg version="1.1" xmlns="http://www.w3.org/2000/svg" xmlns:xlink="http://www.w3.org/1999/xlink" x="0px" y="0px"
	 width="679.733px" height="268.355px" viewBox="0 0 679.733 268.355" enable-background="new 0 0 679.733 268.355"
	 xml:space="preserve">
<g id="Layer_1" display="none">
</g>
<g id="color">
	<g>
		<g>
			<g>
				<defs>
					<polygon id="SVGID_1_" points="1414.035,-127.29 205.428,-116.405 210.561,-149.015 1414.502,-154.598 					"/>
				</defs>
				<use xlink:href="#SVGID_1_"  overflow="visible" fill="#D8994E"/>
				<clipPath id="SVGID_2_">
					<use xlink:href="#SVGID_1_"  overflow="visible"/>
				</clipPath>
				<path clip-path="url(#SVGID_2_)" fill="#B76915" d="M1718.897,5.466c-19.986-2.81-40.426-1.76-61.329-3.365
					c-5.053-0.104-10.066-0.269-15.051-0.465c-24.923-0.982-49.128-2.789-74.136-2.135c-3.662,0.299-7.283,0.652-10.871,1.006
					c-3.548,0.371-7.032,0.748-10.443,1.1c-5.84,0-11.681-1.05-18.143-2.249c-3.113-0.398-6.54-0.437-9.969-0.471
					c-20.087-0.089-40.128-0.021-60.135,0.151c-6.604,0.028-13.209,0.067-19.078-0.254c-47.44-2.43-94.162,5.972-140.039,3.081
					c-7.197-0.109-13.909-0.025-20.566,0.078c-39.922,0.623-79.907,1.017-120.07,0.747c-5.698,0.003-11.4,0.002-17.098-0.006
					c-5.704-0.007-11.413-0.019-17.121-0.038c-5.71-0.019-11.417-0.045-16.893-0.32c-39.78-5.972-83.581,2.43-124.463,1.38
					c-5.84,0-12.416-0.523-19.596-1.076c-56.326-4.175-111.807-1.023-165.864-1.681c-5.599,0.118-12.668,0.236-19.001,0.39
					c-5.369,0.042-10.743,0.084-16.108,0.126c-48.318,0.375-96.546,0.702-144.253,0.366c-5.517-0.011-11.041-0.022-16.565-0.034
					c-22.096-0.049-44.194-0.1-66.3-0.148c-5.967-0.014-11.933-0.026-17.872-0.045c-27.933-1.047-54.213-1.047-82.023,0.213
					c-5.991,0.167-11.972,0.334-17.95,0.492c-48.414,1.285-96.484,2.12-146.284-0.344c-5.534-0.272-11.089-0.589-16.668-0.947
					c-30.735,0.589-59.935-4.663-92.057-4.663c29.201,0,61.321,4.202,91.35,4.152c5.472,0.178,10.95,0.355,16.434,0.526
					c49.355,1.552,99.159,2.71,149.358,0.225c6.24-0.332,12.754-0.879,18.677-1.141c24.951-4.812,48.312-1.662,77.2-0.139
					c5.818,0.114,11.717,0.13,17.662,0.13c11.011-0.003,22.022-0.007,33.033-0.007c5.506-0.003,11.011-0.003,16.518-0.003
					c66.824,0.228,132.865-0.436,198.834-0.956c6.126-0.044,12.61-0.072,18.065-0.136c54.927,1.55,113.328-1.603,168.473,2.194
					c5.864,0.123,12.474,0.112,18.93,0.016c29.908-0.448,60.25-3.155,89.45-3.812c11.681,0,23.36,2.101,34.533,2.704
					c4.079,0.262,8.338,0.288,12.615,0.283c5.708-0.003,11.412-0.016,17.109-0.031c44.389,0.056,89.005-0.573,133.719-1.382
					c6.439-0.089,12.878-0.182,19.825-0.008c39.164,2.636,80.046-2.616,118.007-4.716c11.681,0,23.361,2.1,35.337,1.374
					c5.932,0.255,12.279,0.229,18.616,0.211c19.157-0.135,38.292-0.174,57.393-0.074c3.409,0.031,6.821,0.068,9.598,0.477
					c9.325,1.089,18.467,0.997,27.569,0.587c4.552-0.204,9.109-0.478,13.678-0.724c27.882-0.667,56.86,2.869,84.665,2.99
					c5.6,0.039,11.115-0.071,16.59-0.364c13.962,1.825,28.563,1.825,42.991,3.354L1718.897,5.466z"/>
				<path clip-path="url(#SVGID_2_)" fill="#B76915" d="M1711.984,13.726c-21.833-1.618-42.272-2.668-62.959-2.375
					c-4.791,0.057-10.409-0.102-15.37-0.32c-4.66-0.175-9.205-0.496-13.586-1.022c-26.28-3.149-46.721,0-71.896-0.875
					c-3.769-0.037-7.465-0.178-11.258-0.502c-3.57-0.28-7.095-0.716-10.545-1.346c-3.467-0.056-6.93-0.098-10.38-0.126
					c-23.686-0.191-47.445-0.254-71.234-0.217c-5.942,0.008-11.862,0.016-17.736,0.022c-34.717-1.156-69.758,1.993-106.224,1.112
					c-6.662-0.077-12.655-0.016-18.565,0.066c-11.821,0.162-23.622,0.337-35.395,0.519c-5.862,0.031-11.726,0.065-17.588,0.1
					c-44.896,0.256-89.787,0.555-134.698,0.835c-6.349,0.013-12.696,0.025-18.303-0.312c-39.894-1.205-78.414,1.861-117.848,1.751
					c-5.987-0.05-11.697-0.137-17.417-0.312c-56.331-5.969-111.812,0.333-166.371,0.864c-6.199-0.204-12.388-0.565-18.199-1.171
					c-6.775-0.07-13.601-0.133-20.473-0.173c-5.421-0.007-10.839-0.013-16.257-0.021c-64.351-0.09-128.649-0.238-192.939-0.429
					c-1.725-0.012-3.519-0.043-5.591-0.147c-16.11-2.79-36.551,1.409-54.669,0.188c-2.017-0.24-4.897-0.249-7.779-0.259
					c-58.785-1.67-114.267-1.67-172.907-0.673c-5.766-0.026-11.533-0.052-17.301-0.078c-14.418-0.062-28.837-0.127-43.261-0.192
					c-5.169-0.119-10.278-0.228-15.671-0.455c-22.81-0.271-40.332-4.474-63.692-4.474c26.281-1.05,52.562,4.202,79.709,3.932
					c4.926-0.015,9.822-0.036,14.72-0.058c9.792-0.044,19.584-0.083,29.374-0.12c5.873-0.021,11.746-0.044,17.619-0.067
					c57.144-2.637,118.466-0.534,176.069-0.234c2.92,0.001,5.844,0.003,8.773,0.006c2.928,0,5.269,0.086,7.662,0.121
					c7.724-0.427,19.404-0.427,29.174-0.16c3.727,0.062,6.935,0.068,10.114,0.071c44.514,0.046,89.017,0.125,133.514,0.22
					c5.721,0.013,11.443,0.025,17.161,0.036c16.349,0.251,32.812,0.372,49.351,0.411c5.515,0.014,11.036,0.018,16.565,0.014
					c6.629,0.022,13.26,0.044,19.839,0.075c5.92,0.521,11.788,0.859,17.674,1.056c58.9-1.1,117.302-5.302,175.856,0.185
					c5.265,0.226,10.694,0.349,15.839,0.33c10.287-0.038,20.509-0.564,30.728-1.614c29.202-1.05,58.403-2.1,86.817-0.99
					c5.616,0.309,11.748,0.314,17.939,0.286c37.163-0.176,74.325-0.357,111.494-0.52c5.875-0.025,11.748-0.05,17.624-0.075
					c12.627-0.081,25.282-0.189,37.972-0.312c6.341-0.062,12.718-0.118,19.146-0.171c44.816,1.781,91.537-2.421,134.016-1.318
					c6.398-0.034,12.804-0.062,19.208-0.081c19.204-0.059,38.405-0.043,57.586,0.081c3.445,0.023,6.891,0.073,10.465,0.515
					c4.17,0.605,8.214,0.935,12.178,1.068c4.129,0.171,8.065,0.123,12.011-0.028c18.358-1.607,35.88-3.707,50.479-0.555
					c9.736,2.1,19.79,2.799,30.108,2.861c5.161,0.03,10.396-0.095,15.724-0.272c21.331-0.489,44.691,1.61,64.373,2.913
					L1711.984,13.726z"/>
				<path clip-path="url(#SVGID_2_)" fill="#B76915" d="M1711.408,20.712c-24.177-0.199-47.537-0.199-71.543-0.639
					c-5.327,0.013-11.417-0.025-17.143-0.065c-27.019-0.141-54.302-0.786-82.596-2.078c-5.862-0.097-12.262-0.224-18.33-0.319
					c-53.184-0.772-106.354-1.02-158.096-0.529c-5.623-0.008-11.246-0.008-16.875-0.002c-16.899,0.02-33.85,0.108-50.885,0.281
					c-71.173,0.42-142.35,1.009-213.456,1.457c-6.394,0.031-12.302-0.035-17.988-0.093c-25.522,0.738-51.803,0.738-78.197,0.704
					c-7.084-0.077-13.598-0.062-20.104-0.05c-6.456,0.019-13.061-0.002-20.014-0.127c-44.452-7.145-91.173-0.841-134.973,2.311
					c-4.38,0-8.577-0.065-12.669-0.19c-12.268-0.374-23.576-1.274-35.947-2.514c-5.23-0.019-10.383-0.031-15.537-0.047
					c-5.112-0.01-10.223-0.016-15.333-0.024c-5.925-0.01-11.854-0.02-17.769-0.028c-48.503-0.094-97.069-0.238-145.686-0.358
					c-3.472-0.01-6.951-0.028-10.443-0.06c-21.104-5.18-44.464,0.07-64.905,2.172c-11.68,1.05-20.44-2.102-28.891-2.306
					c-3.477-0.003-6.952-0.006-10.431-0.009c-3.476-0.004-6.953-0.005-10.431-0.007c-5.65-0.003-11.303-0.003-16.949-0.008
					c-11.833,0.076-23.292,0.126-34.574,0.157c-5.642,0.016-11.282,0.05-16.899,0.081c-33.67,1.041-65.79,2.091-100.931,0.314
					c-5.625,0.033-11.519-0.05-17.241-0.043c-14.143,0.094-28.286,0.205-42.43,0.333c-4.728,0.031-9.487,0.041-14.193,0.086
					c-7.798,0.351-19.479,1.4-28.239,0.351c0-1.052,0-3.152,0-4.202c14.601-1.05,32.121,0,45.952,0.818
					c5.123-0.003,10.34,0.033,15.466,0.025c10.25-0.013,20.507-0.016,30.769-0.01c5.132,0.004,10.264,0.01,15.399,0.02
					c26.738,0.196,53.019,0.196,78.684,0.23c5.106,0.011,10.286-0.015,15.419,0.003c20.535,0.068,41.272,0.176,62.304,0.39
					c5.877,0.034,11.753,0.065,17.627,0.1c3.358,0.019,6.715,0.037,10.072,0.056c3.334,0.037,6.671,0.078,9.581,0.621
					c17.016,5.099,31.616-0.153,49.137-2.253c11.68-1.05,23.361-1.05,31.333,1.579c3.804,0.487,7.17,0.521,10.538,0.551
					c56.911,0.222,113.629,0.29,169.956-0.027c5.857-0.015,11.714-0.028,17.569-0.044c6.649,0,13.249,0.049,19.544,0.398
					c4.016,0.873,8.941,1.046,13.959,1c5.02-0.043,10.13-0.307,14.51-0.307c49.64-1.051,99.281-8.403,150.365-1.634
					c7.346,0.149,14.178,0.168,20.891,0.159c33.148,1.475,68.188-0.626,101.285-0.772c5.709,0.129,11.475,0.327,18.017,0.314
					c86.222-0.33,172.398-0.668,258.579-0.821c5.852-0.011,11.687-0.02,17.475-0.035c54.427,0.457,108.911-0.321,163.593-0.374
					c3.418-0.002,6.861,0.005,10.438,0.027c28.271,1.044,55.545,1.826,82.585,2.15c5.406,0.062,10.802,0.108,16.195,0.134
					c21.998,0.852,48.279,0.852,72.278,1.601L1711.408,20.712z"/>
				<path clip-path="url(#SVGID_2_)" fill="#B76915" d="M1713.136,25.12c-22.984,1.694-49.265,0.645-73.629,0.618
					c-5.509-0.021-11.817-0.028-17.721-0.045c-27.769-0.131-55.281-0.331-82.565-0.734c-4.164,0.055-8.237,0.154-12.548,0.256
					c-11.777,0.282-23.516,0.54-35.303-0.519c-3.366-0.062-6.759-0.118-10.159-0.172c-13.596-0.215-27.181-0.438-40.675-0.647
					c-5.772-0.068-11.538-0.129-17.309-0.186c-130.823-1.271-260.994,0.366-391.582,1.534c-3.529,0.031-7.054,0.062-10.585,0.094
					c-11.286,0.445-20.046,0.445-31.812,0.268c-3.514,0.026-7.032,0.053-10.568,0.078c-5.886,0.044-11.776,0.087-17.669,0.128
					c-5.891,0.04-12.107-0.038-17.674,0.112c-35.766-5.393-76.647-2.243-111.283,1.479c-5.327,0.259-10.762,0.506-16.084,0.628
					c-10.653,0.241-21.331,0.182-32.044-0.416c-5.951-0.334-11.917-0.832-17.895-1.536c-20.496-0.199-40.305,0.67-60.568,0.72
					c-5.064,0.013-10.16-0.026-15.308-0.142c-30.789-0.874-65.83,1.226-97.318-0.528c-5.425-0.056-10.809-0.071-16.26-0.118
					c-5.35,0.005-10.7,0.009-16.048,0.016c-2.896-0.019-5.677-0.178-8.145-0.723c-15.662-4.772-33.183,0.479-44.863,2.579
					c-11.681,1.05-26.281,0-38.741-1.969c-2.783-0.011-5.563-0.021-8.339-0.034c-13.888-0.064-27.704-0.152-41.475-0.256
					c-5.509-0.04-11.01-0.082-16.504-0.126c-5.495-0.042-12.024,0.198-17.428,0.154c-43.958,4.332-84.839,4.332-129.656-0.445
					c-5.431,0.031-11.645-0.125-17.348-0.125c-16.545,0.151-33.163,0.392-49.893,0.751c-4.611-0.225-9.126-0.576-13.506-1.102
					c3.406-0.35,6.938-0.611,10.551-0.808c15.549-0.287,31.125-0.492,46.718-0.633c5.197-0.047,10.396-0.087,15.597-0.118
					c43.938,1.559,84.819,6.812,127.648,0.797c6.567-0.312,12.444-0.433,18.077-0.577c5.771,0.032,11.543,0.066,17.312,0.101
					c16.226,0.091,32.428,0.175,48.597,0.234c3.232,0.012,6.465,0.024,9.696,0.034c9.495,3.071,21.175,3.071,32.855,2.021
					c17.521-2.103,35.041-6.302,54.111-2.67c3.05,0.445,6.235,0.442,9.427,0.411c5.164,0.003,10.346,0.005,15.527,0.007
					c4.318,0.003,8.635,0.004,12.954,0.009c27.704,0.141,56.905,0.141,82.478,0.026c5.288,0.03,10.715,0.05,16.195,0.067
					c16.451,0.047,33.426,0.045,48.766,0.034c6.692-0.006,13.348,0.039,19.973,0.121c19.848,1.661,37.351,2.667,56.152,2.35
					c3.874-0.106,7.78-0.261,11.517-0.376c34.989-3.132,75.87-8.384,111.351-2.354c6.912,0.058,13.585,0.022,20.229-0.027
					c6.341-0.049,12.684-0.097,19.026-0.15c6.342-0.05,12.683-0.103,19.025-0.158c20.121-0.442,37.643-0.442,57.102-0.523
					c6.331-0.061,12.672-0.122,19.015-0.181c101.511-0.976,203.115-1.96,304.88-1.486c5.925,0.028,11.846,0.062,17.771,0.1
					c29.343,0.27,59.081,0.63,88.863,1.038c3.307,0.045,6.621,0.09,9.93,0.137c5.475,0.118,10.676,0.207,15.706,0.28
					c5.036,0.073,9.906,0.131,14.72,0.184c29.315,0.531,59.304,0.796,89.251,0.902c5.989,0.02,11.977,0.035,17.954,0.045
					c27.347,0.112,53.628,0.112,78.752-0.019L1713.136,25.12z"/>
				<path clip-path="url(#SVGID_2_)" fill="#B76915" d="M1715.115,28.836c-24.964,0.078-48.324,2.18-75.923,1.318
					c-5.966-0.144-11.953-0.284-17.953-0.411c-19.99-0.424-40.112-0.714-60.164-0.591c-5.015,0.029-10.021,0.089-15.023,0.173
					c-60.307,3.791-121.627-2.511-183.782-0.463c-6.461-0.017-12.923-0.032-19.386-0.042c-96.927-0.157-194.015,0.518-290.518,2.013
					c-3.542,0.053-7.084,0.105-10.654,0.152c-11.588-0.511-23.223,0.023-34.961,0.589c-3.913,0.19-7.841,0.384-11.777,0.542
					c-8.561-0.05-14.399-0.05-23.816,0.256c-2.835-0.209-5.942-0.337-9.296-0.321c-5.948,0.057-11.893,0.107-17.823,0.128
					c-4.003-0.291-7.922-0.573-11.726-0.819c-3.833-0.265-7.603-0.523-11.151-0.663c-22.35-1.782-45.71,1.37-69.698,1.757
					c-5.67,0.239-11.361,0.47-17.059,0.67c-11.401,0.396-22.85,0.663-34.261,0.573c-5.71-0.047-11.729-0.101-17.436-0.337
					c-16.688-0.486-33.279-0.346-49.848-0.191c-5.526,0.051-11.046,0.104-16.567,0.136c-51.087,1.912-103.648-0.188-153.17-1.801
					c-2.834,0.021-5.678,0.04-8.518,0.062c-2.842,0.021-5.684,0.046-8.193-0.069c-21.37-0.48-41.811,1.62-63.497,0.52
					c-3.107-0.235-5.471-0.223-7.788-0.2c-9.269,0.096-18.406,0.144-27.603,0.144c-4.598,0-9.211-0.013-13.863-0.036
					c-5.42-0.123-10.834-0.208-16.241-0.265c-5.407-0.056-10.807-0.081-16.175-0.084c-51.408,3.642-103.97,7.844-155.423,1.477
					c-6.396-0.193-13.329-0.485-19.225-0.688c-11.793-0.404-23.616-1.058-35.466-2.05c-5.522-0.409-11.025-0.872-16.5-1.398
					c5.11,0,10.268,0,15.467,0c11.974-0.149,23.905-0.256,35.812-0.33c5.953-0.036,11.909-0.062,17.905-0.065
					c56.379,5.647,106.02,4.598,160.864,0.364c6.034,0.019,12.082,0.034,18.146,0.047c6.065,0.013,12.146,0.019,18.247,0.021
					c3.198,0,6.388,0,9.574,0.003c6.368,0.004,12.708,0.016,19.076,0.035c2.142,0.016,4.287,0.034,6.928,0.333
					c16.268,2.744,36.709-0.408,57.15-2.508c5.84,0,11.681,1.05,18.38,2.218c1.94,0.013,3.896,0.021,5.862,0.019
					c3.932-0.003,7.865-0.006,11.795-0.009c45.726,1.974,89.526,3.024,135.332,1.604c5.187-0.07,10.352-0.173,15.52-0.284
					c20.663-0.44,41.325-1.009,62.216,0.477c4.561,0.25,9.16,0.45,13.763,0.58c6.906,0.192,13.824,0.223,20.663,0.009
					c6.833-0.215,13.587-0.676,20.156-1.462c32.121-3.151,64.241-4.201,95.473-1.646c4.99,0.265,10.54,0.424,15.856,0.331
					c5.32-0.092,10.637-0.182,15.951-0.269c3.548-0.06,7.09-0.116,10.63-0.17c16.855-0.348,34.375-0.348,52.837-0.809
					c3.82,0.016,7.391-0.021,10.933-0.062c109.467-1.277,218.753-1.456,328.035-0.89c6.443,0.05,12.889,0.104,19.305,0.143
					c20.395,0.221,37.916,0.221,57.831,0.38c6.429,0.051,12.854,0.105,19.283,0.163c5.704,0.052,11.406,0.104,17.098,0.157
					c2.852,0.222,5.658,0.426,8.202,0.729c11.424,1.942,26.024,1.942,37.858-0.17c4.614-0.387,8.953-0.762,13.442-1.025
					c28.242-0.008,56.234,0.516,84.106,1.055c6.006,0.087,12.7,0.141,18.171,0.243c24.29-0.262,47.65,0.788,71.604-1.053
					L1715.115,28.836z"/>
				<path clip-path="url(#SVGID_2_)" fill="#B76915" d="M1717.437,33.139c-27.285,1.027-53.565,2.077-80.297,1.605
					c-6.701-0.086-13.425-0.146-19.819-0.229c-12.792-0.166-25.544-0.24-38.167-0.271c-4.208-0.01-8.44,0.003-12.575-0.016
					c-25.351-1.112-48.711,6.239-74.992,5.189c-5.841,0-8.76-3.15-11.68-3.15c-46.722,3.15-87.604-1.052-131.666-1.841
					c-5.697-0.008-11.459-0.023-17.134-0.005c-5.509,0.016-11.024,0.037-16.533,0.059c-6.217-0.152-12.427-0.289-18.632-0.412
					c-80.685-1.599-160.657-1.002-240.039,1.205c-3.285,0.092-6.587,0.17-9.9,0.241c-5.065-0.398-10.095-0.498-15.098-0.411
					c-5.058,0.131-10.112,0.469-15.027,0.824c-29.464,3.49-55.744,2.44-85.02,0.479c-5.464-0.411-10.933-0.673-16.402-0.819
					c-38.274-1.01-76.601,3.7-114.925,2.781c-4.38-0.526-9.579-0.508-15.112-0.479c-17.326,0.18-34.726,0.586-52.207,0.848
					c-6.134,0.134-12.49,0.286-18.278,0.325c-48.727,2.458-101.288,0.356-151.125-1.668c-4.871-0.006-10.446-0.134-15.68-0.198
					c-4.941-0.011-9.895-0.022-14.858-0.035c-2.837-0.01-5.677-0.018-8.521-0.028c-4.546,0.187-10.386,0.187-16.96-0.06
					c-3.027-0.016-5.904-0.027-8.787-0.043c-2.879-0.013-5.763-0.025-8.655-0.041c-4.77-0.003-9.379-0.003-13.922-0.003
					c-9.087,0-18.031,0-26.825,0c-4.397,0-8.751,0-12.82,0.006c-4.476-0.092-8.948-0.165-13.418-0.223
					c-4.47-0.058-8.936-0.098-13.398-0.123c-53.284,2.772-108.766,5.924-162.609,0.979c-6.752-0.183-12.494-0.283-18.403-0.447
					c-5.207-0.101-10.38-0.247-15.509-0.453c-5.41-0.178-10.742-0.39-16.09-0.642c-5.292-0.249-10.585-0.536-15.878-0.866
					c5.293,0,10.596,0,15.911,0c5.411,0,10.821,0,16.367-0.013c5.455,0.004,10.867,0.004,16.249,0.005
					c6.027,0.076,11.797,0.126,18.484,0.321c52.713,7.04,108.194,2.839,162.445-0.264c4.383,0.003,8.757,0.008,13.121,0.01
					c4.363,0.003,8.715,0.008,13.056,0.011c3.396-0.021,6.75-0.029,10.109-0.029c6.717,0,13.448,0.037,21.07,0.115
					c3.601,0,7.223,0,10.87,0c1.823,0,3.652,0,5.491,0c1.841,0,3.693,0,5.563,0c15.393-0.156,29.994-0.156,45.266-0.181
					c2.47,0.084,5.442,0.087,8.442,0.084c6-0.007,12.006-0.013,18.013-0.016c51.715,2.059,101.357,4.158,153.629,1.654
					c5.481,0.014,10.911,0.023,16.33,0.019c21.672-0.019,43.308-0.287,65.354-0.732c5.689,0.055,11.354,0.034,17.017-0.037
					c28.292-0.355,56.352-1.997,85.553-1.997c5.84,0,11.681-0.262,17.555-0.286c5.873-0.023,11.776,0.189,17.742,1.143
					c23.105-0.856,46.466,4.396,70.771-0.616c4.654-0.511,9.274-1.028,13.654-1.29c8.762,0,17.521-1.05,22.711,0.695
					c3.9,0.208,7.391,0.14,10.888,0.071c79.701-2.01,159.058-4.271,239.343-1.071c5.771-0.007,11.479-0.02,17.184-0.031
					c5.44-0.011,10.881-0.019,16.323-0.025c5.44-0.006,10.882-0.011,16.315-0.013c71.446,0.374,144.447,6.676,213.299-0.346
					c5.081-0.076,10.277-0.191,15.386-0.23c20.442-0.155,40.734,0.19,61.226,0.785c5.128,0.151,10.592,0.277,16.238,0.379
					c22.266-0.214,45.626-0.214,69.3-1.607L1717.437,33.139z"/>
				<path clip-path="url(#SVGID_2_)" fill="#B76915" d="M1719.928,41.783c-23.937,2.888-47.297,1.838-71.455,1.522
					c-5.259-0.195-10.513-0.378-15.765-0.542c-13.135-0.409-26.292-0.71-39.638-0.899c-4.448-0.062-8.96-0.104-13.653-0.085
					c-81.991,10.243-163.754,4.991-248.891,1.319c-4.648,0.002-9.314-0.051-13.859-0.129c-18.188-0.309-36.085-1.27-54.369-2.139
					c-6.188-0.008-12.594-0.095-18.771-0.073c-61.76,0.209-122.969,1.149-184.226,3.882c-2.789,0.009-5.572,0.016-8.36,0.024
					c-2.79,0.007-5.522-0.087-8.076-0.417c-44.771,1.474-82.732,4.626-126.619,0.011c-4.882-0.298-9.752-0.489-14.743-0.634
					c-24.211-0.521-48.529,0.862-73.099,1.517c-5.896,0.156-11.812,0.271-17.739,0.309c-24.312,0.107-48.243,0.508-72.117,0.754
					c-5.973,0.06-12.581,0.152-18.636,0.196c-60.546,2.474-118.948-0.679-180.027-1.723c-6.029,0-12.042,0.003-18.052,0.003
					c-18.03,0.007-36.029,0.016-54.317,0.028c-4.072-0.003-8.064-0.003-12.027-0.003s-7.852,0-11.397,0.011
					c-6.106-0.003-12.225-0.002-18.35,0.005c-6.561,0.008-13.842,0.019-19.88,0.031c-61.865-0.081-123.187-0.081-183.093,0.249
					c-6.101-0.037-12.19-0.081-18.267-0.138c-6.077-0.054-12.142-0.118-18.189-0.192c0,0,0-2.102,0-3.151
					c5.475,0.196,10.951,0.369,16.425,0.519c5.477,0.151,10.953,0.279,16.431,0.387c5.656,0.037,12.754,0.101,18.241,0.131
					c56.945,2.115,115.347,1.065,174.086-0.507c6.106-0.02,12.207-0.026,18.303-0.02c6.096,0.009,12.187,0.031,18.272,0.071
					c3.868,0,7.762,0,11.688,0c3.923,0,7.875,0,11.908,0.002c23.902,0.312,46.146,0.415,68.863,0.415
					c5.679,0,11.823,0.043,18.057,0.097c54.057,1.007,106.619,5.207,161.384,1.611c5.786-0.054,11.903-0.15,17.59-0.224
					c22.74-0.294,45.256-0.792,67.21-1.068c5.252,0.034,10.503,0,15.756-0.082c27.553-0.434,55.031-2.172,82.299-2.022
					c4.546,0.025,9.16,0.128,13.711,0.285c40.677,2.507,75.718,1.455,115.194-1.927c4.506-0.003,9.233,0.222,14.145,1.262
					c3.336,0.196,6.679,0.097,10.026-0.027c69.208-2.581,138.36-3.646,208.168-3.544c5.812,0.008,11.721,0.089,17.538,0.12
					c15.131,0.24,30.41,0.299,46.237,0.325c5.349,0.026,10.818,0.068,16.088,0.041c22.09-0.046,45.45,3.104,68.811,5.205
					c58.402,4.201,113.883-1.05,169.563-4.061c4.836,0.031,9.686,0.078,14.532,0.141c9.696,0.124,19.409,0.317,29.134,0.61
					c5.833,0.174,11.674,0.386,17.515,0.642c26.224,2.668,49.584-0.483,75.745-1.396L1719.928,41.783z"/>
				<path clip-path="url(#SVGID_2_)" fill="#B76915" d="M1720.943,51.193c-13.271-1.271-24.952,0.829-40.225,0.353
					c-4.045,0.763-8.982,0.62-14.185,0.305c-5.196-0.314-10.654-0.804-15.718-0.726c-5.543-0.155-11.122-0.33-16.705-0.506
					c-5.59-0.176-11.179-0.354-16.745-0.507c-5.565-0.155-11.11-0.291-16.597-0.383c-91.663,3.343-182.186,6.495-272.161,2.408
					c-5.354-0.175-10.755-0.422-16.556-0.736c-26.093-1.419-52.129-3.983-79.39-4.388c-5.691,0.027-11.385,0.071-17.07,0.127
					c-39.838,0.396-79.634,1.495-119.738,3.882c-5.533,0.067-11.134,0.115-16.74,0.162c-5.132,0.04-10.271,0.081-15.404,0.12
					c-5.139,0.039-10.459,0.107-16.18,0.25c-46.516,1.518-93.237,3.62-141.128,0.471c-5.207-0.023-10.322-0.037-15.484-0.066
					c-24.434,0.054-47.435,0.076-71.559,0.147c-5.898,0.019-12.099,0.037-17.605,0.062c-21.915-0.06-43.94-0.094-66.041-0.122
					c-5.523-0.008-12.188-0.016-17.812-0.021c-55.615-0.003-111.097-0.003-167.474-0.271c-5.451-0.01-11.612-0.022-17.494-0.035
					c-27.548-0.051-55.061-0.103-82.528-0.149c-5.563,0.002-11.119,0.01-16.674,0.021s-11.109,0.023-16.663,0.037
					c-6.142-0.032-11.89-0.035-18.595-0.132c-54.477-3.675-109.958-2.623-164.238,0.604c-5.355-0.211-10.701-0.465-16.036-0.767
					c-10.671-0.607-21.301-1.411-31.887-2.461c12.319,0.146,24.581,0.314,36.8,0.487c4.182,0.052,9.257,0.057,13.271,0.114
					c57.972-3.754,119.294-1.653,176.436-0.373c6.403,0.021,12.834,0.042,18.877,0.049c5.493,0.006,10.989,0.013,16.484,0.021
					c27.675,0.186,55.34,0.34,82.995,0.466c5.532,0.025,11.062,0.048,16.594,0.071c61.954,0.214,123.276,2.313,185.409,1.036
					c5.554-0.013,11.118-0.034,16.692-0.062c16.719-0.087,33.51-0.249,50.369-0.479c5.076,0.313,11.43,0.44,17.475,0.464
					c24.554,0.097,50.447-1.75,75.89-1.571c5.372,0.089,10.579,0.233,15.746,0.497c47.863,4.529,94.584-0.72,140.534-0.914
					c6.45-0.062,13.341-0.201,19.819-0.264c5.618-0.053,11.226-0.109,16.82-0.168c51.893-2.676,103.09-3.806,154.818-3.984
					c5.942,0.048,11.84,0.092,17.977,0.274c14.83,1.626,29.436,2.938,44.167,3.722c4.911,0.262,9.833,0.465,14.783,0.602
					c94.475,5.262,187.918,4.212,281.714-1.233c5.754,0.087,11.526,0.22,17.314,0.371c17.366,0.453,34.882,1.082,52.396,1.289
					c4.181-0.021,8.543,0.003,12.906-0.062c10.472,0.698,25.071-1.403,38.154-1.077L1720.943,51.193z"/>
				<path clip-path="url(#SVGID_2_)" fill="#B76915" d="M1720.076,58.619c-35.766,1.805-67.886,1.805-103.947-0.806
					c-6.012-0.181-12.946-0.361-18.404-0.57c-94.458,0.031-184.98,1.081-278.675,2.657c-5.332-0.118-10.613-0.28-15.9-0.479
					c-21.153-0.791-42.519-2.131-64.116-3.521c-5.862-0.071-11.173-0.045-16.613-0.029c-35.761,0.396-71.358,1.145-106.827,1.759
					c-5.783,0.009-11.56,0.017-17.343,0.028c-6.298,0.009-12.594,0.019-18.891,0.03c-6.866,0.047-13.995,0.115-20.194,0.128
					c-55.23,1.558-113.632,1.558-168.852,0.319c-6.417,0.005-12.753,0.021-19.06,0.036c-6.885,0.017-13.735,0.032-20.624,0.05
					c-6.918,0.017-13.809,0.031-20.697,0.047c-6.547,0.016-13.087,0.031-19.632,0.043c-6.542,0.016-13.231,0.02-20.995-0.079
					c-17.08-0.917-34.293-1.275-51.551-1.322c-6.172-0.041-12.713-0.065-18.394-0.021c-54.155-1.714-112.557,0.386-167.852,1.548
					c-5.458,0.003-11.274,0.025-16.654,0.014c-32.276-0.061-64.515-0.158-96.706-0.3c-5.172-0.088-10.345-0.178-15.521-0.27
					c-6.209-0.111-12.427-0.23-18.711-0.366c-57.001-4.442-112.483-8.642-168.089-0.651c-5.881-0.047-11.705-0.115-17.524-0.186
					c-11.641-0.142-23.278-0.293-34.913-0.453c11.122,0,22.246,0,33.372,0c5.563,0,11.126,0,16.716-0.009
					c57.956-5.243,113.438-6.293,171.676-0.826c6.465,0.072,12.859,0.134,19.244,0.195c5.322,0.051,10.644,0.104,15.969,0.16
					c29.527,0.05,59.09,0.097,88.676,0.136c5.919,0.008,11.837,0.017,17.756,0.023c57.083-0.729,115.484-2.832,174.952-0.949
					c5.61,0.036,11.614,0.097,17.153,0.151c22.14,0.215,44.377,0.595,66.643,0.945c3.852,0.019,7.723,0.036,11.213,0.036
					c20.727,0.137,44.088,0.137,63.319-0.047c6.559,0.034,13.488,0.04,21.25,0.121c55.882,2.162,108.442,1.112,162.891-0.196
					c4.199-0.009,8.346-0.016,12.492-0.021c8.286-0.01,16.572-0.019,24.858-0.031c5.796-0.006,11.566-0.019,17.247-0.053
					c35.331-1.679,71.415-2.424,107.62-2.583c5.55,0.038,11.031,0.08,16.99,0.237c17.504,1.804,35.013,3.374,52.607,4.352
					c5.869,0.326,11.742,0.586,17.635,0.765c96.151,0.743,195.434-3.456,291.659-3.415c6.233,0.199,12.61,0.479,18.713,0.623
					c31.065,1.436,63.187,2.485,96.539,0.716L1720.076,58.619z"/>
				<path clip-path="url(#SVGID_2_)" fill="#B76915" d="M1719.673,59.627c-35.362,1.849-73.322,2.899-108.54-0.932
					c-6.159-0.134-12.958-0.377-19.579-0.487c-88.287-0.934-175.891,0.116-264.621,3.234c-5.162-0.09-10.78-0.205-16.443-0.359
					c-26.08-0.89-52.214-2.696-78.203-3.684c-5.081,0.021-10.882-0.011-15.896,0.037c-30.085,0.294-59.946,0.807-89.335,1.387
					c-5.893,0.015-11.799,0.027-17.708,0.042c-6.165,0.014-12.336,0.029-18.501,0.043c-6.172,0.016-12.343,0.03-18.514,0.049
					c-62.559,1.467-123.881,1.467-185.345,0.551c-6.183,0.016-12.364,0.034-18.553,0.049c-18.548,0.048-37.106,0.092-55.657,0.126
					c-7.006-0.023-13.729-0.025-20.923-0.081c-16.973-0.698-33.58-1.094-50-1.267c-5.475-0.058-10.928-0.092-16.365-0.103
					c-60.284-2.008-124.526,0.092-185.577,1.079c-5.847-0.034-11.696-0.071-17.541-0.108c-29.233-0.19-58.438-0.437-87.611-0.748
					c-5.626-0.079-11.241-0.159-16.846-0.236c-6.167-0.084-13.106-0.293-19.287-0.393c-54.631-8.953-110.112-3.704-164.313-0.062
					c-6.038-0.033-12.017-0.084-17.991-0.141c-11.948-0.111-23.899-0.227-35.851-0.349c11.725,0.065,23.446,0.125,35.165,0.184
					c5.859,0.03,11.719,0.057,17.628,0.069c55.25-6.555,113.652-5.505,168.02-0.172c6.329,0.097,12.593,0.18,18.841,0.256
					c5.206,0.065,10.415,0.131,15.623,0.194c28.78,0.16,57.573,0.294,86.379,0.4c5.76,0.021,11.522,0.044,17.284,0.062
					c61.553-0.994,125.794-3.094,185.972-1.109c5.424,0.01,10.854,0.044,16.307,0.097c16.352,0.168,32.855,0.547,49.684,1.225
					c6.879,0.024,13.537,0.024,20.498,0.047c18.461-0.023,36.921-0.054,55.388-0.091c6.16-0.013,12.314-0.025,18.473-0.037
					c62.72,0.975,124.042,2.024,184.821-0.611c6.165-0.024,12.33-0.051,18.497-0.077c6.165-0.028,12.329-0.057,18.494-0.084
					c5.91-0.028,11.81-0.057,17.657-0.097c28.989-0.885,57.78-1.732,86.502-2.267c4.789-0.089,9.723-0.149,14.645-0.201
					c27.496,0.057,54.388,2.184,81.5,3.523c5.842,0.257,11.629,0.483,17.031,0.664c87.864-0.926,178.387-3.025,266.594-3.246
					c6.599,0.093,13.044,0.204,19.23,0.339c35.646,1.981,73.606,1.981,109.589,1.502L1719.673,59.627z"/>
				<path clip-path="url(#SVGID_2_)" fill="#B76915" d="M1706.675,71.704c-34.899,2.997-68.326,0.155-102.346-1.61
					c-4.859-0.253-9.786-0.489-15.045-0.727c-83.097-7.892-167.779-5.791-253.74-1.249c-6.006-0.056-12.65-0.056-19.139-0.043
					c-29.631-0.345-59.235-0.393-89.252,0.563c-4.5,0.006-9.331,0.034-13.784,0.065c-8.903,0.061-17.834,0.178-26.795,0.374
					c-5.229-0.013-10.471-0.022-15.707-0.03c-28.812-0.042-57.631,0-86.454,0.102c-5.766,0.021-11.527,0.044-17.292,0.068
					c-60.268-0.389-121.588-2.492-182.717,0.19c-5.321,0.021-10.637,0.05-15.946,0.081c-15.94,0.097-31.87,0.233-47.787,0.397
					c-6.632,0.068-13.284,0.127-19.98,0.173c-5.256-0.418-11.035-0.843-16.297-1.062c-21.632-2.71-41.939-2.228-62.271-0.775
					c-5.083,0.361-10.403,0.731-15.531,1.165c-50.146,2.592-93.947-0.558-144.602,2.576c-4.992-0.022-9.985-0.054-14.98-0.091
					c-14.986-0.113-29.991-0.293-45.019-0.551c-5.911-0.057-11.821-0.119-17.733-0.185c-5.91-0.068-11.821-0.14-17.732-0.215
					c-11.565,0.007-23.245,1.057-35.47-0.526c-5.811-0.032-11.618-0.068-17.396-0.112c-8.086-0.168-16.137-0.346-24.164-0.524
					c-4.014-0.089-8.021-0.18-12.031-0.276c-18.866-0.653-33.467-4.856-48.068-3.807c-23.36,0-46.721,3.153-71.357,2.141
					c-4.002,0.013-8.003,0.029-12.008,0.056c-8.011,0.057-16.046,0.149-24.112,0.293c-4.963,0.087-9.937,0.193-14.912,0.321
					c-14.854,0.343-29.455-1.761-44.055-0.709c14.6,0,29.201,0,44.078-0.002c5.016-0.208,10.021-0.394,15.018-0.559
					c8.119-0.267,16.212-0.479,24.289-0.642c4.038-0.081,8.34-0.238,12.38-0.309c47.319-5.843,82.359-4.791,128.203,0.802
					c4.909,0.078,9.829,0.159,14.764,0.237c4.935,0.077,9.885,0.157,14.85,0.231c5.483,0.083,10.989,0.164,16.515,0.238
					c35.958,0.269,71.939,0.434,107.944,0.523c5.144,0.013,10.287,0.025,15.432,0.034c53.298-4.757,108.78-1.607,160.951-3.346
					c5.436-0.296,10.818-0.566,16.187-0.769c21.466-0.811,42.802-0.499,64.347,3.096c6.858-0.003,13.663-0.019,20.454-0.037
					c16.314-0.044,32.608-0.075,48.891-0.09c5.424-0.004,10.848-0.007,16.271-0.008c59.087-0.454,117.489-0.454,176.814,0.02
					c5.184-0.005,11.104,0.019,16.802,0.034c26.258-0.011,52.526,0.007,78.807,0.062c5.253,0.011,10.511,0.022,15.764,0.038
					c14.155-0.373,28.522-0.607,43.031-0.734c5.076-0.046,11.059-0.086,15.844-0.106c26.84-0.408,54.124-0.087,81.151,0.358
					c5.697,0.055,11.315,0.118,16.66,0.212c90.186-4.536,180.708-6.639,272.007,0.66c5.201,0.207,10.432,0.474,15.689,0.764
					c31.517,1.733,63.763,4.33,94.206,0.543L1706.675,71.704z"/>
				<path clip-path="url(#SVGID_2_)" fill="#B76915" d="M1701.403,75.623c-30.34,1.993-62.559,0.72-93.539-0.735
					c-5.166-0.243-10.294-0.492-15.376-0.729c-83.382-7.434-173.904-11.633-262.487-3.753c-5.989,0.042-11.977,0.126-17.965,0.242
					c-29.943,0.58-59.856,1.931-89.018,2.53c-6.354,0.102-12.725,0.25-19.123,0.457c-5.1-0.013-10.231-0.028-15.359-0.044
					c-36.935-0.115-73.879-0.141-110.825-0.109c-6.158,0.007-12.729-0.034-18.974-0.046c-57.723-2.508-113.204-2.508-170.967-0.462
					c-5.487-0.012-10.969-0.019-16.455-0.023c-16.454-0.011-32.908,0.012-49.361,0.058c-6.854,0.02-13.753,0.01-20.688-0.011
					c-4.597-0.521-9.168-0.911-13.746-1.199c-25.345-3.17-50.817-1.076-76.628,1.207c-5.235,0.434-10.558,0.848-15.73,1.277
					c-21.195,1.897-41.636-0.204-59.157-1.254c-17.52-2.101-37.961,1.05-54.387,1.13c-6.051,0.124-11.999,0.177-18.105,0.283
					c-64.581,0.23-129.136,0.131-193.661-0.819c-3.48-0.05-6.959-0.103-10.439-0.159c-24.175-4.635-47.535-0.435-70.366,0.449
					c-4.589-0.021-9.232-0.203-13.893-0.698c-2.885-0.336-5.964-0.375-9.065-0.38c-34.305,0.194-68.721,0.194-103.136,0.194
					c29.201,0,58.402,1.05,88.538-0.824c2.675-0.046,5.355-0.087,8.042-0.124c2.685-0.037,5.375-0.071,8.07-0.1
					c4.946,0.523,10.038,0.707,15.085,0.741c29.19-1.794,52.55-4.945,83.019-0.433c5.466,0.071,10.921,0.147,16.373,0.227
					c5.452,0.081,10.895,0.166,16.324,0.25c5.43,0.087,10.848,0.174,16.284,0.263c45.047,0.249,89.964,0.264,134.821,0.157
					c5.607-0.012,11.214-0.027,16.842-0.056c43.375-3.252,90.096-0.102,133.436-0.539c5.375-0.455,10.844-0.929,16.126-1.439
					c21.108-2.037,41.822-3.849,64.268-1.171c5.741,0.358,11.876,1,17.483,1.759c7.36,0.386,14.152,0.409,20.891,0.396
					c16.171-0.031,32.357-0.043,48.555-0.035c5.4,0.003,10.802,0.008,16.202,0.017c65.143-1.189,126.465-1.189,190.798,0.296
					c6.308-0.006,12.616-0.009,18.923-0.013c31.544-0.012,63.101,0.02,94.668,0.109c5.259,0.016,10.521,0.033,15.718,0.034
					c3.872-0.199,7.768-0.361,11.681-0.489c3.912-0.127,7.847-0.221,11.8-0.288c27.222-0.945,55.437-1.942,83.729-2.213
					c5.664-0.057,11.327-0.081,16.985-0.072c88.052-5.906,175.655-4.856,261.468,2.976c4.551,0.196,9.387,0.448,14.086,0.682
					c32.902,1.63,68.205,3.695,100.27,0.924L1701.403,75.623z"/>
				<path clip-path="url(#SVGID_2_)" fill="#B76915" d="M1696.636,81.252c-36.335,0.157-72.175,0.178-108.772-0.246
					c-5.224-0.06-10.58-0.167-15.866-0.259c-77.49-5.616-156.334-5.616-237.873-5.115c-6.018,0.013-12.011,0.109-18.027,0.287
					c-24.063,0.713-48.403,2.741-73.738,5.221c-5.15-0.056-11.024,0.03-16.408,0.019c-51.957-0.108-104.046-0.121-156.217-0.077
					c-5.794,0.003-11.595,0.009-17.391,0.016c-51.328-2.816-103.891-0.714-157.137-0.234c-5.863-0.021-11.719-0.037-17.577-0.053
					c-17.571-0.047-35.132-0.074-52.687-0.084c-6.714-0.042-13.422-0.083-20.432-0.652c-9.275-0.974-18.604-1.507-27.974-1.693
					c-4.686-0.094-9.425-0.123-14.132-0.06c-24.197-0.04-47.559,2.062-70.919,5.212c-3.649,0.264-7.482,0.46-11.417,0.573
					c-5.903,0.171-12.04,0.152-18.14-0.115c-6.097-0.271-12.21-0.903-17.925-1.645c-10.92-1.963-25.52-0.913-38.07-1.144
					c-6.196,0.031-12.43,0.084-18.629,0.109c-74.401,0.307-148.805,0.632-223.331,0.71c-3.493-0.016-6.987-0.033-10.145-0.327
					c-30.272-1.312-56.554,2.89-84.972,0.268c-3.526-0.009-7.052-0.019-10.579-0.027c-31.74-0.094-63.514-0.254-95.327-0.502V78.28
					c32.16-0.123,64.36-0.248,96.594-0.368c3.582-0.012,7.163-0.027,10.745-0.04c18.225,1.459,35.745,1.459,53.266-0.642
					c4.38-1.05,9.489-1.578,15.059-1.583c5.57-0.006,11.596,0.504,17.812,1.523c3.515,0.343,7.096,0.354,10.68,0.364
					c64.292-0.208,128.684-0.38,193.12-0.479c5.859-0.009,11.716-0.019,17.574-0.024c37.764-2.952,75.725,1.249,112.422,0.847
					c4.614-0.336,9.193-0.729,13.756-1.139c22.814-2.054,45.162-4.543,68.249-2.433c3.755,0.26,7.552,0.594,11.369,0.94
					c11.075,0.907,22.282,1.931,34.471,1.877c6.835,0.016,13.673,0.034,20.504,0.054c11.961,0.032,23.92,0.069,35.881,0.111
					c5.977,0.022,12.222-0.003,18.443-0.024c52.637-2.134,105.197-2.134,158.872,0.433c5.977,0.031,12.381,0.122,18.295,0.128
					c47.343,0.036,94.742,0.11,142.238,0.238c5.088,0.013,10.181,0.026,15.251,0.036c3.81,0.019,7.699,0.024,12.067-0.057
					c25.244-1.98,50.27-3.76,75.307-4.383c6.257-0.155,12.524-0.239,18.839-0.255c84.818-3.526,169.501-1.427,254.867,4.975
					c5.214,0.053,10.455,0.131,15.707,0.218c31.539,0.533,63.626,1.508,93.432,0.683L1696.636,81.252z"/>
				<path clip-path="url(#SVGID_2_)" fill="#B76915" d="M1698.308,88.376c-43.197-2.742-84.079,1.458-129.174,1.405
					c-5.07,0.002-10.152,0-15.302-0.037c-5.224-0.122-10.461-0.301-15.655-0.477c-58.271-4.684-119.593-2.583-177.225-4.025
					c-5.229-0.065-10.402-0.035-15.542,0.065c-30.82,0.604-60.283,3.804-92.717,4.782c-6.781,0.047-13.551,0.078-20.321,0.098
					c-60.905,0.203-121.77-0.155-182.556-0.373c-6.758-0.023-13.511-0.046-20.263-0.067c-31.46-0.963-66.501-0.963-98.097,0.003
					c-5.635-0.112-11.436-0.139-17.179-0.189c-28.619-0.309-57.261-0.512-85.932-0.639c-6.865-0.065-13.741-0.128-20.499-0.627
					c-40.438-6.862-81.32,0.489-122.2,3.643c-14.602,1.05-29.202,0-42.798-1.868c-7.274-0.767-14.267-1.023-21.18-1.048
					c-89.631,0.333-179.29,0.851-268.738,0.81c-3.502-0.001-7.005-0.003-10.507-0.006c-18.867,0.009-36.388,0.009-52.473-0.122
					c-3.525-0.016-7.031-0.031-10.529-0.048c-34.976-0.157-69.912-0.435-104.79-0.871c31.607-0.255,63.172-0.479,94.706-0.676
					c3.504-0.021,7.008-0.04,10.511-0.062c20.347,0.738,43.708-1.361,63.579-0.492c3.007,0.122,6.47,0.112,9.935,0.106
					c86.417-0.393,172.683-0.573,259.05-0.568c6.643,0,13.287,0.001,19.931,0.004c21.183,3.79,41.623,3.79,62.063,1.688
					c40.882-3.15,78.842-7.352,117.609-1.433c6.659,0.063,13.325,0.103,19.998,0.125c25.009,0.085,50.052,0.182,75.123,0.292
					c5.082-0.003,10.169-0.012,15.177,0.013c40.738-1.097,81.62-1.097,121.525-0.165c6.178-0.028,12.359-0.055,18.535-0.082
					c55.614-0.248,111.265-0.507,166.924-0.681c6.182-0.02,12.375-0.041,18.597-0.077c30.029-0.715,60.684-3.854,90.899-4.344
					c6.04-0.097,12.108-0.104,18.068,0.065c61.721,5.236,125.963,3.136,190.9,4.947c5.11,0.05,10.243,0.116,15.354,0.168
					c4.744-0.003,9.49-0.006,14.234-0.01c39.798,0.131,77.759-4.071,119.672-1.143L1698.308,88.376z"/>
				<path clip-path="url(#SVGID_2_)" fill="#B76915" d="M1701.376,91.795c-40.426-4.061-81.307,1.192-122.017,1.313
					c-5.378-0.003-10.757-0.008-16.152-0.021c-46.225-1.399-92.746-1.858-139.479-1.823c-5.841,0.007-11.687,0.02-17.543,0.031
					c-4.933,0.159-9.542,0.085-13.956-0.139c-4.414-0.223-8.635-0.588-12.792-1.008c-10.495-0.314-19.255-4.515-28.015-2.414
					c-29.202,5.253-52.562,5.253-84.934,4.879c-6.195,0.087-12.388,0.165-18.581,0.241c-74.292,0.917-148.878,1.686-223.447,0.565
					c-4.448,0-8.903,0-13.358,0c-21.769-0.433-39.29-0.433-60.951-0.355c-4.95,0-9.911,0.025-14.867,0.05
					c-14.834,0.041-29.662,0.144-44.851,0.306c-4.466,0-8.927,0-13.386,0c-3.343,0-6.686,0-10.026,0c-3.343,0-6.679,0-10.009,0
					c-6.675-0.106-13.347-0.202-20.02-0.293c-6.673-0.087-13.346-0.168-20.026-0.243c-23.278,0.104-43.718-5.149-67.079-3.05
					c-37.959,3.153-75.921,7.354-112.898,3.068c-7.066-0.485-13.785-0.504-20.473-0.48c-147.128,0.553-294.505,2.231-441.884-0.484
					c38.262-0.172,76.6-0.396,114.989-0.641c3.491-0.021,6.981-0.045,10.472-0.067c11.783-0.344,20.543-0.344,31.449-0.205
					c3.479-0.023,6.965-0.047,10.46-0.068c90.839-0.602,181.906-1.222,272.878-1.384c7.018,0.028,14.032,0.058,21.275,0.607
					c14.45,1.758,29.05,1.758,43.649,1.758c40.883,1.05,81.763-9.455,124.062-2.654c6.727,0.726,13.682,0.828,20.63,0.935
					c20.918,0.187,41.816,0.417,62.689,0.699c3.36-0.002,6.707-0.005,10.039-0.007c6.66-0.004,13.266-0.006,19.829-0.009
					c6.56-0.003,13.146-0.042,19.637-0.044c26.36,1.08,49.721-1.023,75.13,0.609c6.746,0.053,13.597,0.152,20.354,0.178
					c67.566,0.244,135.344-0.355,203.092-0.976c6.775-0.062,13.551-0.124,20.344-0.197c25.729-2.737,49.089-0.638,75.37-3.787
					c8.76-1.576,19.163-1.38,30.455-0.517c3.764,0.286,7.624,0.649,11.561,1.043c48.507,3.675,101.067,2.623,151.679,3.06
					c5.544,0.081,11.092,0.175,16.631,0.274c5.543,0.097,11.08,0.202,16.613,0.317c5.55,0.023,11.048,0.023,16.546,0.021
					c39.762,1.054,83.564-5.25,124.69-1.477L1701.376,91.795z"/>
				<path clip-path="url(#SVGID_2_)" fill="#B76915" d="M1708.146,98.952c-35.515-3.865-73.475-0.713-107.438,1.109
					c-5.745,0.154-11.053,0.168-16.283,0.159c-68.458-6.33-135.14-3.1-204.897-1.025c-3.289,0.087-6.592,0.172-9.484,0.044
					c-24.462,0.05-50.741,2.149-74.656,0.746c-3.21,0-6.438,0-9.673,0c-145.746,0-312.007,0-470.729,0
					c-6.852-0.03-13.69-0.062-19.728-0.597c-4.487-2.201-16.168-1.149-22.009-1.149c-43.801-2.103-87.602,6.302-130.894,0.974
					c-6.991-0.385-13.454-0.419-19.87-0.419c-102.634,0.027-204.512,1.194-307.689,0.495c-40.881,0-84.682,4.199-128.483,0
					c143.083-0.735,284.736-2.502,427.183-2.56c6.782-0.001,13.569-0.001,20.356,0.005c10.912-0.598,22.593,1.505,34.273,2.555
					c43.803,2.1,84.683-8.403,129.742-1.991c3.786,0.515,8.194,0.515,12.607,0.515c141.217,0,288.623,0,422.41,0
					c4.181,0,8.344,0,12.501,0c13.825,0.317,25.493,0.398,37.255,0.239c1.956-0.027,3.923-0.061,5.896-0.1
					c1.974-0.04,3.964-0.087,5.972-0.14c10.191,0.427,21.872,2.526,30.632,1.477c3.65-0.526,7.493-1.075,11.457-1.539
					c11.903-2.663,26.504-1.613,38.185-0.645c3.347-0.075,6.696-0.153,10.043-0.234c30.108-0.734,60.039-1.784,89.239-2.834
					c32.122-1.05,64.242,3.15,98.639,3.622c5.76-0.009,12.347-0.177,18.039-0.187c38.087-0.285,76.048-5.535,115.178-1.006
					L1708.146,98.952z"/>
			</g>
		</g>
	</g>
	<g>
		<path fill="#D2EFFC" d="M211.759,98.013c0,0,19.172-30.447,47.756-10.892c13.59,9.297,14.979,22.863,14.979,22.863
			s5.155-8.014,11.696-6.383c8.506,2.12,4.784,11.168,4.784,11.168s7.443,0.532,9.038,6.912c1.595,6.38-9.038,13.291-9.038,13.291
			s14.829-3.673,22.861,2.659c8.507,6.705,9.57,21.527,9.57,21.527s18.887-25.487,43.596-24.187
			c40.405,2.126,31.163,37.214,31.163,37.214s19.36-5.07,33.698,0c14.34,5.07,19.672,22.386,19.672,22.386s2.659-15.38,22.33-15.38
			c6.228,0,9.133,3.779,9.133,3.779s18.67-43.876,53.503-33.171c39.974,12.286,25.573,48.84,25.573,48.84s27.159-15.638,46.831,0
			c19.671,15.638,1.702,68.715,1.702,68.715H211.759V98.013z"/>
		<circle fill="#A7E0F9" cx="429.491" cy="62.937" r="15.089"/>
		<circle fill="#A7E0F9" cx="630.729" cy="154.03" r="21.717"/>
		<circle fill="#A7E0F9" cx="663.955" cy="212.587" r="13.946"/>
		
			<path fill="#A7E0F9" stroke="#111111" stroke-width="2" stroke-linecap="round" stroke-linejoin="round" stroke-miterlimit="10" d="
			M367.002,132.328c0,0-3.766-43.38,29.241-37.229c31.368,5.846,20.1,32.198,20.1,32.198s2.359-6.394,7.545-5.084
			c5.187,1.311,3.723,5.891,3.723,5.891s16.396-32.372,44.904-22.382c36.438,12.771,14.642,47.927,14.642,47.927
			s2.966-6.979,9.724-2.726c6.756,4.253,3.035,8.507,3.035,8.507l-17.73,42.001l-74.777,8.506l-46.786-40.606L367.002,132.328z"/>
		<g>
			<path fill="#111111" d="M631.767,128.105c-13.292,1.017-24.457,10.587-26.052,24.941c-1.595,12.76,7.975,23.925,19.14,25.52
				c7.973,1.595,14.354,0,20.733-3.189c6.381-3.19,10.006-9.552,11.697-16.481c2.051-8.399-0.531-10.634-0.531-15.418
				c-1.596-6.38-7.975-9.57-14.971-13.519C638.714,128.726,635.331,128.061,631.767,128.105z M631.117,172.964
				c-5.514,0.087-10.465-2.028-14.014-5.523c-3.547-3.496-5.693-8.364-5.601-13.752c0.094-5.388,2.412-10.275,6.084-13.833
				c3.673-3.558,8.699-5.789,14.211-5.854c5.512-0.064,10.467,2.048,14.018,5.511c3.551,3.462,5.697,8.281,5.605,13.65
				c-0.094,5.369-2.408,10.275-6.084,13.862C641.663,170.613,636.63,172.878,631.117,172.964z"/>
		</g>
		<path fill="#111111" d="M373.913,192.612c0,0,16.85-36.456,55.823-24.992c39.343,11.572,18.608,56.137,18.608,56.137
			s9.665-43.703-21.798-50.402C392.403,166.084,373.913,192.612,373.913,192.612z"/>
		<path fill="#111111" d="M317.025,175.647c0,0,5.733-41.253,48.913-43.335c41.424-1.997,33.101,39.663,33.101,39.663l-4.923,2.975
			c0,0,8.893-40.473-29.772-37.321C324.971,140.838,317.025,175.647,317.025,175.647z"/>
		<g>
			<path fill="#111111" d="M663.952,198.641c-7.701,0-13.943,6.243-13.943,13.943c0,7.699,6.242,13.942,13.943,13.942
				c7.699,0,13.941-6.243,13.941-13.942C677.894,204.884,671.651,198.641,663.952,198.641z M663.952,225.23
				c-6.105,0-11.053-4.949-11.053-11.052c0-6.105,4.947-11.054,11.053-11.054c6.104,0,11.053,4.948,11.053,11.054
				C675.005,220.281,670.056,225.23,663.952,225.23z"/>
		</g>
		<g>
			<path fill="#111111" d="M415.645,55.461c-4.294,7.902-1.37,17.786,6.532,22.081c7.898,4.292,17.784,1.369,22.078-6.533
				c4.295-7.899,1.37-17.786-6.529-22.078C429.825,44.636,419.939,47.56,415.645,55.461z M441.332,70.288
				c-3.404,6.263-11.24,8.58-17.502,5.179c-6.265-3.405-8.582-11.242-5.18-17.506c3.405-6.263,11.242-8.58,17.507-5.176
				C442.417,56.188,444.736,64.023,441.332,70.288z"/>
		</g>
		<path fill="#111111" d="M367.002,118.492c0,0,4.784-28.714,29.772-26.054s22.33,26.054,22.33,26.054s-2.072-20.479-26.011-20.479
			C373.913,98.013,367.002,118.492,367.002,118.492z"/>
		<path fill="#111111" d="M211.759,98.013c0,0,13.823-22.267,35.089-18.438s29.135,19.658,29.241,30.41
			c0.17,17.312-17.544,22.328-17.544,22.328s17.107-6.223,13.823-23.391c-3.284-17.167-13.778-22.65-28.358-25.84
			C229.642,79.938,211.759,98.013,211.759,98.013z"/>
		<path fill="#6CC1D8" d="M338.383-0.726c0,0-3.457,23.127-2.393,23.792c1.064,0.666,2.792,0.531,3.058,0
			C339.313,22.536,338.383-0.726,338.383-0.726z"/>
		<path fill="#6CC1D8" d="M371.528,30.478c0,0-23.297-2.003-23.895-0.9c-0.598,1.104-0.356,2.819,0.19,3.052
			C348.371,32.861,371.528,30.478,371.528,30.478z"/>
		<path fill="#6CC1D8" d="M337.133,62.604c0,0,2.808-23.214,1.727-23.85c-1.082-0.636-2.805-0.453-3.056,0.086
			C335.552,39.378,337.133,62.604,337.133,62.604z"/>
		<path fill="#6CC1D8" d="M304.473,29.385c0,0,23.146,3.319,23.806,2.252c0.659-1.067,0.515-2.794-0.019-3.056
			C327.729,28.317,304.473,29.385,304.473,29.385z"/>
		<path fill="#111111" d="M29.895,115.129c0,0-1.875,12.551-1.299,12.911c0.578,0.361,1.516,0.288,1.66,0
			S29.895,115.129,29.895,115.129z"/>
		<path fill="#111111" d="M47.881,132.062c0,0-12.643-1.087-12.967-0.488s-0.192,1.53,0.104,1.656
			C35.314,133.355,47.881,132.062,47.881,132.062z"/>
		<path fill="#111111" d="M29.217,149.496c0,0,1.523-12.598,0.937-12.942s-1.522-0.246-1.658,0.047
			C28.359,136.892,29.217,149.496,29.217,149.496z"/>
		<path fill="#111111" d="M11.493,131.469c0,0,12.561,1.802,12.919,1.223c0.357-0.58,0.279-1.517-0.01-1.658
			C24.113,130.89,11.493,131.469,11.493,131.469z"/>
		<g>
			
				<path fill="#C6E9F4" stroke="#111111" stroke-width="2" stroke-linecap="round" stroke-linejoin="round" stroke-miterlimit="10" d="
				M608.905,198.641c-19.672-15.638-46.831,0-46.831,0s14.4-36.554-25.573-48.84c-34.833-10.705-53.503,33.171-53.503,33.171
				s-2.905-3.779-9.133-3.779c-19.671,0-22.33,15.38-22.33,15.38s-5.332-17.315-19.672-22.386c-14.338-5.07-33.698,0-33.698,0
				s9.243-35.088-31.163-37.214c-24.709-1.301-43.596,24.187-43.596,24.187s-1.063-14.822-9.57-21.527
				c-8.032-6.332-22.861-2.659-22.861-2.659s10.633-6.911,9.038-13.291c-1.595-6.38-9.038-6.912-9.038-6.912
				s3.722-9.048-4.784-11.168c-6.541-1.631-11.696,6.383-11.696,6.383s-1.39-13.566-14.979-22.863
				c-28.584-19.556-47.756,10.892-47.756,10.892s-12.458-16.064-32-16.064c-32.5,0-38,34.279-38,34.279s-14.5-23.963-44.5-8.5
				c-15.084,7.775-11.5,33.445-11.5,33.445s-5-1.945-8,0.555s-2,9.416-2,9.416s-47-6.807-63.5,39.584c-14.67,41.246,17,67.5,17,67.5
				s-16.083-12.668-26.5,0c-5.345,6.5-4.548,9.128-4.548,9.128h213.548h17.876h380.972
				C610.607,267.355,628.576,214.278,608.905,198.641z"/>
		</g>
		<circle opacity="0.4" fill="#FFFFFF" cx="434.447" cy="59.568" r="3.667"/>
		<circle opacity="0.4" fill="#FFFFFF" cx="638.589" cy="147.121" r="5.432"/>
		<circle opacity="0.4" fill="#FFFFFF" cx="645.552" cy="154.489" r="2.135"/>
		<path opacity="0.4" fill="#FFFFFF" d="M487.398,125.663c0,3.602-2.918,6.515-6.514,6.515c-3.6,0-6.514-2.913-6.514-6.515
			c0-3.595,2.914-6.513,6.514-6.513C484.48,119.15,487.398,122.068,487.398,125.663z"/>
		<path opacity="0.4" fill="#FFFFFF" d="M411.065,111.891c0,2.729-2.211,4.938-4.937,4.938c-2.728,0-4.937-2.208-4.937-4.938
			c0-2.724,2.208-4.936,4.937-4.936C408.854,106.955,411.065,109.167,411.065,111.891z"/>
		<circle opacity="0.4" fill="#FFFFFF" cx="470.755" cy="115.867" r="3.977"/>
		<path opacity="0.5" fill="#FFFFFF" d="M261.171,101.884c0,2.729-2.211,4.938-4.937,4.938c-2.728,0-4.937-2.208-4.937-4.938
			c0-2.724,2.208-4.936,4.937-4.936C258.96,96.948,261.171,99.16,261.171,101.884z"/>
		<circle opacity="0.5" fill="#FFFFFF" cx="246.671" cy="93.67" r="3.135"/>
		<path opacity="0.5" fill="#FFFFFF" d="M610.291,216.872c0,3.65-2.957,6.604-6.604,6.604c-3.648,0-6.604-2.954-6.604-6.604
			c0-3.644,2.955-6.603,6.604-6.603C607.333,210.27,610.291,213.229,610.291,216.872z"/>
		<circle opacity="0.5" fill="#FFFFFF" cx="593.894" cy="205.884" r="4.193"/>
	</g>
</g>
<g id="outlines">
	<g>
		<g>
		</g>
	</g>
</g>
<g id="logo">
</g>
</svg>
