<?xml version="1.0" encoding="utf-8"?>
<!-- Generator: Adobe Illustrator 16.0.0, SVG Export Plug-In . SVG Version: 6.00 Build 0)  -->
<!DOCTYPE svg PUBLIC "-//W3C//DTD SVG 1.1//EN" "http://www.w3.org/Graphics/SVG/1.1/DTD/svg11.dtd">
<svg version="1.1" id="Layer_1" xmlns="http://www.w3.org/2000/svg" xmlns:xlink="http://www.w3.org/1999/xlink" x="0px" y="0px"
	 width="1020.488px" height="430.389px" viewBox="0 0 1020.488 430.389" enable-background="new 0 0 1020.488 430.389"
	 xml:space="preserve">
<g id="Layer_1_1_" display="none">
</g>
<g id="color">
	<g>
		<path fill="#ACD9EA" stroke="#111111" stroke-width="2" stroke-miterlimit="10" d="M536.863,87.306
			c0,0,3.473-44.786-29.241-37.229c-25.307,5.846-22.943,32.199-22.943,32.199s0.484-6.394-4.702-5.084
			c-5.188,1.31-3.723,5.891-3.723,5.891S459.858,50.71,431.35,60.701c-36.438,12.771-14.643,47.927-14.643,47.927
			s-2.966-6.979-9.723-2.726c-6.757,4.253-3.035,8.507-3.035,8.507l17.729,42.001l74.778,8.504l46.786-40.605L536.863,87.306z"/>
		<g>
			
				<path fill="#A6D3DD" stroke="#111111" stroke-width="2" stroke-linecap="round" stroke-linejoin="round" stroke-miterlimit="10" d="
				M852.933,373.055c0,0,40.826-33.844,21.914-87.012c-21.27-59.803-81.855-51.027-81.855-51.027s1.289-8.916-2.578-12.139
				s-10.312-0.715-10.312-0.715s4.621-33.09-14.824-43.113c-38.674-19.934-57.365,10.957-57.365,10.957s-7.09-44.189-48.984-44.189
				c-25.189,0-41.25,20.708-41.25,20.708s-10.311-16.363-27.535-21.171l-11.223-32.686c0,0-20.516-25.166-45.225-23.865
				c-40.406,2.126-31.164,37.214-31.164,37.214s-19.358-5.07-33.697,0c-14.34,5.069-19.673,22.385-19.673,22.385
				s-2.659-15.589-22.329-15.379c-3.787,0.04-9.133,3.778-9.133,3.778s-18.67-43.875-53.503-33.17
				c-39.974,12.286-25.751,51.216-25.751,51.216s-26.98-18.015-46.653-2.377c-19.671,15.639-9.278,42.248-9.278,42.248
				s-20.098-0.619-32.097,14.379c-11.999,15,0.72,41.215,0.72,41.215s-7.178-30.828-52.08-17.029
				c-51.527,15.838-32.966,62.959-32.966,62.959s-35.113-20.287-60.369,0c-35.295,28.35-14.651,103.336-14.651,103.336
				S34.427,380.09,7.428,440.086c-31.512,70.025,86.424,184.307,86.424,184.307h491.104h407.928c0,0,65.762-111.43-13.5-208.305
				C925.386,350.092,852.933,373.055,852.933,373.055z"/>
		</g>
		<path fill="#111111" d="M583.669,129.479c0,0-3.189-43.34-48.912-43.335c-41.472,0.005-32.228,39.875-32.228,39.875l4.051,2.763
			c0,0-11.561-41.045,29.771-37.321C575.695,95.004,583.669,129.479,583.669,129.479z"/>
		<path fill="#111111" stroke="#111111" stroke-miterlimit="10" d="M476.084,81.935c0,0-5.767-26.892-32.433-27.156
			c-22.329-0.221-31.561,11.478-35.618,23.924c-5.318,16.302,8.504,28.776,8.504,28.776s-8.137-12.475-4.252-27.139
			c4.409-16.643,16.037-20.973,34.223-19.713C464.691,61.887,476.084,81.935,476.084,81.935z"/>
		<path fill="#111111" stroke="#111111" stroke-miterlimit="10" d="M536.693,73.323c0,0-4.785-28.714-29.772-26.054
			c-24.99,2.66-22.33,26.054-22.33,26.054s2.072-20.479,26.009-20.479C529.783,52.844,536.693,73.323,536.693,73.323z"/>
		<circle fill="#ACD9EA" stroke="#000000" stroke-miterlimit="10" cx="517.755" cy="11.182" r="9.367"/>
		<circle fill="#ACD9EA" stroke="#000000" stroke-miterlimit="10" cx="455.396" cy="28.804" r="13.947"/>
		<g>
			<path fill="#111111" d="M518.205,0.001c-5.732,0.438-10.548,4.566-11.237,10.757c-0.688,5.503,3.438,10.318,8.254,11.005
				c3.439,0.688,6.191,0,8.943-1.375c2.75-1.375,4.312-4.119,5.045-7.108c0.883-3.622-0.23-4.585-0.23-6.649
				c-0.688-2.751-3.439-4.127-6.455-5.83C521.201,0.269,519.742-0.018,518.205,0.001z M517.923,19.348
				c-2.379,0.038-4.514-0.874-6.043-2.382c-1.532-1.508-2.457-3.606-2.417-5.93c0.039-2.324,1.039-4.432,2.624-5.966
				c1.586-1.534,3.752-2.498,6.131-2.525c2.377-0.028,4.514,0.882,6.045,2.376c1.531,1.493,2.457,3.572,2.418,5.888
				c-0.039,2.315-1.039,4.43-2.623,5.978C522.472,18.334,520.302,19.311,517.923,19.348z"/>
		</g>
		<g>
			<path fill="#111111" d="M455.393,14.857c-7.699,0-13.942,6.243-13.942,13.943c0,7.699,6.243,13.942,13.942,13.942
				c7.701,0,13.943-6.243,13.943-13.942C469.336,21.1,463.094,14.857,455.393,14.857z M455.393,41.447
				c-6.104,0-11.053-4.948-11.053-11.051c0-6.105,4.949-11.054,11.053-11.054c6.105,0,11.054,4.948,11.054,11.054
				C466.445,36.499,461.498,41.447,455.393,41.447z"/>
		</g>
		<path d="M529.783,146.443c0,0-16.852-36.457-55.824-24.993c-39.343,11.573-18.608,56.138-18.608,56.138s-9.665-43.704,21.8-50.403
			C511.291,119.915,529.783,146.443,529.783,146.443z"/>
	</g>
</g>
<g id="outlines">
</g>
<g id="logo">
</g>
</svg>
