<?xml version="1.0" encoding="utf-8"?>
<!-- Generator: Adobe Illustrator 16.0.0, SVG Export Plug-In . SVG Version: 6.00 Build 0)  -->
<!DOCTYPE svg PUBLIC "-//W3C//DTD SVG 1.1//EN" "http://www.w3.org/Graphics/SVG/1.1/DTD/svg11.dtd">
<svg version="1.1" xmlns="http://www.w3.org/2000/svg" xmlns:xlink="http://www.w3.org/1999/xlink" x="0px" y="0px"
	 width="864.709px" height="383.674px" viewBox="0 0 864.709 383.674" enable-background="new 0 0 864.709 383.674"
	 xml:space="preserve">
<g id="Layer_1" display="none">
</g>
<g id="Layer_2">
	<path opacity="0.7" d="M161.042,349.515c-2.531,8.287,26.691,33.379,71.609,30.691c44.919-2.689,78.789-14.838,78.43-27.43
		c-0.358-12.594-38.227-25.156-64.969-25.875C219.371,326.185,164.991,336.593,161.042,349.515z"/>
	<path opacity="0.7" d="M553.467,352.782c-2.532,8.287,26.691,33.381,71.609,30.691c44.92-2.689,78.788-14.838,78.43-27.43
		c-0.358-12.594-38.228-25.156-64.969-25.875C611.795,329.452,557.416,339.86,553.467,352.782z"/>
	<g>
		<path fill="#3D3D3D" d="M425.876,111.071c-0.104-53.171-0.371-93.74-0.371-93.74l0,0l0.371-13.319
			c0,0-130.591,16.615-220.004,26.031C116.458,39.458,5.816,59.948,5.816,59.948L7.522,81.64c0.5,13.846,2.432,68.212,3.752,116.921
			c1.319,48.645,5.615,107.719,6.766,122.961c-0.273,0.053-0.422,0.08-0.422,0.08s-1.23,35.201,11.679,39.115
			c12.908,3.912,155.243-33.695,226.286-48.525c71.135-14.852,122.396-23.529,145.705-27.252c0,0.059,0,0.089,0,0.089l23.902-3.837
			C425.19,281.192,425.978,164.242,425.876,111.071z M225.076,287.18c-55.014,7.229-136.223,21.496-178.883,29.198
			c-1.213-14.146-7.247-86.484-7.983-134.002c-0.68-43.896-1.384-90.046-1.604-104.444c42.574-5.737,125.955-11.811,187.723-20.784
			c61.409-8.922,133.908-21.142,173.407-24.717c1.078,15.173,3.396,51.849,3.552,88.783c0.139,32.615,0.09,95.973,0.044,133.619
			C377.112,260.128,291.115,278.503,225.076,287.18z"/>
	</g>
	<path fill="#3D3D3D" d="M183.585,344.653c-2.168,7.094,22.854,28.58,61.314,26.279c38.463-2.303,67.463-12.705,67.156-23.488
		c-0.308-10.781-32.732-21.539-55.631-22.154C233.528,324.675,186.966,333.589,183.585,344.653z"/>
	<path fill="#282828" d="M214.68,321.411l50.966-11.487c0,0-0.768,10.604-2.612,18.286c-1.844,7.684-5.071,14.752-5.071,14.752
		s-28.463,5.869-36.42,0C213.585,337.097,214.68,321.411,214.68,321.411z"/>
	<polygon fill="#4C4C4C" points="225.229,319.298 223.438,344.001 231.991,345.423 235.987,316.839 	"/>
	<path fill="#83909E" d="M36.538,79.568c0,0,149.756-18.588,206.234-25.144c56.477-6.557,154.42-21.838,154.42-21.838
		s4.096,17.015,4.096,99.383c0,82.369-1.639,123.349-1.639,123.349s-91.853,20.524-149.984,29.506
		c-58.133,8.98-203.668,29.915-203.668,29.915s-6.967-64.748-7.377-127.446C38.21,124.594,36.538,79.568,36.538,79.568z"/>
	<g>
		<path fill="#344D5C" d="M47.277,318.317l351.808-62.822c0,0,2.324-80.063,2.271-106.918
			c-0.055-28.312-2.699-113.748-2.699-113.748L36.678,81.172L47.277,318.317z"/>
		<path fill="#344D5C" d="M47.277,318.317l28.539-5.096L65.216,76.075l-28.538,5.097c0,0,0.909,95.686,2.335,127.582
			C40.237,236.144,47.277,318.317,47.277,318.317z"/>
		<polygon fill="#FFFFFF" points="75.816,313.22 80.547,312.374 70.751,93.188 66.019,94.033 		"/>
		<polygon opacity="0.8" fill="#FFFFFF" points="37.572,100.018 399.513,53.399 398.657,34.83 36.716,80.446 		"/>
		<path fill="#E27C3E" d="M53.622,87.506c0.123,2.77-1.895,5.393-4.508,5.86c-2.614,0.467-4.831-1.401-4.956-4.172
			c-0.123-2.769,1.894-5.394,4.507-5.861C51.279,82.867,53.497,84.735,53.622,87.506z"/>
		<path fill="#EFC849" d="M66.724,85.165c0.124,2.77-1.893,5.395-4.506,5.861c-2.615,0.467-4.832-1.4-4.957-4.17
			c-0.123-2.771,1.893-5.395,4.508-5.86C64.382,80.527,66.6,82.395,66.724,85.165z"/>
		<path fill="#1ABC9C" d="M79.826,82.827c0.123,2.77-1.895,5.395-4.507,5.861c-2.613,0.467-4.833-1.403-4.957-4.173
			c-0.124-2.769,1.895-5.392,4.508-5.858C77.483,78.189,79.701,80.056,79.826,82.827z"/>
		<polygon fill="#C9C9C9" points="59.225,110.241 45.604,112.674 45.282,105.473 58.903,103.041 		"/>
		<g>
			<polygon fill="#E27C3E" points="99.313,119.741 76.591,123.799 76.27,116.598 98.991,112.54 			"/>
			<polygon fill="#C9C9C9" points="59.964,126.768 46.343,129.2 46.021,122 59.642,119.567 			"/>
		</g>
		<g>
			<polygon fill="#C9C9C9" points="64.263,222.981 50.644,225.414 50.321,218.213 63.942,215.78 			"/>
			<polygon fill="#E27C3E" points="138.309,210.437 80.891,220.013 80.569,212.811 137.987,203.234 			"/>
		</g>
		<g>
			<polygon fill="#C9C9C9" points="64.98,239.016 51.36,241.448 51.038,234.249 64.659,231.817 			"/>
			<polygon fill="#E27C3E" points="104.331,231.992 81.607,236.047 81.286,228.846 104.009,224.791 			"/>
		</g>
		<g>
			<polygon fill="#C9C9C9" points="67.131,287.124 53.511,289.556 53.188,282.356 66.809,279.925 			"/>
			<polygon fill="#C9C9C9" points="67.848,303.171 54.228,305.601 53.905,298.403 67.526,295.968 			"/>
			<polygon fill="#E27C3E" points="106.481,280.097 83.757,284.153 83.436,276.952 106.159,272.895 			"/>
		</g>
		<g>
			<polygon fill="#C9C9C9" points="65.698,255.051 52.077,257.485 51.755,250.284 65.376,247.852 			"/>
			<polygon fill="#77B3D4" points="140.852,241.633 91.519,250.443 91.196,243.241 140.53,234.432 			"/>
			<polygon fill="#1ABC9C" points="206.363,229.934 149.146,240.152 148.824,232.951 206.042,222.735 			"/>
			<polygon fill="#F39C12" points="265.808,219.38 214.292,228.521 213.971,221.318 265.485,212.179 			"/>
		</g>
		<g>
			<polygon fill="#C9C9C9" points="60.68,142.804 47.06,145.236 46.737,138.035 60.358,135.603 			"/>
			<polygon fill="#77B3D4" points="108.391,134.284 85.669,138.341 85.347,131.14 108.069,127.084 			"/>
			<polygon fill="#7D3D11" points="151.001,126.676 115.376,133.036 115.054,125.835 150.68,119.475 			"/>
		</g>
		<g>
			<polygon fill="#C9C9C9" points="61.396,158.84 47.776,161.271 47.454,154.07 61.075,151.639 			"/>
			<polygon fill="#89C0C7" points="133.835,145.904 86.386,154.376 86.063,147.175 133.513,138.705 			"/>
			<polygon fill="#1ABC9C" points="188.261,136.637 138.47,145.076 138.147,137.875 187.939,129.436 			"/>
		</g>
		<g>
			<polygon fill="#C9C9C9" points="63.547,206.947 49.927,209.377 49.604,202.178 63.226,199.746 			"/>
			<polygon fill="#D0D7D8" points="144.203,192.127 88.536,202.483 88.214,195.281 143.882,184.926 			"/>
			<polygon fill="#E27C3E" points="201.329,181.344 155.188,189.584 154.866,182.383 201.009,174.143 			"/>
			<polygon fill="#89C0C7" points="236.425,175.586 210.507,179.706 210.186,172.505 236.104,168.384 			"/>
		</g>
		<g>
			<polygon fill="#C9C9C9" points="62.83,190.911 49.21,193.342 48.889,186.142 62.509,183.71 			"/>
			<polygon fill="#77B3D4" points="162.212,173.164 87.819,186.449 87.497,179.247 161.889,165.963 			"/>
			<polygon fill="#FADE85" points="244.212,158.522 169.818,171.807 169.497,164.606 243.89,151.321 			"/>
		</g>
		<g>
			<polygon fill="#77B3D4" points="184.847,217.531 110.455,230.816 110.133,223.614 184.524,210.33 			"/>
			<polygon fill="#FADE85" points="266.847,202.889 192.454,216.174 192.133,208.974 266.525,195.688 			"/>
		</g>
		<g>
			<polygon fill="#C9C9C9" points="66.413,271.087 52.794,273.521 52.472,266.321 66.093,263.887 			"/>
			<polygon fill="#E74C3C" points="167.417,253.053 93.024,266.334 92.703,259.136 167.095,245.853 			"/>
			<polygon fill="#89C0C7" points="227.56,242.863 180.683,250.683 180.362,243.484 227.237,235.663 			"/>
		</g>
		<g>
			<polygon fill="#C9C9C9" points="62.114,174.874 48.493,177.304 48.171,170.107 61.792,167.674 			"/>
			<polygon fill="#FFA200" points="122.727,164.05 87.103,170.414 86.78,163.212 122.405,156.85 			"/>
			<polygon fill="#FFD54E" points="206.3,149.129 131.907,162.413 131.586,155.211 205.978,141.926 			"/>
		</g>
		<g>
			<polygon fill="#FFFFFF" points="84.089,97.547 83.04,96.663 77.964,103.261 77.969,103.263 77.964,103.27 83.544,107.965 
				84.499,106.724 79.967,102.907 			"/>
			<polygon fill="#FFFFFF" points="104.067,102.234 90.446,104.667 90.125,97.466 103.745,95.033 			"/>
			<polygon fill="#FFFFFF" points="109.692,92.977 110.647,91.733 116.225,96.429 116.222,96.434 116.226,96.439 111.152,103.035 
				110.103,102.151 114.226,96.791 			"/>
		</g>
		<g>
			<polygon fill="#FFFFFF" points="92.712,290.476 91.663,289.595 86.587,296.19 86.593,296.194 86.588,296.198 92.168,300.894 
				93.122,299.649 88.59,295.837 			"/>
			<polygon fill="#FFFFFF" points="112.492,286.942 113.446,285.7 119.026,290.399 119.021,290.403 119.026,290.407 
				113.952,297.005 112.903,296.12 117.025,290.763 			"/>
			<polygon fill="#FFFFFF" points="99.001,299.183 98.13,298.448 106.614,287.413 107.484,288.147 			"/>
		</g>
	</g>
	<path d="M4.197,58.387c0,0,165.557-26.508,212.272-31.375c46.718-4.867,149.166-18.799,173.344-20.438
		c24.178-1.64,37.701-5.592,37.701-5.592s0.819,92.879,0,136.317s0.364,145.477,0.364,145.477l-4.872-2.869
		c0,0,0.819-107.776,1.229-143.018c0.41-35.242-0.819-130.314-0.819-130.314s-12.293,2.049-33.604,3.688
		c-21.309,1.639-146.27,16.17-171.895,19.969C192.292,34.03,6.655,63.125,6.655,63.125L4.197,58.387z"/>
	<path d="M4.197,58.387c0,0,3.278,77.682,4.507,130.545c1.23,52.864,6.558,153.264,7.787,160.229
		c1.229,6.967,6.146,17.211,17.211,15.572s204.077-48.355,245.057-55.73c40.98-7.378,95.893-20.081,116.383-21.72
		c20.489-1.64,32.737-4.508,32.737-4.508l-4.872-2.869c0,0-33.492,3.446-78.98,12.461c-44.682,8.854-217.301,46.548-257.461,55.974
		c-40.16,9.428-52.453,16.803-59.83,8.197S14.964,233.188,14.032,192.62C12.866,141.877,7.886,61.016,7.886,61.016L4.197,58.387z"/>
	<path d="M34.522,78.286c0,0,160.365-19.733,190.723-24.242c30.355-4.508,175.224-23.813,175.224-23.813s2.459,34.122,2.868,91.903
		c0.41,57.781,0,135.232,0,135.232l-5.327-3.688c0,0,2.049-73.763,1.229-124.167s-3.277-94.571-3.277-94.571
		s-82.188,12.503-167.426,23.447C143.3,69.331,39.03,81.155,39.03,81.155L34.522,78.286z"/>
	<path d="M34.522,78.286c0,0-0.41,79.036,2.869,133.361c3.277,54.326,6.556,107.189,6.556,107.189s147.526-24.179,205.718-32.784
		c58.19-8.606,153.672-28.687,153.672-28.687l-4.507-4.097c0,0-56.962,14.344-154.083,29.096
		c-97.121,14.752-196.701,30.735-196.701,30.735s-5.327-50.406-6.967-108.187S39.03,81.155,39.03,81.155L34.522,78.286z"/>
	<path fill="none" stroke="#000000" stroke-miterlimit="10" d="M49.687,311.049c0,0,161.869-24.997,204.078-31.556
		c42.208-6.557,142.197-27.045,142.197-27.045s1.23-71.305,1.23-118.431s-3.279-97.121-3.279-97.121"/>
	<path d="M263.597,311.049c0,0-2.867,28.688-6.146,30.737c-3.279,2.047-33.421,4.916-38.43-3.279
		c-5.009-8.197-2.982-18.896-2.982-18.896l-2.695,3.574c0,0-1.85,15.205,2.695,19.01c12.727,10.656,43.871,1.795,43.871,1.795
		l8.377-32.94H263.597z"/>
	<path d="M264.868,324.487c0,0,52.303,8,49.953,22.957c-2.459,15.65-47.348,30.246-83.82,26.15
		c-36.471-4.1-52.232-21.566-49.363-29.762s31.338-14.586,31.338-14.586l1.036,2.703c0,0-24.603,5.52-27.866,11.883
		c-3.262,6.365,22.498,25.408,54.482,24.588c31.984-0.818,70.729-14.475,70.096-20.977c-1.23-12.625-47.988-20.209-47.988-20.209
		L264.868,324.487z"/>
	<path d="M242.772,290.971l10.99-2.049c0,0,4.098,14.753,0,15.982c-4.098,1.229-10.375-1.64-10.375-1.64L242.772,290.971z"/>
	<g>
		<g>
			<path fill="#3B4B63" d="M204.103,23.637c0,0,5.825-1.475,14.801-2.054s7.746-0.753,7.746-0.753s0.43,5.26,1.887,13.559
				c1.457,8.298,3.849,20.131,3.849,20.131s-1.925,4.564-10.764,5.663c-8.839,1.098-10.99-5.356-11.144-7.2
				c-0.154-1.844,0.615-7.991-0.308-13.216C209.248,34.542,204.103,23.637,204.103,23.637z"/>
			<path fill="#263142" d="M226.966,28.742c0,0-5.373-2.01-5.527,0c-0.152,2.009,0.615,5.42,0.667,6.763
				c0.051,1.342-0.23,7.284,2.087,6.977c2.318-0.307,4.879-2.868,4.879-2.868L226.966,28.742z"/>
			<g>
				<path fill="#4D6282" d="M226.649,6.525c0.307-3.015,15.308-5.959,22.18-6.479c11.406-0.862,7.913,10.171,11.247,46.844
					c1.209,13.292-20.522,14.775-23.774,12.063C233.05,56.241,224.259,30.042,226.649,6.525z"/>
				<g>
					<path d="M257.733,4.374c-1.229-3.073-2.15-4.61-12.6-4.303c-10.451,0.308-19.979,4.303-19.979,4.303
						c-3.688,5.839,4.918,51.02,9.221,55.629c4.303,4.61,23.666-2.151,26.124-5.532C262.959,51.09,258.964,7.447,257.733,4.374z
						 M258.21,52.337c-2.141,3.155-19.003,9.463-22.75,5.162c-3.747-4.301-11.241-46.454-8.029-51.901c0,0,8.297-3.728,17.396-4.015
						c9.102-0.287,9.904,1.147,10.975,4.015C256.872,8.465,260.352,49.184,258.21,52.337z"/>
				</g>
				<path d="M230.688,10.828c0,0,1.844,15.675,2.458,25.51c0.614,9.835,1.229,19.67,1.229,19.67l1.844,4.175
					c0,0,0.922-10.015-1.229-26.611C232.839,16.975,230.688,10.828,230.688,10.828z"/>
				<path d="M226.649,27.424c0,0-4.414-0.922-5.797,0.154s-0.461,4.79,0,7.928c0.461,3.137,0.123,6.094,1.229,6.979
					c1.537,1.229,3.296,1.229,4.567,0.768c1.272-0.46,1.887-1.608,1.887-1.608v-2.541c0,0-0.769,2.459-3.534,2.612
					c-2.767,0.154-1.383-3.354-1.69-6.21c-0.307-2.856-1.721-5.613-0.769-6.391c1.69-1.383,4.917,1.682,4.917,1.682L226.649,27.424z
					"/>
				<path d="M200.722,30.251c0,0,1.69-6.822,4.148-7.437c2.459-0.615,9.682-1.537,12.756-1.845c3.073-0.307,9.023-0.922,9.023-0.922
					v1.845c0,0-2.877-0.615-9.484,0.307c-6.609,0.922-10.604,1.229-11.834,2.305c-1.229,1.076-2.766,5.747-2.766,5.747H200.722z"/>
				<path d="M204.103,25.149c0,0,3.688,9.651,4.917,15.491c1.229,5.839,0.153,14.906,0.922,16.136
					c0.769,1.229,8.913,5.114,12.141,4.785c3.228-0.329,10.303-5.597,10.303-5.597v-2.416c0,0-5.902,6.399-10.764,6.634
					c-4.861,0.234-10.296-4.021-10.604-5.559c-0.308-1.536,1.075-8.451,0.153-13.983c-0.922-5.533-6.301-17.826-6.301-17.826
					L204.103,25.149z"/>
			</g>
			<g>
				<g>
					<path d="M253.926,15.753c-2.663-2.458-8.218-0.512-10,4.239c-1.634,4.355,0.37,13.502,7.132,12.52
						C257.819,31.531,256.589,18.212,253.926,15.753z"/>
				</g>
			</g>
		</g>
		<path fill="#7B91B2" d="M244.692,20.475c-1.418,3.779,0.322,11.715,6.188,10.863s4.8-12.408,2.488-14.542
			C251.059,14.664,246.239,16.353,244.692,20.475z"/>
		<ellipse cx="249.51" cy="23.836" rx="4.149" ry="6.46"/>
		<ellipse fill="#FFFFFF" cx="250.614" cy="19.855" rx="0.893" ry="1.02"/>
	</g>
	<g>
		<path fill="#3D3D3D" d="M705.77,349.679c2.169,7.094-22.854,28.58-61.314,26.279c-38.462-2.305-67.463-12.705-67.156-23.488
			c0.309-10.781,32.732-21.539,55.63-22.152C655.827,329.702,702.39,338.614,705.77,349.679z"/>
		<path fill="#282828" d="M674.676,326.437l-50.967-11.487c0,0,0.769,10.604,2.612,18.286c1.844,7.684,5.071,14.754,5.071,14.754
			s28.463,5.865,36.421,0C675.771,342.12,674.676,326.437,674.676,326.437z"/>
		<polygon fill="#4C4C4C" points="664.125,324.323 665.916,349.026 657.363,350.448 653.368,321.864 		"/>
		<path d="M625.757,316.072c0,0,2.869,28.688,6.147,30.737c3.279,2.049,33.421,4.918,38.43-3.277
			c5.009-8.197,2.983-18.896,2.983-18.896l2.694,3.572c0,0,1.851,15.207-2.694,19.014c-12.727,10.652-43.872,1.793-43.872,1.793
			l-8.377-32.942H625.757z"/>
		<path d="M624.486,329.513c0,0-52.304,8-49.952,22.957c2.458,15.65,47.348,30.246,83.817,26.148
			c36.475-4.096,52.234-21.566,49.366-29.76c-2.869-8.195-31.339-14.588-31.339-14.588l-1.036,2.705c0,0,24.604,5.52,27.866,11.883
			c3.263,6.365-22.497,25.406-54.482,24.588c-31.983-0.82-70.728-14.477-70.094-20.977c1.229-12.625,47.986-20.209,47.986-20.209
			L624.486,329.513z"/>
		<g>
			<path fill="#3D3D3D" d="M453.247,288.123l23.902,3.837c0,0,0-0.03,0-0.088c23.31,3.722,69.243,9.369,140.378,24.221
				c71.043,14.832,198.931,52.439,211.839,48.527c12.908-3.916,11.679-39.115,11.679-39.115s-0.147-0.029-0.422-0.078
				c1.15-15.246,5.445-74.32,6.765-122.965c1.321-48.709,3.253-103.075,3.753-116.921l1.706-21.692c0,0-96.194-20.49-185.607-29.905
				c-49.906-5.255-112.104-14.152-156.331-18.918c-35.013-3.772-58.347-4.083-58.347-4.083l0.372,13.32l0,0
				c0,0-0.269,40.569-0.372,93.74C452.46,171.174,453.247,288.123,453.247,288.123z M477.106,261.764
				c-0.046-37.647-0.096-101.004,0.043-133.619c0.157-36.935,2.475-73.61,3.553-88.784c39.5,3.576,109.099,7.833,170.509,16.753
				c61.768,8.973,128.271,19.98,170.845,25.717c-0.219,14.397-0.922,60.548-1.603,104.443c-0.736,47.518-6.771,119.856-7.983,134
				c-42.66-7.7-109.421-21.966-164.435-29.195C581.997,282.404,501.326,267.06,477.106,261.764z"/>
		</g>
		<path fill="#282828" d="M862.867,69.178l-10.896-5.112c0,0-2.32,58.283-3.549,96.394c-1.229,38.111-7.594,192.485-11.371,197.624
			c-3.779,5.137-5.141,6.537-5.141,6.537s14.004-1.711,16.399-5.922c2.395-4.213,8.719-142.61,10.562-186.253
			S862.867,69.178,862.867,69.178z"/>
		<path fill="#83909E" d="M822.126,83.469c0,0-135.311-23.41-191.788-29.966c-56.477-6.557-149.092-13.985-149.092-13.985
			s-4.097,17.015-4.097,99.384c0,82.369,1.64,123.349,1.64,123.349s86.525,17.493,144.657,26.475
			c58.132,8.98,189.221,29.915,189.221,29.915s6.966-64.748,7.376-127.446C820.453,128.495,822.126,83.469,822.126,83.469z"/>
		<g>
			<polygon fill="#344D5C" points="477.068,264.065 815.739,319.319 822.126,83.469 480.047,38.148 			"/>
			<polygon fill="#344D5C" points="477.068,265.065 504.542,269.385 504.542,41.367 481.246,39.518 			"/>
			<polygon fill="#FFFFFF" points="504.542,269.383 509.097,270.102 509.097,56.45 504.542,55.733 			"/>
			<path opacity="0.8" fill="#FFFFFF" d="M479.246,54.784l344.147,46.257V82.854c0,0-131.418-20.98-174.437-26.763
				s-168.255-16.73-168.255-16.73L479.246,54.784z"/>
			<path fill="#E27C3E" d="M492.98,45.424c0,2.713-2.039,4.591-4.555,4.195c-2.517-0.396-4.555-2.915-4.555-5.628
				c0-2.713,2.038-4.592,4.555-4.196C490.941,40.19,492.98,42.71,492.98,45.424z"/>
			<path fill="#EFC849" d="M505.594,47.406c0,2.713-2.039,4.592-4.555,4.197c-2.517-0.396-4.555-2.916-4.555-5.629
				c0-2.713,2.038-4.591,4.555-4.195C503.555,42.173,505.594,44.694,505.594,47.406z"/>
			<path fill="#1ABC9C" d="M518.206,49.39c0,2.713-2.039,4.592-4.555,4.197c-2.516-0.396-4.555-2.917-4.555-5.629
				s2.039-4.591,4.555-4.195C516.167,44.157,518.206,46.677,518.206,49.39z"/>
			<polygon fill="#C9C9C9" points="497.361,69.173 484.249,67.111 484.249,60.06 497.361,62.122 			"/>
			<g>
				<polygon fill="#E27C3E" points="535.242,91.314 513.367,87.875 513.367,80.823 535.242,84.262 				"/>
				<polygon fill="#C9C9C9" points="497.361,85.358 484.249,83.296 484.249,76.244 497.361,78.306 				"/>
			</g>
			<g>
				<polygon fill="#C9C9C9" points="497.361,179.579 484.249,177.518 484.249,170.467 497.361,172.527 				"/>
				<polygon fill="#E27C3E" points="535.242,185.537 513.367,182.098 513.367,175.045 535.242,178.484 				"/>
			</g>
			<g>
				<polygon fill="#C9C9C9" points="497.361,195.283 484.249,193.221 484.249,186.17 497.361,188.232 				"/>
				<polygon fill="#E27C3E" points="535.242,201.241 513.367,197.801 513.367,190.748 535.242,194.188 				"/>
			</g>
			<g>
				<polygon fill="#C9C9C9" points="497.361,242.395 484.249,240.334 484.249,233.282 497.361,235.344 				"/>
				<polygon fill="#C9C9C9" points="497.361,258.109 484.249,256.047 484.249,248.996 497.361,251.059 				"/>
				<polygon fill="#E27C3E" points="535.242,248.352 513.367,244.912 513.367,237.859 535.242,241.299 				"/>
			</g>
			<g>
				<polygon fill="#C9C9C9" points="497.361,210.986 484.249,208.926 484.249,201.874 497.361,203.936 				"/>
				<polygon fill="#77B3D4" points="569.71,222.365 522.218,214.896 522.218,207.844 569.71,215.312 				"/>
				<polygon fill="#1ABC9C" points="632.774,232.28 577.693,223.619 577.693,216.566 632.774,225.229 				"/>
				<polygon fill="#F39C12" points="674.605,238.857 640.407,233.481 640.407,226.429 674.605,231.805 				"/>
			</g>
			<g>
				<polygon fill="#C9C9C9" points="497.361,101.062 484.249,99 484.249,91.948 497.361,94.009 				"/>
				<polygon fill="#77B3D4" points="543.29,108.284 521.417,104.844 521.417,97.792 543.29,101.232 				"/>
				<polygon fill="#7D3D11" points="584.31,114.733 550.015,109.34 550.015,102.289 584.31,107.682 				"/>
			</g>
			<g>
				<polygon fill="#C9C9C9" points="497.361,116.765 484.249,114.703 484.249,107.652 497.361,109.714 				"/>
				<polygon fill="#1ABC9C" points="683.345,146.009 649.049,140.616 649.049,133.564 683.345,138.957 				"/>
				<polygon fill="#89C0C7" points="567.095,127.73 521.417,120.548 521.417,113.496 567.095,120.678 				"/>
				<polygon fill="#F39C12" points="643.171,139.692 571.556,128.432 571.556,121.379 643.171,132.64 				"/>
			</g>
			<g>
				<polygon fill="#C9C9C9" points="497.361,163.876 484.249,161.814 484.249,154.763 497.361,156.825 				"/>
				<polygon fill="#D0D7D8" points="593.03,178.919 521.417,167.658 521.417,160.607 593.03,171.867 				"/>
				<polygon fill="#231F20" points="649.049,187.728 604.629,180.742 604.629,173.69 649.049,180.676 				"/>
				<polygon fill="#89C0C7" points="702.304,196.102 657.884,189.117 657.884,182.064 702.304,189.049 				"/>
			</g>
			<g>
				<polygon fill="#C9C9C9" points="497.361,148.172 484.249,146.11 484.249,139.059 497.361,141.121 				"/>
				<polygon fill="#77B3D4" points="593.03,163.216 521.417,151.956 521.417,144.903 593.03,156.164 				"/>
				<polygon fill="#FADE85" points="671.97,175.628 600.354,164.368 600.354,157.316 671.97,168.576 				"/>
			</g>
			<g>
				<polygon fill="#C9C9C9" points="497.361,226.691 484.249,224.629 484.249,217.578 497.361,219.64 				"/>
				<polygon fill="#E74C3C" points="594.592,241.98 522.979,230.719 522.979,223.668 594.592,234.929 				"/>
				<polygon fill="#89C0C7" points="678.978,255.248 607.363,243.987 607.363,236.937 678.978,248.197 				"/>
			</g>
			<g>
				<polygon fill="#C9C9C9" points="497.361,132.468 484.249,130.406 484.249,123.355 497.361,125.417 				"/>
				<polygon fill="#FFA200" points="555.711,141.644 521.417,136.251 521.417,129.2 555.711,134.592 				"/>
				<polygon fill="#FFD54E" points="636.163,154.294 564.549,143.034 564.549,135.981 636.163,147.242 				"/>
			</g>
			<g>
				<polygon fill="#FFFFFF" points="521.649,64.974 520.685,63.781 515.557,68.504 515.561,68.508 515.557,68.513 520.685,74.848 
					521.649,73.959 517.483,68.811 				"/>
				<polygon fill="#FFFFFF" points="540.528,75.96 527.417,73.899 527.417,66.847 540.528,68.909 				"/>
				<polygon fill="#FFFFFF" points="546.297,68.849 547.262,67.959 552.388,74.295 552.385,74.299 552.388,74.304 547.262,79.027 
					546.297,77.835 550.463,73.997 				"/>
			</g>
			<g>
				<polygon fill="#FFFFFF" points="521.649,253.908 520.685,252.717 515.557,257.439 515.561,257.445 515.557,257.448 
					520.685,263.784 521.649,262.895 517.483,257.746 				"/>
				<polygon fill="#FFFFFF" points="540.69,256.902 541.655,256.014 546.783,262.35 546.778,262.354 546.783,262.358 
					541.655,267.081 540.69,265.889 544.857,262.052 				"/>
				<polygon fill="#FFFFFF" points="527.284,264.344 526.482,263.354 535.057,255.454 535.857,256.444 				"/>
			</g>
		</g>
		<path d="M854.466,62.288c0,0-151.109-26.508-197.825-31.375c-46.717-4.866-143.685-18.331-167.861-19.97
			c-24.178-1.639-37.855-3.03-37.855-3.03s-0.82,92.878,0,136.316c0.818,43.438-0.365,145.478-0.365,145.478l4.873-2.869
			c0,0-0.82-107.776-1.23-143.019c-0.41-35.242,0.818-130.314,0.818-130.314s12.603-0.58,33.913,1.06
			c21.31,1.639,140.636,15.769,166.261,19.567c25.624,3.799,196.813,32.894,196.813,32.894L854.466,62.288z"/>
		<path d="M854.466,62.288c0,0-3.277,77.682-4.507,130.545c-1.229,52.864-6.558,153.264-7.787,160.229
			c-1.229,6.967-6.146,17.213-17.212,15.572c-11.064-1.637-189.628-48.354-230.607-55.729
			c-40.98-7.377-90.565-17.051-111.057-18.689c-20.488-1.64-32.737-4.508-32.737-4.508l3.951-5.601c0,0,29.087,3.146,74.575,12.162
			c44.683,8.855,217.3,46.549,257.459,55.977c40.162,9.424,38.009,16.799,45.385,8.193s11.771-123.35,12.702-163.917
			c1.166-50.743,6.146-131.605,6.146-131.605L854.466,62.288z"/>
		<path d="M824.143,82.187c0,0-144.829-24.587-175.186-29.095c-30.356-4.508-170.988-15.93-170.988-15.93
			s-2.459,34.123-2.867,91.903c-0.411,57.781,0,135.232,0,135.232l5.326-3.688c0,0-2.049-73.763-1.229-124.167
			c0.82-50.405,3.279-94.571,3.279-94.571s76.632,4.494,161.869,15.438s175.286,27.746,175.286,27.746L824.143,82.187z"/>
		<path d="M824.143,82.187c0,0,0.407,79.036-2.87,133.361c-3.278,54.325-6.557,107.191-6.557,107.191s-133.078-24.179-191.27-32.784
			c-58.19-8.605-148.345-25.657-148.345-25.657l4.507-4.097c0,0,51.635,11.312,148.757,26.066
			c97.121,14.752,184.302,32.373,184.302,32.373s3.277-52.045,4.917-109.825c1.64-57.781,2.049-123.759,2.049-123.759
			L824.143,82.187z"/>
		<path d="M854.466,62.288l10.243,5.146c0,0-10.654,288.499-15.162,293.004c-4.508,4.508-21.72,8.371-21.72,8.371l6.558-6.734
			c0,0,7.396-0.957,11.884-4.506c4.49-3.551,15.163-287.268,15.163-287.268l-9.425-3.276L854.466,62.288z"/>
		<path fill="none" stroke="#000000" stroke-miterlimit="10" d="M808.006,314.949c0,0-146.45-24.996-188.659-31.553
			c-42.208-6.558-136.872-24.017-136.872-24.017s-1.229-71.305-1.229-118.431c0-47.126,3.278-97.122,3.278-97.122"/>
		<path d="M643.15,297.741l-10.99-2.049c0,0,0,15.982,4.099,17.21c4.099,1.231,6.349-4.312,6.349-4.312L643.15,297.741z"/>
	</g>
	<g>
		<path fill="#FFFFC5" stroke="#000000" stroke-miterlimit="10" d="M311.085,286.771l49.584-11.15c0,0,0.41,13.046,4.508,22.958
			s11.064,21.796,11.064,21.796l-45.076,20.08c0,0-11.885-20.986-14.754-32.416c-2.868-11.433-5.326-20.857-5.326-20.857"/>
		<g opacity="0.7">
			<path fill="none" stroke="#09347A" stroke-linecap="round" stroke-linejoin="round" stroke-miterlimit="10" d="M320.481,291.587
				c-0.779,3.593-1.564,7.454,1.107,10.503c0.415-1.547-0.236-3.24,0.01-4.819c0.116-0.755,0.42-1.479,0.551-2.211
				c-0.881,2.102,0.823,4.615,2.099,6.126c1.384-2.47,0.278-6.768-0.548-9.279"/>
			<path fill="none" stroke="#09347A" stroke-linecap="round" stroke-linejoin="round" stroke-miterlimit="10" d="M326.333,291.456
				c0.27,2.812-0.004,5.69,0.388,8.474c0.815-1.088,0.878-4.626,2.72-4.74c0.193,1.121-0.115,2.235,0.014,3.344
				c0.065,0.57,1.133,2.184,1.324,0.95"/>
			<path fill="none" stroke="#09347A" stroke-linecap="round" stroke-linejoin="round" stroke-miterlimit="10" d="M334.008,294.349
				c-0.077-0.609-1.101-0.052-1.433,0.378c-0.684,0.894-0.496,3.036,0.176,3.859c1.502-0.745,1.337-2.51,1.288-3.899
				c0.089,0.905,0.623,4.586,2.225,2.859c0.879-0.949,0.39-3.894,0.457-5.023c0.13-2.134,0.552-4.453,0.318-6.58"/>
			<path fill="none" stroke="#09347A" stroke-linecap="round" stroke-linejoin="round" stroke-miterlimit="10" d="M336.185,285.609
				c0.383,3.974,0.939,7.734,4.643,9.84c0.307,0.176,1.21,0.806,1.572,0.525c0.332-0.253,0.143-0.739-0.098-0.95"/>
			<path fill="none" stroke="#09347A" stroke-linecap="round" stroke-linejoin="round" stroke-miterlimit="10" d="M333.132,291.551
				c1.631,0.151,3.325-0.038,4.947-0.165c0.988-0.078,2.662-0.034,3.657-0.501c0.335-0.157,0.687-0.442,0.958-0.526"/>
		</g>
		<g opacity="0.7">
			<path fill="none" stroke="#09347A" stroke-linecap="round" stroke-linejoin="round" stroke-miterlimit="10" d="M337.362,299.49
				c-0.354,1.358-0.582,2.609-0.088,3.996c0.424,1.19,1.116,1.882,1.842,0.58c0.747-1.341-0.076-3.104,0.382-4.449
				c-0.453,1.171-0.712,4.768,1.312,3.909c1.535-0.65,1.209-3.029,0.65-4.24"/>
			<path fill="none" stroke="#09347A" stroke-linecap="round" stroke-linejoin="round" stroke-miterlimit="10" d="M344.534,298.365
				c-0.533,0.521-1.889,2.862-0.721,3.458c0.987,0.504,2.062-1.928,1.957-2.746c-0.237-1.812-2.096-1.074-1.525-0.099
				c0.883,1.512,2.312-1.094,2.604-1.712c-0.336,0.635-0.874,3.646,0.349,3.535c1.201-0.109,0.923-2.826,0.923-3.533
				c0,1.302-0.357,4.778,2.03,3.335c1.544-0.935,1.005-4.93,0.925-6.526c-2.519-0.292-1.557,8.201,0.43,8.778
				c1.385,0.402,2.422-4.757,3.965-5.525c-1.42,0.074-1.246,2.82-0.161,2.446c2.195-0.757,0.793-5.023,0.781-6.539
				c-0.83,2.02-0.399,5.04,1.488,6.364c0.901,0.633,2.778,1.328,2.835-0.418"/>
		</g>
		<g opacity="0.7">
			<path fill="none" stroke="#09347A" stroke-linecap="round" stroke-linejoin="round" stroke-miterlimit="10" d="M325.896,311.67
				c-0.302-0.809-1.858-0.824-2.355-0.302c-1.319,1.39,0.108,4.674,1.229,5.732c2.454,2.316,4.306-1.677,3.262-3.883
				c-1.185,0.146-2.72,0.187-2.751,1.731c-0.012,0.594,0.248,1.424,0.821,0.613"/>
			<path fill="none" stroke="#09347A" stroke-linecap="round" stroke-linejoin="round" stroke-miterlimit="10" d="M331.941,312.592
				c-1.198,0.39-3.278,2.308-1.614,3.567c1.516,1.145,1.599-2.732,1.492-3.752c-0.447,0.836-0.838,2.645,0.152,3.244
				c0.305-0.279,0.877-0.462,1.075-0.822c0.338-0.614-0.082-1.567,0.301-2.143c1.048-1.574,1.021,2.231,0.944,3.043
				c0.189-0.85-0.463-4.148,1.016-4.146c0.14,0.913,0.09,3.054,1.134,2.649c1.485-0.574,1.04-2.816,2.941-3.159
				c-0.661,0.231-1.186,0.266-1.399,1.026c-0.203,0.725,0.33,1.815,1.127,1.826c2.224,0.028,0.674-5.57,0.516-6.74
				c-0.033,1.032,0.201,5.476,1.733,5.598c1.263,0.099,1.598-2.94,2.588-3.634c-1.21,0.342-2.244,2.665-0.922,3.549
				c1.429,0.954,1.032-3.332,1.005-4.284c-0.03,0.909,0.133,2.767,1.426,2.854c2.062,0.14,2.482-5.034,2.271-6.135
				c-0.551-2.866-1.869,0.876-1.885,2.099c-0.023,1.647,0.168,3.43,1.162,4.813c0.544-1.438,1.155-2.758,1.922-4.169
				c0.285-0.524,1.27-1.679,1.05-2.333c-0.311-0.925-0.991,0.184-1.648-0.189c-0.618,2.715-0.106,5.753-0.017,8.51
				c0.035,1.047,0.445,4.374-0.081,5.079"/>
			<path fill="none" stroke="#09347A" stroke-linecap="round" stroke-linejoin="round" stroke-miterlimit="10" d="M346.079,313.623
				c1.172-0.738,2.424-1.549,3.629-2.305c0.85-0.534,2.882-1.644,3.346-2.644c0.35-0.748-0.172-0.988-0.929-1.519
				c-0.915,0.512-1.648,1.468-1.524,2.567c0.787-0.253,1.374-1.247,1.625-2.012c0.434,0.995,1.314,1.461,2.455,1.284
				c0.022-1.288,0.047-2.343,1.134-3.237c0.604,1.035,0.976,2.195,1.333,3.328c-0.277-1.125-1.101-2.05-1.654-3.04
				c0.542-0.068,1.342,0.013,1.822-0.28c0.463-0.282,0.69-1.051,1.057-1.467"/>
		</g>
		<path opacity="0.7" fill="none" stroke="#09347A" stroke-linecap="round" stroke-linejoin="round" stroke-miterlimit="10" d="
			M355.218,320.142c-0.84-2.4-4.701,2.449-2.358,2.664c1.438,0.135,1.357-2.717,1.341-3.496c-0.043-2.037-0.283-4.183-0.438-6.218
			c-0.359,0.979-0.619,9.388,2.134,8.108c0.823-0.383,0.367-3.576,1.933-2.805c-0.879,0.324-2.74,2.695-0.76,2.938
			c1.416,0.174,1.421-3.346,1.102-4.251c-1.832,0.325,0.821,2.257,1.35,0.601"/>
		<path opacity="0.7" fill="none" stroke="#09347A" stroke-linecap="round" stroke-linejoin="round" stroke-miterlimit="10" d="
			M361.364,314.61c-0.152-1.7,1.923-2.127,3.268-1.62c-0.078,0.75-1.78,2.745-1.199,3.457c0.389,0.478,0.937-0.113,1.107-0.506"/>
		<path opacity="0.7" fill="none" stroke="#09347A" stroke-linecap="round" stroke-linejoin="round" stroke-miterlimit="10" d="
			M364.335,318.399c0.039,0.102,0.11,0.178,0.205,0.205"/>
	</g>
	<polygon fill="#77B3D4" points="169.601,205.036 146.879,209.093 148.374,201.892 171.097,197.836 	"/>
	<polygon fill="#7D3D11" points="214.028,197.428 178.403,203.788 176.263,196.587 211.89,190.227 	"/>
</g>
<g id="Layer_3">
</g>
<g id="Layer_4">
</g>
</svg>
