<?xml version="1.0" encoding="utf-8"?>
<!-- Generator: Adobe Illustrator 16.0.0, SVG Export Plug-In . SVG Version: 6.00 Build 0)  -->
<!DOCTYPE svg PUBLIC "-//W3C//DTD SVG 1.1//EN" "http://www.w3.org/Graphics/SVG/1.1/DTD/svg11.dtd">
<svg version="1.1" xmlns="http://www.w3.org/2000/svg" xmlns:xlink="http://www.w3.org/1999/xlink" x="0px" y="0px"
	 width="339.382px" height="346.121px" viewBox="0 0 339.382 346.121" enable-background="new 0 0 339.382 346.121"
	 xml:space="preserve">
<g id="Layer_1" display="none">
</g>
<g id="Layer_2">
</g>
<g id="Layer_3">
	<path opacity="0.7" d="M259.394,164.868c-13.412,0-52.403,10.869-52.403,14.794c0,4.717,16.639,14.003,49.166,14.003
		c34.032,0,50.174-13.822,50.174-18.43S270.777,164.868,259.394,164.868z"/>
	<path fill="#1C1C1C" d="M234.443,87.151l2.238,91.006c0,0,11.272,6.001,34.808,6.731c19.868,0.617,30.937-4.734,30.937-4.734
		l10.499-89.296c0,0-7.387-13.775-36.715-13.775C234.443,77.083,234.443,87.151,234.443,87.151z"/>
	<g>
		<g id="XMLID_2_">
			<g>
				<path d="M234.632,213.155c29.456,8.606,60.584,16.597,59.773,24.588c-0.812,7.991-49.987,55.322-72.73,72.534
					c-22.744,17.211-33.809,31.964-52.249,33.193s-66.387-8.606-100.195-20.285c-33.808-11.679-67.616-22.129-65.157-33.193
					s39.341-43.644,60.854-60.854c21.515-17.211,40.729-35.898,55.938-36.267C136.822,192.478,205.164,204.55,234.632,213.155z
					 M288.762,239.944c0.787-7.438-29.173-17.335-57.522-25.351c-28.35-8.003-94.122-19.239-109.465-18.871
					c-14.642,0.345-35.591,20.187-56.293,36.206c-20.703,16.019-53.736,46.335-56.097,56.638
					c-2.373,10.302,30.156,20.026,62.698,30.895c32.529,10.867,78.668,20.026,96.421,18.883
					c17.739-1.155,28.386-14.875,50.27-30.895C240.669,291.431,287.987,247.382,288.762,239.944z"/>
				<path fill="#CCCCCC" d="M231.239,214.594c28.35,8.016,58.31,17.912,57.522,25.351c-0.774,7.438-48.093,51.486-69.988,67.505
					c-21.884,16.02-32.53,29.739-50.27,30.895c-17.753,1.144-63.892-8.016-96.421-18.883
					c-32.542-10.868-65.071-20.593-62.698-30.895c2.36-10.303,35.394-40.619,56.097-56.638
					c20.702-16.02,41.651-35.861,56.293-36.206C137.117,195.354,202.89,206.591,231.239,214.594z"/>
			</g>
		</g>
	</g>
	<path opacity="0.7" d="M173.846,238.526c-5.077,15.736-35.049,51.081-48.105,51.339c-15.675,0.295-34.115-8.826-35.491-16.093
		c-1.391-7.265-2.164-18.33,4.143-23.714c6.307-5.386,18.44-9.836,26.124-19.818c7.684-9.995,14.149-15.551,20.433-15.688
		c3.871-0.073,19.056-0.454,25.202,5.692C172.298,226.393,176.429,230.486,173.846,238.526z"/>
	<g>
		<path d="M276.21,77.083c13.947-0.025,34.586,7.543,34.588,12.496c0,0.336-0.075,0.659-0.195,0.977
			c1.387-0.773,2.422-1.469,3.728-1.777c-2.408-5.808-23.408-13.726-37.878-13.697c-14.035,0.026-31.322,2.903-39.142,7.211
			c0.226,0.73,0.631,1.576,1.11,2.347C243.744,80.201,261.853,77.107,276.21,77.083z"/>
		<path fill="#FFFFFF" stroke="#000000" stroke-miterlimit="10" d="M237.511,33.435l2.814-19.516l6.515,17.519
			c0,0-2.521,5.07-4.664,4.917S237.511,33.435,237.511,33.435z"/>
		<path fill="none" stroke="#000000" stroke-miterlimit="10" d="M210.834,93.061"/>
		<polygon fill="#A8A8A8" stroke="#000000" stroke-miterlimit="10" points="280.931,67.09 290.435,65.86 298.582,72.469 
			268.935,141.859 		"/>
		<circle fill="#8E8E8E" stroke="#000000" stroke-miterlimit="10" cx="288.254" cy="73.856" r="3.227"/>
		<g>
			<path fill="#A2C94F" stroke="#000000" stroke-miterlimit="10" d="M298.582,3.583c-7.216-2.344-19.67,0.348-26.743,8.492
				c-7.075,8.145,9.992,39.955,10.664,44.41c0.671,4.458-1.572,10.604-1.572,10.604l9.504-1.229
				C290.435,65.86,312.302,8.039,298.582,3.583z M286.721,45.114c-6.272-3.842-11.343-23.973-10.269-29.197
				c0.809-3.925,16.667-10.449,18.63-7.223C297.046,11.922,292.995,48.957,286.721,45.114z"/>
		</g>
		<g>
			<path fill="#A2C94F" stroke="#000000" stroke-miterlimit="10" d="M291.357,66.813l7.019,6.526c0,0,1.748-6.305,4.883-9.543
				c3.136-3.235,35.512-19.206,34.488-29.945s-9.595-20.166-16.829-22.452C307.163,7.054,291.357,66.813,291.357,66.813z
				 M320.796,17.593c3.473-1.486,12.587,13.039,10.964,16.704c-2.163,4.877-17.987,18.312-25.324,17.794
				C299.097,51.572,317.323,19.077,320.796,17.593z"/>
		</g>
		<path fill="#C63812" stroke="#000000" stroke-miterlimit="10" d="M237.511,33.435l9.296,138.137h6.902L246.84,31.438
			c0,0-2.995,1.844-4.978,2.151C239.879,33.896,237.511,33.435,237.511,33.435z"/>
		<path fill="#383838" stroke="#000000" stroke-miterlimit="10" d="M281.385,107.161l-1.236,36.479c0,0-9.063-0.597-11.981-1.853
			c-2.252-0.969-8.702-7.046-8.702-7.046l-2.104-46.02L281.385,107.161z"/>
		<path fill="#3C79B5" stroke="#000000" stroke-miterlimit="10" d="M258.642,86.877c2.775-0.826,13.031,1.691,17.055,6.608
			c4.024,4.917,7.693,12.293,5.244,13.369s-15.23-3.525-19.212-9.216c-2.771-3.959-4.681-7.173-4.543-9.07
			C257.247,87.737,257.698,87.158,258.642,86.877z"/>
		<path fill="none" stroke="#000000" stroke-miterlimit="10" d="M280.852,118.353c-2.383,0.996-14.727-3.5-18.531-8.945
			c-2.646-3.789-4.467-6.86-4.315-8.663"/>
		<path fill="#165B99" stroke="#000000" stroke-miterlimit="10" d="M295.082,89.137c0,0-26.845,65.499-21.719,67.083
			c5.125,1.585,6.053,2.152,7.567,0c1.516-2.15,25.366-64.081,25.366-64.081L295.082,89.137z"/>
		<path fill="#1A67BA" stroke="#000000" stroke-miterlimit="10" d="M293.544,90.858c0,0,13.644-34.833,18.715-43.899
			s10.142-15.675,11.525-14.753c1.383,0.922,5.84,8.297-0.461,26.277s-17.071,37.088-17.071,37.088s-3.392-0.782-6.837-2.107
			S293.544,90.858,293.544,90.858z"/>
		<g>
			<path d="M310.603,90.556c-2.123,5.57-22.189,8.162-33.275,8.655c-11.716,0.521-40.46-3.905-40.444-11.975
				c0.001-0.905,0.55-1.773,1.538-2.598c-0.479-0.771-0.885-1.616-1.11-2.347c-2.63,1.447-4.191,3.058-4.193,4.775
				c-0.016,9.528,31.656,14.752,44.565,14.138c12.908-0.614,36.884-3.995,36.881-11.371c0-0.343-0.085-0.696-0.233-1.056
				C313.024,89.087,311.989,89.782,310.603,90.556z"/>
		</g>
		<g>
			<path d="M302.783,171.843c0.046,1.002-0.16,2.021-0.104,3.024c0.464,0.566,0.232,0.859,0.232,1.378
				c0.003,5.615-19.546,8.188-30.072,8.655s-36.353-3.509-36.339-10.76c0.001-0.529,0.221-1.045,0.612-1.545
				c0-1.006,0-2.012,0-3.017c-2.497,1.333-3.994,2.818-3.996,4.409c-0.015,8.562,28.442,13.256,40.042,12.703
				c11.599-0.552,33.139-3.59,33.138-10.217C306.296,174.989,305.435,173.526,302.783,171.843z"/>
		</g>
		<polygon points="234.443,89.137 236.501,175.37 237.511,177.788 235.977,91.269 		"/>
		<polygon points="312.925,90.858 303.447,177.018 301.707,179.374 310.798,92.907 		"/>
		<path fill="none" stroke="#000000" stroke-miterlimit="10" d="M306.297,95.571c0,0-15.911,18.235-34.761,32.987
			c-18.851,14.753-34.854,24.357-34.854,24.357"/>
		<path fill="none" stroke="#000000" stroke-miterlimit="10" d="M310.798,95.571c0,0-17.02,19.306-36.968,35.682
			c-19.949,16.377-37.148,27.119-37.148,27.119"/>
		<path fill="none" stroke="#000000" stroke-miterlimit="10" d="M310.798,100.084c0,0-17.78,20.468-36.63,35.222
			c-18.85,14.752-37.486,28.291-37.486,28.291"/>
		<path fill="none" stroke="#000000" stroke-miterlimit="10" d="M310.047,106.021c0,0-13.636,15.603-33.584,31.978
			c-19.949,16.376-39.58,30.515-39.58,30.515"/>
		<path fill="none" stroke="#000000" stroke-miterlimit="10" d="M282.503,100.084c0,0-2.447,2.5-11.444,9.624
			c-18.766,14.859-34.653,23.973-34.653,23.973"/>
		<path fill="none" stroke="#000000" stroke-miterlimit="10" d="M288.255,99.252c0,0-0.682,1.116-14.902,13.149
			c-19.701,16.672-36.671,26.61-36.671,26.61"/>
		<path fill="none" stroke="#000000" stroke-miterlimit="10" d="M295.082,98.214c0,0-2.54,4.717-21.39,19.469
			c-18.851,14.754-37.011,26.653-37.011,26.653"/>
		<path fill="none" stroke="#000000" stroke-miterlimit="10" d="M263.698,98.854c0,0-9.705,8.19-12.939,10.51
			c-3.589,2.572-14.782,9.768-14.782,9.768"/>
		<path fill="none" stroke="#000000" stroke-miterlimit="10" d="M269.455,100.084c0,0-4.221,3.793-8.49,7.006
			c-7.016,5.751-24.988,17.154-24.988,17.154"/>
		<path fill="none" stroke="#000000" stroke-miterlimit="10" d="M275.626,100.496c0,0,0.173,0.189-1.934,1.934
			c-19.331,15.998-37.716,27.436-37.716,27.436"/>
		<path fill="none" stroke="#000000" stroke-miterlimit="10" d="M301.037,96.805c0,0-5.103,7.196-25.051,23.572
			c-19.949,16.376-39.581,29.286-39.581,29.286"/>
		<path fill="none" stroke="#000000" stroke-miterlimit="10" d="M310.047,111.736c0,0-19.661,20.292-38.511,35.045
			c-18.851,14.753-34.653,25.202-34.653,25.202"/>
		<path fill="none" stroke="#000000" stroke-miterlimit="10" d="M309.567,116.252c0,0-15.789,16.848-35.737,33.224
			c-19.949,16.375-36.672,26.609-36.672,26.609"/>
		<path fill="none" stroke="#000000" stroke-miterlimit="10" d="M308.69,121.936c0,0-15.673,16.839-34.522,31.592
			s-35.78,25.423-35.78,25.423"/>
		<path fill="none" stroke="#000000" stroke-miterlimit="10" d="M308.106,127.479c0,0-11.695,12.366-31.644,28.742
			c-19.949,16.376-34.663,24.367-34.663,24.367"/>
		<path fill="none" stroke="#000000" stroke-miterlimit="10" d="M307.316,134.184c0,0-16.028,17.039-35.421,31.07
			c-19.393,14.033-25.089,16.619-25.089,16.619"/>
		<path fill="none" stroke="#000000" stroke-miterlimit="10" d="M306.839,139.012c0,0-12.201,13.408-32.752,29.021
			c-20.551,15.612-22.156,15.636-22.156,15.636"/>
		<path fill="none" stroke="#000000" stroke-miterlimit="10" d="M306.225,144.145c0,0-12.56,13.919-31.951,27.95
			c-19.394,14.033-17.667,12.532-17.667,12.532"/>
		<path fill="none" stroke="#000000" stroke-miterlimit="10" d="M305.433,149.663c0,0-8.375,9.653-28.969,25.21
			c-11.643,8.796-14.053,10.412-14.053,10.412"/>
		<path fill="none" stroke="#000000" stroke-miterlimit="10" d="M304.774,155.742c0,0-14.173,13.689-33.565,27.723l-3.697,2.653"/>
		<path fill="none" stroke="#000000" stroke-miterlimit="10" d="M304.076,160.332c0,0-10.125,10.298-30.675,25.911l0,0"/>
		<path fill="none" stroke="#000000" stroke-miterlimit="10" d="M303.658,166.598c0,0-1.712,2.438-22.263,18.051l-1.771,1.595"/>
		<path fill="none" stroke="#000000" stroke-miterlimit="10" d="M257.796,98.214c0,0-1.229,3.041-22.249,16.574l0,0"/>
		<path fill="none" stroke="#000000" stroke-miterlimit="10" d="M303.374,171.571c0,0-3.469,3.135-13.551,10.979l-1.698,1.119"/>
		<path fill="none" stroke="#000000" stroke-miterlimit="10" d="M253.068,97.517c0,0-4.891,3.738-15.823,10.268l-1.698,1.119"/>
		<path fill="none" stroke="#000000" stroke-miterlimit="10" d="M248.178,96.259c0,0,0,0-10.933,6.53l-1.698,1.119"/>
		<path fill="none" stroke="#000000" stroke-miterlimit="10" d="M242.646,94.29c0,0-1.63,0.476-5.4,3.986l-1.698,1.119"/>
		<g>
			<path fill="none" stroke="#000000" stroke-miterlimit="10" d="M240.73,94.192c0,0,14.217,18.866,31.479,34.496
				c17.262,15.631,32.952,26.61,32.952,26.61"/>
			<path fill="none" stroke="#000000" stroke-miterlimit="10" d="M235.191,91.772c0,0,16.419,22.126,34.642,39.417
				c18.221,17.29,34.771,29.143,34.771,29.143"/>
			<path fill="none" stroke="#000000" stroke-miterlimit="10" d="M236.888,99.546c0,0,15.107,19.968,32.369,35.598
				c17.263,15.629,34.819,30.527,34.819,30.527"/>
			<path fill="none" stroke="#000000" stroke-miterlimit="10" d="M235.547,103.21c0,0,13.11,17.145,31.334,34.434
				c18.223,17.291,36.274,32.367,36.274,32.367"/>
			<path fill="none" stroke="#000000" stroke-miterlimit="10" d="M263.389,100.084c0,0,2.205,2.604,10.438,10.144
				c17.177,15.729,33.054,26.885,33.054,26.885"/>
			<path fill="none" stroke="#000000" stroke-miterlimit="10" d="M257.895,98.914c0,0,0.59,1.135,13.557,13.814
				c17.966,17.563,33.711,28.357,33.711,28.357"/>
			<path fill="none" stroke="#000000" stroke-miterlimit="10" d="M251.378,97.475c0,0,2.159,4.784,19.423,20.411
				c17.262,15.632,34.033,28.421,34.033,28.421"/>
			<path fill="none" stroke="#000000" stroke-miterlimit="10" d="M281.59,100.036c0,0,8.851,8.63,11.825,11.104
				c3.302,2.744,14.989,11.101,14.989,11.101"/>
			<path fill="none" stroke="#000000" stroke-miterlimit="10" d="M275.965,100.886c0,0,3.834,3.979,7.754,7.395
				c6.408,6.072,24.026,19.199,24.026,19.199"/>
			<path fill="none" stroke="#000000" stroke-miterlimit="10" d="M269.992,100.911c0,0-0.18,0.176,1.745,2.017
				c17.648,16.881,36.008,29.627,36.008,29.627"/>
			<path fill="none" stroke="#000000" stroke-miterlimit="10" d="M245.724,95.727c0,0,4.478,7.373,22.699,24.662
				c18.222,17.29,36.886,31.744,36.886,31.744"/>
			<path fill="none" stroke="#000000" stroke-miterlimit="10" d="M235.547,108.903c0,0,18.281,22.028,35.544,37.658
				c17.263,15.629,31.852,26.854,31.852,26.854"/>
			<path fill="none" stroke="#000000" stroke-miterlimit="10" d="M236.308,114.277c0,0,14.184,17.494,32.407,34.783
				c18.22,17.293,33.711,28.358,33.711,28.358"/>
			<path fill="none" stroke="#000000" stroke-miterlimit="10" d="M235.977,119.132c0,0,14.899,18.254,32.162,33.884
				c17.262,15.63,32.925,27.139,32.925,27.139"/>
			<path fill="none" stroke="#000000" stroke-miterlimit="10" d="M235.977,124.244c0,0,11.562,13.983,29.784,31.272
				c18.223,17.29,31.913,26.034,31.913,26.034"/>
			<path fill="none" stroke="#000000" stroke-miterlimit="10" d="M235.977,129.865c0,0,15.801,19.837,33.631,34.792
				c17.832,14.958,23.903,18.226,23.903,18.226"/>
			<path fill="none" stroke="#000000" stroke-miterlimit="10" d="M236.122,134.706c0,0,12.353,15.965,31.203,32.542
				c18.849,16.58,20.396,16.699,20.396,16.699"/>
			<path fill="none" stroke="#000000" stroke-miterlimit="10" d="M236.308,140.161c0,0,12.759,16.104,30.588,31.06
				c17.83,14.958,16.258,13.379,16.258,13.379"/>
			<path fill="none" stroke="#000000" stroke-miterlimit="10" d="M236.308,144.336c0,0,9.413,12.95,28.305,29.475
				c10.682,9.345,13.494,11.581,13.494,11.581"/>
			<path fill="none" stroke="#000000" stroke-miterlimit="10" d="M236.476,151.072c0,0,14.846,16.531,32.676,31.49l3.402,2.829"/>
			<line fill="none" stroke="#000000" stroke-miterlimit="10" x1="236.682" y1="155.299" x2="266.866" y2="185.151"/>
			<path fill="none" stroke="#000000" stroke-miterlimit="10" d="M236.682,161.34c0,0,5.339,6.851,24.187,23.429l0,0"/>
			<path fill="none" stroke="#000000" stroke-miterlimit="10" d="M287.317,99.771c0,0,1,3.058,20.428,17.625l0,0"/>
			<path fill="none" stroke="#000000" stroke-miterlimit="10" d="M236.682,166.346c0,0,5.348,5.856,14.585,14.173l2.98,3.429"/>
			<path fill="none" stroke="#000000" stroke-miterlimit="10" d="M291.919,99.378c0,0,4.484,3.966,14.621,11.044l1.565,1.202"/>
			<path fill="none" stroke="#000000" stroke-miterlimit="10" d="M296.709,98.443c0,0,0,0,10.137,7.079l2.418,1.968"/>
			<path fill="none" stroke="#000000" stroke-miterlimit="10" d="M302.163,96.854c0,0,1.54,0.566,4.96,4.245l1.567,1.2"/>
		</g>
	</g>
	<path fill="none" stroke="#000000" stroke-miterlimit="10" d="M294.413,242.054c0,0-12.734,18.314-45.209,47.947
		c-35.71,32.586-64.032,54.977-75.672,55.938c-22.334,1.844-76.453-10.674-105.895-20.698c-66.796-22.744-63.682-29.4-63.682-29.4"
		/>
	<g>
		<g id="XMLID_1_">
			<g>
				<path d="M183.772,225.449c0.406,4.918-0.578,16.806-17.297,35.247c-16.72,18.44-30.649,27.034-38.025,25.398
					c-7.376-1.635-29.714-4.855-33.193-17.875c-2.065-7.708-2.594-20.899,10.094-28.484c19.03-11.385,18.588-15.516,25.141-22.485
					c6.564-6.959,14.101-10.646,18.699-10.646c7.572-0.013,21.059,3.27,23.518,5.323
					C175.167,213.979,183.354,220.532,183.772,225.449z M180.957,232.974c2.582-8.04-1.549-12.135-7.695-18.281
					c-6.147-6.146-21.33-5.766-25.203-5.692c-6.282,0.136-12.748,5.692-20.432,15.688c-7.684,9.982-19.818,14.433-26.125,19.817
					s-5.532,16.449-4.143,23.715c1.377,7.266,19.817,16.388,35.492,16.093C145.907,284.055,175.88,248.709,180.957,232.974z"/>
				<path fill="#F7F7F7" d="M173.262,214.692c6.146,6.146,10.277,10.241,7.695,18.281c-5.077,15.735-35.05,51.081-48.105,51.339
					c-15.675,0.295-34.115-8.827-35.492-16.093c-1.39-7.266-2.164-18.33,4.143-23.715s18.441-9.835,26.125-19.817
					c7.684-9.995,14.149-15.552,20.432-15.688C151.932,208.927,167.114,208.546,173.262,214.692z"/>
			</g>
		</g>
	</g>
	<path fill="none" stroke="#000000" stroke-miterlimit="10" d="M131.784,218.08c0,0,22.283,0.77,28.43,7.992
		s9.268,16.316,9.268,16.316"/>
	<path fill="none" stroke="#000000" stroke-miterlimit="10" d="M168.883,210.606c0,0-4.354,0.566-9.958,4.198
		c-4.609,2.987-6.464,6.72-6.464,6.72"/>
	<path fill="none" stroke="#000000" stroke-miterlimit="10" d="M95.671,259.265c0,0,2.613,8.96,19.978,16.444
		c7.385,3.182,18.901,3.994,24.435,0c5.532-3.996,18.748-20.093,25.97-29.256c7.223-9.163,14.813-14.337,15.607-19.42
		c0.793-5.085,0-4.649,0-4.649"/>
</g>
<g id="Layer_4">
</g>
</svg>
